<svg width="26" height="24" viewBox="0 0 26 24" fill="none" xmlns="http://www.w3.org/2000/svg">
    <path d="M8 1.00014C10.4 1.80014 12.3333 6.33347 13 8.50014L16 5.5C17.5 4 22 4 24 5.5C26 7 24.5 9 24 11.5C23.6 13.5 19.1667 16.3333 17 17.5L10 23C9.33333 22.1667 7.8 20.3 7 19.5C6.2 18.7 3 12.1667 1.5 9V3.00014C2.66667 2.00014 5.6 0.200141 8 1.00014Z"
          fill="#fff"/>
    <path d="M22.5425 14.4295C18.6621 17.6197 14.3075 19.8736 11.2464 23.6879C11.0308 23.9307 10.6859 23.9653 10.341 23.8613C10.1254 24.0347 9.73737 24.0693 9.43557 23.8266C5.90015 20.6018 3.7875 16.8568 2.27848 12.8691C1.07126 9.67893 -1.42939 4.7203 1.07127 1.70351C2.70963 -0.307677 6.02947 -0.4117 8.65948 0.732599C11.5913 2.0156 12.7123 4.37354 13.2728 6.76616C14.4369 5.03237 16.1615 3.54134 18.8777 3.22925C22.0251 2.8825 24.7844 4.5816 25.6899 6.90487C26.7677 9.74828 24.8707 12.4877 22.5425 14.4295ZM23.6635 6.69683C22.3269 4.54693 19.0502 4.09614 16.8082 5.41382C15.0405 6.41942 14.2644 8.04917 13.5746 9.60957C13.3159 10.2337 11.9793 10.0604 11.8931 9.40153C11.5051 6.62747 11.0308 2.91717 7.15046 1.66885C5.72766 1.04468 4.6498 1.35677 3.7875 2.53574C2.01979 3.05588 1.37308 3.99212 1.89046 5.41382C1.97669 6.66215 2.40784 7.91048 2.75276 9.12413C4.17555 13.9787 6.24505 18.6253 9.90982 22.7863C12.6261 19.1801 16.4202 16.9955 20.2574 14.1868C22.7581 12.3836 25.4312 9.54023 23.6635 6.69683Z"
          fill="#1F1F1F"/>
</svg>
