<svg width="65" height="15" viewBox="0 0 65 15" fill="none" xmlns="http://www.w3.org/2000/svg">
<path d="M0.0117645 12.5237C0.464851 9.05566 1.08783 5.30798 3.69305 2.679C5.90182 0.441571 9.24331 -0.733093 12.3016 0.497493C15.7564 1.89589 17.1722 5.36392 18.9846 8.27257C20.0606 10.0066 22.0995 12.4677 24.5348 11.9643C26.1772 11.5728 26.8568 9.89469 27.3666 8.4963C28.2727 6.20293 28.8391 3.62989 30.7647 1.89589C32.9168 -0.00592828 35.9751 0.217828 38.2405 1.83996C41.2988 3.96552 42.1483 7.60133 44.6969 10.1744C46.5092 11.9643 48.718 11.7965 50.4737 9.95065C51.8896 8.38445 52.286 6.31482 53.3621 4.52487C55.1178 1.61621 58.6292 0.944979 61.5742 2.73492C65.029 4.91642 65.4254 9.27939 64.6891 12.8593C64.406 14.3136 61.9706 13.978 62.0273 12.5237C62.0273 10.8456 62.1972 9.05567 61.6308 7.43354C60.8946 5.36392 58.2894 3.68582 56.477 5.58763C55.4576 6.65041 55.1744 8.32849 54.4948 9.61501C53.8152 10.9575 52.7957 12.188 51.6064 13.139C46.4526 16.9985 42.0917 12.244 39.5997 8.04882C38.2405 5.75545 34.7291 1.33652 32.2938 5.02827C30.9912 6.93009 30.708 9.39128 29.632 11.405C26.9701 16.4951 21.2499 15.768 17.7952 11.7965C15.5864 9.27941 14.5104 4.46893 10.999 3.29428C5.562 1.56027 3.74968 8.94379 3.2966 12.5237C2.90015 14.4255 -0.214775 14.4814 0.0117645 12.5237Z" fill="#1F1F1F"/>
</svg>
