<svg width="62" height="70" viewBox="0 0 62 70" fill="none" xmlns="http://www.w3.org/2000/svg">
<path d="M53.1292 41.6098C44.1292 50.8098 34.0292 57.3098 26.9292 68.3098C26.4292 69.0098 25.6292 69.1098 24.8292 68.8098C24.3292 69.3098 23.4292 69.4098 22.7292 68.7098C14.5292 59.4098 9.62917 48.6098 6.12917 37.1098C3.32917 27.9098 -2.47081 13.6098 3.32919 4.90977C7.12918 -0.890227 14.8292 -1.19021 20.9292 2.10979C27.7292 5.80978 30.3292 12.6097 31.6292 19.5097C34.3292 14.5097 38.3292 10.2098 44.6292 9.3098C51.9292 8.3098 58.3292 13.2098 60.4292 19.9098C62.9292 28.1098 58.5292 36.0098 53.1292 41.6098ZM55.7292 19.3098C52.6292 13.1098 45.0292 11.8098 39.8292 15.6098C35.7292 18.5098 33.9292 23.2098 32.3292 27.7098C31.7292 29.5098 28.6292 29.0098 28.4292 27.1098C27.5292 19.1098 26.4292 8.4098 17.4292 4.8098C14.1292 3.0098 11.6292 3.9098 9.62917 7.3098C5.52917 8.8098 4.02921 11.5098 5.22921 15.6098C5.42921 19.2098 6.42921 22.8098 7.22921 26.3098C10.5292 40.3098 15.3292 53.7098 23.8292 65.7098C30.1292 55.3098 38.9292 49.0098 47.8292 40.9098C53.6292 35.7098 59.8292 27.5098 55.7292 19.3098Z" fill="#1F1F1F"/>
</svg>
