<svg width="24" height="24" viewBox="0 0 24 24" fill="none" xmlns="http://www.w3.org/2000/svg">
<g clip-path="url(#clip0_5_11602)">
<path d="M17.1082 4.86192C16.8812 5.33978 16.7458 5.85593 16.7089 6.38366H5.28487C4.84092 6.38366 4.41516 6.56002 4.10124 6.87394C3.78732 7.18786 3.61096 7.61362 3.61096 8.05757V8.41792L12.437 13.7136L18.4303 10.118C18.9359 10.4917 19.5182 10.7483 20.1352 10.8691L12.8284 15.2536C12.7237 15.3163 12.6055 15.3529 12.4836 15.3603C12.3618 15.3677 12.24 15.3457 12.1284 15.2962L12.0457 15.2536L3.61096 10.1923V18.101C3.61096 18.6897 4.08818 19.1663 4.67618 19.1663H20.1979C20.4804 19.1663 20.7514 19.054 20.9511 18.8543C21.1509 18.6545 21.2631 18.3836 21.2631 18.101V10.9385C21.7909 10.9014 22.307 10.7658 22.7849 10.5386V18.101C22.7849 18.7871 22.5123 19.4451 22.0272 19.9303C21.542 20.4154 20.884 20.688 20.1979 20.688H4.67618C3.99007 20.688 3.33207 20.4154 2.84692 19.9303C2.36178 19.4451 2.08922 18.7871 2.08922 18.101L2.08861 8.90122C2.08635 8.86738 2.08635 8.83342 2.08861 8.79957L2.08922 8.05757C2.08922 6.29236 3.51966 4.86192 5.28487 4.86192H17.1082ZM20.9588 3.64453C21.766 3.64453 22.5401 3.96518 23.1108 4.53594C23.6816 5.10671 24.0023 5.88083 24.0023 6.68801C24.0023 7.49519 23.6816 8.26931 23.1108 8.84007C22.5401 9.41083 21.766 9.73148 20.9588 9.73148C20.1516 9.73148 19.3775 9.41083 18.8067 8.84007C18.236 8.26931 17.9153 7.49519 17.9153 6.68801C17.9153 5.88083 18.236 5.10671 18.8067 4.53594C19.3775 3.96518 20.1516 3.64453 20.9588 3.64453Z" fill="#1F1F1F"/>
</g>
<defs>
<clipPath id="clip0_5_11602">
<rect width="24" height="24" fill="white"/>
</clipPath>
</defs>
</svg>
