<svg width="20" height="20" viewBox="0 0 20 20" fill="none" xmlns="http://www.w3.org/2000/svg">
<path d="M10 0.833008C11.9891 0.833008 13.8968 1.62318 15.3033 3.02971C16.7098 4.43623 17.5 6.34388 17.5 8.33301C17.5 11.438 15.1333 14.6913 10.5 18.1663C10.3558 18.2745 10.1803 18.333 10 18.333C9.81969 18.333 9.64425 18.2745 9.5 18.1663C4.86667 14.6913 2.5 11.438 2.5 8.33301C2.5 6.34388 3.29018 4.43623 4.6967 3.02971C6.10322 1.62318 8.01088 0.833008 10 0.833008ZM10 2.49967C8.4529 2.49967 6.96917 3.11426 5.87521 4.20822C4.78125 5.30218 4.16667 6.78591 4.16667 8.33301C4.16667 10.5913 5.93167 13.1963 9.54 16.088L10 16.4513L10.46 16.088C14.0683 13.1963 15.8333 10.5913 15.8333 8.33301C15.8333 6.78591 15.2188 5.30218 14.1248 4.20822C13.0308 3.11426 11.5471 2.49967 10 2.49967ZM10 6.66634C10.442 6.66634 10.866 6.84194 11.1785 7.1545C11.4911 7.46706 11.6667 7.89098 11.6667 8.33301C11.6667 8.77503 11.4911 9.19896 11.1785 9.51152C10.866 9.82408 10.442 9.99967 10 9.99967C9.55797 9.99967 9.13405 9.82408 8.82149 9.51152C8.50893 9.19896 8.33333 8.77503 8.33333 8.33301C8.33333 7.89098 8.50893 7.46706 8.82149 7.1545C9.13405 6.84194 9.55797 6.66634 10 6.66634Z" fill="#FDA3C4"/>
</svg>
