<svg width="24" height="24" viewBox="0 0 24 24" fill="none" xmlns="http://www.w3.org/2000/svg">
<path d="M7.8125 1C6.27031 1 5 2.24208 5 3.75V20.25C5 21.7579 6.27031 23 7.8125 23H17.1875C18.7297 23 20 21.7579 20 20.25V3.75C20 2.24208 18.7297 1 17.1875 1H7.8125ZM7.8125 2.83333H17.1875C17.7078 2.83333 18.125 3.24125 18.125 3.75V20.25C18.125 20.7588 17.7078 21.1667 17.1875 21.1667H7.8125C7.29219 21.1667 6.875 20.7588 6.875 20.25V3.75C6.875 3.24125 7.29219 2.83333 7.8125 2.83333ZM12.5 18.4167C12.2514 18.4167 12.0129 18.5132 11.8371 18.6852C11.6613 18.8571 11.5625 19.0902 11.5625 19.3333C11.5625 19.5764 11.6613 19.8096 11.8371 19.9815C12.0129 20.1534 12.2514 20.25 12.5 20.25C12.7486 20.25 12.9871 20.1534 13.1629 19.9815C13.3387 19.8096 13.4375 19.5764 13.4375 19.3333C13.4375 19.0902 13.3387 18.8571 13.1629 18.6852C12.9871 18.5132 12.7486 18.4167 12.5 18.4167Z" fill="#1F1F1F"/>
</svg>
