<svg width="185" height="54" viewBox="0 0 185 54" fill="none" xmlns="http://www.w3.org/2000/svg">
<path d="M5.67443 37.809L2.40314 32.7583L0.757224 12.6274C2.3862 9.77329 8.0348 3.91248 17.5974 3.30209C29.5506 2.53911 63.8388 0.733945 77.5645 1.03008C91.2902 1.32621 105.781 1.208 110.611 1.23845C115.441 1.26891 165.131 -0.288058 171.465 2.89554C176.533 5.44242 181.161 10.2922 182.842 12.3988C182.331 12.8147 181.61 14.1095 182.818 15.9615C184.026 17.8135 184.651 20.6539 184.813 21.8425C184.13 22.5369 182.764 24.0932 182.76 24.7638C182.754 25.6022 178.177 25.7829 180.458 26.8452C182.283 27.6951 182.724 30.143 182.717 31.2608C180.93 32.2975 176.544 34.4076 173.289 34.5548C170.034 34.7019 167.182 35.4245 166.163 35.7674L166.152 37.4441C167.675 37.7332 170.416 38.3931 169.194 38.7207C167.666 39.1303 166.148 38.0727 164.872 38.6935C163.597 39.3142 161.809 40.5605 163.332 40.9892C163.798 41.3784 164.255 41.574 164.666 41.6515C165.171 41.5543 165.717 41.4752 166.125 41.426C165.863 41.5965 165.324 41.7759 164.666 41.6515C163.808 41.8166 163.069 42.034 163.323 42.2467C163.728 42.5846 165.352 43.0979 166.113 43.3122L167.375 44.5777L163.308 44.5521C161.071 44.538 161.52 45.7983 162.025 46.4303C161.431 46.5663 159.887 46.7522 158.466 46.4079C156.689 45.9775 157.448 46.611 154.396 46.8014C151.954 46.9536 112.929 47.8515 108.777 47.7554C109.118 47.4781 109.342 46.9206 107.512 46.9091L107.512 46.9091C105.224 46.8947 104.97 46.8931 102.171 47.2946C99.3716 47.6961 69.8024 47.1548 61.1594 47.1003C54.245 47.0567 39.9323 47.0372 38.6613 47.0292C34.6741 47.7027 25.2256 48.9984 19.3292 48.7936C11.9586 48.5375 5.6174 46.4017 5.61879 46.1921C5.6199 46.0244 4.27184 44.8562 3.59767 44.293C4.27323 44.6466 5.62575 45.1442 5.63131 44.3059C5.63687 43.4675 4.29734 41.0139 3.62688 39.8919L5.67443 37.809Z" fill="#FDA3C4"/>
<path d="M10.425 49.7854C9.61159 49.7803 9.57213 50.6184 9.65409 51.0381L8.00036 51.2372C7.19074 51.9307 5.7243 53.2768 6.33551 53.113C6.94671 52.9492 8.11912 52.4955 8.62892 52.2891C8.96972 52.0118 11.2782 51.4675 17.7859 51.5085C25.9204 51.5598 25.1606 51.1358 25.9232 51.1406C26.6858 51.1455 11.4419 49.7918 10.425 49.7854Z" fill="#FDA3C4"/>
</svg>
