<svg width="164" height="55" viewBox="0 0 164 55" fill="none" xmlns="http://www.w3.org/2000/svg">
<path d="M5.70437 38.595L2.48515 33.4031L0.955948 12.6597C2.58662 9.71057 8.22032 3.64453 17.7098 2.97336C29.5716 2.13439 43.7152 0.220062 57.33 0.465041C70.9447 0.71002 85.3208 0.524531 90.112 0.534714C94.9033 0.544897 144.205 -1.2782 150.472 1.97559C155.486 4.57863 160.053 9.55742 161.709 11.7214C161.2 12.1524 160.479 13.4902 161.668 15.3939C162.856 17.2977 163.462 20.2227 163.616 21.4473C162.935 22.166 161.572 23.7762 161.564 24.4675C161.554 25.3317 157.013 25.5381 159.27 26.6231C161.076 27.4911 161.501 30.0125 161.488 31.1647C159.711 32.2412 155.348 34.4355 152.118 34.6015C148.889 34.7675 146.056 35.5248 145.043 35.8827L145.023 37.6112C146.533 37.9024 149.249 38.5706 148.035 38.9137C146.517 39.3426 145.016 38.2591 143.748 38.9046C142.479 39.55 140.7 40.8425 142.208 41.2778C142.668 41.6769 143.12 41.8765 143.527 41.9546C144.029 41.8522 144.571 41.7683 144.977 41.7158C144.716 41.8927 144.18 42.0799 143.527 41.9546C142.676 42.1285 141.941 42.3559 142.193 42.574C142.592 42.9205 144.2 43.4425 144.954 43.6601L146.201 44.959L142.166 44.9504C139.947 44.9457 140.386 46.2429 140.883 46.8921C140.293 47.0349 138.761 47.2333 137.353 46.8846C135.592 46.4488 136.341 47.0985 133.313 47.3081C130.89 47.4758 92.1713 48.5726 88.0533 48.4918C88.3928 48.2045 88.6179 47.6289 86.8023 47.625C84.5328 47.6202 84.2806 47.6196 81.5018 48.0458C78.723 48.472 59.3109 47.9987 50.7371 47.9804L38.3808 47.9542C34.4219 48.6659 25.0421 50.0431 19.1937 49.8578C11.8832 49.6262 5.60358 47.4524 5.60604 47.2364C5.60801 47.0636 4.2767 45.8653 3.61081 45.2878C4.27916 45.6492 5.61833 46.1562 5.62816 45.292C5.638 44.4279 4.32177 41.9046 3.66243 40.751L5.70437 38.595Z" fill="#FDA3C4"/>
<path d="M10.3555 50.9192C9.54854 50.9175 9.50508 51.7816 9.58422 52.2138L7.94266 52.4264C7.13593 53.1448 5.67426 54.5388 6.28143 54.3673C6.88861 54.1957 8.054 53.7229 8.56079 53.5079C8.9003 53.2206 11.1932 52.6493 17.6487 52.6631C25.7182 52.6802 24.9666 52.2465 25.7231 52.2481C26.4796 52.2498 11.3642 50.9214 10.3555 50.9192Z" fill="#FDA3C4"/>
</svg>
