<svg width="133" height="53" viewBox="0 0 133 53" fill="none" xmlns="http://www.w3.org/2000/svg">
<path d="M4.60148 36.9346L1.53169 31.5592L0.527683 10.5098C2.22132 7.58686 7.97009 1.66072 17.4161 1.33949C29.2236 0.937947 43.3252 -0.465758 56.8476 0.295741C70.37 1.05724 84.6597 1.41184 89.4203 1.60289C94.1809 1.79393 113.497 1.91275 119.644 5.44191C124.562 8.26524 128.976 13.4759 130.568 15.7283C130.051 16.1452 129.301 17.4719 130.435 19.4432C131.569 21.4145 132.098 24.3975 132.221 25.6425C131.527 26.3441 130.132 27.9222 130.107 28.6215C130.076 29.4956 125.558 29.5332 127.774 30.7163C129.547 31.6629 129.907 34.2305 129.865 35.396C128.072 36.4183 123.683 38.4743 120.469 38.5205C117.256 38.5666 114.422 39.2261 113.407 39.5501L113.344 41.2985C114.837 41.6502 117.519 42.4288 116.304 42.7302C114.785 43.1069 113.321 41.954 112.044 42.5593C110.768 43.1646 108.967 44.4054 110.455 44.9028C110.903 45.3241 111.347 45.5431 111.75 45.6375C112.251 45.5527 112.791 45.4883 113.196 45.4505C112.932 45.6196 112.395 45.7889 111.75 45.6375C110.899 45.7813 110.164 45.9838 110.408 46.214C110.797 46.5797 112.382 47.1685 113.125 47.4172L114.331 48.7787L110.322 48.6178C108.117 48.5293 108.522 49.8586 108.999 50.5343C108.409 50.6566 106.882 50.7995 105.491 50.3936C103.753 49.8861 104.481 50.5719 101.467 50.6697C99.0553 50.748 90.2727 50.2935 86.1828 50.0564C86.5273 49.7784 86.7653 49.2044 84.9613 49.132C82.7062 49.0415 82.4557 49.0314 79.6839 49.3579C76.9121 49.6844 57.6347 48.4731 49.1157 48.1312L36.8383 47.6385C32.8868 48.2094 23.5322 49.2492 17.7255 48.8411C10.4671 48.331 4.28121 45.8943 4.28902 45.6758C4.29527 45.5009 3.00218 44.2381 2.35485 43.6285C3.00999 44.0196 4.32808 44.5831 4.35933 43.709C4.39057 42.8349 3.14539 40.2317 2.5189 39.0394L4.60148 36.9346Z" fill="#FDA3C4"/>
<path d="M8.91685 49.5818C8.11506 49.5497 8.05041 50.4224 8.1183 50.8629L6.48186 51.016C5.66238 51.7126 4.17533 53.0682 4.78292 52.9175C5.39051 52.7668 6.56027 52.3323 7.0692 52.1338C7.41369 51.8559 9.70626 51.3643 16.1206 51.6217C24.1385 51.9434 23.4024 51.4762 24.1541 51.5064C24.9058 51.5365 9.91909 49.6221 8.91685 49.5818Z" fill="#FDA3C4"/>
</svg>
