<svg width="198" height="159" viewBox="0 0 198 159" fill="none" xmlns="http://www.w3.org/2000/svg">
<path d="M35.5578 68.0246C34.1063 47.6178 46.935 28.2438 66.5386 29.0996C81.7218 29.7624 94.3255 41.9632 104.173 53.4182C104.195 48.8154 111.537 38.271 135.027 40.3732C154.92 42.1535 168.418 64.4781 159.114 88.3628C148.21 116.358 108.847 134.52 87.0866 143.81C56.0785 124.363 37.5401 95.8952 35.5578 68.0246Z" fill="#F40000"/>
<path d="M87.0866 143.81C56.0785 124.362 37.5401 95.8952 35.5578 68.0246C34.1063 47.6178 46.935 28.2438 66.5386 29.0996C81.7218 29.7624 94.3255 41.9632 104.173 53.4182M87.0866 143.81C108.847 134.52 148.21 116.358 159.114 88.3628C168.418 64.4781 154.92 42.1535 135.027 40.3732C111.537 38.271 104.195 48.8154 104.173 53.4182M87.0866 143.81L96.7159 125.535C94.7439 124.107 90.8707 120.821 91.1536 119.103C91.4365 117.384 100.448 111.806 104.918 109.232C101.93 107.269 95.6665 102.413 94.5133 98.6924C93.36 94.9719 103.445 89.1292 108.631 86.673L94.1192 80.9742L112.344 64.1153C110.326 61.0781 107.519 57.3103 104.173 53.4182" stroke="#1F1F1F"/>
<path d="M159.116 88.3634C148.212 116.359 108.849 134.52 87.0882 143.811L96.7175 125.536C94.7455 124.108 90.8722 120.822 91.1552 119.103C91.4381 117.385 100.449 111.807 104.92 109.232C101.932 107.27 95.668 102.414 94.5148 98.693C93.3616 94.9725 103.446 89.1299 108.633 86.6736L94.1208 80.9748L112.346 64.116C110.327 61.0788 107.52 57.311 104.174 53.4188C104.196 48.816 111.538 38.2717 135.028 40.3739C154.921 42.1542 168.419 64.4788 159.116 88.3634Z" fill="#FDA3C4"/>
<path d="M35.5594 68.0253C37.5417 95.8959 56.0801 124.363 87.0882 143.811M87.0882 143.811C108.849 134.52 148.212 116.359 159.116 88.3634C168.419 64.4788 154.921 42.1542 135.028 40.3739C111.538 38.2717 104.196 48.816 104.174 53.4188C107.52 57.311 110.327 61.0788 112.346 64.116L94.1208 80.9748L108.633 86.6736C103.446 89.1299 93.3616 94.9725 94.5148 98.693C95.668 102.414 101.932 107.27 104.92 109.232C100.449 111.807 91.4381 117.385 91.1552 119.103C90.8722 120.822 94.7455 124.108 96.7175 125.536L87.0882 143.811Z" stroke="#1F1F1F"/>
<path d="M47.5405 55.3365C47.3107 63.9376 49.3875 64.7694 50.6799 63.5289C55.4533 67.5846 52.8876 57.118 55.1699 49.8637C57.4522 42.6094 72.7132 39.9059 66.7014 38.9163C59.6109 37.7491 47.8962 42.0255 47.5405 55.3365Z" fill="white" stroke="#1F1F1F"/>
<path d="M50.62 75.1114C46.093 75.282 45.2243 67.5647 49.6697 67.4964C54.1145 67.4282 54.0945 74.9811 50.62 75.1114Z" fill="white" stroke="#1F1F1F"/>
<path d="M52.9253 29.2006C44.7895 24.5637 31.4694 13.5773 43.276 6.72686C55.0825 -0.123557 54.6283 18.855 52.9253 29.2006Z" fill="#1F1F1F"/>
<path d="M60.6035 9.57907C62.1823 13.5033 64.6901 21.2447 62.0908 20.8169C58.8417 20.2821 54.1052 8.50942 60.6035 9.57907Z" fill="#1F1F1F"/>
<path d="M25.6458 19.2147C23.757 21.4462 37.6186 35.6954 39.0479 32.4131C40.8344 28.3103 26.1743 16.004 25.6458 19.2147Z" fill="#1F1F1F"/>
<path d="M14.0908 62.3812C10.4841 62.6669 10.9497 58.9328 14.7954 58.1002C18.6407 57.2675 26.4774 56.0659 27.062 57.9209C27.7927 60.2397 18.5991 62.024 14.0908 62.3812Z" fill="#1F1F1F"/>
<path d="M24.8178 37.7654C28.3018 36.8732 34.9123 35.9094 33.4821 39.1916C31.6944 43.2942 26.4561 41.3327 24.8178 37.7654Z" fill="#1F1F1F"/>
<path d="M17.9473 79.5044C17.5187 77.6018 18.2132 73.8322 24.4195 73.9744C32.1774 74.1522 19.7618 82.0016 17.9473 79.5044Z" fill="#1F1F1F"/>
<path d="M52.9253 29.2006C44.7895 24.5637 31.4694 13.5773 43.276 6.72686C55.0825 -0.123557 54.6283 18.855 52.9253 29.2006Z" stroke="#1F1F1F"/>
<path d="M60.6035 9.57907C62.1823 13.5033 64.6901 21.2447 62.0908 20.8169C58.8417 20.2821 54.1052 8.50942 60.6035 9.57907Z" stroke="#1F1F1F"/>
<path d="M25.6458 19.2147C23.757 21.4462 37.6186 35.6954 39.0479 32.4131C40.8344 28.3103 26.1743 16.004 25.6458 19.2147Z" stroke="#1F1F1F"/>
<path d="M14.0908 62.3812C10.4841 62.6669 10.9497 58.9328 14.7954 58.1002C18.6407 57.2675 26.4774 56.0659 27.062 57.9209C27.7927 60.2397 18.5991 62.024 14.0908 62.3812Z" stroke="#1F1F1F"/>
<path d="M24.8178 37.7654C28.3018 36.8732 34.9123 35.9094 33.4821 39.1916C31.6944 43.2942 26.4561 41.3327 24.8178 37.7654Z" stroke="#1F1F1F"/>
<path d="M17.9473 79.5044C17.5187 77.6018 18.2132 73.8322 24.4195 73.9744C32.1774 74.1522 19.7618 82.0016 17.9473 79.5044Z" stroke="#1F1F1F"/>
<path d="M135.968 33.0325C134.358 31.674 132.03 28.885 135.598 28.5974C139.165 28.3098 137.331 31.4343 135.968 33.0325Z" fill="#1F1F1F"/>
<path d="M143.464 34.2665C142.627 32.6706 141.595 29.5846 144.165 30.0077L143.464 34.2665Z" fill="#1F1F1F"/>
<path d="M149.19 39.5836C147.625 33.4939 146.389 21.8447 153.961 23.9658C163.425 26.6173 150.071 44.1033 149.19 39.5836Z" fill="#1F1F1F"/>
<path d="M159.55 43.4756C160.965 39.3343 164.796 31.6539 168.8 34.0627C173.805 37.0737 160.27 45.7813 159.55 43.4756Z" fill="#1F1F1F"/>
<path d="M166.171 50.0332C168.599 46.423 174.241 39.7697 177.388 42.0377C181.322 44.8727 169.034 52.6915 166.171 50.0332Z" fill="#1F1F1F"/>
<path d="M170.67 62.8026C176.791 61.2586 189.431 59.767 191.02 66.1524C193.006 74.1342 171.04 67.2377 170.67 62.8026Z" fill="#1F1F1F"/>
<path d="M172.306 72.9138C174.097 75.3958 178 79.7562 179.277 77.342C180.874 74.3242 174.798 71.137 172.306 72.9138Z" fill="#1F1F1F"/>
<path d="M135.968 33.0325C134.358 31.674 132.03 28.885 135.598 28.5974C139.165 28.3098 137.331 31.4343 135.968 33.0325Z" stroke="#1F1F1F"/>
<path d="M143.464 34.2665C142.627 32.6706 141.595 29.5846 144.165 30.0077L143.464 34.2665Z" stroke="#1F1F1F"/>
<path d="M149.19 39.5836C147.625 33.4939 146.389 21.8447 153.961 23.9658C163.425 26.6173 150.071 44.1033 149.19 39.5836Z" stroke="#1F1F1F"/>
<path d="M159.55 43.4756C160.965 39.3343 164.796 31.6539 168.8 34.0627C173.805 37.0737 160.27 45.7813 159.55 43.4756Z" stroke="#1F1F1F"/>
<path d="M166.171 50.0332C168.599 46.423 174.241 39.7697 177.388 42.0377C181.322 44.8727 169.034 52.6915 166.171 50.0332Z" stroke="#1F1F1F"/>
<path d="M170.67 62.8026C176.791 61.2586 189.431 59.767 191.02 66.1524C193.006 74.1342 171.04 67.2377 170.67 62.8026Z" stroke="#1F1F1F"/>
<path d="M172.306 72.9138C174.097 75.3958 178 79.7562 179.277 77.342C180.874 74.3242 174.798 71.137 172.306 72.9138Z" stroke="#1F1F1F"/>
</svg>
