<svg width="116" height="27" viewBox="0 0 116 27" fill="none" xmlns="http://www.w3.org/2000/svg">
<path d="M0.399551 22.3865C1.19955 16.1865 2.29955 9.4865 6.89955 4.7865C10.7996 0.786496 16.6996 -1.31353 22.0996 0.886472C28.1996 3.38647 30.6996 9.5865 33.8996 14.7865C35.7996 17.8865 39.3995 22.2865 43.6995 21.3865C46.5995 20.6865 47.7995 17.6865 48.6995 15.1865C50.2995 11.0865 51.2995 6.48647 54.6995 3.38647C58.4995 -0.0135283 63.8995 0.386496 67.8995 3.2865C73.2995 7.0865 74.7995 13.5865 79.2995 18.1865C82.4995 21.3865 86.3995 21.0865 89.4995 17.7865C91.9995 14.9865 92.6996 11.2865 94.5996 8.08648C97.6996 2.88648 103.9 1.68647 109.1 4.88647C115.2 8.78647 115.9 16.5864 114.6 22.9864C114.1 25.5864 109.8 24.9865 109.9 22.3865C109.9 19.3865 110.2 16.1865 109.2 13.2865C107.9 9.5865 103.3 6.58645 100.1 9.98645C98.2996 11.8864 97.7996 14.8865 96.5996 17.1865C95.3996 19.5865 93.5995 21.7864 91.4995 23.4864C82.3995 30.3864 74.6995 21.8865 70.2995 14.3865C67.8995 10.2865 61.6995 2.38645 57.3995 8.98645C55.0995 12.3864 54.5995 16.7865 52.6995 20.3865C47.9995 29.4865 37.8995 28.1865 31.7995 21.0865C27.8995 16.5865 25.9995 7.98647 19.7995 5.88647C10.1995 2.78647 6.99954 15.9865 6.19954 22.3865C5.49954 25.7865 -0.000448614 25.8865 0.399551 22.3865Z" fill="#1F1F1F"/>
</svg>
