<svg width="105" height="56" viewBox="0 0 105 56" fill="none" xmlns="http://www.w3.org/2000/svg">
<path d="M4.59675 39.5089L1.89807 34.2647L0.0343653 13.2878C1.22379 10.3015 5.46427 4.15412 12.9108 3.45489C22.219 2.58085 33.2888 0.614269 44.011 0.832778C54.7331 1.05129 66.0409 0.832778 69.8117 0.832778C73.5826 0.832778 88.8498 0.177429 93.8856 3.45489C97.9143 6.07686 101.667 11.1027 103.039 13.2878C102.652 13.7248 102.127 15.0794 103.123 17.0023C104.119 18.9252 104.689 21.8824 104.849 23.1206C104.336 23.8489 103.315 25.4805 103.331 26.1797C103.35 27.0537 99.7829 27.2723 101.594 28.3648C103.043 29.2388 103.457 31.7881 103.484 32.9535C102.119 34.046 98.756 36.2748 96.2196 36.4496C93.6832 36.6245 91.4778 37.3965 90.6922 37.7607L90.7317 39.5089C91.9291 39.8002 94.0877 40.4702 93.143 40.8198C91.962 41.2568 90.7465 40.1643 89.769 40.8198C88.7915 41.4754 87.4319 42.7864 88.6326 43.2234C89.0074 43.6261 89.3699 43.827 89.6927 43.9051C90.0841 43.8004 90.5081 43.7144 90.8256 43.6604C90.6259 43.8399 90.2105 44.0305 89.6927 43.9051C89.028 44.0829 88.4574 44.3144 88.6622 44.5345C88.9877 44.8841 90.2697 45.4085 90.8701 45.627L91.8921 46.9381H88.7166C86.9701 46.9381 87.3569 48.2491 87.7687 48.9047C87.3089 49.0503 86.1095 49.2543 84.9902 48.9047C83.591 48.4676 84.2012 49.1232 81.8246 49.3417C79.9232 49.5165 72.9613 49.4145 69.718 49.3417C69.9761 49.0503 70.1349 48.4676 68.7059 48.4676C66.9197 48.4676 66.7213 48.4676 64.548 48.9047C62.3747 49.3417 47.0829 48.9047 40.335 48.9047H30.61C27.5172 49.633 20.1794 51.0461 15.571 50.8713C9.81048 50.6527 4.79937 48.4676 4.79443 48.2491C4.79047 48.0743 3.70463 46.8652 3.16221 46.2826C3.69969 46.6467 4.76972 47.1566 4.74995 46.2826C4.73018 45.4085 3.61403 42.8592 3.05843 41.6939L4.59675 39.5089Z" fill="#FDA3C4"/>
<path d="M8.64932 51.9638C8.01423 51.9638 8.00753 52.8378 8.08357 53.2749L6.79847 53.4934C6.18647 54.2217 5.08054 55.6347 5.55291 55.4599C6.02528 55.2851 6.92736 54.8044 7.31935 54.5859C7.57739 54.2946 9.36365 53.7119 14.4444 53.7119C20.7954 53.7119 20.1901 53.2749 20.7855 53.2749C21.3809 53.2749 9.44319 51.9638 8.64932 51.9638Z" fill="#FDA3C4"/>
</svg>
