<svg width="135" height="56" viewBox="0 0 135 56" fill="none" xmlns="http://www.w3.org/2000/svg">
<path d="M6.16719 39.2967L2.8212 34.0997L0.823815 13.3118C2.39417 10.3524 7.91153 4.26043 17.4181 3.5675C29.3013 2.70134 43.4501 0.752475 57.1163 0.969015C70.7825 1.18556 85.2031 0.969015 90.0108 0.969015C94.8185 0.969015 114.295 0.319571 120.656 3.5675C125.745 6.16584 130.438 11.1463 132.149 13.3118C131.647 13.7448 130.954 15.0873 132.189 16.9929C133.424 18.8984 134.097 21.8289 134.279 23.056C133.612 23.7778 132.28 25.3946 132.288 26.0876C132.297 26.9537 127.745 27.1703 130.034 28.253C131.865 29.1191 132.348 31.6454 132.361 32.8003C130.601 33.883 126.273 36.0917 123.036 36.265C119.799 36.4382 116.974 37.2033 115.965 37.5642L115.984 39.2967C117.506 39.5853 120.246 40.2493 119.035 40.5958C117.521 41.0288 115.991 39.9461 114.733 40.5958C113.475 41.2454 111.718 42.5446 113.241 42.9777C113.712 43.3768 114.17 43.5758 114.58 43.6532C115.081 43.5495 115.623 43.4643 116.029 43.4108C115.771 43.5886 115.238 43.7775 114.58 43.6532C113.73 43.8294 112.998 44.0589 113.255 44.2769C113.664 44.6234 115.289 45.1431 116.05 45.3596L117.33 46.6589H113.281C111.054 46.6589 111.524 47.9581 112.037 48.6077C111.448 48.7521 109.915 48.9542 108.495 48.6077C106.719 48.1747 107.485 48.8243 104.451 49.0408C102.023 49.2141 93.1492 49.113 89.0155 49.0408C89.3498 48.7521 89.5628 48.1747 87.7409 48.1747C85.4636 48.1747 85.2106 48.1747 82.4319 48.6077C79.6533 49.0408 60.1649 48.6077 51.5617 48.6077H39.163C35.2066 49.3295 25.8258 50.7298 19.9536 50.5566C12.6132 50.3401 6.26377 48.1747 6.26142 47.9581C6.25953 47.7849 4.89698 46.5867 4.21594 46.0093C4.89462 46.3702 6.24964 46.8754 6.24021 46.0093C6.23079 45.1431 4.85379 42.6168 4.16647 41.4619L6.16719 39.2967Z" fill="#FDA3C4"/>
<path d="M11.1091 51.6393C10.2994 51.6393 10.2751 52.5055 10.3642 52.9386L8.72178 53.1551C7.92836 53.8769 6.49286 55.2772 7.09826 55.104C7.70366 54.9307 8.86243 54.4543 9.36615 54.2378C9.70039 53.9491 11.9883 53.3716 18.466 53.3716C26.5631 53.3716 25.7993 52.9386 26.5584 52.9386C27.3175 52.9386 12.1213 51.6393 11.1091 51.6393Z" fill="#FDA3C4"/>
</svg>
