<svg width="89" height="102" viewBox="0 0 89 102" fill="none" xmlns="http://www.w3.org/2000/svg">
<path d="M24.8801 91.4213L19.1799 89.9072L2.36732 77.2249C0.949273 74.3402 -0.768289 67.0723 3.70587 61.0788C9.29857 53.5869 15.2618 44.0556 22.6131 36.2472C29.9645 28.4388 37.3842 19.903 39.9126 17.1053C42.4409 14.3077 52.1914 2.54139 57.9995 1.00281C62.6459 -0.228058 68.8905 0.357915 71.432 0.804759C71.4967 1.38491 72.1496 2.68277 74.2441 3.23302C76.3387 3.78327 78.9146 5.3434 79.9407 6.05469C80.1373 6.92349 80.6627 8.77536 81.1921 9.23246C81.8538 9.80384 79.6239 12.5971 81.6487 11.9861C83.2686 11.4973 85.4381 12.8988 86.3204 13.6606C86.216 15.4056 85.6145 19.3952 84.0435 21.3942C82.4725 23.3932 81.5666 25.5471 81.3101 26.3741L82.6336 27.517C83.6526 26.8239 85.597 25.6717 85.2229 26.607C84.7553 27.7762 83.1298 27.9454 82.9607 29.1102C82.7916 30.2749 82.8527 32.1627 83.9819 31.5649C84.5321 31.5568 84.9241 31.4225 85.1985 31.2355C85.3833 30.8749 85.6038 30.5027 85.7766 30.2309C85.7759 30.4994 85.6387 30.9354 85.1985 31.2355C84.8847 31.8478 84.6739 32.4264 84.9745 32.422C85.4521 32.4149 86.7008 31.8154 87.2654 31.5165L88.9234 31.6373L86.7942 33.9933C85.6232 35.289 86.8553 35.881 87.6177 36.0151C87.4175 36.4539 86.7646 37.4805 85.7547 38.0765C84.4923 38.8215 85.3878 38.8083 83.9564 40.7181C82.8112 42.2459 78.0676 47.3427 75.839 49.7001C75.7958 49.3133 75.47 48.8047 74.5119 49.8649C73.3142 51.1901 73.1812 51.3374 72.0482 53.2427C70.9153 55.1481 60.3378 66.2003 55.8134 71.2066L49.2928 78.4216C47.7594 81.2046 43.8878 87.5961 40.6681 90.8979C36.6436 95.0251 31.6625 97.2778 31.4971 97.135C31.3648 97.0207 29.7397 97.0156 28.9437 97.0273C29.5742 96.8727 30.67 96.4207 30.0082 95.8494C29.3465 95.278 26.7068 94.3968 25.4697 94.0276L24.8801 91.4213Z" fill="#FDA3C4"/>
<path d="M36.8377 96.7657C36.4119 97.2368 37.0559 97.8278 37.4311 98.0645L36.7315 99.1644C36.8616 100.107 37.1684 101.875 37.3554 101.407C37.5425 100.939 37.7906 99.9478 37.8914 99.5105C37.8482 99.1237 38.6136 97.4078 42.0203 93.6383C46.2786 88.9265 45.5485 89.0825 45.9477 88.6408C46.347 88.199 37.37 96.1767 36.8377 96.7657Z" fill="#FDA3C4"/>
</svg>
