<svg width="126" height="99" viewBox="0 0 126 99" fill="none" xmlns="http://www.w3.org/2000/svg">
<path d="M9.7904 25.9597L10.2522 19.796L21.1861 2.00346C24.2227 0.588228 32.297 -0.948187 40.3009 4.22798C50.3057 10.6982 62.771 17.6697 73.5462 26.0785C84.3214 34.4872 95.9597 43.005 99.7962 45.9023C103.633 48.7997 119.567 60.019 122.686 66.4444C125.181 71.5848 125.924 78.3876 125.984 81.1465C125.323 81.1899 123.96 81.843 123.798 84.1081C123.635 86.3732 122.406 89.1173 121.812 90.2062C120.845 90.3803 118.807 90.8678 118.396 91.4253C117.881 92.1222 114.118 89.5516 115.292 91.7951C116.232 93.5899 115.095 95.897 114.409 96.8261C112.352 96.6298 107.567 95.784 104.88 93.9715C102.192 92.159 99.4761 91.0667 98.4541 90.7471L97.4251 92.1409C98.4651 93.2881 100.252 95.4692 99.0765 95.016C97.6077 94.4495 97.0393 92.6635 95.6438 92.4237C94.2483 92.1839 92.0632 92.1618 93.0175 93.4252C93.1526 94.0273 93.3985 94.4624 93.6791 94.7713C94.1413 94.9904 94.6253 95.2491 94.9814 95.451C94.6684 95.4375 94.1293 95.267 93.6791 94.7713C92.8941 94.3993 92.1719 94.1415 92.2458 94.4705C92.363 94.9932 93.3467 96.3873 93.8238 97.019L94.0617 98.8268L90.831 96.3869C89.054 95.045 88.6458 96.3648 88.6638 97.1924C88.1069 96.9527 86.7618 96.1902 85.8369 95.0575C84.6806 93.6417 84.9006 94.6218 82.3489 92.9661C80.3075 91.6416 73.2867 86.2129 70.0315 83.6641C70.4723 83.6352 70.9902 83.3027 69.5364 82.2048C67.7191 80.8324 67.5172 80.6799 65.0388 79.3509C62.5604 78.022 47.2695 65.9317 40.4042 60.747L30.5099 53.2749C26.9177 51.4666 18.5879 46.9307 14.0062 43.2536C8.27904 38.6571 4.51714 33.1026 4.64576 32.9284C4.74865 32.789 4.38342 31.0117 4.18794 30.1405C4.51204 30.8375 5.28885 32.0573 5.80332 31.3604C6.31779 30.6635 6.74142 27.8177 6.88892 26.4819L9.7904 25.9597Z" fill="#FDA3C4"/>
<path d="M6.29579 38.7875C5.64964 38.2995 5.10824 38.976 4.91831 39.3753L3.47719 38.5583C2.40904 38.6562 0.419622 38.9085 1.00713 39.1351C1.59464 39.3617 2.80645 39.6799 3.33891 39.8107C3.77963 39.7817 5.95339 40.6997 11.1226 44.6035C17.5842 49.4832 17.2356 48.6773 17.8414 49.1348C18.4472 49.5922 7.10348 39.3974 6.29579 38.7875Z" fill="#FDA3C4"/>
</svg>
