<svg width="108" height="102" viewBox="0 0 108 102" fill="none" xmlns="http://www.w3.org/2000/svg">
<rect x="5.29932" y="21.8652" width="46.6686" height="6.33502" rx="3.16751" fill="#F40000" stroke="black"/>
<rect x="0.5" y="25.3848" width="49.8679" height="75.871" rx="3.5" fill="#1F1F1F" stroke="black"/>
<rect x="3.69922" y="25.3848" width="53.387" height="75.871" rx="3.5" fill="#FDA3C4" stroke="black"/>
<rect x="12.9766" y="32.1348" width="39.3104" height="23.3523" rx="3.5" fill="white" stroke="black"/>
<rect x="12.9763" y="61.1797" width="12.1169" height="6.92182" rx="3.46091" stroke="black"/>
<rect x="13.2957" y="61.1797" width="12.1169" height="6.92182" rx="3.46091" stroke="black"/>
<rect x="13.2969" y="69.6875" width="12.1169" height="5.74822" rx="2.87411" stroke="black"/>
<rect x="13.6174" y="69.6875" width="12.1169" height="5.74822" rx="2.87411" stroke="black"/>
<rect x="13.2969" y="77.9023" width="12.1169" height="5.74822" rx="2.87411" stroke="black"/>
<rect x="13.6174" y="77.9023" width="12.1169" height="5.74822" rx="2.87411" stroke="black"/>
<rect x="13.2969" y="86.1172" width="12.1169" height="5.74822" rx="2.87411" stroke="black"/>
<rect x="13.6174" y="86.1172" width="12.1169" height="5.74822" rx="2.87411" fill="#F40000" stroke="black"/>
<rect x="27.3733" y="61.1797" width="12.1169" height="6.92182" rx="3.46091" stroke="black"/>
<rect x="27.6931" y="61.1797" width="12.1169" height="6.92182" rx="3.46091" stroke="black"/>
<rect x="27.6943" y="69.6875" width="12.1169" height="5.74822" rx="2.87411" stroke="black"/>
<rect x="28.0134" y="69.6875" width="12.1169" height="5.74822" rx="2.87411" stroke="black"/>
<rect x="27.6943" y="77.9023" width="12.1169" height="5.74822" rx="2.87411" stroke="black"/>
<rect x="28.0134" y="77.9023" width="12.1169" height="5.74822" rx="2.87411" stroke="black"/>
<rect x="27.6943" y="86.1172" width="12.1169" height="5.74822" rx="2.87411" stroke="black"/>
<rect x="28.0134" y="86.1172" width="12.1169" height="5.74822" rx="2.87411" fill="white" stroke="black"/>
<rect x="41.7703" y="61.1797" width="12.1169" height="6.92182" rx="3.46091" stroke="black"/>
<rect x="42.0896" y="61.1797" width="12.1169" height="6.92182" rx="3.46091" stroke="black"/>
<rect x="42.0898" y="69.6875" width="12.1169" height="5.74822" rx="2.87411" stroke="black"/>
<rect x="42.4094" y="69.6875" width="12.1169" height="5.74822" rx="2.87411" stroke="black"/>
<rect x="42.0898" y="77.9023" width="12.1169" height="5.74822" rx="2.87411" stroke="black"/>
<rect x="42.4094" y="77.9023" width="12.1169" height="5.74822" rx="2.87411" stroke="black"/>
<path d="M42.2937 33.5598C42.1963 31.5627 43.7888 29.8906 45.7882 29.8906L89.9475 29.8906C91.736 29.8905 93.2373 31.2389 93.4287 33.0172L95.9864 56.7777C96.199 58.7524 94.7278 60.5075 92.7464 60.6429L47.339 63.7462C45.3834 63.8798 43.6987 62.3814 43.6033 60.4235L42.2937 33.5598Z" fill="#F40000" stroke="black"/>
<path d="M43.4313 33.9196C43.336 31.9238 44.9281 30.254 46.9262 30.2541L89.9242 30.2559C91.7157 30.256 93.2184 31.6089 93.406 33.3906L95.9086 57.157C96.116 59.1269 94.6489 60.8757 92.673 61.0138L48.4539 64.1027C46.495 64.2396 44.8063 62.7383 44.7128 60.7768L43.4313 33.9196Z" stroke="black"/>
<rect x="50.0811" y="39.7324" width="5.85072" height="5.80633" rx="2.5" fill="white" stroke="black"/>
<path d="M50.3055 51.6085C50.2446 51.3024 50.4756 51.0167 50.7875 51.0122L59.0298 50.8953C59.2714 50.8918 59.4814 51.0617 59.5286 51.2988L59.7553 52.4372L60.2456 52.3408L59.7553 52.4372C59.8162 52.7433 59.5852 53.029 59.2733 53.0335L51.031 53.1504C50.7894 53.1539 50.5794 52.984 50.5322 52.7469L50.3055 51.6085Z" fill="white" stroke="black"/>
<path d="M61.7237 51.4484C61.6628 51.1423 61.8938 50.8565 62.2057 50.8521L70.448 50.7351C70.6896 50.7317 70.8996 50.9016 70.9468 51.1387L71.1735 52.277L71.6639 52.1807L71.1735 52.277C71.2344 52.5831 71.0034 52.8689 70.6915 52.8733L62.4492 52.9903C62.2076 52.9937 61.9976 52.8238 61.9504 52.5867L61.7237 51.4484Z" fill="white" stroke="black"/>
<path d="M73.1376 51.2882C73.0766 50.9821 73.3076 50.6963 73.6195 50.6919L81.8618 50.575C82.1034 50.5715 82.3134 50.7414 82.3606 50.9785L82.5873 52.1169L83.0777 52.0205L82.5873 52.1169C82.6482 52.4229 82.4172 52.7087 82.1053 52.7132L73.863 52.8301C73.6214 52.8336 73.4114 52.6637 73.3642 52.4266L73.1376 51.2882Z" fill="white" stroke="black"/>
<path d="M84.4849 51.1064C84.4366 50.8058 84.6658 50.5328 84.9701 50.5285L91.0616 50.442C91.3103 50.4385 91.5242 50.6183 91.5637 50.864L91.7467 52.0029C91.795 52.3036 91.5658 52.5766 91.2615 52.5809L85.17 52.6673C84.9213 52.6708 84.7074 52.4911 84.6679 52.2454L84.4849 51.1064Z" fill="white" stroke="black"/>
<rect x="0.515669" y="0.486419" width="11.5588" height="1.09344" transform="matrix(0.999645 -0.0266604 0.0316937 0.999498 50.7025 57.7386)" fill="#FDA3C4" stroke="black"/>
<rect x="0.515669" y="0.486419" width="13.5539" height="1.09344" transform="matrix(0.999645 -0.0266604 0.0316937 0.999498 69.5495 56.8597)" fill="#FDA3C4" stroke="black"/>
<mask id="path-36-inside-1_5_11836" fill="white">
<ellipse cx="58.4306" cy="42.6346" rx="0.85634" ry="0.784979"/>
</mask>
<ellipse cx="58.4306" cy="42.6346" rx="0.85634" ry="0.784979" fill="black"/>
<path d="M58.2869 42.6346C58.2869 42.5455 58.3283 42.4819 58.3604 42.4525C58.391 42.4244 58.4184 42.4196 58.4306 42.4196V44.4196C59.3721 44.4196 60.2869 43.7005 60.2869 42.6346H58.2869ZM58.4306 42.4196C58.4427 42.4196 58.4701 42.4244 58.5008 42.4525C58.5328 42.4819 58.5742 42.5455 58.5742 42.6346H56.5742C56.5742 43.7005 57.489 44.4196 58.4306 44.4196V42.4196ZM58.5742 42.6346C58.5742 42.7236 58.5328 42.7873 58.5008 42.8167C58.4701 42.8447 58.4427 42.8496 58.4306 42.8496V40.8496C57.489 40.8496 56.5742 41.5686 56.5742 42.6346H58.5742ZM58.4306 42.8496C58.4184 42.8496 58.391 42.8447 58.3604 42.8167C58.3283 42.7873 58.2869 42.7236 58.2869 42.6346H60.2869C60.2869 41.5686 59.3721 40.8496 58.4306 40.8496V42.8496Z" fill="black" mask="url(#path-36-inside-1_5_11836)"/>
<mask id="path-38-inside-2_5_11836" fill="white">
<path d="M60.0266 44.2814C60.2948 44.064 60.5036 43.7919 60.636 43.487C60.7685 43.1821 60.8209 42.8528 60.7892 42.5259C60.7574 42.199 60.6422 41.8835 60.453 41.6049C60.2638 41.3262 60.0059 41.0923 59.7 40.9219L59.4948 41.2318C59.7477 41.3727 59.961 41.5661 60.1174 41.7965C60.2739 42.0269 60.3691 42.2878 60.3954 42.5581C60.4217 42.8285 60.3783 43.1007 60.2688 43.3528C60.1593 43.6049 59.9867 43.8299 59.7649 44.0097L60.0266 44.2814Z"/>
</mask>
<path d="M60.0266 44.2814C60.2948 44.064 60.5036 43.7919 60.636 43.487C60.7685 43.1821 60.8209 42.8528 60.7892 42.5259C60.7574 42.199 60.6422 41.8835 60.453 41.6049C60.2638 41.3262 60.0059 41.0923 59.7 40.9219L59.4948 41.2318C59.7477 41.3727 59.961 41.5661 60.1174 41.7965C60.2739 42.0269 60.3691 42.2878 60.3954 42.5581C60.4217 42.8285 60.3783 43.1007 60.2688 43.3528C60.1593 43.6049 59.9867 43.8299 59.7649 44.0097L60.0266 44.2814Z" fill="#FDA3C4" stroke="black" stroke-width="2" mask="url(#path-38-inside-2_5_11836)"/>
<mask id="path-39-inside-3_5_11836" fill="white">
<path d="M60.7997 44.6339C61.1031 44.3307 61.3308 43.9705 61.4671 43.5784C61.6035 43.1864 61.6452 42.7718 61.5893 42.3634C61.5334 41.9551 61.3814 41.5628 61.1436 41.2138C60.9059 40.8648 60.5882 40.5674 60.2125 40.3422L60.0023 40.6373C60.3312 40.8345 60.6095 41.0949 60.8177 41.4006C61.0259 41.7062 61.159 42.0497 61.208 42.4073C61.2569 42.7649 61.2204 43.128 61.101 43.4713C60.9816 43.8147 60.7821 44.1301 60.5165 44.3957L60.7997 44.6339Z"/>
</mask>
<path d="M60.7997 44.6339C61.1031 44.3307 61.3308 43.9705 61.4671 43.5784C61.6035 43.1864 61.6452 42.7718 61.5893 42.3634C61.5334 41.9551 61.3814 41.5628 61.1436 41.2138C60.9059 40.8648 60.5882 40.5674 60.2125 40.3422L60.0023 40.6373C60.3312 40.8345 60.6095 41.0949 60.8177 41.4006C61.0259 41.7062 61.159 42.0497 61.208 42.4073C61.2569 42.7649 61.2204 43.128 61.101 43.4713C60.9816 43.8147 60.7821 44.1301 60.5165 44.3957L60.7997 44.6339Z" fill="#FDA3C4" stroke="black" stroke-width="2" mask="url(#path-39-inside-3_5_11836)"/>
<mask id="path-40-inside-4_5_11836" fill="white">
<path d="M61.487 45.197C61.9026 44.8603 62.226 44.4387 62.4312 43.9663C62.6364 43.4939 62.7177 42.9838 62.6684 42.4773C62.6192 41.9707 62.4408 41.4819 62.1477 41.0503C61.8545 40.6186 61.4549 40.2561 60.9809 39.9922L60.7527 40.3368C61.1677 40.568 61.5177 40.8854 61.7744 41.2634C62.0312 41.6414 62.1874 42.0695 62.2305 42.5131C62.2736 42.9567 62.2025 43.4034 62.0228 43.8171C61.8431 44.2308 61.5598 44.6 61.1959 44.8949L61.487 45.197Z"/>
</mask>
<path d="M61.487 45.197C61.9026 44.8603 62.226 44.4387 62.4312 43.9663C62.6364 43.4939 62.7177 42.9838 62.6684 42.4773C62.6192 41.9707 62.4408 41.4819 62.1477 41.0503C61.8545 40.6186 61.4549 40.2561 60.9809 39.9922L60.7527 40.3368C61.1677 40.568 61.5177 40.8854 61.7744 41.2634C62.0312 41.6414 62.1874 42.0695 62.2305 42.5131C62.2736 42.9567 62.2025 43.4034 62.0228 43.8171C61.8431 44.2308 61.5598 44.6 61.1959 44.8949L61.487 45.197Z" fill="#FDA3C4" stroke="black" stroke-width="2" mask="url(#path-40-inside-4_5_11836)"/>
<rect x="42.0898" y="86.1172" width="12.1169" height="5.74822" rx="2.87411" fill="white" stroke="black"/>
<rect x="42.4094" y="86.1172" width="12.1169" height="5.74822" rx="2.87411" fill="white" stroke="black"/>
<path d="M33.0914 51.7309C33.0914 52.3061 32.5691 52.8446 31.8318 52.8446C31.0946 52.8446 30.5723 52.3061 30.5723 51.7309C30.5723 51.1557 31.0946 50.6172 31.8318 50.6172C32.5691 50.6172 33.0914 51.1557 33.0914 51.7309Z" fill="#F40000" stroke="black"/>
<mask id="path-44-inside-5_5_11836" fill="white">
<path d="M28.5938 48.9726C27.8449 48.8777 27.3108 48.1758 27.6703 47.5055C27.9332 47.0152 28.2988 46.5721 28.751 46.2034C29.5766 45.5304 30.6368 45.1497 31.7411 45.1296C32.8454 45.1096 33.9213 45.4515 34.7752 46.094C35.2335 46.4388 35.6117 46.8581 35.8939 47.3267C36.2888 47.9826 35.7482 48.7412 34.979 48.8673C34.2685 48.9838 33.6045 48.4611 33.0386 48.0353C32.6887 47.7721 32.2478 47.6319 31.7953 47.6402C31.3428 47.6484 30.9083 47.8044 30.5701 48.0802C30.0283 48.5218 29.3943 49.0741 28.7088 48.9872L28.5938 48.9726Z"/>
</mask>
<path d="M28.5938 48.9726C27.8449 48.8777 27.3108 48.1758 27.6703 47.5055C27.9332 47.0152 28.2988 46.5721 28.751 46.2034C29.5766 45.5304 30.6368 45.1497 31.7411 45.1296C32.8454 45.1096 33.9213 45.4515 34.7752 46.094C35.2335 46.4388 35.6117 46.8581 35.8939 47.3267C36.2888 47.9826 35.7482 48.7412 34.979 48.8673C34.2685 48.9838 33.6045 48.4611 33.0386 48.0353C32.6887 47.7721 32.2478 47.6319 31.7953 47.6402C31.3428 47.6484 30.9083 47.8044 30.5701 48.0802C30.0283 48.5218 29.3943 49.0741 28.7088 48.9872L28.5938 48.9726Z" fill="#F40000" stroke="black" stroke-width="2" mask="url(#path-44-inside-5_5_11836)"/>
<mask id="path-45-inside-6_5_11836" fill="white">
<path d="M26.1281 46.4529C25.3309 46.3519 24.7667 45.6154 25.0665 44.8653C25.4837 43.8218 26.1773 42.881 27.0952 42.1327C28.4102 41.0608 30.0991 40.4543 31.8581 40.4223C33.6171 40.3904 35.3308 40.9351 36.691 41.9585C37.6294 42.6645 38.357 43.5665 38.8197 44.5795C39.1586 45.3213 38.5923 46.1175 37.7735 46.2518C37.0095 46.377 36.3137 45.8647 35.9214 45.2134C35.6492 44.7616 35.2845 44.3573 34.8425 44.0248C34.0188 43.405 32.981 43.0752 31.9157 43.0945C30.8505 43.1138 29.8277 43.4811 29.0314 44.1303C28.6323 44.4556 28.3032 44.841 28.0558 45.2664C27.6486 45.9667 26.9253 46.554 26.1281 46.4529Z"/>
</mask>
<path d="M26.1281 46.4529C25.3309 46.3519 24.7667 45.6154 25.0665 44.8653C25.4837 43.8218 26.1773 42.881 27.0952 42.1327C28.4102 41.0608 30.0991 40.4543 31.8581 40.4223C33.6171 40.3904 35.3308 40.9351 36.691 41.9585C37.6294 42.6645 38.357 43.5665 38.8197 44.5795C39.1586 45.3213 38.5923 46.1175 37.7735 46.2518C37.0095 46.377 36.3137 45.8647 35.9214 45.2134C35.6492 44.7616 35.2845 44.3573 34.8425 44.0248C34.0188 43.405 32.981 43.0752 31.9157 43.0945C30.8505 43.1138 29.8277 43.4811 29.0314 44.1303C28.6323 44.4556 28.3032 44.841 28.0558 45.2664C27.6486 45.9667 26.9253 46.554 26.1281 46.4529Z" fill="#F40000" stroke="black" stroke-width="2" mask="url(#path-45-inside-6_5_11836)"/>
<mask id="path-46-inside-7_5_11836" fill="white">
<path d="M23.4504 43.5003C22.5902 43.3913 21.9842 42.6005 22.266 41.7766C22.8143 40.1734 23.825 38.7245 25.2048 37.5904C27.0112 36.1057 29.3333 35.2568 31.758 35.1947C34.1828 35.1326 36.5529 35.8612 38.4469 37.2511C39.881 38.3035 40.9716 39.6833 41.6189 41.2391C41.9573 42.0524 41.3616 42.9179 40.4795 43.0761C39.6589 43.2233 38.8972 42.6954 38.5418 41.9575C38.0834 41.0057 37.3798 40.1618 36.4821 39.503C35.1693 38.5397 33.5265 38.0346 31.8459 38.0776C30.1652 38.1207 28.5557 38.7091 27.3036 39.7382C26.4786 40.4163 25.844 41.2568 25.4413 42.1882C25.0951 42.9888 24.3106 43.6093 23.4504 43.5003Z"/>
</mask>
<path d="M23.4504 43.5003C22.5902 43.3913 21.9842 42.6005 22.266 41.7766C22.8143 40.1734 23.825 38.7245 25.2048 37.5904C27.0112 36.1057 29.3333 35.2568 31.758 35.1947C34.1828 35.1326 36.5529 35.8612 38.4469 37.2511C39.881 38.3035 40.9716 39.6833 41.6189 41.2391C41.9573 42.0524 41.3616 42.9179 40.4795 43.0761C39.6589 43.2233 38.8972 42.6954 38.5418 41.9575C38.0834 41.0057 37.3798 40.1618 36.4821 39.503C35.1693 38.5397 33.5265 38.0346 31.8459 38.0776C30.1652 38.1207 28.5557 38.7091 27.3036 39.7382C26.4786 40.4163 25.844 41.2568 25.4413 42.1882C25.0951 42.9888 24.3106 43.6093 23.4504 43.5003Z" fill="#F40000" stroke="black" stroke-width="2" mask="url(#path-46-inside-7_5_11836)"/>
<rect x="14.2568" y="28.0273" width="21.0747" height="1.34721" rx="0.673603" fill="#FDA3C4" stroke="black"/>
<path d="M16.636 28.1127C16.636 29.2863 15.463 29.5797 14.8765 29.5797C25.4873 29.9709 47.0288 30.7533 48.3085 30.7533C49.5882 30.7533 50.0148 29.9709 50.0681 29.5797L51.0279 2.5868L48.3085 5.08071L46.7089 2.5868L44.9493 5.08071L42.7098 2.5868L40.1504 4.20051L38.2309 2.5868L36.4713 4.20051L35.0317 2L33.2721 4.20051L31.6725 2L29.273 4.20051L27.8334 2L26.0738 4.20051L24.3142 2L22.3947 4.20051L20.6351 2L18.5556 4.20051L16.636 2V28.1127Z" fill="white" stroke="black"/>
<path d="M74.8194 63.5581C73.4682 66.2101 74.92 71.7822 75.8148 74.2368L76.3713 74.4753L73.422 76.9394C73.15 77.03 72.3576 77.1668 71.3639 76.9895C70.3702 76.8122 71.0988 75.7368 71.5874 75.2212C71.402 75.1418 70.3157 75.6083 69.2327 74.5229C68.2346 73.5224 69.4737 72.6866 70.5005 71.9942L70.5319 71.9729C70.1672 72.0237 68.7763 71.6191 68.3008 69.5895C67.7672 67.3122 71.2205 67.2972 71.9064 67.2805C72.4551 67.2671 72.1108 66.4361 71.8701 66.0223C70.5552 63.2841 76.5084 60.2432 74.8194 63.5581Z" fill="#FDA3C4"/>
<path d="M104.997 76.8009C104.151 77.9295 98.1653 81.1223 95.2783 82.5777L95.1484 82.8326C95.3026 83.4165 95.5107 84.914 95.1095 86.2333C94.7083 87.5526 96.6851 86.9085 97.7236 86.4216C98.6123 88.6664 101.988 86.6956 101.284 86.0831C100.72 85.5932 101.482 85.029 101.933 84.8082C105.363 84.7247 104.716 81.3407 104.012 80.7283C103.308 80.1158 104.402 79.9633 105.886 79.0458C107.369 78.1282 106.054 75.3901 104.997 76.8009Z" fill="#FDA3C4"/>
<path d="M74.8194 63.5581C73.4682 66.2101 74.92 71.7822 75.8148 74.2368L76.3713 74.4753L73.422 76.9394C73.15 77.03 72.3576 77.1668 71.3639 76.9895C70.3702 76.8122 71.0988 75.7368 71.5874 75.2212C71.402 75.1418 70.3157 75.6083 69.2327 74.5229C68.2346 73.5224 69.4737 72.6866 70.5005 71.9942L70.5319 71.9729C70.1672 72.0237 68.7763 71.6191 68.3008 69.5895C67.7672 67.3122 71.2205 67.2972 71.9064 67.2805C72.4551 67.2671 72.1108 66.4361 71.8701 66.0223C70.5552 63.2841 76.5084 60.2432 74.8194 63.5581Z" stroke="black"/>
<path d="M104.997 76.8009C104.151 77.9295 98.1653 81.1223 95.2783 82.5777L95.1484 82.8326C95.3026 83.4165 95.5107 84.914 95.1095 86.2333C94.7083 87.5526 96.6851 86.9085 97.7236 86.4216C98.6123 88.6664 101.988 86.6956 101.284 86.0831C100.72 85.5932 101.482 85.029 101.933 84.8082C105.363 84.7247 104.716 81.3407 104.012 80.7283C103.308 80.1158 104.402 79.9633 105.886 79.0458C107.369 78.1282 106.054 75.3901 104.997 76.8009Z" stroke="black"/>
<path d="M93.6285 88.7041C90.8236 94.2091 83.6548 96.6248 77.5883 94.025C71.5219 91.4253 68.9431 84.8325 71.7479 79.3275C74.5528 73.8225 81.7216 71.4068 87.7881 74.0065C93.8546 76.6062 96.4334 83.1991 93.6285 88.7041Z" fill="white" stroke="black"/>
<path d="M94.1851 88.9424C91.3802 94.4474 84.2115 96.863 78.145 94.2633C72.0785 91.6636 69.4997 85.0708 72.3046 79.5658C75.1095 74.0608 82.2782 71.6451 88.3447 74.2448C94.4112 76.8445 96.99 83.4374 94.1851 88.9424Z" fill="white" stroke="black"/>
<path d="M75.3821 82.9328C75.2022 82.8516 75.0261 82.7633 74.8538 82.6679C74.6841 82.5678 74.513 82.4701 74.3407 82.3748C74.243 82.3189 74.181 82.25 74.1549 82.1679C74.1338 82.0881 74.1396 82 74.1723 81.9034C74.2174 81.7599 74.2716 81.6233 74.3348 81.4937C74.4005 81.3594 74.4662 81.2251 74.5319 81.0908L74.6684 80.8186L74.8355 80.5251C74.8988 80.4073 74.8687 80.3205 74.7454 80.2648L74.171 79.9967C74.1272 79.9711 74.0822 79.9479 74.036 79.927C73.9923 79.9014 73.9562 79.8675 73.9277 79.8254C73.8218 79.7015 73.8005 79.5806 73.8637 79.4627L73.898 79.4167C73.9868 79.287 74.1159 79.2369 74.2852 79.2665C74.3775 79.2848 74.4751 79.3171 74.5779 79.3635L75.0483 79.5935C75.11 79.6213 75.1613 79.6386 75.2024 79.6454C75.246 79.6476 75.283 79.6379 75.3136 79.6166C75.3519 79.5929 75.3888 79.5539 75.4243 79.4997C75.4598 79.4454 75.5042 79.3747 75.5574 79.2875C75.6562 79.1271 75.7486 78.9668 75.8347 78.8066C75.9232 78.6416 76.0169 78.4789 76.1158 78.3186C76.1918 78.1889 76.2783 78.105 76.3754 78.0669C76.4725 78.0287 76.593 78.0363 76.7368 78.0895C76.9449 78.1658 77.1491 78.2493 77.3496 78.3398C77.4883 78.4024 77.6207 78.471 77.7468 78.5455C77.8754 78.6152 77.9963 78.6991 78.1097 78.7972C78.2102 78.8835 78.2723 78.9642 78.2958 79.0393C78.3219 79.1096 78.3072 79.2025 78.2516 79.318C78.2289 79.3722 78.2024 79.4275 78.172 79.4841C78.1416 79.5406 78.1126 79.5949 78.0847 79.6467L77.568 80.5202C77.5225 80.6168 77.4973 80.6815 77.4924 80.7145C77.4875 80.7474 77.521 80.7801 77.593 80.8126L77.7201 80.8612C77.8023 80.8866 77.8832 80.9143 77.9628 80.9444C78.0424 80.9745 78.1221 81.0046 78.2017 81.0347L78.2248 81.0451C78.3533 81.1031 78.4396 81.1743 78.4838 81.2587C78.5279 81.343 78.531 81.4323 78.4932 81.5265L78.4781 81.5548C78.3844 81.7292 78.2067 81.7807 77.9449 81.7093C77.8294 81.6747 77.7151 81.6378 77.6021 81.5985C77.4891 81.5592 77.3787 81.5152 77.2707 81.4664C77.186 81.434 77.1193 81.4274 77.0708 81.4464C77.0222 81.4655 76.9802 81.508 76.9448 81.574C76.8461 81.7579 76.75 81.9429 76.6565 82.129C76.5629 82.3152 76.4771 82.5048 76.399 82.6979L76.346 82.8145C76.1992 83.0879 75.9512 83.1575 75.6018 83.0232L75.3821 82.9328Z" fill="#F40000"/>
<path d="M78.426 87.2145C78.133 87.0822 77.8476 86.9358 77.5698 86.7753C77.4284 86.6938 77.3381 86.6004 77.2989 86.4949C77.2572 86.3941 77.2617 86.2965 77.3123 86.2022C77.3604 86.1127 77.4521 86.0311 77.5874 85.9575C77.8811 85.8266 78.1592 85.6594 78.4218 85.4558C78.6843 85.2522 78.9403 85.0311 79.1898 84.7924L81.2174 82.853C81.4923 82.5906 81.7531 82.3189 81.9997 82.0379C82.2463 81.7569 82.4852 81.4665 82.7163 81.1668C82.7849 81.0748 82.8444 80.9816 82.895 80.8873C83.0443 80.6092 83.1206 80.3245 83.1237 80.0331C83.1269 79.7417 83.1018 79.4435 83.0485 79.1383C83.0299 79.0421 82.9744 78.9731 82.8818 78.9313C82.7945 78.8919 82.6984 78.8865 82.5935 78.9153C82.4656 78.9513 82.3468 79.0001 82.2371 79.0619C82.1325 79.1259 82.0305 79.2028 81.9312 79.2927C81.7886 79.4157 81.6614 79.5515 81.5496 79.7002C81.4456 79.8464 81.3505 79.9997 81.2645 80.16L80.7787 81.065C80.6976 81.1923 80.6072 81.2774 80.5076 81.3203C80.4131 81.3655 80.3144 81.3649 80.2116 81.3185L80.1962 81.3115C80.1011 81.2627 80.0366 81.1926 80.0026 81.1011C79.9764 81.0073 79.9949 80.9015 80.0581 80.7836L80.0695 80.7624C80.1404 80.6304 80.2074 80.4996 80.2706 80.37C80.3363 80.2357 80.4045 80.1026 80.4754 79.9706C80.5791 79.7773 80.6906 79.5934 80.8099 79.4189C80.9316 79.2396 81.0701 79.0708 81.2253 78.9125C81.378 78.7589 81.5436 78.6229 81.7222 78.5044C81.9007 78.3859 82.1 78.2943 82.3199 78.2296C82.6497 78.1267 82.9611 78.1414 83.254 78.2736L83.4159 78.3467C83.5187 78.3932 83.6215 78.4396 83.7243 78.486C83.8348 78.53 83.9414 78.5752 84.0442 78.6216C84.2241 78.7028 84.4002 78.7911 84.5725 78.8865C84.9274 79.0818 85.1253 79.3615 85.1662 79.7255C85.2042 80.0471 85.2243 80.3666 85.2264 80.6838C85.2311 80.9963 85.1653 81.3091 85.0291 81.6224L84.9495 81.7885C84.8534 81.9676 84.7431 82.1374 84.6186 82.2979C84.4967 82.4537 84.3709 82.6107 84.2413 82.7688C83.9567 83.1205 83.6502 83.4536 83.3219 83.768C83.0011 84.0799 82.6779 84.3966 82.3521 84.718C82.2248 84.8362 82.095 84.9591 81.9626 85.0868C81.8303 85.2144 81.6992 85.3397 81.5693 85.4626C81.4395 85.5855 81.3122 85.7037 81.1874 85.8172C81.0678 85.933 80.9596 86.0394 80.8629 86.1363C80.7763 86.2143 80.6884 86.2888 80.5992 86.3598C80.5075 86.4355 80.4145 86.5077 80.3201 86.5764L79.8041 86.9846C79.8401 87.0126 79.8736 87.0336 79.9044 87.0475C79.9379 87.0685 79.9726 87.0871 80.0086 87.1033C80.1011 87.1451 80.1897 87.1763 80.2744 87.197C80.3514 87.22 80.4246 87.2443 80.4939 87.2697C80.5684 87.2975 80.6416 87.3276 80.7136 87.3601L81.2534 87.6214L81.4962 87.7222C81.599 87.7686 81.6673 87.8317 81.7011 87.9114C81.7401 87.9934 81.7458 88.078 81.7182 88.1651L81.6954 88.2075C81.655 88.2829 81.5913 88.3361 81.5044 88.3672C81.4149 88.4029 81.3074 88.407 81.1816 88.3796C81.0893 88.3613 80.9917 88.329 80.8889 88.2825L80.4416 88.063C80.272 87.9865 80.0999 87.9146 79.9252 87.8475C79.7557 87.7826 79.5861 87.7119 79.4165 87.6353C79.3908 87.6237 79.3368 87.5994 79.2546 87.5622C79.1698 87.5298 79.076 87.4904 78.9732 87.444C78.8679 87.4023 78.7638 87.3583 78.661 87.3119C78.5609 87.2725 78.4825 87.24 78.426 87.2145Z" fill="#F40000"/>
<path d="M86.3086 90.7118C86.2083 90.6607 86.1068 90.6119 86.004 90.5655C85.9012 90.5191 85.7984 90.4727 85.6956 90.4263L85.2445 90.2139L85.0247 90.1058C84.9116 90.043 84.8342 89.9671 84.7926 89.8781C84.751 89.789 84.7543 89.6997 84.8023 89.6102C84.8327 89.5536 84.8695 89.5087 84.9129 89.4756C85.0479 89.3667 85.1714 89.2497 85.2833 89.1246C85.3926 89.0041 85.5007 88.8801 85.6074 88.7527C85.7117 88.6299 85.8171 88.5047 85.9239 88.3773C86.0281 88.2545 86.1413 88.1328 86.2635 88.0123C86.5079 87.783 86.7317 87.5385 86.9349 87.2789C87.1381 87.0193 87.3516 86.7643 87.5754 86.514C87.8245 86.2283 88.0828 85.9613 88.3501 85.7131C88.8872 85.1884 89.405 84.658 89.9035 84.1218C90.4097 83.5832 90.9084 83.0587 91.3994 82.5484C91.4325 82.5106 91.4655 82.4728 91.4986 82.435C91.5316 82.3973 91.566 82.363 91.6016 82.3322C91.7442 82.1975 91.9029 82.1696 92.0776 82.2485L92.7638 82.5583C92.8768 82.6093 92.9899 82.6604 93.103 82.7114C93.2161 82.7625 93.3266 82.8182 93.4346 82.8787C93.5478 82.9415 93.6188 83.0175 93.6475 83.1066C93.6763 83.1957 93.6642 83.2898 93.611 83.3888C93.6009 83.4076 93.5882 83.4253 93.5729 83.4418C93.5628 83.4607 93.5489 83.4807 93.5311 83.502C93.4396 83.6129 93.343 83.7216 93.2412 83.8279C93.1446 83.9365 93.0428 84.0428 92.9359 84.1468C92.4677 84.6265 91.9945 85.1214 91.5163 85.6317C91.0406 86.1372 90.5444 86.6393 90.0276 87.138C89.7247 87.4287 89.445 87.7358 89.1884 88.0591C88.9395 88.3801 88.67 88.6918 88.38 88.9942C88.2146 89.1714 88.0544 89.345 87.8992 89.515C87.7416 89.6898 87.589 89.8669 87.4417 90.0463C87.3426 90.1714 87.2383 90.2824 87.1288 90.3794C87.0167 90.4811 86.9021 90.5816 86.7849 90.6809C86.7187 90.7447 86.6446 90.7757 86.5626 90.7738C86.4806 90.7719 86.396 90.7513 86.3086 90.7118ZM88.3634 83.6899C88.4353 83.7224 88.5071 83.7314 88.5788 83.7169C88.6504 83.7024 88.7168 83.6738 88.778 83.6312C88.9387 83.5222 89.0852 83.4039 89.2176 83.2762C89.3525 83.1439 89.4642 82.9952 89.5528 82.8303C89.5654 82.8067 89.5793 82.7808 89.5945 82.7525C89.6097 82.7242 89.6223 82.6948 89.6324 82.6642C89.7104 82.4593 89.6988 82.2667 89.5977 82.0863C89.5355 81.9762 89.4607 81.9015 89.3733 81.862C89.3013 81.8295 89.2257 81.8218 89.1464 81.8387C89.0671 81.8556 88.9892 81.8995 88.9129 81.9704C88.8008 82.0721 88.7029 82.183 88.6192 82.3034C88.538 82.4189 88.462 82.5427 88.3911 82.6747C88.3456 82.7713 88.3002 82.8679 88.2547 82.9645C88.2118 83.0564 88.1817 83.1541 88.1645 83.2575C88.1522 83.3399 88.154 83.4197 88.1699 83.4972C88.1883 83.5699 88.2425 83.6295 88.3325 83.676L88.3634 83.6899ZM87.9296 84.3374C87.8603 84.3119 87.7819 84.2795 87.6945 84.24C87.6123 84.2029 87.5301 84.1658 87.4478 84.1286C87.3553 84.0869 87.2564 84.0451 87.1511 84.0034L86.6037 83.7563C86.1717 83.5261 85.9683 83.1854 85.9934 82.7342C85.9978 82.6307 86.0138 82.5296 86.0413 82.4308C86.0714 82.3272 86.104 82.2248 86.1392 82.1236C86.187 81.9988 86.2426 81.8775 86.3058 81.7596C86.4602 81.4721 86.6607 81.1996 86.9075 80.942C87.0423 80.7979 87.2042 80.6807 87.3932 80.5904C87.5439 80.5237 87.691 80.4876 87.8344 80.4821C87.9855 80.4742 88.1433 80.5074 88.3078 80.5816C88.4723 80.6559 88.6418 80.7266 88.8165 80.7938C88.9912 80.8609 89.1659 80.9339 89.3407 81.0128L89.6954 81.1906C89.968 81.337 90.1756 81.5332 90.3181 81.7791C90.4607 82.025 90.5086 82.2926 90.4619 82.5819C90.4325 82.7794 90.3685 82.9701 90.2698 83.154C90.2495 83.1917 90.2267 83.2282 90.2013 83.2636C90.1836 83.2966 90.1621 83.3308 90.1367 83.3662C90.025 83.5148 89.9042 83.6565 89.7745 83.7912C89.6472 83.9211 89.5059 84.0418 89.3503 84.1531C89.1336 84.307 88.9062 84.4035 88.6682 84.4424C88.4379 84.479 88.1917 84.444 87.9296 84.3374ZM88.9784 91.109C89.0606 91.1462 89.1375 91.1516 89.2091 91.1253C89.2858 91.1014 89.3611 91.0681 89.4351 91.0254C89.5881 90.9188 89.7232 90.804 89.8402 90.6812C89.9624 90.5607 90.0551 90.4474 90.1184 90.3413C90.2146 90.1621 90.2724 90.0009 90.292 89.8574C90.3115 89.714 90.2747 89.5744 90.1815 89.4386C90.1272 89.3614 90.0615 89.3054 89.9844 89.2706C89.9176 89.2404 89.8483 89.2326 89.7767 89.2471C89.7076 89.2569 89.6412 89.2913 89.5776 89.3504C89.3509 89.5467 89.1667 89.7769 89.025 90.0408C88.9744 90.1351 88.9289 90.2317 88.8886 90.3306C88.8509 90.4366 88.8196 90.5425 88.7946 90.6484C88.7747 90.7331 88.7701 90.813 88.7809 90.8881C88.7968 90.9656 88.8459 91.0287 88.9282 91.0776L88.9784 91.109ZM88.6023 91.7561C88.407 91.668 88.2511 91.5361 88.1346 91.3605C88.0207 91.192 87.9694 90.9902 87.9806 90.7552C87.9896 90.5719 88.0256 90.3978 88.0886 90.233C88.1566 90.0704 88.2273 89.9091 88.3005 89.7489C88.4651 89.466 88.6504 89.21 88.8564 88.9809C88.9073 88.9219 88.962 88.8675 89.0206 88.8179C89.0843 88.7705 89.1468 88.7255 89.208 88.6829C89.3941 88.5502 89.5807 88.4822 89.7677 88.4788C89.9624 88.473 90.1419 88.5072 90.3064 88.5815C90.5274 88.6813 90.7026 88.8248 90.832 89.012C91.0131 89.2694 91.1006 89.5286 91.0947 89.7894C91.0965 90.0479 91.0265 90.3091 90.8848 90.5731L90.8392 90.6579C90.7303 90.8371 90.6007 91.0011 90.4506 91.15C90.303 91.3059 90.1413 91.4467 89.9653 91.5722C89.8939 91.6219 89.8199 91.6646 89.7433 91.7003C89.6718 91.7383 89.5939 91.7705 89.5095 91.7968C89.3408 91.8495 89.1795 91.8704 89.0257 91.8595C88.8771 91.8509 88.7359 91.8165 88.6023 91.7561Z" fill="#F40000"/>
<path d="M75.3821 82.9328C75.2022 82.8516 75.0261 82.7633 74.8538 82.6679C74.6841 82.5678 74.513 82.4701 74.3407 82.3748C74.243 82.3189 74.181 82.25 74.1549 82.1679C74.1338 82.0881 74.1396 82 74.1723 81.9034C74.2174 81.7599 74.2716 81.6233 74.3348 81.4937C74.4005 81.3594 74.4662 81.2251 74.5319 81.0908L74.6684 80.8186L74.8355 80.5251C74.8988 80.4073 74.8687 80.3205 74.7454 80.2648L74.171 79.9967C74.1272 79.9711 74.0822 79.9479 74.036 79.927C73.9923 79.9014 73.9562 79.8675 73.9277 79.8254C73.8218 79.7015 73.8005 79.5806 73.8637 79.4627L73.898 79.4167C73.9868 79.287 74.1159 79.2369 74.2852 79.2665C74.3775 79.2848 74.4751 79.3171 74.5779 79.3635L75.0483 79.5935C75.11 79.6213 75.1613 79.6386 75.2024 79.6454C75.246 79.6476 75.283 79.6379 75.3136 79.6166C75.3519 79.5929 75.3888 79.5539 75.4243 79.4997C75.4598 79.4454 75.5042 79.3747 75.5574 79.2875C75.6562 79.1271 75.7486 78.9668 75.8347 78.8066C75.9232 78.6416 76.0169 78.4789 76.1158 78.3186C76.1918 78.1889 76.2783 78.105 76.3754 78.0669C76.4725 78.0287 76.593 78.0363 76.7368 78.0895C76.9449 78.1658 77.1491 78.2493 77.3496 78.3398C77.4883 78.4024 77.6207 78.471 77.7468 78.5455C77.8754 78.6152 77.9963 78.6991 78.1097 78.7972C78.2102 78.8835 78.2723 78.9642 78.2958 79.0393C78.3219 79.1096 78.3072 79.2025 78.2516 79.318C78.2289 79.3722 78.2024 79.4275 78.172 79.4841C78.1416 79.5406 78.1126 79.5949 78.0847 79.6467L77.568 80.5202C77.5225 80.6168 77.4973 80.6815 77.4924 80.7145C77.4875 80.7474 77.521 80.7801 77.593 80.8126L77.7201 80.8612C77.8023 80.8866 77.8832 80.9143 77.9628 80.9444C78.0424 80.9745 78.1221 81.0046 78.2017 81.0347L78.2248 81.0451C78.3533 81.1031 78.4396 81.1743 78.4838 81.2587C78.5279 81.343 78.531 81.4323 78.4932 81.5265L78.4781 81.5548C78.3844 81.7292 78.2067 81.7807 77.9449 81.7093C77.8294 81.6747 77.7151 81.6378 77.6021 81.5985C77.4891 81.5592 77.3787 81.5152 77.2707 81.4664C77.186 81.434 77.1193 81.4274 77.0708 81.4464C77.0222 81.4655 76.9802 81.508 76.9448 81.574C76.8461 81.7579 76.75 81.9429 76.6565 82.129C76.5629 82.3152 76.4771 82.5048 76.399 82.6979L76.346 82.8145C76.1992 83.0879 75.9512 83.1575 75.6018 83.0232L75.3821 82.9328Z" stroke="black" stroke-width="0.5"/>
<path d="M78.426 87.2145C78.133 87.0822 77.8476 86.9358 77.5698 86.7753C77.4284 86.6938 77.3381 86.6004 77.2989 86.4949C77.2572 86.3941 77.2617 86.2965 77.3123 86.2022C77.3604 86.1127 77.4521 86.0311 77.5874 85.9575C77.8811 85.8266 78.1592 85.6594 78.4218 85.4558C78.6843 85.2522 78.9403 85.0311 79.1898 84.7924L81.2174 82.853C81.4923 82.5906 81.7531 82.3189 81.9997 82.0379C82.2463 81.7569 82.4852 81.4665 82.7163 81.1668C82.7849 81.0748 82.8444 80.9816 82.895 80.8873C83.0443 80.6092 83.1206 80.3245 83.1237 80.0331C83.1269 79.7417 83.1018 79.4435 83.0485 79.1383C83.0299 79.0421 82.9744 78.9731 82.8818 78.9313C82.7945 78.8919 82.6984 78.8865 82.5935 78.9153C82.4656 78.9513 82.3468 79.0001 82.2371 79.0619C82.1325 79.1259 82.0305 79.2028 81.9312 79.2927C81.7886 79.4157 81.6614 79.5515 81.5496 79.7002C81.4456 79.8464 81.3505 79.9997 81.2645 80.16L80.7787 81.065C80.6976 81.1923 80.6072 81.2774 80.5076 81.3203C80.4131 81.3655 80.3144 81.3649 80.2116 81.3185L80.1962 81.3115C80.1011 81.2627 80.0366 81.1926 80.0026 81.1011C79.9764 81.0073 79.9949 80.9015 80.0581 80.7836L80.0695 80.7624C80.1404 80.6304 80.2074 80.4996 80.2706 80.37C80.3363 80.2357 80.4045 80.1026 80.4754 79.9706C80.5791 79.7773 80.6906 79.5934 80.8099 79.4189C80.9316 79.2396 81.0701 79.0708 81.2253 78.9125C81.378 78.7589 81.5436 78.6229 81.7222 78.5044C81.9007 78.3859 82.1 78.2943 82.3199 78.2296C82.6497 78.1267 82.9611 78.1414 83.254 78.2736L83.4159 78.3467C83.5187 78.3932 83.6215 78.4396 83.7243 78.486C83.8348 78.53 83.9414 78.5752 84.0442 78.6216C84.2241 78.7028 84.4002 78.7911 84.5725 78.8865C84.9274 79.0818 85.1253 79.3615 85.1662 79.7255C85.2042 80.0471 85.2243 80.3666 85.2264 80.6838C85.2311 80.9963 85.1653 81.3091 85.0291 81.6224L84.9495 81.7885C84.8534 81.9676 84.7431 82.1374 84.6186 82.2979C84.4967 82.4537 84.3709 82.6107 84.2413 82.7688C83.9567 83.1205 83.6502 83.4536 83.3219 83.768C83.0011 84.0799 82.6779 84.3966 82.3521 84.718C82.2248 84.8362 82.095 84.9591 81.9626 85.0868C81.8303 85.2144 81.6992 85.3397 81.5693 85.4626C81.4395 85.5855 81.3122 85.7037 81.1874 85.8172C81.0678 85.933 80.9596 86.0394 80.8629 86.1363C80.7763 86.2143 80.6884 86.2888 80.5992 86.3598C80.5075 86.4355 80.4145 86.5077 80.3201 86.5764L79.8041 86.9846C79.8401 87.0126 79.8736 87.0336 79.9044 87.0475C79.9379 87.0685 79.9726 87.0871 80.0086 87.1033C80.1011 87.1451 80.1897 87.1763 80.2744 87.197C80.3514 87.22 80.4246 87.2443 80.4939 87.2697C80.5684 87.2975 80.6416 87.3276 80.7136 87.3601L81.2534 87.6214L81.4962 87.7222C81.599 87.7686 81.6673 87.8317 81.7011 87.9114C81.7401 87.9934 81.7458 88.078 81.7182 88.1651L81.6954 88.2075C81.655 88.2829 81.5913 88.3361 81.5044 88.3672C81.4149 88.4029 81.3074 88.407 81.1816 88.3796C81.0893 88.3613 80.9917 88.329 80.8889 88.2825L80.4416 88.063C80.272 87.9865 80.0999 87.9146 79.9252 87.8475C79.7557 87.7826 79.5861 87.7119 79.4165 87.6353C79.3908 87.6237 79.3368 87.5994 79.2546 87.5622C79.1698 87.5298 79.076 87.4904 78.9732 87.444C78.8679 87.4023 78.7638 87.3583 78.661 87.3119C78.5609 87.2725 78.4825 87.24 78.426 87.2145Z" stroke="black" stroke-width="0.5"/>
<path d="M86.3086 90.7118C86.2083 90.6607 86.1068 90.6119 86.004 90.5655C85.9012 90.5191 85.7984 90.4727 85.6956 90.4263L85.2445 90.2139L85.0247 90.1058C84.9116 90.043 84.8342 89.9671 84.7926 89.8781C84.751 89.789 84.7543 89.6997 84.8023 89.6102C84.8327 89.5536 84.8695 89.5087 84.9129 89.4756C85.0479 89.3667 85.1714 89.2497 85.2833 89.1246C85.3926 89.0041 85.5007 88.8801 85.6074 88.7527C85.7117 88.6299 85.8171 88.5047 85.9239 88.3773C86.0281 88.2545 86.1413 88.1328 86.2635 88.0123C86.5079 87.783 86.7317 87.5385 86.9349 87.2789C87.1381 87.0193 87.3516 86.7643 87.5754 86.514C87.8245 86.2283 88.0828 85.9613 88.3501 85.7131C88.8872 85.1884 89.405 84.658 89.9035 84.1218C90.4097 83.5832 90.9084 83.0587 91.3994 82.5484C91.4325 82.5106 91.4655 82.4728 91.4986 82.435C91.5316 82.3973 91.566 82.363 91.6016 82.3322C91.7442 82.1975 91.9029 82.1696 92.0776 82.2485L92.7638 82.5583C92.8768 82.6093 92.9899 82.6604 93.103 82.7114C93.2161 82.7625 93.3266 82.8182 93.4346 82.8787C93.5478 82.9415 93.6188 83.0175 93.6475 83.1066C93.6763 83.1957 93.6642 83.2898 93.611 83.3888C93.6009 83.4076 93.5882 83.4253 93.5729 83.4418C93.5628 83.4607 93.5489 83.4807 93.5311 83.502C93.4396 83.6129 93.343 83.7216 93.2412 83.8279C93.1446 83.9365 93.0428 84.0428 92.9359 84.1468C92.4677 84.6265 91.9945 85.1214 91.5163 85.6317C91.0406 86.1372 90.5444 86.6393 90.0276 87.138C89.7247 87.4287 89.445 87.7358 89.1884 88.0591C88.9395 88.3801 88.67 88.6918 88.38 88.9942C88.2146 89.1714 88.0544 89.345 87.8992 89.515C87.7416 89.6898 87.589 89.8669 87.4417 90.0463C87.3426 90.1714 87.2383 90.2824 87.1288 90.3794C87.0167 90.4811 86.9021 90.5816 86.7849 90.6809C86.7187 90.7447 86.6446 90.7757 86.5626 90.7738C86.4806 90.7719 86.396 90.7513 86.3086 90.7118ZM88.3634 83.6899C88.4353 83.7224 88.5071 83.7314 88.5788 83.7169C88.6504 83.7024 88.7168 83.6738 88.778 83.6312C88.9387 83.5222 89.0852 83.4039 89.2176 83.2762C89.3525 83.1439 89.4642 82.9952 89.5528 82.8303C89.5654 82.8067 89.5793 82.7808 89.5945 82.7525C89.6097 82.7242 89.6223 82.6948 89.6324 82.6642C89.7104 82.4593 89.6988 82.2667 89.5977 82.0863C89.5355 81.9762 89.4607 81.9015 89.3733 81.862C89.3013 81.8295 89.2257 81.8218 89.1464 81.8387C89.0671 81.8556 88.9892 81.8995 88.9129 81.9704C88.8008 82.0721 88.7029 82.183 88.6192 82.3034C88.538 82.4189 88.462 82.5427 88.3911 82.6747C88.3456 82.7713 88.3002 82.8679 88.2547 82.9645C88.2118 83.0564 88.1817 83.1541 88.1645 83.2575C88.1522 83.3399 88.154 83.4197 88.1699 83.4972C88.1883 83.5699 88.2425 83.6295 88.3325 83.676L88.3634 83.6899ZM87.9296 84.3374C87.8603 84.3119 87.7819 84.2795 87.6945 84.24C87.6123 84.2029 87.5301 84.1658 87.4478 84.1286C87.3553 84.0869 87.2564 84.0451 87.1511 84.0034L86.6037 83.7563C86.1717 83.5261 85.9683 83.1854 85.9934 82.7342C85.9978 82.6307 86.0138 82.5296 86.0413 82.4308C86.0714 82.3272 86.104 82.2248 86.1392 82.1236C86.187 81.9988 86.2426 81.8775 86.3058 81.7596C86.4602 81.4721 86.6607 81.1996 86.9075 80.942C87.0423 80.7979 87.2042 80.6807 87.3932 80.5904C87.5439 80.5237 87.691 80.4876 87.8344 80.4821C87.9855 80.4742 88.1433 80.5074 88.3078 80.5816C88.4723 80.6559 88.6418 80.7266 88.8165 80.7938C88.9912 80.8609 89.1659 80.9339 89.3407 81.0128L89.6954 81.1906C89.968 81.337 90.1756 81.5332 90.3181 81.7791C90.4607 82.025 90.5086 82.2926 90.4619 82.5819C90.4325 82.7794 90.3685 82.9701 90.2698 83.154C90.2495 83.1917 90.2267 83.2282 90.2013 83.2636C90.1836 83.2966 90.1621 83.3308 90.1367 83.3662C90.025 83.5148 89.9042 83.6565 89.7745 83.7912C89.6472 83.9211 89.5059 84.0418 89.3503 84.1531C89.1336 84.307 88.9062 84.4035 88.6682 84.4424C88.4379 84.479 88.1917 84.444 87.9296 84.3374ZM88.9784 91.109C89.0606 91.1462 89.1375 91.1516 89.2091 91.1253C89.2858 91.1014 89.3611 91.0681 89.4351 91.0254C89.5881 90.9188 89.7232 90.804 89.8402 90.6812C89.9624 90.5607 90.0551 90.4474 90.1184 90.3413C90.2146 90.1621 90.2724 90.0009 90.292 89.8574C90.3115 89.714 90.2747 89.5744 90.1815 89.4386C90.1272 89.3614 90.0615 89.3054 89.9844 89.2706C89.9176 89.2404 89.8483 89.2326 89.7767 89.2471C89.7076 89.2569 89.6412 89.2913 89.5776 89.3504C89.3509 89.5467 89.1667 89.7769 89.025 90.0408C88.9744 90.1351 88.9289 90.2317 88.8886 90.3306C88.8509 90.4366 88.8196 90.5425 88.7946 90.6484C88.7747 90.7331 88.7701 90.813 88.7809 90.8881C88.7968 90.9656 88.8459 91.0287 88.9282 91.0776L88.9784 91.109ZM88.6023 91.7561C88.407 91.668 88.2511 91.5361 88.1346 91.3605C88.0207 91.192 87.9694 90.9902 87.9806 90.7552C87.9896 90.5719 88.0256 90.3978 88.0886 90.233C88.1566 90.0704 88.2273 89.9091 88.3005 89.7489C88.4651 89.466 88.6504 89.21 88.8564 88.9809C88.9073 88.9219 88.962 88.8675 89.0206 88.8179C89.0843 88.7705 89.1468 88.7255 89.208 88.6829C89.3941 88.5502 89.5807 88.4822 89.7677 88.4788C89.9624 88.473 90.1419 88.5072 90.3064 88.5815C90.5274 88.6813 90.7026 88.8248 90.832 89.012C91.0131 89.2694 91.1006 89.5286 91.0947 89.7894C91.0965 90.0479 91.0265 90.3091 90.8848 90.5731L90.8392 90.6579C90.7303 90.8371 90.6007 91.0011 90.4506 91.15C90.303 91.3059 90.1413 91.4467 89.9653 91.5722C89.8939 91.6219 89.8199 91.6646 89.7433 91.7003C89.6718 91.7383 89.5939 91.7705 89.5095 91.7968C89.3408 91.8495 89.1795 91.8704 89.0257 91.8595C88.8771 91.8509 88.7359 91.8165 88.6023 91.7561Z" stroke="black" stroke-width="0.5"/>
</svg>
