<svg width="67" height="100" viewBox="0 0 67 100" fill="none" xmlns="http://www.w3.org/2000/svg">
<rect x="12.2722" y="0.5" width="54.2275" height="99" rx="7.5" fill="#FDA3C4" stroke="black"/>
<path d="M63.9235 10.4648V89.5333C63.9235 93.6755 60.5656 97.0333 56.4235 97.0333H22.3467C18.2045 97.0333 14.8467 93.6755 14.8467 89.5333V10.4648C14.8467 6.3227 18.2045 2.96484 22.3467 2.96484H25.4579C25.9341 2.96484 26.3949 2.99693 26.7759 3.11483C27.1479 3.22994 27.3999 3.41193 27.5401 3.68965C27.6738 3.9546 27.7629 4.30281 27.7267 4.75357C27.6875 5.24184 27.741 5.69948 28.0283 6.04047C28.3167 6.38269 28.7392 6.4863 29.1241 6.52409C29.4868 6.5597 29.9306 6.54524 30.4085 6.52967C30.4437 6.52852 30.4791 6.52737 30.5147 6.52623C31.0473 6.50916 31.6563 6.49269 32.3504 6.52592C34.5181 6.62969 43.4145 6.5792 48.3496 6.535C48.5423 6.53327 48.7258 6.54566 48.9294 6.55941C49.0249 6.56587 49.1249 6.57262 49.2324 6.57835C49.548 6.59519 49.9019 6.60019 50.2625 6.52764C50.5899 6.46179 50.9448 6.31821 51.2326 6.03468C51.5272 5.7445 51.7144 5.34406 51.7585 4.83697C51.7958 4.40849 51.8371 4.06699 51.9044 3.79049C51.9713 3.51583 52.0559 3.34084 52.1567 3.22323C52.2475 3.11724 52.3884 3.04409 52.6204 3.00353C52.8444 2.96436 53.0922 2.96457 53.3798 2.96481C53.4024 2.96482 53.4253 2.96484 53.4484 2.96484H56.4235C60.5656 2.96484 63.9235 6.32271 63.9235 10.4648Z" fill="white" stroke="black"/>
<rect x="36.8732" y="3.49454" width="5.59826" height="0.410959" rx="0.205479" fill="black" stroke="black" stroke-width="0.410959"/>
<path d="M18.8558 62.6001C18.7627 60.6054 20.3545 58.9375 22.3514 58.9375L52.0677 58.9374C53.862 58.9374 55.3659 60.2943 55.5499 62.0791L57.2025 78.1066C57.4052 80.0722 55.9416 81.8155 53.9707 81.9561L23.4518 84.1336C21.4899 84.2736 19.7977 82.7699 19.7059 80.8051L18.8558 62.6001Z" fill="#1F1F1F" stroke="black"/>
<path d="M19.6757 62.8703C19.5846 60.8768 21.1761 59.211 23.1716 59.2111L52.0484 59.2124C53.8455 59.2125 55.3508 60.5737 55.5312 62.3618L57.1484 78.3954C57.3461 80.3562 55.8868 82.0934 53.9212 82.2367L24.259 84.3999C22.2938 84.5432 20.5974 83.0368 20.5075 81.0684L19.6757 62.8703Z" fill="#F40000" stroke="black"/>
<rect x="24.4324" y="66.3555" width="3.94719" height="4.13132" rx="1.97359" fill="white" stroke="black"/>
<path d="M24.6464 75.4503C24.5882 75.1453 24.819 74.8619 25.1294 74.8573L30.5195 74.7775C30.7625 74.7739 30.9732 74.9456 31.0187 75.1844L31.5099 75.0913L31.0187 75.1844L31.0888 75.5517C31.1469 75.8567 30.9161 76.1401 30.6057 76.1447L25.2157 76.2245C24.9726 76.2281 24.762 76.0564 24.7164 75.8176L24.6464 75.4503Z" fill="white" stroke="black"/>
<path d="M32.8915 75.3253C32.8333 75.0203 33.0642 74.7369 33.3745 74.7323L38.7646 74.6525C39.0076 74.6489 39.2183 74.8206 39.2638 75.0594L39.755 74.9663L39.2638 75.0594L39.3339 75.4267C39.3921 75.7317 39.1612 76.0151 38.8508 76.0197L33.4608 76.0995C33.2177 76.1031 33.0071 75.9314 32.9615 75.6926L32.8915 75.3253Z" fill="white" stroke="black"/>
<path d="M41.1337 75.2042C41.0755 74.8992 41.3063 74.6158 41.6167 74.6112L47.0068 74.5314C47.2498 74.5278 47.4605 74.6995 47.506 74.9383L47.9972 74.8452L47.506 74.9383L47.5761 75.3056C47.6342 75.6106 47.4034 75.894 47.093 75.8986L41.703 75.9784C41.4599 75.982 41.2493 75.8103 41.2037 75.5715L41.1337 75.2042Z" fill="white" stroke="black"/>
<path d="M49.3178 75.0661C49.2717 74.7664 49.5008 74.4953 49.8039 74.4908L53.6432 74.4339C53.893 74.4302 54.1074 74.6114 54.1455 74.8584L54.202 75.2259L54.6962 75.1505L54.202 75.2259C54.2481 75.5257 54.0191 75.7968 53.7159 75.8013L49.8767 75.8582C49.6269 75.8619 49.4124 75.6806 49.3744 75.4336L49.3178 75.0661Z" fill="#FDA3C4" stroke="black"/>
<rect x="0.406563" y="0.383564" width="8.28006" height="0.789465" transform="matrix(0.999613 -0.0278321 0.0303597 0.999539 24.7412 79.8084)" fill="#FDA3C4" stroke="black" stroke-width="0.789465"/>
<rect x="0.406563" y="0.383564" width="9.72082" height="0.789465" transform="matrix(0.999613 -0.0278321 0.0303597 0.999539 38.3506 79.1443)" fill="#FDA3C4" stroke="black" stroke-width="0.789465"/>
<mask id="path-13-inside-1_5_11803" fill="white">
<ellipse cx="30.3232" cy="68.4202" rx="0.618399" ry="0.592076"/>
</mask>
<ellipse cx="30.3232" cy="68.4202" rx="0.618399" ry="0.592076" fill="black"/>
<path d="M29.9416 68.4202C29.9416 68.1544 30.1539 68.0123 30.3232 68.0123V70.0123C31.1756 70.0123 31.9416 69.34 31.9416 68.4202H29.9416ZM30.3232 68.0123C30.4925 68.0123 30.7048 68.1544 30.7048 68.4202H28.7048C28.7048 69.34 29.4709 70.0123 30.3232 70.0123V68.0123ZM30.7048 68.4202C30.7048 68.686 30.4925 68.8281 30.3232 68.8281V66.8281C29.4709 66.8281 28.7048 67.5004 28.7048 68.4202H30.7048ZM30.3232 68.8281C30.1539 68.8281 29.9416 68.686 29.9416 68.4202H31.9416C31.9416 67.5004 31.1756 66.8281 30.3232 66.8281V68.8281Z" fill="black" mask="url(#path-13-inside-1_5_11803)"/>
<mask id="path-15-inside-2_5_11803" fill="white">
<path d="M31.4751 69.6618C31.6688 69.4979 31.8195 69.2928 31.9152 69.0629C32.0108 68.833 32.0487 68.5848 32.0258 68.3384C32.0028 68.0919 31.9196 67.854 31.783 67.644C31.6464 67.4339 31.4601 67.2575 31.2392 67.1291L31.091 67.3627C31.2737 67.4689 31.4277 67.6148 31.5407 67.7885C31.6537 67.9621 31.7224 68.1588 31.7414 68.3626C31.7604 68.5664 31.7291 68.7717 31.65 68.9618C31.5709 69.1518 31.4462 69.3215 31.2861 69.457L31.4751 69.6618Z"/>
</mask>
<path d="M31.4751 69.6618C31.6688 69.4979 31.8195 69.2928 31.9152 69.0629C32.0108 68.833 32.0487 68.5848 32.0258 68.3384C32.0028 68.0919 31.9196 67.854 31.783 67.644C31.6464 67.4339 31.4601 67.2575 31.2392 67.1291L31.091 67.3627C31.2737 67.4689 31.4277 67.6148 31.5407 67.7885C31.6537 67.9621 31.7224 68.1588 31.7414 68.3626C31.7604 68.5664 31.7291 68.7717 31.65 68.9618C31.5709 69.1518 31.4462 69.3215 31.2861 69.457L31.4751 69.6618Z" fill="#FDA3C4" stroke="black" stroke-width="2" mask="url(#path-15-inside-2_5_11803)"/>
<mask id="path-16-inside-3_5_11803" fill="white">
<path d="M32.0328 69.9278C32.2518 69.6992 32.4163 69.4276 32.5147 69.132C32.6132 68.8364 32.6433 68.5239 32.6029 68.2161C32.5626 67.9082 32.4528 67.6125 32.2811 67.3493C32.1094 67.0862 31.88 66.862 31.6087 66.6923L31.4569 66.9147C31.6944 67.0633 31.8954 67.2597 32.0457 67.4901C32.1961 67.7206 32.2922 67.9795 32.3276 68.2491C32.3629 68.5187 32.3365 68.7924 32.2503 69.0513C32.1641 69.3101 32.02 69.5479 31.8282 69.7482L32.0328 69.9278Z"/>
</mask>
<path d="M32.0328 69.9278C32.2518 69.6992 32.4163 69.4276 32.5147 69.132C32.6132 68.8364 32.6433 68.5239 32.6029 68.2161C32.5626 67.9082 32.4528 67.6125 32.2811 67.3493C32.1094 67.0862 31.88 66.862 31.6087 66.6923L31.4569 66.9147C31.6944 67.0633 31.8954 67.2597 32.0457 67.4901C32.1961 67.7206 32.2922 67.9795 32.3276 68.2491C32.3629 68.5187 32.3365 68.7924 32.2503 69.0513C32.1641 69.3101 32.02 69.5479 31.8282 69.7482L32.0328 69.9278Z" fill="#FDA3C4" stroke="black" stroke-width="2" mask="url(#path-16-inside-3_5_11803)"/>
<mask id="path-17-inside-4_5_11803" fill="white">
<path d="M32.5301 70.3524C32.8301 70.0985 33.0637 69.7807 33.2119 69.4245C33.3601 69.0684 33.4188 68.6838 33.3832 68.302C33.3476 67.9201 33.2188 67.5516 33.0071 67.2261C32.7954 66.9007 32.5068 66.6274 32.1646 66.4284L31.9997 66.6882C32.2995 66.8625 32.5522 67.1018 32.7376 67.3868C32.923 67.6718 33.0358 67.9945 33.0669 68.329C33.0981 68.6634 33.0467 69.0001 32.9169 69.312C32.7871 69.6239 32.5826 69.9023 32.3198 70.1246L32.5301 70.3524Z"/>
</mask>
<path d="M32.5301 70.3524C32.8301 70.0985 33.0637 69.7807 33.2119 69.4245C33.3601 69.0684 33.4188 68.6838 33.3832 68.302C33.3476 67.9201 33.2188 67.5516 33.0071 67.2261C32.7954 66.9007 32.5068 66.6274 32.1646 66.4284L31.9997 66.6882C32.2995 66.8625 32.5522 67.1018 32.7376 67.3868C32.923 67.6718 33.0358 67.9945 33.0669 68.329C33.0981 68.6634 33.0467 69.0001 32.9169 69.312C32.7871 69.6239 32.5826 69.9023 32.3198 70.1246L32.5301 70.3524Z" fill="#FDA3C4" stroke="black" stroke-width="2" mask="url(#path-17-inside-4_5_11803)"/>
<path d="M58.1058 61.8856C55.6132 66.993 49.254 69.2183 43.888 66.8177C38.5221 64.417 36.2251 58.3191 38.7177 53.2116C41.2104 48.1042 47.5696 45.8789 52.9355 48.2796C58.3015 50.6802 60.5985 56.7782 58.1058 61.8856Z" fill="white" stroke="black"/>
<path d="M58.6002 62.1082C56.1076 67.2157 49.7484 69.441 44.3824 67.0403C39.0165 64.6397 36.7195 58.5417 39.2121 53.4343C41.7048 48.3269 48.064 46.1016 53.4299 48.5022C58.7959 50.9029 61.0929 57.0008 58.6002 62.1082Z" fill="#FDA3C4" stroke="black"/>
<path d="M47.9699 62.3674C47.0605 62.4965 44.9423 60.3208 43.9969 59.2169L45.3437 57.9114L47.9699 60.4135L52.7946 53.5109L55.2115 54.6701C53.4019 57.1556 48.8793 62.2383 47.9699 62.3674Z" fill="white" stroke="black"/>
<path d="M18.7961 21.0943L21.016 19.4628L2.05158 15.7299L21.4595 28.7799L21.3877 25.5227L18.7961 21.0943Z" fill="black" stroke="black"/>
<path d="M30.769 32.2257L22.5721 22.6488L2.05239 15.7313L21.0163 20.3981L24.4298 12.928L2.05239 15.7313L30.769 32.2257Z" fill="#F40000"/>
<path d="M2.05239 15.7313L22.5721 22.6488L30.769 32.2257L2.05239 15.7313ZM2.05239 15.7313L21.0163 20.3981L24.4298 12.928L2.05239 15.7313Z" stroke="black"/>
<path d="M22.7959 20.8588C30.6106 21.0601 47.3826 22.4244 44.597 28.511C41.1149 36.1192 34.793 37.2455 34.6912 33.19C34.5895 29.1344 53.4178 23.8703 55.9398 28.7776C59.2114 35.1437 50.4294 40.9724 48.8207 44.0802" stroke="black"/>
</svg>
