<svg width="130" height="101" viewBox="0 0 130 101" fill="none" xmlns="http://www.w3.org/2000/svg">
<path d="M10.9042 43.7497C5.18936 55.9636 6.52967 67.3054 13.9511 69.7041C25.7601 73.5209 29.1899 68.1773 40.6181 48.7116C70.5023 -2.19059 96.9991 7.87153 108.047 16.2686C117.688 23.5965 122.142 46.4215 110.332 55.9636C96.3448 67.2655 69.9515 94.5134 115.666 98.7119" stroke="black"/>
<path d="M41.6013 38.7865V5.8142L65.7184 1V36.0755L41.6013 38.7865Z" fill="#F40000" stroke="black"/>
<path d="M65.7192 36.855V1L96.06 4.4476V36.855H65.7192Z" fill="#FDA3C4" stroke="black"/>
<path d="M23.7092 95.9401V38.5656L60.2738 34.5156V99.99L23.7092 95.9401Z" fill="#FDA3C4" stroke="black"/>
<path d="M104.618 97.9651L60.2737 99.99V34.5156L104.618 36.5406V97.9651Z" fill="#FDA3C4" stroke="black"/>
<path d="M34.5244 55.9761V37.2611L49.0006 35.7344V55.9761H34.5244Z" fill="#F40000" stroke="black"/>
<path d="M1 15.5106C1 19.8845 7.48503 27.6339 10.7275 30.9618C11.1072 31.3573 11.6766 31.1266 11.9138 30.9618C14.3655 27.1585 19.7433 20.5026 20.6923 15.5106C21.6865 10.281 16.1845 5.05135 10.7275 5.28906C5.27063 5.52677 1 8.85469 1 15.5106Z" fill="#FDA3C4" stroke="black"/>
<path d="M15.6856 14.796C15.6856 17.4091 13.5717 19.5257 10.966 19.5257C8.3603 19.5257 6.24634 17.4091 6.24634 14.796C6.24634 12.183 8.3603 10.0664 10.966 10.0664C13.5717 10.0664 15.6856 12.183 15.6856 14.796Z" fill="white" stroke="black"/>
<path d="M110.714 81.3234C110.714 85.3608 116.701 92.5141 119.694 95.586C120.044 95.9511 120.57 95.7381 120.789 95.586C123.052 92.0752 128.016 85.9313 128.892 81.3234C129.81 76.496 124.731 71.6686 119.694 71.8881C114.656 72.1075 110.714 75.1794 110.714 81.3234Z" fill="#F40000" stroke="black"/>
<path d="M124.231 80.6652C124.231 83.0561 122.297 84.9926 119.913 84.9926C117.529 84.9926 115.594 83.0561 115.594 80.6652C115.594 78.2744 117.529 76.3379 119.913 76.3379C122.297 76.3379 124.231 78.2744 124.231 80.6652Z" fill="white" stroke="black"/>
<path d="M14.2146 36.8796C14.2146 38.2908 13.0731 39.4331 11.667 39.4331C10.2609 39.4331 9.11938 38.2908 9.11938 36.8796C9.11938 35.4685 10.2609 34.3262 11.667 34.3262C13.0731 34.3262 14.2146 35.4685 14.2146 36.8796Z" fill="#FDA3C4" stroke="black"/>
<path d="M71.7528 23.7607L72.1269 12.3578L82.4257 9.20261L90.575 15.0621L90.3918 20.6472L82.9569 28.323L77.8953 27.2244L71.7528 23.7607Z" fill="white"/>
<path d="M71.5769 10.6359L71.5769 10.6359C71.5352 10.7176 71.4991 10.7866 71.4674 10.8473C71.3774 11.0192 71.3228 11.1237 71.2748 11.2593C71.2154 11.4275 71.1663 11.6525 71.1257 12.1051C71.0528 12.9184 71.0157 14.3478 70.9402 17.2581C70.9302 17.6423 70.9196 18.0522 70.9081 18.49C70.8985 18.8573 70.8893 19.2053 70.8806 19.5351C70.8004 22.576 70.7609 24.0702 70.7916 24.9208C70.8084 25.3855 70.8455 25.6223 70.896 25.7986C70.9381 25.9456 70.9901 26.059 71.0778 26.2501C71.1019 26.3026 71.1286 26.3608 71.1585 26.4272L71.1585 26.4272C71.3342 26.8168 71.4612 27.0044 71.8813 27.4516C72.1097 27.6947 72.252 27.8323 72.3843 27.9361C72.5114 28.0359 72.6424 28.1146 72.8586 28.2236L72.6334 28.67L72.8586 28.2236C72.9331 28.2612 72.9976 28.2944 73.0551 28.324C73.2403 28.4192 73.3534 28.4774 73.4978 28.5274C73.6736 28.5884 73.906 28.6382 74.3626 28.6794C75.1917 28.7541 76.6443 28.792 79.6018 28.8692C79.9574 28.8785 80.3349 28.8884 80.7356 28.8989C81.1363 28.9095 81.5137 28.9195 81.8694 28.929C84.8269 29.0076 86.2794 29.0462 87.1112 29.0153C87.5694 28.9982 87.8041 28.9607 87.9828 28.9091C88.1297 28.8667 88.2457 28.8146 88.4355 28.7292C88.4945 28.7027 88.5607 28.673 88.6371 28.6394C88.8587 28.5418 88.9936 28.4701 89.1258 28.3772C89.2633 28.2805 89.4126 28.1505 89.6534 27.9199C90.0964 27.4954 90.2331 27.3147 90.4289 26.9349L90.8733 27.1641L90.4289 26.9349C90.462 26.8707 90.4916 26.8142 90.5182 26.7634C90.616 26.5766 90.6741 26.4657 90.7239 26.321C90.7836 26.1477 90.833 25.9138 90.8741 25.4526C90.9492 24.6075 90.988 23.1187 91.0669 20.0882C91.0754 19.7621 91.0843 19.4181 91.0938 19.0551C91.1034 18.6885 91.1126 18.3412 91.1213 18.0121C91.2011 14.9873 91.2404 13.5014 91.2094 12.6544C91.1925 12.1918 91.1552 11.9552 91.1044 11.7781C91.0621 11.6304 91.0096 11.5158 90.9217 11.3235C90.8975 11.2705 90.8706 11.2116 90.8405 11.1445L71.5769 10.6359ZM71.5769 10.6359C71.7779 10.2425 71.8968 10.085 72.3466 9.66117L71.5769 10.6359ZM89.1411 9.35328L89.1411 9.35327C89.0654 9.31477 89.0004 9.28103 88.9426 9.25107C88.7646 9.1587 88.6559 9.10233 88.5179 9.05355C88.3496 8.99408 88.128 8.94515 87.6905 8.90435C86.8975 8.83037 85.5105 8.79149 82.6835 8.71225C82.3329 8.70242 81.9601 8.69197 81.5636 8.68075C79.8113 8.63119 78.1681 8.59088 76.9325 8.56585C76.3145 8.55333 75.7994 8.54466 75.424 8.54056C75.2361 8.53851 75.0847 8.53761 74.9734 8.53792C74.9177 8.53808 74.8737 8.53854 74.8411 8.53923C74.8159 8.53977 74.803 8.54036 74.7987 8.54056C74.7967 8.54065 74.7965 8.54066 74.7976 8.54056C73.8238 8.63152 73.0814 8.96904 72.3467 9.66114L89.1411 9.35328ZM89.1411 9.35328C89.5332 9.5526 89.6925 9.67233 90.1193 10.1229M89.1411 9.35328L90.1193 10.1229M81.2817 9.79113L81.2817 9.79114C81.4544 9.81398 81.5936 9.9061 81.683 9.97189C81.7859 10.0476 81.9059 10.1531 82.0488 10.2885C82.3366 10.5611 82.7688 11.0043 83.433 11.699C83.8907 12.1776 84.3051 12.6226 84.6044 12.9548C84.7534 13.1202 84.8771 13.261 84.9641 13.3653C85.0066 13.4163 85.046 13.4653 85.0763 13.5071C85.0903 13.5263 85.1111 13.5559 85.13 13.5895C85.1386 13.6049 85.1563 13.6375 85.1712 13.6801C85.1788 13.7016 85.1903 13.7389 85.1963 13.7865C85.2017 13.8296 85.2075 13.9178 85.1707 14.0204L81.2817 9.79113ZM81.2817 9.79113C81.1295 9.77102 80.984 9.79677 80.8344 9.87202C80.7135 9.93286 80.5885 10.0271 80.4521 10.1409C80.173 10.3738 79.7192 10.7983 78.9305 11.5439L81.2817 9.79113ZM85.9092 22.8396C86.0539 22.8923 86.1768 22.8625 86.2086 22.8545C86.2564 22.8426 86.2933 22.8261 86.3125 22.8169C86.3528 22.7978 86.3868 22.7761 86.4078 22.7622C86.4531 22.7321 86.5036 22.6936 86.5533 22.654C86.6555 22.5726 86.7914 22.4567 86.9506 22.3163C87.2706 22.0339 87.7033 21.6361 88.1874 21.1771C88.928 20.4751 89.3601 20.06 89.6062 19.7963C89.8273 19.5594 90.0155 19.3341 90.0235 19.0269C90.0316 18.7201 89.8561 18.4856 89.6483 18.2379C89.4174 17.9626 89.0094 17.5273 88.31 16.7908C87.873 16.3306 87.4653 15.9108 87.16 15.6048C87.0079 15.4523 86.8785 15.3254 86.7827 15.2352C86.7356 15.1909 86.6917 15.1508 86.655 15.1198C86.6377 15.1051 86.6141 15.0858 86.5885 15.0677C86.5764 15.0591 86.554 15.0438 86.5254 15.0285C86.5252 15.0284 86.5248 15.0281 86.5243 15.0279C86.5117 15.0209 86.4206 14.9705 86.2964 14.9672C86.1426 14.9632 86.0161 15.0196 85.9314 15.078C85.8447 15.1377 85.7572 15.2298 85.705 15.3559L85.7046 15.3567C85.6869 15.3998 85.6791 15.4363 85.6771 15.446L85.677 15.4464C85.6737 15.4616 85.6717 15.4746 85.6705 15.4826C85.6681 15.4988 85.6665 15.514 85.6654 15.5248C85.6633 15.5474 85.6614 15.5738 85.6597 15.6008C85.6562 15.6561 85.6525 15.7314 85.6486 15.8226C85.6409 16.0057 85.632 16.2632 85.6225 16.5753C85.6035 17.2001 85.5819 18.0495 85.5625 18.973C85.5337 20.3399 85.5199 21.1869 85.5226 21.6959C85.5239 21.9475 85.5293 22.1319 85.5409 22.2599C85.5465 22.3206 85.5554 22.3935 85.5745 22.4624C85.5838 22.4961 85.602 22.553 85.6381 22.6136C85.6721 22.6706 85.7533 22.7828 85.9092 22.8396ZM85.9092 22.8396L86.0802 22.3698M85.9092 22.8396C85.9094 22.8396 85.9096 22.8397 85.9098 22.8398L86.0802 22.3698M86.0802 22.3698C86.0489 22.3584 86.0305 22.2344 86.0245 21.8736L86.0624 18.9836C86.0889 17.7244 86.1192 16.6042 86.1418 16.0055C86.126 15.9905 86.1113 15.9764 86.0975 15.9634C86.0544 15.9229 86.0256 15.8971 86.0092 15.8832C86 15.8754 86.002 15.8776 86.0113 15.8842C86.0152 15.887 86.0307 15.8979 86.0537 15.9102L86.0539 15.9103C86.0564 15.9117 86.0901 15.9312 86.144 15.9469C86.1535 15.704 86.1614 15.5605 86.1669 15.5472C86.1857 15.502 86.238 15.4659 86.2833 15.4671C86.2987 15.4675 86.3955 15.5546 86.5508 15.7054L86.6292 15.7377C86.6462 15.6966 86.6534 15.6626 86.655 15.655L86.6551 15.6545C86.6577 15.642 86.6592 15.6327 86.6597 15.629C86.6609 15.6214 86.6611 15.6177 86.6608 15.6212C86.6602 15.6271 86.6591 15.6404 86.6577 15.6636C86.6556 15.6975 86.6531 15.7441 86.6505 15.803C86.9598 16.1082 87.4324 16.5926 87.9475 17.1351C89.3551 18.6174 89.5287 18.8244 89.5237 19.0137C89.5187 19.2032 89.3339 19.4012 87.8434 20.8142C87.3134 21.3167 86.8481 21.7429 86.5284 22.0214C86.5307 22.0852 86.5335 22.1335 86.5368 22.1692C86.5393 22.1963 86.5413 22.2073 86.5412 22.2073C86.5411 22.2073 86.5403 22.203 86.5382 22.1956C86.5358 22.1868 86.5251 22.1486 86.4969 22.1014C86.4916 22.0925 86.4843 22.081 86.4748 22.0679C86.2448 22.2665 86.1015 22.3775 86.0802 22.3698ZM76.9053 23.604C76.8517 23.7335 76.8642 23.8491 76.8752 23.9072C76.8869 23.9698 76.9075 24.0204 76.9221 24.0525C76.9516 24.1168 76.9902 24.1761 77.0233 24.223C77.0921 24.3208 77.1927 24.4432 77.3199 24.589C77.5777 24.8844 77.988 25.3243 78.5857 25.9504L78.9473 25.6051L78.5857 25.9504C79.3193 26.7187 79.7432 27.158 80.0064 27.4012C80.1351 27.5202 80.2541 27.6197 80.3712 27.6862C80.5155 27.7681 80.6589 27.8016 80.8118 27.7896L80.8119 27.7896C80.9849 27.7759 81.128 27.6919 81.2201 27.6314C81.326 27.5619 81.4499 27.4639 81.5973 27.3383C81.8942 27.0852 82.3403 26.6728 83.0245 26.0275L82.6814 25.6637L83.0245 26.0274C83.4968 25.5819 83.9251 25.1671 84.2351 24.8571C84.3894 24.7027 84.5177 24.5711 84.6082 24.4734C84.6524 24.4257 84.6936 24.3796 84.7256 24.3402C84.7402 24.3221 84.7623 24.2941 84.7827 24.2619C84.7921 24.2473 84.8113 24.216 84.8285 24.1745C84.8371 24.1537 84.8507 24.1172 84.8593 24.0701C84.8671 24.0277 84.878 23.9392 84.8464 23.8338M76.9053 23.604L77.3674 23.7951L76.9052 23.6042C76.9052 23.6041 76.9053 23.604 76.9053 23.604ZM76.9053 23.604C76.9589 23.4744 77.0555 23.3638 77.1935 23.294C77.3029 23.2387 77.4154 23.2213 77.4937 23.213C77.6526 23.1963 77.8866 23.1992 78.2094 23.2078C78.2939 23.21 78.3675 23.2123 78.4322 23.2144C78.5854 23.2193 78.689 23.2226 78.7712 23.219M78.7712 23.219C78.7625 23.277 78.7552 23.2974 78.756 23.2977C78.7565 23.2979 78.7594 23.2919 78.766 23.2828C78.8079 23.2244 78.8595 23.2107 78.8595 23.2105C78.8595 23.2104 78.8461 23.2138 78.8114 23.2166C78.7985 23.2176 78.7852 23.2184 78.7712 23.219ZM78.7712 23.219C78.7764 23.1845 78.7821 23.1368 78.787 23.072C78.7991 22.9118 78.8039 22.7076 78.8104 22.4285C78.8126 22.3378 78.8149 22.2392 78.8177 22.1316C78.8344 21.4935 78.8459 21.1169 78.8728 20.8829C78.8867 20.7618 78.9079 20.6451 78.9511 20.5348C78.9988 20.4133 79.061 20.3304 79.1111 20.27C79.1111 20.27 79.1111 20.27 79.1111 20.27L79.2533 20.0984L79.4084 19.9112L79.6514 19.9176L81.0033 19.9532L82.3551 19.9888L82.5982 19.9952L82.7433 20.1903L82.8762 20.3691C82.9228 20.4317 82.9802 20.5173 83.0214 20.6395C83.059 20.7512 83.0744 20.8675 83.0821 20.9874C83.0969 21.218 83.089 21.5849 83.0728 22.2015C83.059 22.7293 83.0556 23.0566 83.0634 23.2623C83.064 23.2788 83.0647 23.2941 83.0654 23.3083C83.1681 23.3203 83.3237 23.333 83.5656 23.3493C83.8266 23.3669 84.0482 23.3886 84.2121 23.414C84.2916 23.4263 84.3737 23.4418 84.4451 23.4631C84.4788 23.4731 84.5314 23.4905 84.5861 23.52C84.6137 23.5349 84.6565 23.5607 84.7005 23.6013C84.7428 23.6404 84.811 23.716 84.8464 23.8338M84.8464 23.8338L84.3675 23.9775L84.8462 23.8333C84.8463 23.8335 84.8463 23.8336 84.8464 23.8338ZM90.1193 10.1229C90.542 10.5692 90.6609 10.7449 90.8405 11.1445L90.1193 10.1229ZM84.512 14.408C84.3431 14.4247 84.112 14.4342 83.8316 14.4378C83.5714 14.4412 83.4058 14.4456 83.2972 14.4524C83.2959 14.4653 83.2945 14.4792 83.2932 14.494C83.2748 14.6958 83.2611 15.0174 83.2475 15.536C83.2447 15.6424 83.2425 15.7448 83.2405 15.8425C83.2343 16.1316 83.2291 16.3802 83.2111 16.5738C83.1883 16.8189 83.1371 17.1376 82.8979 17.3674C82.657 17.5988 82.3359 17.6345 82.0912 17.6447C81.8985 17.6527 81.652 17.6449 81.3662 17.6359C81.2699 17.6329 81.169 17.6297 81.0642 17.6269C80.9572 17.6241 80.8542 17.622 80.7558 17.6199C80.4722 17.614 80.227 17.6089 80.0362 17.5908C79.7912 17.5675 79.4701 17.514 79.2417 17.2646C79.0178 17.0202 78.9847 16.697 78.9753 16.4476C78.968 16.2514 78.9758 16.0005 78.985 15.7078C78.9882 15.6055 78.9916 15.498 78.9945 15.386C79.0085 14.8527 79.0136 14.5395 79.0082 14.3488C78.8722 14.3301 78.6796 14.3121 78.4194 14.2953C78.0934 14.2741 77.8521 14.2533 77.6855 14.2254C77.6055 14.2121 77.5106 14.1922 77.4231 14.1556C77.3542 14.1268 77.1537 14.0322 77.0811 13.7915C77.0811 13.7915 77.0811 13.7915 77.0811 13.7915L84.512 14.408ZM84.512 14.408C84.5938 14.3999 84.679 14.3885 84.7538 14.3699M84.512 14.408L84.7538 14.3699M84.7538 14.3699C84.7893 14.3611 84.8448 14.3454 84.903 14.3165M84.7538 14.3699L84.903 14.3165M84.903 14.3165L84.9034 14.3163M84.903 14.3165L84.9034 14.3163M84.9034 14.3163C84.9373 14.2994 85.0991 14.2188 85.1704 14.021L84.9034 14.3163ZM75.9881 22.6305L75.9881 22.6305C76.1373 22.5776 76.2356 22.4726 76.293 22.3677C76.34 22.282 76.3609 22.1947 76.3725 22.1351C76.3967 22.0116 76.4112 21.8365 76.4236 21.5982C76.4491 21.1087 76.4702 20.229 76.5037 18.6544C76.5358 17.1426 76.5514 16.2643 76.5477 15.7618C76.546 15.5156 76.5396 15.3364 76.5242 15.212C76.5171 15.1545 76.5038 15.0698 76.4696 14.9865C76.4372 14.9075 76.3347 14.7114 76.0861 14.6566L76.0861 14.6565C75.955 14.6277 75.8504 14.6597 75.8239 14.6679C75.7825 14.6806 75.7502 14.6962 75.7323 14.7053C75.6954 14.7241 75.6633 14.7451 75.6422 14.7596C75.597 14.7905 75.5459 14.83 75.4943 14.8717C75.3887 14.957 75.2482 15.078 75.0836 15.2243C74.7529 15.5184 74.3075 15.9302 73.8134 16.4011L73.8134 16.4011C73.1649 17.0191 72.7267 17.4462 72.4492 17.7358C72.3116 17.8794 72.2033 17.9997 72.1266 18.0984C72.0886 18.1473 72.0494 18.2023 72.0173 18.2604C71.9922 18.3059 71.9369 18.4125 71.9333 18.5506C71.9299 18.677 71.975 18.7752 71.9863 18.7999L71.987 18.8015C72.0057 18.8425 72.0272 18.879 72.0446 18.9069C72.0803 18.9638 72.1258 19.0264 72.1735 19.0887C72.2706 19.2155 72.4046 19.3762 72.5592 19.5549C72.87 19.914 73.2837 20.3673 73.7003 20.8095C74.1168 21.2516 74.5412 21.6875 74.8738 22.0113C75.039 22.1721 75.1877 22.3111 75.3039 22.4105C75.3604 22.4587 75.4201 22.5071 75.4761 22.5449C75.5023 22.5627 75.5442 22.5894 75.5944 22.6117C75.6195 22.6228 75.6618 22.6397 75.7155 22.6501C75.7635 22.6595 75.8674 22.6733 75.9881 22.6305ZM86.6289 15.7385C86.6246 15.7489 86.62 15.7588 86.6151 15.7683C86.5932 15.7467 86.5722 15.7262 86.5522 15.7068L86.6289 15.7385ZM77.5804 24.2101C77.5804 24.2101 77.5814 24.2098 77.5837 24.2095C77.5816 24.2099 77.5804 24.2101 77.5804 24.2101ZM83.0799 23.4574C83.0806 23.46 83.0809 23.4615 83.0809 23.4616C83.0809 23.4616 83.0805 23.4603 83.0799 23.4574ZM79.1936 14.3847C79.1934 14.3847 79.1906 14.3839 79.1857 14.3819C79.1913 14.3836 79.1938 14.3846 79.1936 14.3847ZM78.9943 14.1696C78.9943 14.1695 78.9944 14.1702 78.9947 14.1716L78.9943 14.1696ZM83.3208 14.2999C83.3208 14.2999 83.3204 14.3013 83.3196 14.3039C83.3203 14.3011 83.3208 14.2998 83.3208 14.2999ZM77.99 13.8914C77.9893 13.8924 77.9889 13.8929 77.9889 13.8929C77.9889 13.8929 77.9892 13.8925 77.9897 13.8917C77.9898 13.8916 77.9899 13.8915 77.99 13.8914ZM75.5293 15.3181C75.5293 15.3181 75.5295 15.3189 75.5298 15.3208L75.5293 15.3181ZM75.3891 21.9518C75.3891 21.9518 75.3894 21.9505 75.3901 21.9482C75.3895 21.9507 75.3892 21.9519 75.3891 21.9518Z" fill="#F40000" stroke="black"/>
<path d="M121.642 99.474C121.642 100.042 121.183 100.501 120.619 100.501C120.054 100.501 119.595 100.042 119.595 99.474C119.595 98.906 120.054 98.4473 120.619 98.4473C121.183 98.4473 121.642 98.906 121.642 99.474Z" fill="#F40000"/>
<path d="M121.642 99.474C121.642 100.042 121.183 100.501 120.619 100.501C120.054 100.501 119.595 100.042 119.595 99.474C119.595 98.906 120.054 98.4473 120.619 98.4473C121.183 98.4473 121.642 98.906 121.642 99.474Z" fill="#F40000"/>
<path d="M121.642 99.474C121.642 100.042 121.183 100.501 120.619 100.501C120.054 100.501 119.595 100.042 119.595 99.474C119.595 98.906 120.054 98.4473 120.619 98.4473C121.183 98.4473 121.642 98.906 121.642 99.474Z" stroke="black"/>
</svg>
