<svg width="76" height="101" viewBox="0 0 76 101" fill="none" xmlns="http://www.w3.org/2000/svg">
<path d="M35.3741 61.5328C33.5152 61.1196 35.4541 58.8227 36.2115 58.2719C38.4836 51.6619 37.8645 52.075 39.7236 48.77C40.7363 46.9697 43.2352 44.0191 46.9528 44.6387C49.0801 44.9933 51.0846 47.7372 51.9108 50.2159C52.5718 52.1989 53.8383 56.9637 53.5629 59.3047C54.7196 61.1225 51.073 61.4639 50.4533 61.5328C48.6356 61.2023 52.5301 59.4671 53.1497 58.6409L51.7038 52.4881C50.4533 49.3897 50.01 45.4237 45.7135 45.2584C40.5499 45.0598 38.14 54.1653 36.8317 58.6409C37.4928 60.2934 36.407 61.7393 35.3741 61.5328Z" fill="#FDA3C4" stroke="black"/>
<path d="M18.6543 96.8975L27.5365 58.0636L56.4554 56.8242L53.7701 99.9959L18.6543 96.8975Z" fill="#FDA3C4" stroke="black"/>
<path d="M61.8264 94.4222L54.1836 99.7928L56.4558 56.6211L57.9017 57.0342H58.9345C59.8985 68.1198 61.8677 90.6627 62.033 92.15C62.1982 93.6372 61.9641 94.2845 61.8264 94.4222Z" fill="#F40000" stroke="black"/>
<path d="M32.9071 61.3715C31.0482 60.9583 32.1497 59.0305 32.9071 58.4796C35.1792 51.8697 37.9071 48.3703 38.691 47.3252C39.9305 45.6728 42.4091 44.4333 44.4747 45.053C46.5404 45.6727 47.5732 46.912 48.3994 49.3908C49.0604 51.3738 48.6749 56.5517 48.3994 58.8928C49.5562 60.7106 48.606 61.3027 47.9863 61.3715C46.1686 61.0411 46.9535 59.3059 47.5732 58.4796L47.9863 52.4893C48.124 50.2859 47.5319 45.838 43.2354 45.6727C38.9389 45.5075 35.0417 54.4172 33.7334 58.8928C34.3945 60.5453 33.94 61.578 32.9071 61.3715Z" fill="#FDA3C4" stroke="black"/>
<path d="M45.1497 1.01562C67.8354 1.01562 74.5018 17.4329 74.9993 25.6416C73.2581 23.6516 68.5817 20.8656 63.8057 25.6416C62.8107 17.4329 57.6865 1.01562 45.1497 1.01562V25.6416C42.6622 23.6516 35.2993 20.5671 25.7475 24.1491C25.7475 16.3024 32.0159 2.8066 45.1497 1.01562Z" fill="#FDA3C4"/>
<path d="M13.8076 23.4028C14.8026 15.9404 22.464 1.01562 45.1497 1.01562M45.1497 1.01562C67.8354 1.01562 74.5018 17.4329 74.9993 25.6416C73.2581 23.6516 68.5817 20.8656 63.8057 25.6416C62.8107 17.4329 57.6865 1.01562 45.1497 1.01562ZM45.1497 1.01562V25.6416C42.6622 23.6516 35.2993 20.5671 25.7475 24.1491C25.7475 16.3024 32.0159 2.8066 45.1497 1.01562Z" stroke="black"/>
<path d="M13.8076 24.1499C14.5539 16.19 21.867 0.419489 45.1497 1.01648C50.3734 1.01645 61.4177 5.94158 63.8057 25.6423C60.3233 23.1549 51.7166 19.6724 45.1497 25.6423V1.01648C39.6773 1.26526 28.1354 6.24023 25.7475 24.1499C23.7575 22.16 18.5836 19.3741 13.8076 24.1499Z" fill="#F40000"/>
<path d="M45.1497 1.01648C21.867 0.419489 14.5539 16.19 13.8076 24.1499C18.5836 19.3741 23.7575 22.16 25.7475 24.1499C28.1354 6.24023 39.6773 1.26526 45.1497 1.01648ZM45.1497 1.01648C50.3734 1.01645 61.4177 5.94158 63.8057 25.6423C60.3233 23.1549 51.7166 19.6724 45.1497 25.6423V1.01648Z" stroke="black"/>
<path d="M44.4042 44.2968V39.0731M45.14 25.6408L44.4042 39.0731M44.4042 39.0731L63.9747 26.387V25.6408M44.4042 39.0731L74.8635 26.387V25.1304M44.4042 39.0731L13.3564 25.1304L13.945 23.0703M44.4042 39.0731L25.7482 25.1304V23.9532" stroke="black"/>
<ellipse cx="22.4428" cy="91.858" rx="5.45155" ry="5.81499" fill="white"/>
<ellipse cx="22.4428" cy="91.858" rx="5.45155" ry="5.81499" fill="white"/>
<ellipse cx="22.4428" cy="91.858" rx="5.45155" ry="5.81499" stroke="#1F1F1F"/>
<ellipse cx="23.1693" cy="91.858" rx="5.45155" ry="5.81499" fill="white"/>
<ellipse cx="23.1693" cy="91.858" rx="5.45155" ry="5.81499" fill="white"/>
<ellipse cx="23.1693" cy="91.858" rx="5.45155" ry="5.81499" stroke="#1F1F1F"/>
<ellipse cx="14.8106" cy="73.6889" rx="11.63" ry="12.3569" fill="white"/>
<ellipse cx="14.8106" cy="73.6889" rx="11.63" ry="12.3569" fill="white"/>
<ellipse cx="14.8106" cy="73.6889" rx="11.63" ry="12.3569" stroke="#1F1F1F"/>
<circle cx="13.3569" cy="73.6889" r="12.3569" fill="white"/>
<circle cx="13.3569" cy="73.6889" r="12.3569" fill="white"/>
<circle cx="13.3569" cy="73.6889" r="12.3569" stroke="#1F1F1F"/>
<mask id="path-14-outside-1_5_11904" maskUnits="userSpaceOnUse" x="3.30078" y="64.0508" width="19" height="18" fill="black">
<rect fill="white" x="3.30078" y="64.0508" width="19" height="18"/>
<path d="M7.54139 77.9355C7.22787 77.8251 6.91772 77.705 6.61096 77.5753C5.99104 77.3137 5.59532 76.8649 5.42379 76.229C5.37328 76.0458 5.34102 75.8618 5.327 75.677C5.31714 75.5009 5.30839 75.3216 5.30078 75.1391C5.30188 75.0747 5.31596 75.0042 5.34302 74.9274L5.36669 74.8602C5.41142 74.7537 5.47498 74.6754 5.55737 74.6253C5.64616 74.5774 5.74193 74.5608 5.84467 74.5755C5.87252 74.5781 5.90883 74.5873 5.95362 74.6031C6.11998 74.6617 6.21224 74.7877 6.2304 74.9811C6.24776 75.0952 6.25873 75.2069 6.2633 75.3164C6.26561 75.4323 6.27112 75.5494 6.27983 75.6675C6.31358 76.2045 6.5768 76.5598 7.06948 76.7334L7.18465 76.774C7.40445 76.8443 7.63099 76.8342 7.86427 76.7438C8.14495 76.6413 8.375 76.4886 8.5544 76.2857C8.73381 76.0827 8.88366 75.8514 9.00396 75.5917C9.0908 75.4065 9.16804 75.218 9.23569 75.026C9.29882 74.8468 9.35236 74.6643 9.3963 74.4784C9.44664 74.2947 9.48625 74.1109 9.51514 73.9268C9.54367 73.7642 9.54096 73.6086 9.50702 73.46C9.48173 73.3072 9.44139 73.1564 9.386 73.0074C9.3099 72.8151 9.17587 72.6851 8.98391 72.6175C8.95192 72.6062 8.9156 72.597 8.87495 72.5899C8.83431 72.5828 8.79254 72.5788 8.74963 72.5781C8.50954 72.5654 8.2702 72.571 8.03163 72.5948C7.79945 72.6209 7.57614 72.6932 7.3617 72.8119C7.32709 72.8285 7.30433 72.842 7.29342 72.8526C7.14406 72.9294 7.00859 72.9464 6.88702 72.9036C6.85503 72.8923 6.82416 72.8778 6.79443 72.8601C6.77109 72.8447 6.74568 72.825 6.71819 72.8009C6.55744 72.6651 6.51013 72.483 6.57625 72.2546C6.76072 71.629 6.93974 71.0088 7.11331 70.3938C7.29327 69.7811 7.49261 69.1644 7.71133 68.5437C7.8128 68.2558 7.91521 67.9754 8.01857 67.7025C8.12833 67.4319 8.24673 67.1571 8.3738 66.8782C8.47642 66.6482 8.57472 66.4203 8.66869 66.1945C8.76492 65.9622 8.86114 65.73 8.95737 65.4978C9.06 65.2678 9.17395 65.1281 9.29924 65.0788C9.42453 65.0294 9.60235 65.0453 9.8327 65.1265C10.3766 65.3182 10.914 65.5076 11.4451 65.6947C11.9762 65.8819 12.5148 66.0681 13.0609 66.2533C13.2849 66.3323 13.5088 66.4112 13.7327 66.4901C13.9567 66.569 14.1795 66.6511 14.4012 66.7365C14.5996 66.8064 14.7225 66.8964 14.7699 67.0067C14.8174 67.1169 14.8084 67.2648 14.743 67.4504L14.2633 68.7811C14.1258 69.1714 13.9925 69.5596 13.8637 69.9458C13.7412 70.3342 13.6283 70.726 13.525 71.1212L13.4263 71.4317C13.3707 71.5487 13.291 71.6321 13.1871 71.6819C13.0919 71.7274 12.9792 71.7309 12.849 71.6922L11.9626 71.3906L11.083 71.0698C10.8444 70.9714 10.7621 70.7661 10.8361 70.4541C10.9559 69.9712 11.0939 69.4876 11.2503 69.0032C11.3585 68.6961 11.4635 68.3878 11.5654 68.0784C11.6672 67.7691 11.7722 67.4608 11.8805 67.1537C11.9143 67.0577 11.9188 66.9838 11.8939 66.9318C11.8713 66.8735 11.8088 66.8263 11.7064 66.7902C11.6082 66.7628 11.5111 66.7322 11.4151 66.6984C11.3191 66.6646 11.2232 66.6307 11.1272 66.5969C10.9352 66.5293 10.7433 66.4616 10.5513 66.394C10.3616 66.3199 10.1708 66.2491 9.97883 66.1814L9.95004 66.1713C9.85406 66.1375 9.78219 66.1373 9.73441 66.1708C9.68663 66.2043 9.64376 66.2648 9.6058 66.3521C9.40658 66.8357 9.20849 67.3162 9.01153 67.7935C8.82096 68.273 8.63887 68.7591 8.46525 69.2518C8.35701 69.5589 8.25423 69.8608 8.15691 70.1573C8.06824 70.4498 7.98691 70.752 7.91292 71.064C7.89415 71.1581 7.86898 71.2499 7.83742 71.3395C7.80585 71.4291 7.77955 71.5241 7.75853 71.6246L7.8449 71.655C8.23211 71.5973 8.60429 71.6026 8.96144 71.6709C9.32086 71.7328 9.67332 71.8246 10.0188 71.9464C10.1852 72.005 10.3536 72.068 10.5241 72.1353C10.6946 72.2025 10.8619 72.2687 11.026 72.3337C11.2263 72.4187 11.3959 72.5396 11.5348 72.6964C11.676 72.8469 11.7867 73.0226 11.867 73.2235C11.9619 73.444 12.0288 73.6726 12.0677 73.9092C12.1088 74.1395 12.108 74.3766 12.0652 74.6205C12.0228 74.8429 11.9728 75.0663 11.9154 75.2906C11.8666 75.5108 11.805 75.7264 11.7305 75.9376C11.6584 76.1423 11.5789 76.3373 11.492 76.5225C11.403 76.7141 11.2967 76.9032 11.1734 77.0899C10.9684 77.4061 10.7249 77.6584 10.4428 77.8467C10.1647 78.0436 9.85003 78.1917 9.4986 78.2908C9.32401 78.3372 9.15317 78.3525 8.98608 78.3368C8.82313 78.3297 8.65734 78.3 8.48873 78.2478L7.54139 77.9355Z"/>
<path d="M14.7855 79.4202C14.9454 79.4766 15.11 79.4483 15.2793 79.3353C15.4509 79.2159 15.597 79.0768 15.7177 78.918C15.8385 78.7591 15.9571 78.5959 16.0737 78.4284C16.402 77.9255 16.6909 77.4015 16.9405 76.8565C17.1924 76.305 17.4352 75.7181 17.669 75.0955C17.7761 74.8527 17.8725 74.6098 17.9582 74.3666C18.1927 73.7012 18.3663 73.0251 18.4788 72.3382C18.6 71.6473 18.6829 70.9428 18.7273 70.2247C18.7337 70.1047 18.7325 69.9856 18.7238 69.8674C18.7237 69.7451 18.7011 69.6256 18.6559 69.509C18.5944 69.3363 18.5029 69.2285 18.3814 69.1857C18.247 69.1383 18.1048 69.1745 17.9547 69.2943C17.8851 69.3489 17.8208 69.4089 17.7617 69.4744C17.7091 69.5422 17.6564 69.61 17.6038 69.6777C17.1148 70.2895 16.6865 70.9334 16.3188 71.6094C15.9533 72.279 15.625 72.9761 15.3337 73.7007L15.2023 74.0428C14.9204 74.8426 14.7266 75.6375 14.6209 76.4274C14.5151 77.2174 14.4512 78.0113 14.429 78.8091L14.4358 78.9733C14.4532 79.0873 14.4924 79.1803 14.5534 79.2521C14.6185 79.3326 14.6959 79.3887 14.7855 79.4202ZM15.4934 80.7487C15.1351 80.6224 14.7867 80.478 14.4483 80.3156C13.7862 80.0104 13.464 79.4653 13.4817 78.6802C13.4967 77.8008 13.5757 76.9439 13.7187 76.1095C13.8703 75.271 14.0939 74.4327 14.3892 73.5945C14.5809 73.0506 14.7991 72.5233 15.0438 72.0125C15.2886 71.5017 15.5708 70.9969 15.8904 70.4982C16.0713 70.2094 16.2574 69.9262 16.4488 69.6484C16.6402 69.3705 16.8465 69.1016 17.0677 68.8414C17.3238 68.5433 17.6059 68.355 17.9141 68.2765C18.2287 68.2004 18.5694 68.2234 18.9364 68.3455C19.1604 68.4244 19.3843 68.5033 19.6082 68.5822C19.8344 68.6548 20.0606 68.7273 20.2868 68.7998L20.3252 68.8133C20.5876 68.9058 20.7969 69.0874 20.9532 69.3583C21.1528 69.7308 21.2435 70.1368 21.2253 70.5763C21.2014 70.9707 21.1702 71.3553 21.1316 71.7302C21.0994 72.1072 21.0467 72.4915 20.9735 72.8829C20.909 73.2702 20.8217 73.671 20.7116 74.0854C20.6015 74.4997 20.4642 74.9405 20.2996 75.4076L20.0031 76.1878C19.843 76.6421 19.6259 77.1662 19.3518 77.7602C19.08 78.3477 18.7514 78.9333 18.366 79.5167C18.1919 79.7863 17.9978 80.0308 17.7838 80.2503C17.5698 80.4698 17.3262 80.6609 17.0531 80.8236C16.9251 80.9008 16.7955 80.9522 16.6642 80.9778C16.5306 81.0099 16.388 81.0064 16.2363 80.9673C16.1103 80.9373 15.9853 80.904 15.8615 80.8676C15.7376 80.8311 15.6149 80.7915 15.4934 80.7487Z"/>
</mask>
<path d="M7.54139 77.9355C7.22787 77.8251 6.91772 77.705 6.61096 77.5753C5.99104 77.3137 5.59532 76.8649 5.42379 76.229C5.37328 76.0458 5.34102 75.8618 5.327 75.677C5.31714 75.5009 5.30839 75.3216 5.30078 75.1391C5.30188 75.0747 5.31596 75.0042 5.34302 74.9274L5.36669 74.8602C5.41142 74.7537 5.47498 74.6754 5.55737 74.6253C5.64616 74.5774 5.74193 74.5608 5.84467 74.5755C5.87252 74.5781 5.90883 74.5873 5.95362 74.6031C6.11998 74.6617 6.21224 74.7877 6.2304 74.9811C6.24776 75.0952 6.25873 75.2069 6.2633 75.3164C6.26561 75.4323 6.27112 75.5494 6.27983 75.6675C6.31358 76.2045 6.5768 76.5598 7.06948 76.7334L7.18465 76.774C7.40445 76.8443 7.63099 76.8342 7.86427 76.7438C8.14495 76.6413 8.375 76.4886 8.5544 76.2857C8.73381 76.0827 8.88366 75.8514 9.00396 75.5917C9.0908 75.4065 9.16804 75.218 9.23569 75.026C9.29882 74.8468 9.35236 74.6643 9.3963 74.4784C9.44664 74.2947 9.48625 74.1109 9.51514 73.9268C9.54367 73.7642 9.54096 73.6086 9.50702 73.46C9.48173 73.3072 9.44139 73.1564 9.386 73.0074C9.3099 72.8151 9.17587 72.6851 8.98391 72.6175C8.95192 72.6062 8.9156 72.597 8.87495 72.5899C8.83431 72.5828 8.79254 72.5788 8.74963 72.5781C8.50954 72.5654 8.2702 72.571 8.03163 72.5948C7.79945 72.6209 7.57614 72.6932 7.3617 72.8119C7.32709 72.8285 7.30433 72.842 7.29342 72.8526C7.14406 72.9294 7.00859 72.9464 6.88702 72.9036C6.85503 72.8923 6.82416 72.8778 6.79443 72.8601C6.77109 72.8447 6.74568 72.825 6.71819 72.8009C6.55744 72.6651 6.51013 72.483 6.57625 72.2546C6.76072 71.629 6.93974 71.0088 7.11331 70.3938C7.29327 69.7811 7.49261 69.1644 7.71133 68.5437C7.8128 68.2558 7.91521 67.9754 8.01857 67.7025C8.12833 67.4319 8.24673 67.1571 8.3738 66.8782C8.47642 66.6482 8.57472 66.4203 8.66869 66.1945C8.76492 65.9622 8.86114 65.73 8.95737 65.4978C9.06 65.2678 9.17395 65.1281 9.29924 65.0788C9.42453 65.0294 9.60235 65.0453 9.8327 65.1265C10.3766 65.3182 10.914 65.5076 11.4451 65.6947C11.9762 65.8819 12.5148 66.0681 13.0609 66.2533C13.2849 66.3323 13.5088 66.4112 13.7327 66.4901C13.9567 66.569 14.1795 66.6511 14.4012 66.7365C14.5996 66.8064 14.7225 66.8964 14.7699 67.0067C14.8174 67.1169 14.8084 67.2648 14.743 67.4504L14.2633 68.7811C14.1258 69.1714 13.9925 69.5596 13.8637 69.9458C13.7412 70.3342 13.6283 70.726 13.525 71.1212L13.4263 71.4317C13.3707 71.5487 13.291 71.6321 13.1871 71.6819C13.0919 71.7274 12.9792 71.7309 12.849 71.6922L11.9626 71.3906L11.083 71.0698C10.8444 70.9714 10.7621 70.7661 10.8361 70.4541C10.9559 69.9712 11.0939 69.4876 11.2503 69.0032C11.3585 68.6961 11.4635 68.3878 11.5654 68.0784C11.6672 67.7691 11.7722 67.4608 11.8805 67.1537C11.9143 67.0577 11.9188 66.9838 11.8939 66.9318C11.8713 66.8735 11.8088 66.8263 11.7064 66.7902C11.6082 66.7628 11.5111 66.7322 11.4151 66.6984C11.3191 66.6646 11.2232 66.6307 11.1272 66.5969C10.9352 66.5293 10.7433 66.4616 10.5513 66.394C10.3616 66.3199 10.1708 66.2491 9.97883 66.1814L9.95004 66.1713C9.85406 66.1375 9.78219 66.1373 9.73441 66.1708C9.68663 66.2043 9.64376 66.2648 9.6058 66.3521C9.40658 66.8357 9.20849 67.3162 9.01153 67.7935C8.82096 68.273 8.63887 68.7591 8.46525 69.2518C8.35701 69.5589 8.25423 69.8608 8.15691 70.1573C8.06824 70.4498 7.98691 70.752 7.91292 71.064C7.89415 71.1581 7.86898 71.2499 7.83742 71.3395C7.80585 71.4291 7.77955 71.5241 7.75853 71.6246L7.8449 71.655C8.23211 71.5973 8.60429 71.6026 8.96144 71.6709C9.32086 71.7328 9.67332 71.8246 10.0188 71.9464C10.1852 72.005 10.3536 72.068 10.5241 72.1353C10.6946 72.2025 10.8619 72.2687 11.026 72.3337C11.2263 72.4187 11.3959 72.5396 11.5348 72.6964C11.676 72.8469 11.7867 73.0226 11.867 73.2235C11.9619 73.444 12.0288 73.6726 12.0677 73.9092C12.1088 74.1395 12.108 74.3766 12.0652 74.6205C12.0228 74.8429 11.9728 75.0663 11.9154 75.2906C11.8666 75.5108 11.805 75.7264 11.7305 75.9376C11.6584 76.1423 11.5789 76.3373 11.492 76.5225C11.403 76.7141 11.2967 76.9032 11.1734 77.0899C10.9684 77.4061 10.7249 77.6584 10.4428 77.8467C10.1647 78.0436 9.85003 78.1917 9.4986 78.2908C9.32401 78.3372 9.15317 78.3525 8.98608 78.3368C8.82313 78.3297 8.65734 78.3 8.48873 78.2478L7.54139 77.9355Z" fill="#F40000"/>
<path d="M14.7855 79.4202C14.9454 79.4766 15.11 79.4483 15.2793 79.3353C15.4509 79.2159 15.597 79.0768 15.7177 78.918C15.8385 78.7591 15.9571 78.5959 16.0737 78.4284C16.402 77.9255 16.6909 77.4015 16.9405 76.8565C17.1924 76.305 17.4352 75.7181 17.669 75.0955C17.7761 74.8527 17.8725 74.6098 17.9582 74.3666C18.1927 73.7012 18.3663 73.0251 18.4788 72.3382C18.6 71.6473 18.6829 70.9428 18.7273 70.2247C18.7337 70.1047 18.7325 69.9856 18.7238 69.8674C18.7237 69.7451 18.7011 69.6256 18.6559 69.509C18.5944 69.3363 18.5029 69.2285 18.3814 69.1857C18.247 69.1383 18.1048 69.1745 17.9547 69.2943C17.8851 69.3489 17.8208 69.4089 17.7617 69.4744C17.7091 69.5422 17.6564 69.61 17.6038 69.6777C17.1148 70.2895 16.6865 70.9334 16.3188 71.6094C15.9533 72.279 15.625 72.9761 15.3337 73.7007L15.2023 74.0428C14.9204 74.8426 14.7266 75.6375 14.6209 76.4274C14.5151 77.2174 14.4512 78.0113 14.429 78.8091L14.4358 78.9733C14.4532 79.0873 14.4924 79.1803 14.5534 79.2521C14.6185 79.3326 14.6959 79.3887 14.7855 79.4202ZM15.4934 80.7487C15.1351 80.6224 14.7867 80.478 14.4483 80.3156C13.7862 80.0104 13.464 79.4653 13.4817 78.6802C13.4967 77.8008 13.5757 76.9439 13.7187 76.1095C13.8703 75.271 14.0939 74.4327 14.3892 73.5945C14.5809 73.0506 14.7991 72.5233 15.0438 72.0125C15.2886 71.5017 15.5708 70.9969 15.8904 70.4982C16.0713 70.2094 16.2574 69.9262 16.4488 69.6484C16.6402 69.3705 16.8465 69.1016 17.0677 68.8414C17.3238 68.5433 17.6059 68.355 17.9141 68.2765C18.2287 68.2004 18.5694 68.2234 18.9364 68.3455C19.1604 68.4244 19.3843 68.5033 19.6082 68.5822C19.8344 68.6548 20.0606 68.7273 20.2868 68.7998L20.3252 68.8133C20.5876 68.9058 20.7969 69.0874 20.9532 69.3583C21.1528 69.7308 21.2435 70.1368 21.2253 70.5763C21.2014 70.9707 21.1702 71.3553 21.1316 71.7302C21.0994 72.1072 21.0467 72.4915 20.9735 72.8829C20.909 73.2702 20.8217 73.671 20.7116 74.0854C20.6015 74.4997 20.4642 74.9405 20.2996 75.4076L20.0031 76.1878C19.843 76.6421 19.6259 77.1662 19.3518 77.7602C19.08 78.3477 18.7514 78.9333 18.366 79.5167C18.1919 79.7863 17.9978 80.0308 17.7838 80.2503C17.5698 80.4698 17.3262 80.6609 17.0531 80.8236C16.9251 80.9008 16.7955 80.9522 16.6642 80.9778C16.5306 81.0099 16.388 81.0064 16.2363 80.9673C16.1103 80.9373 15.9853 80.904 15.8615 80.8676C15.7376 80.8311 15.6149 80.7915 15.4934 80.7487Z" fill="#F40000"/>
<path d="M7.54139 77.9355C7.22787 77.8251 6.91772 77.705 6.61096 77.5753C5.99104 77.3137 5.59532 76.8649 5.42379 76.229C5.37328 76.0458 5.34102 75.8618 5.327 75.677C5.31714 75.5009 5.30839 75.3216 5.30078 75.1391C5.30188 75.0747 5.31596 75.0042 5.34302 74.9274L5.36669 74.8602C5.41142 74.7537 5.47498 74.6754 5.55737 74.6253C5.64616 74.5774 5.74193 74.5608 5.84467 74.5755C5.87252 74.5781 5.90883 74.5873 5.95362 74.6031C6.11998 74.6617 6.21224 74.7877 6.2304 74.9811C6.24776 75.0952 6.25873 75.2069 6.2633 75.3164C6.26561 75.4323 6.27112 75.5494 6.27983 75.6675C6.31358 76.2045 6.5768 76.5598 7.06948 76.7334L7.18465 76.774C7.40445 76.8443 7.63099 76.8342 7.86427 76.7438C8.14495 76.6413 8.375 76.4886 8.5544 76.2857C8.73381 76.0827 8.88366 75.8514 9.00396 75.5917C9.0908 75.4065 9.16804 75.218 9.23569 75.026C9.29882 74.8468 9.35236 74.6643 9.3963 74.4784C9.44664 74.2947 9.48625 74.1109 9.51514 73.9268C9.54367 73.7642 9.54096 73.6086 9.50702 73.46C9.48173 73.3072 9.44139 73.1564 9.386 73.0074C9.3099 72.8151 9.17587 72.6851 8.98391 72.6175C8.95192 72.6062 8.9156 72.597 8.87495 72.5899C8.83431 72.5828 8.79254 72.5788 8.74963 72.5781C8.50954 72.5654 8.2702 72.571 8.03163 72.5948C7.79945 72.6209 7.57614 72.6932 7.3617 72.8119C7.32709 72.8285 7.30433 72.842 7.29342 72.8526C7.14406 72.9294 7.00859 72.9464 6.88702 72.9036C6.85503 72.8923 6.82416 72.8778 6.79443 72.8601C6.77109 72.8447 6.74568 72.825 6.71819 72.8009C6.55744 72.6651 6.51013 72.483 6.57625 72.2546C6.76072 71.629 6.93974 71.0088 7.11331 70.3938C7.29327 69.7811 7.49261 69.1644 7.71133 68.5437C7.8128 68.2558 7.91521 67.9754 8.01857 67.7025C8.12833 67.4319 8.24673 67.1571 8.3738 66.8782C8.47642 66.6482 8.57472 66.4203 8.66869 66.1945C8.76492 65.9622 8.86114 65.73 8.95737 65.4978C9.06 65.2678 9.17395 65.1281 9.29924 65.0788C9.42453 65.0294 9.60235 65.0453 9.8327 65.1265C10.3766 65.3182 10.914 65.5076 11.4451 65.6947C11.9762 65.8819 12.5148 66.0681 13.0609 66.2533C13.2849 66.3323 13.5088 66.4112 13.7327 66.4901C13.9567 66.569 14.1795 66.6511 14.4012 66.7365C14.5996 66.8064 14.7225 66.8964 14.7699 67.0067C14.8174 67.1169 14.8084 67.2648 14.743 67.4504L14.2633 68.7811C14.1258 69.1714 13.9925 69.5596 13.8637 69.9458C13.7412 70.3342 13.6283 70.726 13.525 71.1212L13.4263 71.4317C13.3707 71.5487 13.291 71.6321 13.1871 71.6819C13.0919 71.7274 12.9792 71.7309 12.849 71.6922L11.9626 71.3906L11.083 71.0698C10.8444 70.9714 10.7621 70.7661 10.8361 70.4541C10.9559 69.9712 11.0939 69.4876 11.2503 69.0032C11.3585 68.6961 11.4635 68.3878 11.5654 68.0784C11.6672 67.7691 11.7722 67.4608 11.8805 67.1537C11.9143 67.0577 11.9188 66.9838 11.8939 66.9318C11.8713 66.8735 11.8088 66.8263 11.7064 66.7902C11.6082 66.7628 11.5111 66.7322 11.4151 66.6984C11.3191 66.6646 11.2232 66.6307 11.1272 66.5969C10.9352 66.5293 10.7433 66.4616 10.5513 66.394C10.3616 66.3199 10.1708 66.2491 9.97883 66.1814L9.95004 66.1713C9.85406 66.1375 9.78219 66.1373 9.73441 66.1708C9.68663 66.2043 9.64376 66.2648 9.6058 66.3521C9.40658 66.8357 9.20849 67.3162 9.01153 67.7935C8.82096 68.273 8.63887 68.7591 8.46525 69.2518C8.35701 69.5589 8.25423 69.8608 8.15691 70.1573C8.06824 70.4498 7.98691 70.752 7.91292 71.064C7.89415 71.1581 7.86898 71.2499 7.83742 71.3395C7.80585 71.4291 7.77955 71.5241 7.75853 71.6246L7.8449 71.655C8.23211 71.5973 8.60429 71.6026 8.96144 71.6709C9.32086 71.7328 9.67332 71.8246 10.0188 71.9464C10.1852 72.005 10.3536 72.068 10.5241 72.1353C10.6946 72.2025 10.8619 72.2687 11.026 72.3337C11.2263 72.4187 11.3959 72.5396 11.5348 72.6964C11.676 72.8469 11.7867 73.0226 11.867 73.2235C11.9619 73.444 12.0288 73.6726 12.0677 73.9092C12.1088 74.1395 12.108 74.3766 12.0652 74.6205C12.0228 74.8429 11.9728 75.0663 11.9154 75.2906C11.8666 75.5108 11.805 75.7264 11.7305 75.9376C11.6584 76.1423 11.5789 76.3373 11.492 76.5225C11.403 76.7141 11.2967 76.9032 11.1734 77.0899C10.9684 77.4061 10.7249 77.6584 10.4428 77.8467C10.1647 78.0436 9.85003 78.1917 9.4986 78.2908C9.32401 78.3372 9.15317 78.3525 8.98608 78.3368C8.82313 78.3297 8.65734 78.3 8.48873 78.2478L7.54139 77.9355Z" stroke="#1F1F1F" stroke-width="2" mask="url(#path-14-outside-1_5_11904)"/>
<path d="M14.7855 79.4202C14.9454 79.4766 15.11 79.4483 15.2793 79.3353C15.4509 79.2159 15.597 79.0768 15.7177 78.918C15.8385 78.7591 15.9571 78.5959 16.0737 78.4284C16.402 77.9255 16.6909 77.4015 16.9405 76.8565C17.1924 76.305 17.4352 75.7181 17.669 75.0955C17.7761 74.8527 17.8725 74.6098 17.9582 74.3666C18.1927 73.7012 18.3663 73.0251 18.4788 72.3382C18.6 71.6473 18.6829 70.9428 18.7273 70.2247C18.7337 70.1047 18.7325 69.9856 18.7238 69.8674C18.7237 69.7451 18.7011 69.6256 18.6559 69.509C18.5944 69.3363 18.5029 69.2285 18.3814 69.1857C18.247 69.1383 18.1048 69.1745 17.9547 69.2943C17.8851 69.3489 17.8208 69.4089 17.7617 69.4744C17.7091 69.5422 17.6564 69.61 17.6038 69.6777C17.1148 70.2895 16.6865 70.9334 16.3188 71.6094C15.9533 72.279 15.625 72.9761 15.3337 73.7007L15.2023 74.0428C14.9204 74.8426 14.7266 75.6375 14.6209 76.4274C14.5151 77.2174 14.4512 78.0113 14.429 78.8091L14.4358 78.9733C14.4532 79.0873 14.4924 79.1803 14.5534 79.2521C14.6185 79.3326 14.6959 79.3887 14.7855 79.4202ZM15.4934 80.7487C15.1351 80.6224 14.7867 80.478 14.4483 80.3156C13.7862 80.0104 13.464 79.4653 13.4817 78.6802C13.4967 77.8008 13.5757 76.9439 13.7187 76.1095C13.8703 75.271 14.0939 74.4327 14.3892 73.5945C14.5809 73.0506 14.7991 72.5233 15.0438 72.0125C15.2886 71.5017 15.5708 70.9969 15.8904 70.4982C16.0713 70.2094 16.2574 69.9262 16.4488 69.6484C16.6402 69.3705 16.8465 69.1016 17.0677 68.8414C17.3238 68.5433 17.6059 68.355 17.9141 68.2765C18.2287 68.2004 18.5694 68.2234 18.9364 68.3455C19.1604 68.4244 19.3843 68.5033 19.6082 68.5822C19.8344 68.6548 20.0606 68.7273 20.2868 68.7998L20.3252 68.8133C20.5876 68.9058 20.7969 69.0874 20.9532 69.3583C21.1528 69.7308 21.2435 70.1368 21.2253 70.5763C21.2014 70.9707 21.1702 71.3553 21.1316 71.7302C21.0994 72.1072 21.0467 72.4915 20.9735 72.8829C20.909 73.2702 20.8217 73.671 20.7116 74.0854C20.6015 74.4997 20.4642 74.9405 20.2996 75.4076L20.0031 76.1878C19.843 76.6421 19.6259 77.1662 19.3518 77.7602C19.08 78.3477 18.7514 78.9333 18.366 79.5167C18.1919 79.7863 17.9978 80.0308 17.7838 80.2503C17.5698 80.4698 17.3262 80.6609 17.0531 80.8236C16.9251 80.9008 16.7955 80.9522 16.6642 80.9778C16.5306 81.0099 16.388 81.0064 16.2363 80.9673C16.1103 80.9373 15.9853 80.904 15.8615 80.8676C15.7376 80.8311 15.6149 80.7915 15.4934 80.7487Z" stroke="#1F1F1F" stroke-width="2" mask="url(#path-14-outside-1_5_11904)"/>
<path d="M23.5286 91.167L23.5125 91.0989H23.6917C23.6381 91.122 23.5837 91.1447 23.5286 91.167Z" fill="#FDA3C4" stroke="black"/>
</svg>
