<svg width="276" height="271" viewBox="0 0 276 271" fill="none" xmlns="http://www.w3.org/2000/svg">
<path d="M93.5261 41.9288C93.6195 41.8424 93.7146 41.7553 93.8115 41.6677C114.284 22.9657 119.644 24.8274 135.884 20.7339C152.199 16.6214 179.497 29.057 188.282 35.7001C195.31 41.0147 199.996 53.6334 200.832 59.0112L186.086 60.9093C186.504 54.5825 180.626 39.4613 153.768 29.5915C127.192 19.8253 102.931 33.4128 93.8115 41.6677C93.7167 41.7543 93.6216 41.8413 93.5261 41.9288Z" fill="#1F1F1F" stroke="#1F1F1F"/>
<path d="M240.801 136.326C240.801 191.93 195.683 237.007 140.026 237.007C84.3691 237.007 39.2517 191.93 39.2517 136.326C39.2517 80.7219 84.3691 35.6445 140.026 35.6445C195.683 35.6445 240.801 80.7219 240.801 136.326Z" fill="white"/>
<path d="M240.801 136.326C240.801 191.93 195.683 237.007 140.026 237.007C84.3691 237.007 39.2517 191.93 39.2517 136.326C39.2517 80.7219 84.3691 35.6445 140.026 35.6445C195.683 35.6445 240.801 80.7219 240.801 136.326Z" fill="white"/>
<path d="M240.801 136.326C240.801 191.93 195.683 237.007 140.026 237.007C84.3691 237.007 39.2517 191.93 39.2517 136.326C39.2517 80.7219 84.3691 35.6445 140.026 35.6445C195.683 35.6445 240.801 80.7219 240.801 136.326Z" stroke="#1F1F1F" stroke-width="2"/>
<path d="M242.44 136.326C242.44 191.93 197.323 237.007 141.666 237.007C86.0085 237.007 40.8911 191.93 40.8911 136.326C40.8911 80.7219 86.0085 35.6445 141.666 35.6445C197.323 35.6445 242.44 80.7219 242.44 136.326Z" fill="white"/>
<path d="M242.44 136.326C242.44 191.93 197.323 237.007 141.666 237.007C86.0085 237.007 40.8911 191.93 40.8911 136.326C40.8911 80.7219 86.0085 35.6445 141.666 35.6445C197.323 35.6445 242.44 80.7219 242.44 136.326Z" fill="white"/>
<path d="M242.44 136.326C242.44 191.93 197.323 237.007 141.666 237.007C86.0085 237.007 40.8911 191.93 40.8911 136.326C40.8911 80.7219 86.0085 35.6445 141.666 35.6445C197.323 35.6445 242.44 80.7219 242.44 136.326Z" stroke="#1F1F1F" stroke-width="2"/>
<mask id="path-4-outside-1_5_12015" maskUnits="userSpaceOnUse" x="86.981" y="94.7383" width="128" height="92" fill="black">
<rect fill="white" x="86.981" y="94.7383" width="128" height="92"/>
<path d="M109.354 185.042C107.042 185.042 104.73 184.971 102.419 184.83C97.7475 184.547 94.1146 182.52 91.5196 178.749C90.7647 177.665 90.1277 176.533 89.6087 175.355C89.1369 174.224 88.6651 173.069 88.1933 171.89C88.0517 171.466 87.981 170.971 87.981 170.405V169.91C88.0281 169.109 88.264 168.449 88.6887 167.931C89.1605 167.412 89.7503 167.082 90.458 166.941C90.6467 166.894 90.9062 166.87 91.2365 166.87C92.4632 166.87 93.3597 167.483 93.9258 168.708C94.3033 169.416 94.6336 170.123 94.9166 170.83C95.1997 171.584 95.5064 172.338 95.8367 173.092C97.2993 176.533 99.8471 178.254 103.48 178.254H104.329C105.934 178.207 107.396 177.618 108.717 176.486C110.321 175.166 111.477 173.634 112.185 171.89C112.893 170.146 113.341 168.284 113.53 166.304C113.671 164.89 113.742 163.476 113.742 162.062C113.742 160.742 113.671 159.422 113.53 158.102C113.435 156.782 113.27 155.486 113.034 154.213C112.846 153.082 112.468 152.069 111.902 151.173C111.383 150.23 110.77 149.335 110.062 148.486C109.118 147.402 107.939 146.86 106.523 146.86C106.287 146.86 106.028 146.883 105.745 146.931C105.462 146.978 105.179 147.048 104.896 147.143C103.291 147.614 101.734 148.203 100.225 148.91C98.7619 149.617 97.4645 150.607 96.3321 151.88C96.1434 152.069 96.0254 152.21 95.9782 152.304C95.1761 153.153 94.3269 153.577 93.4304 153.577C93.1945 153.577 92.9586 153.553 92.7227 153.506C92.534 153.459 92.3217 153.388 92.0858 153.294C90.7175 152.776 89.9862 151.692 89.8918 150.042C89.6559 145.516 89.3964 141.038 89.1133 136.607C88.8774 132.176 88.7595 127.675 88.7595 123.102C88.7595 120.981 88.783 118.907 88.8302 116.88C88.9246 114.853 89.0661 112.779 89.2549 110.658C89.3964 108.913 89.5144 107.193 89.6087 105.496C89.7031 103.752 89.7974 102.008 89.8918 100.264C90.0334 98.5194 90.458 97.341 91.1657 96.7282C91.8734 96.1154 93.0766 95.809 94.7751 95.809C98.7855 95.809 102.749 95.809 106.665 95.809C110.581 95.809 114.544 95.7854 118.555 95.7383C120.206 95.7383 121.857 95.7383 123.509 95.7383C125.16 95.7383 126.811 95.7619 128.463 95.809C129.925 95.809 130.94 96.1154 131.506 96.7282C132.072 97.341 132.355 98.3309 132.355 99.6979L132.284 109.526C132.284 112.402 132.308 115.254 132.355 118.082C132.45 120.91 132.615 123.738 132.851 126.567L132.921 128.829C132.827 129.725 132.497 130.456 131.931 131.021C131.412 131.54 130.68 131.823 129.737 131.87L123.226 131.941L116.715 131.87C114.922 131.776 113.907 130.621 113.671 128.405C113.341 124.964 113.129 121.476 113.034 117.94C113.034 115.678 113.011 113.415 112.964 111.153C112.916 108.89 112.893 106.627 112.893 104.365C112.893 103.658 112.751 103.163 112.468 102.88C112.185 102.55 111.666 102.385 110.911 102.385C110.203 102.432 109.496 102.455 108.788 102.455C108.08 102.455 107.373 102.455 106.665 102.455C105.249 102.455 103.834 102.455 102.419 102.455C101.003 102.408 99.5876 102.385 98.1722 102.385H97.9599C97.2521 102.385 96.7803 102.55 96.5444 102.88C96.3085 103.21 96.167 103.705 96.1198 104.365C95.9311 107.994 95.7423 111.6 95.5536 115.183C95.4121 118.765 95.3413 122.371 95.3413 126.001C95.3413 128.264 95.3649 130.479 95.4121 132.648C95.5064 134.769 95.6716 136.937 95.9075 139.153C96.0018 139.813 96.049 140.473 96.049 141.133C96.049 141.792 96.0962 142.476 96.1906 143.183H96.8275C99.2338 141.91 101.687 141.085 104.188 140.708C106.688 140.284 109.213 140.072 111.76 140.072C112.987 140.072 114.238 140.095 115.511 140.143C116.785 140.19 118.036 140.237 119.262 140.284C120.772 140.378 122.164 140.779 123.438 141.486C124.712 142.146 125.844 143.042 126.835 144.173C127.967 145.399 128.935 146.742 129.737 148.203C130.539 149.617 131.081 151.173 131.364 152.87C131.6 154.426 131.789 156.005 131.931 157.607C132.119 159.163 132.214 160.719 132.214 162.274C132.214 163.783 132.143 165.244 132.001 166.658C131.86 168.119 131.6 169.604 131.223 171.113C130.61 173.658 129.595 175.873 128.18 177.759C126.811 179.692 125.089 181.389 123.013 182.85C121.975 183.557 120.89 184.052 119.758 184.335C118.673 184.665 117.517 184.853 116.29 184.9L109.354 185.042Z"/>
<path d="M179.764 184.83C178.821 184.783 177.877 184.759 176.934 184.759C175.99 184.759 175.046 184.759 174.103 184.759L169.927 184.688L167.875 184.618C166.789 184.523 165.917 184.193 165.256 183.628C164.596 183.062 164.265 182.331 164.265 181.436C164.265 180.87 164.36 180.375 164.548 179.951C165.115 178.584 165.563 177.193 165.893 175.779C166.223 174.412 166.53 173.022 166.813 171.607C167.096 170.24 167.379 168.85 167.662 167.436C167.945 166.069 168.299 164.678 168.724 163.264C169.62 160.53 170.305 157.749 170.776 154.92C171.248 152.092 171.814 149.264 172.475 146.436C173.183 143.23 174.032 140.143 175.023 137.173C176.91 130.998 178.632 124.846 180.189 118.718C181.793 112.543 183.397 106.509 185.002 100.617C185.096 100.193 185.19 99.7686 185.285 99.3444C185.379 98.9201 185.497 98.5194 185.639 98.1423C186.158 96.5396 187.219 95.7383 188.823 95.7383H195.122C196.16 95.7383 197.198 95.7383 198.236 95.7383C199.274 95.7383 200.312 95.7854 201.35 95.8797C202.435 95.974 203.261 96.3275 203.827 96.9403C204.393 97.5531 204.676 98.3545 204.676 99.3444C204.676 99.5329 204.653 99.7215 204.606 99.91C204.606 100.099 204.582 100.311 204.535 100.546C204.299 101.772 204.016 102.998 203.685 104.223C203.402 105.449 203.072 106.674 202.695 107.9C201.138 113.462 199.604 119.166 198.094 125.011C196.585 130.809 194.91 136.654 193.07 142.547C191.984 145.988 191.135 149.476 190.522 153.011C189.956 156.5 189.201 159.988 188.257 163.476C187.738 165.503 187.243 167.483 186.771 169.416C186.299 171.395 185.874 173.375 185.497 175.355C185.261 176.722 184.931 177.995 184.506 179.173C184.082 180.399 183.633 181.624 183.161 182.85C182.926 183.604 182.501 184.123 181.888 184.406C181.274 184.688 180.566 184.83 179.764 184.83ZM167.096 120.839C167.757 120.839 168.323 120.651 168.795 120.274C169.267 119.897 169.644 119.425 169.927 118.86C170.682 117.398 171.295 115.913 171.767 114.405C172.239 112.85 172.475 111.247 172.475 109.597C172.475 109.361 172.475 109.102 172.475 108.819C172.475 108.536 172.451 108.254 172.404 107.971C172.168 106.038 171.319 104.53 169.856 103.445C168.96 102.785 168.111 102.455 167.308 102.455C166.648 102.455 166.058 102.668 165.539 103.092C165.02 103.516 164.619 104.152 164.336 105.001C163.911 106.227 163.628 107.476 163.487 108.748C163.345 109.974 163.274 111.247 163.274 112.567C163.322 113.509 163.369 114.452 163.416 115.395C163.463 116.291 163.628 117.186 163.911 118.082C164.147 118.789 164.478 119.425 164.902 119.991C165.327 120.509 165.964 120.792 166.813 120.839H167.096ZM166.459 127.627C165.846 127.675 165.138 127.698 164.336 127.698C163.581 127.698 162.826 127.698 162.071 127.698C161.222 127.698 160.326 127.722 159.382 127.769H154.357C150.252 127.486 147.398 125.483 145.794 121.759C145.416 120.91 145.133 120.038 144.944 119.142C144.756 118.2 144.591 117.257 144.449 116.314C144.307 115.136 144.237 113.957 144.237 112.779C144.237 109.903 144.638 106.981 145.44 104.011C145.864 102.361 146.596 100.829 147.634 99.4151C148.483 98.3309 149.427 97.506 150.465 96.9403C151.55 96.3275 152.847 96.0211 154.357 96.0211C155.867 96.0211 157.4 95.974 158.957 95.8797C160.514 95.7854 162.095 95.7383 163.699 95.7383L167.025 95.8797C169.62 96.0682 171.932 96.8932 173.961 98.3545C175.99 99.8157 177.405 101.796 178.207 104.294C178.774 105.991 179.057 107.759 179.057 109.597C179.057 109.974 179.033 110.351 178.986 110.728C178.986 111.058 178.962 111.412 178.915 111.789C178.679 113.392 178.349 114.971 177.924 116.526C177.5 118.035 176.934 119.52 176.226 120.981C175.235 123.008 173.937 124.611 172.333 125.789C170.776 126.92 168.818 127.533 166.459 127.627ZM201.067 178.325C201.822 178.325 202.412 178.089 202.836 177.618C203.308 177.146 203.733 176.604 204.11 175.991C204.818 174.577 205.36 173.163 205.738 171.749C206.162 170.335 206.398 169.086 206.446 168.001C206.446 166.21 206.233 164.702 205.809 163.476C205.384 162.251 204.558 161.261 203.332 160.506C202.624 160.082 201.916 159.87 201.208 159.87C200.595 159.87 200.052 160.059 199.581 160.436C199.109 160.766 198.755 161.284 198.519 161.991C197.623 164.395 197.174 166.917 197.174 169.557C197.174 170.5 197.222 171.442 197.316 172.385C197.457 173.375 197.646 174.341 197.882 175.284C198.071 176.038 198.354 176.698 198.731 177.264C199.156 177.83 199.769 178.16 200.571 178.254L201.067 178.325ZM200.855 184.9C199.062 184.9 197.387 184.406 195.83 183.416C194.32 182.473 193.14 181.035 192.291 179.102C191.631 177.594 191.206 176.062 191.017 174.506C190.876 172.951 190.758 171.395 190.663 169.84C190.758 166.964 191.112 164.23 191.725 161.638C191.866 160.978 192.055 160.341 192.291 159.729C192.574 159.116 192.857 158.527 193.14 157.961C193.99 156.217 195.098 154.991 196.467 154.284C197.882 153.53 199.345 153.153 200.855 153.153C202.883 153.153 204.747 153.671 206.446 154.708C208.805 156.123 210.48 157.89 211.47 160.011C212.508 162.086 213.027 164.442 213.027 167.082V167.931C212.933 169.769 212.626 171.56 212.107 173.304C211.636 175.096 210.999 176.816 210.197 178.466C209.866 179.126 209.489 179.739 209.064 180.304C208.687 180.87 208.238 181.412 207.719 181.931C206.681 182.968 205.573 183.722 204.393 184.193C203.261 184.665 202.081 184.9 200.855 184.9Z"/>
</mask>
<path d="M109.354 185.042C107.042 185.042 104.73 184.971 102.419 184.83C97.7475 184.547 94.1146 182.52 91.5196 178.749C90.7647 177.665 90.1277 176.533 89.6087 175.355C89.1369 174.224 88.6651 173.069 88.1933 171.89C88.0517 171.466 87.981 170.971 87.981 170.405V169.91C88.0281 169.109 88.264 168.449 88.6887 167.931C89.1605 167.412 89.7503 167.082 90.458 166.941C90.6467 166.894 90.9062 166.87 91.2365 166.87C92.4632 166.87 93.3597 167.483 93.9258 168.708C94.3033 169.416 94.6336 170.123 94.9166 170.83C95.1997 171.584 95.5064 172.338 95.8367 173.092C97.2993 176.533 99.8471 178.254 103.48 178.254H104.329C105.934 178.207 107.396 177.618 108.717 176.486C110.321 175.166 111.477 173.634 112.185 171.89C112.893 170.146 113.341 168.284 113.53 166.304C113.671 164.89 113.742 163.476 113.742 162.062C113.742 160.742 113.671 159.422 113.53 158.102C113.435 156.782 113.27 155.486 113.034 154.213C112.846 153.082 112.468 152.069 111.902 151.173C111.383 150.23 110.77 149.335 110.062 148.486C109.118 147.402 107.939 146.86 106.523 146.86C106.287 146.86 106.028 146.883 105.745 146.931C105.462 146.978 105.179 147.048 104.896 147.143C103.291 147.614 101.734 148.203 100.225 148.91C98.7619 149.617 97.4645 150.607 96.3321 151.88C96.1434 152.069 96.0254 152.21 95.9782 152.304C95.1761 153.153 94.3269 153.577 93.4304 153.577C93.1945 153.577 92.9586 153.553 92.7227 153.506C92.534 153.459 92.3217 153.388 92.0858 153.294C90.7175 152.776 89.9862 151.692 89.8918 150.042C89.6559 145.516 89.3964 141.038 89.1133 136.607C88.8774 132.176 88.7595 127.675 88.7595 123.102C88.7595 120.981 88.783 118.907 88.8302 116.88C88.9246 114.853 89.0661 112.779 89.2549 110.658C89.3964 108.913 89.5144 107.193 89.6087 105.496C89.7031 103.752 89.7974 102.008 89.8918 100.264C90.0334 98.5194 90.458 97.341 91.1657 96.7282C91.8734 96.1154 93.0766 95.809 94.7751 95.809C98.7855 95.809 102.749 95.809 106.665 95.809C110.581 95.809 114.544 95.7854 118.555 95.7383C120.206 95.7383 121.857 95.7383 123.509 95.7383C125.16 95.7383 126.811 95.7619 128.463 95.809C129.925 95.809 130.94 96.1154 131.506 96.7282C132.072 97.341 132.355 98.3309 132.355 99.6979L132.284 109.526C132.284 112.402 132.308 115.254 132.355 118.082C132.45 120.91 132.615 123.738 132.851 126.567L132.921 128.829C132.827 129.725 132.497 130.456 131.931 131.021C131.412 131.54 130.68 131.823 129.737 131.87L123.226 131.941L116.715 131.87C114.922 131.776 113.907 130.621 113.671 128.405C113.341 124.964 113.129 121.476 113.034 117.94C113.034 115.678 113.011 113.415 112.964 111.153C112.916 108.89 112.893 106.627 112.893 104.365C112.893 103.658 112.751 103.163 112.468 102.88C112.185 102.55 111.666 102.385 110.911 102.385C110.203 102.432 109.496 102.455 108.788 102.455C108.08 102.455 107.373 102.455 106.665 102.455C105.249 102.455 103.834 102.455 102.419 102.455C101.003 102.408 99.5876 102.385 98.1722 102.385H97.9599C97.2521 102.385 96.7803 102.55 96.5444 102.88C96.3085 103.21 96.167 103.705 96.1198 104.365C95.9311 107.994 95.7423 111.6 95.5536 115.183C95.4121 118.765 95.3413 122.371 95.3413 126.001C95.3413 128.264 95.3649 130.479 95.4121 132.648C95.5064 134.769 95.6716 136.937 95.9075 139.153C96.0018 139.813 96.049 140.473 96.049 141.133C96.049 141.792 96.0962 142.476 96.1906 143.183H96.8275C99.2338 141.91 101.687 141.085 104.188 140.708C106.688 140.284 109.213 140.072 111.76 140.072C112.987 140.072 114.238 140.095 115.511 140.143C116.785 140.19 118.036 140.237 119.262 140.284C120.772 140.378 122.164 140.779 123.438 141.486C124.712 142.146 125.844 143.042 126.835 144.173C127.967 145.399 128.935 146.742 129.737 148.203C130.539 149.617 131.081 151.173 131.364 152.87C131.6 154.426 131.789 156.005 131.931 157.607C132.119 159.163 132.214 160.719 132.214 162.274C132.214 163.783 132.143 165.244 132.001 166.658C131.86 168.119 131.6 169.604 131.223 171.113C130.61 173.658 129.595 175.873 128.18 177.759C126.811 179.692 125.089 181.389 123.013 182.85C121.975 183.557 120.89 184.052 119.758 184.335C118.673 184.665 117.517 184.853 116.29 184.9L109.354 185.042Z" fill="#FDA3C4"/>
<path d="M179.764 184.83C178.821 184.783 177.877 184.759 176.934 184.759C175.99 184.759 175.046 184.759 174.103 184.759L169.927 184.688L167.875 184.618C166.789 184.523 165.917 184.193 165.256 183.628C164.596 183.062 164.265 182.331 164.265 181.436C164.265 180.87 164.36 180.375 164.548 179.951C165.115 178.584 165.563 177.193 165.893 175.779C166.223 174.412 166.53 173.022 166.813 171.607C167.096 170.24 167.379 168.85 167.662 167.436C167.945 166.069 168.299 164.678 168.724 163.264C169.62 160.53 170.305 157.749 170.776 154.92C171.248 152.092 171.814 149.264 172.475 146.436C173.183 143.23 174.032 140.143 175.023 137.173C176.91 130.998 178.632 124.846 180.189 118.718C181.793 112.543 183.397 106.509 185.002 100.617C185.096 100.193 185.19 99.7686 185.285 99.3444C185.379 98.9201 185.497 98.5194 185.639 98.1423C186.158 96.5396 187.219 95.7383 188.823 95.7383H195.122C196.16 95.7383 197.198 95.7383 198.236 95.7383C199.274 95.7383 200.312 95.7854 201.35 95.8797C202.435 95.974 203.261 96.3275 203.827 96.9403C204.393 97.5531 204.676 98.3545 204.676 99.3444C204.676 99.5329 204.653 99.7215 204.606 99.91C204.606 100.099 204.582 100.311 204.535 100.546C204.299 101.772 204.016 102.998 203.685 104.223C203.402 105.449 203.072 106.674 202.695 107.9C201.138 113.462 199.604 119.166 198.094 125.011C196.585 130.809 194.91 136.654 193.07 142.547C191.984 145.988 191.135 149.476 190.522 153.011C189.956 156.5 189.201 159.988 188.257 163.476C187.738 165.503 187.243 167.483 186.771 169.416C186.299 171.395 185.874 173.375 185.497 175.355C185.261 176.722 184.931 177.995 184.506 179.173C184.082 180.399 183.633 181.624 183.161 182.85C182.926 183.604 182.501 184.123 181.888 184.406C181.274 184.688 180.566 184.83 179.764 184.83ZM167.096 120.839C167.757 120.839 168.323 120.651 168.795 120.274C169.267 119.897 169.644 119.425 169.927 118.86C170.682 117.398 171.295 115.913 171.767 114.405C172.239 112.85 172.475 111.247 172.475 109.597C172.475 109.361 172.475 109.102 172.475 108.819C172.475 108.536 172.451 108.254 172.404 107.971C172.168 106.038 171.319 104.53 169.856 103.445C168.96 102.785 168.111 102.455 167.308 102.455C166.648 102.455 166.058 102.668 165.539 103.092C165.02 103.516 164.619 104.152 164.336 105.001C163.911 106.227 163.628 107.476 163.487 108.748C163.345 109.974 163.274 111.247 163.274 112.567C163.322 113.509 163.369 114.452 163.416 115.395C163.463 116.291 163.628 117.186 163.911 118.082C164.147 118.789 164.478 119.425 164.902 119.991C165.327 120.509 165.964 120.792 166.813 120.839H167.096ZM166.459 127.627C165.846 127.675 165.138 127.698 164.336 127.698C163.581 127.698 162.826 127.698 162.071 127.698C161.222 127.698 160.326 127.722 159.382 127.769H154.357C150.252 127.486 147.398 125.483 145.794 121.759C145.416 120.91 145.133 120.038 144.944 119.142C144.756 118.2 144.591 117.257 144.449 116.314C144.307 115.136 144.237 113.957 144.237 112.779C144.237 109.903 144.638 106.981 145.44 104.011C145.864 102.361 146.596 100.829 147.634 99.4151C148.483 98.3309 149.427 97.506 150.465 96.9403C151.55 96.3275 152.847 96.0211 154.357 96.0211C155.867 96.0211 157.4 95.974 158.957 95.8797C160.514 95.7854 162.095 95.7383 163.699 95.7383L167.025 95.8797C169.62 96.0682 171.932 96.8932 173.961 98.3545C175.99 99.8157 177.405 101.796 178.207 104.294C178.774 105.991 179.057 107.759 179.057 109.597C179.057 109.974 179.033 110.351 178.986 110.728C178.986 111.058 178.962 111.412 178.915 111.789C178.679 113.392 178.349 114.971 177.924 116.526C177.5 118.035 176.934 119.52 176.226 120.981C175.235 123.008 173.937 124.611 172.333 125.789C170.776 126.92 168.818 127.533 166.459 127.627ZM201.067 178.325C201.822 178.325 202.412 178.089 202.836 177.618C203.308 177.146 203.733 176.604 204.11 175.991C204.818 174.577 205.36 173.163 205.738 171.749C206.162 170.335 206.398 169.086 206.446 168.001C206.446 166.21 206.233 164.702 205.809 163.476C205.384 162.251 204.558 161.261 203.332 160.506C202.624 160.082 201.916 159.87 201.208 159.87C200.595 159.87 200.052 160.059 199.581 160.436C199.109 160.766 198.755 161.284 198.519 161.991C197.623 164.395 197.174 166.917 197.174 169.557C197.174 170.5 197.222 171.442 197.316 172.385C197.457 173.375 197.646 174.341 197.882 175.284C198.071 176.038 198.354 176.698 198.731 177.264C199.156 177.83 199.769 178.16 200.571 178.254L201.067 178.325ZM200.855 184.9C199.062 184.9 197.387 184.406 195.83 183.416C194.32 182.473 193.14 181.035 192.291 179.102C191.631 177.594 191.206 176.062 191.017 174.506C190.876 172.951 190.758 171.395 190.663 169.84C190.758 166.964 191.112 164.23 191.725 161.638C191.866 160.978 192.055 160.341 192.291 159.729C192.574 159.116 192.857 158.527 193.14 157.961C193.99 156.217 195.098 154.991 196.467 154.284C197.882 153.53 199.345 153.153 200.855 153.153C202.883 153.153 204.747 153.671 206.446 154.708C208.805 156.123 210.48 157.89 211.47 160.011C212.508 162.086 213.027 164.442 213.027 167.082V167.931C212.933 169.769 212.626 171.56 212.107 173.304C211.636 175.096 210.999 176.816 210.197 178.466C209.866 179.126 209.489 179.739 209.064 180.304C208.687 180.87 208.238 181.412 207.719 181.931C206.681 182.968 205.573 183.722 204.393 184.193C203.261 184.665 202.081 184.9 200.855 184.9Z" fill="#FDA3C4"/>
<path d="M109.354 185.042C107.042 185.042 104.73 184.971 102.419 184.83C97.7475 184.547 94.1146 182.52 91.5196 178.749C90.7647 177.665 90.1277 176.533 89.6087 175.355C89.1369 174.224 88.6651 173.069 88.1933 171.89C88.0517 171.466 87.981 170.971 87.981 170.405V169.91C88.0281 169.109 88.264 168.449 88.6887 167.931C89.1605 167.412 89.7503 167.082 90.458 166.941C90.6467 166.894 90.9062 166.87 91.2365 166.87C92.4632 166.87 93.3597 167.483 93.9258 168.708C94.3033 169.416 94.6336 170.123 94.9166 170.83C95.1997 171.584 95.5064 172.338 95.8367 173.092C97.2993 176.533 99.8471 178.254 103.48 178.254H104.329C105.934 178.207 107.396 177.618 108.717 176.486C110.321 175.166 111.477 173.634 112.185 171.89C112.893 170.146 113.341 168.284 113.53 166.304C113.671 164.89 113.742 163.476 113.742 162.062C113.742 160.742 113.671 159.422 113.53 158.102C113.435 156.782 113.27 155.486 113.034 154.213C112.846 153.082 112.468 152.069 111.902 151.173C111.383 150.23 110.77 149.335 110.062 148.486C109.118 147.402 107.939 146.86 106.523 146.86C106.287 146.86 106.028 146.883 105.745 146.931C105.462 146.978 105.179 147.048 104.896 147.143C103.291 147.614 101.734 148.203 100.225 148.91C98.7619 149.617 97.4645 150.607 96.3321 151.88C96.1434 152.069 96.0254 152.21 95.9782 152.304C95.1761 153.153 94.3269 153.577 93.4304 153.577C93.1945 153.577 92.9586 153.553 92.7227 153.506C92.534 153.459 92.3217 153.388 92.0858 153.294C90.7175 152.776 89.9862 151.692 89.8918 150.042C89.6559 145.516 89.3964 141.038 89.1133 136.607C88.8774 132.176 88.7595 127.675 88.7595 123.102C88.7595 120.981 88.783 118.907 88.8302 116.88C88.9246 114.853 89.0661 112.779 89.2549 110.658C89.3964 108.913 89.5144 107.193 89.6087 105.496C89.7031 103.752 89.7974 102.008 89.8918 100.264C90.0334 98.5194 90.458 97.341 91.1657 96.7282C91.8734 96.1154 93.0766 95.809 94.7751 95.809C98.7855 95.809 102.749 95.809 106.665 95.809C110.581 95.809 114.544 95.7854 118.555 95.7383C120.206 95.7383 121.857 95.7383 123.509 95.7383C125.16 95.7383 126.811 95.7619 128.463 95.809C129.925 95.809 130.94 96.1154 131.506 96.7282C132.072 97.341 132.355 98.3309 132.355 99.6979L132.284 109.526C132.284 112.402 132.308 115.254 132.355 118.082C132.45 120.91 132.615 123.738 132.851 126.567L132.921 128.829C132.827 129.725 132.497 130.456 131.931 131.021C131.412 131.54 130.68 131.823 129.737 131.87L123.226 131.941L116.715 131.87C114.922 131.776 113.907 130.621 113.671 128.405C113.341 124.964 113.129 121.476 113.034 117.94C113.034 115.678 113.011 113.415 112.964 111.153C112.916 108.89 112.893 106.627 112.893 104.365C112.893 103.658 112.751 103.163 112.468 102.88C112.185 102.55 111.666 102.385 110.911 102.385C110.203 102.432 109.496 102.455 108.788 102.455C108.08 102.455 107.373 102.455 106.665 102.455C105.249 102.455 103.834 102.455 102.419 102.455C101.003 102.408 99.5876 102.385 98.1722 102.385H97.9599C97.2521 102.385 96.7803 102.55 96.5444 102.88C96.3085 103.21 96.167 103.705 96.1198 104.365C95.9311 107.994 95.7423 111.6 95.5536 115.183C95.4121 118.765 95.3413 122.371 95.3413 126.001C95.3413 128.264 95.3649 130.479 95.4121 132.648C95.5064 134.769 95.6716 136.937 95.9075 139.153C96.0018 139.813 96.049 140.473 96.049 141.133C96.049 141.792 96.0962 142.476 96.1906 143.183H96.8275C99.2338 141.91 101.687 141.085 104.188 140.708C106.688 140.284 109.213 140.072 111.76 140.072C112.987 140.072 114.238 140.095 115.511 140.143C116.785 140.19 118.036 140.237 119.262 140.284C120.772 140.378 122.164 140.779 123.438 141.486C124.712 142.146 125.844 143.042 126.835 144.173C127.967 145.399 128.935 146.742 129.737 148.203C130.539 149.617 131.081 151.173 131.364 152.87C131.6 154.426 131.789 156.005 131.931 157.607C132.119 159.163 132.214 160.719 132.214 162.274C132.214 163.783 132.143 165.244 132.001 166.658C131.86 168.119 131.6 169.604 131.223 171.113C130.61 173.658 129.595 175.873 128.18 177.759C126.811 179.692 125.089 181.389 123.013 182.85C121.975 183.557 120.89 184.052 119.758 184.335C118.673 184.665 117.517 184.853 116.29 184.9L109.354 185.042Z" stroke="#1F1F1F" stroke-width="2" mask="url(#path-4-outside-1_5_12015)"/>
<path d="M179.764 184.83C178.821 184.783 177.877 184.759 176.934 184.759C175.99 184.759 175.046 184.759 174.103 184.759L169.927 184.688L167.875 184.618C166.789 184.523 165.917 184.193 165.256 183.628C164.596 183.062 164.265 182.331 164.265 181.436C164.265 180.87 164.36 180.375 164.548 179.951C165.115 178.584 165.563 177.193 165.893 175.779C166.223 174.412 166.53 173.022 166.813 171.607C167.096 170.24 167.379 168.85 167.662 167.436C167.945 166.069 168.299 164.678 168.724 163.264C169.62 160.53 170.305 157.749 170.776 154.92C171.248 152.092 171.814 149.264 172.475 146.436C173.183 143.23 174.032 140.143 175.023 137.173C176.91 130.998 178.632 124.846 180.189 118.718C181.793 112.543 183.397 106.509 185.002 100.617C185.096 100.193 185.19 99.7686 185.285 99.3444C185.379 98.9201 185.497 98.5194 185.639 98.1423C186.158 96.5396 187.219 95.7383 188.823 95.7383H195.122C196.16 95.7383 197.198 95.7383 198.236 95.7383C199.274 95.7383 200.312 95.7854 201.35 95.8797C202.435 95.974 203.261 96.3275 203.827 96.9403C204.393 97.5531 204.676 98.3545 204.676 99.3444C204.676 99.5329 204.653 99.7215 204.606 99.91C204.606 100.099 204.582 100.311 204.535 100.546C204.299 101.772 204.016 102.998 203.685 104.223C203.402 105.449 203.072 106.674 202.695 107.9C201.138 113.462 199.604 119.166 198.094 125.011C196.585 130.809 194.91 136.654 193.07 142.547C191.984 145.988 191.135 149.476 190.522 153.011C189.956 156.5 189.201 159.988 188.257 163.476C187.738 165.503 187.243 167.483 186.771 169.416C186.299 171.395 185.874 173.375 185.497 175.355C185.261 176.722 184.931 177.995 184.506 179.173C184.082 180.399 183.633 181.624 183.161 182.85C182.926 183.604 182.501 184.123 181.888 184.406C181.274 184.688 180.566 184.83 179.764 184.83ZM167.096 120.839C167.757 120.839 168.323 120.651 168.795 120.274C169.267 119.897 169.644 119.425 169.927 118.86C170.682 117.398 171.295 115.913 171.767 114.405C172.239 112.85 172.475 111.247 172.475 109.597C172.475 109.361 172.475 109.102 172.475 108.819C172.475 108.536 172.451 108.254 172.404 107.971C172.168 106.038 171.319 104.53 169.856 103.445C168.96 102.785 168.111 102.455 167.308 102.455C166.648 102.455 166.058 102.668 165.539 103.092C165.02 103.516 164.619 104.152 164.336 105.001C163.911 106.227 163.628 107.476 163.487 108.748C163.345 109.974 163.274 111.247 163.274 112.567C163.322 113.509 163.369 114.452 163.416 115.395C163.463 116.291 163.628 117.186 163.911 118.082C164.147 118.789 164.478 119.425 164.902 119.991C165.327 120.509 165.964 120.792 166.813 120.839H167.096ZM166.459 127.627C165.846 127.675 165.138 127.698 164.336 127.698C163.581 127.698 162.826 127.698 162.071 127.698C161.222 127.698 160.326 127.722 159.382 127.769H154.357C150.252 127.486 147.398 125.483 145.794 121.759C145.416 120.91 145.133 120.038 144.944 119.142C144.756 118.2 144.591 117.257 144.449 116.314C144.307 115.136 144.237 113.957 144.237 112.779C144.237 109.903 144.638 106.981 145.44 104.011C145.864 102.361 146.596 100.829 147.634 99.4151C148.483 98.3309 149.427 97.506 150.465 96.9403C151.55 96.3275 152.847 96.0211 154.357 96.0211C155.867 96.0211 157.4 95.974 158.957 95.8797C160.514 95.7854 162.095 95.7383 163.699 95.7383L167.025 95.8797C169.62 96.0682 171.932 96.8932 173.961 98.3545C175.99 99.8157 177.405 101.796 178.207 104.294C178.774 105.991 179.057 107.759 179.057 109.597C179.057 109.974 179.033 110.351 178.986 110.728C178.986 111.058 178.962 111.412 178.915 111.789C178.679 113.392 178.349 114.971 177.924 116.526C177.5 118.035 176.934 119.52 176.226 120.981C175.235 123.008 173.937 124.611 172.333 125.789C170.776 126.92 168.818 127.533 166.459 127.627ZM201.067 178.325C201.822 178.325 202.412 178.089 202.836 177.618C203.308 177.146 203.733 176.604 204.11 175.991C204.818 174.577 205.36 173.163 205.738 171.749C206.162 170.335 206.398 169.086 206.446 168.001C206.446 166.21 206.233 164.702 205.809 163.476C205.384 162.251 204.558 161.261 203.332 160.506C202.624 160.082 201.916 159.87 201.208 159.87C200.595 159.87 200.052 160.059 199.581 160.436C199.109 160.766 198.755 161.284 198.519 161.991C197.623 164.395 197.174 166.917 197.174 169.557C197.174 170.5 197.222 171.442 197.316 172.385C197.457 173.375 197.646 174.341 197.882 175.284C198.071 176.038 198.354 176.698 198.731 177.264C199.156 177.83 199.769 178.16 200.571 178.254L201.067 178.325ZM200.855 184.9C199.062 184.9 197.387 184.406 195.83 183.416C194.32 182.473 193.14 181.035 192.291 179.102C191.631 177.594 191.206 176.062 191.017 174.506C190.876 172.951 190.758 171.395 190.663 169.84C190.758 166.964 191.112 164.23 191.725 161.638C191.866 160.978 192.055 160.341 192.291 159.729C192.574 159.116 192.857 158.527 193.14 157.961C193.99 156.217 195.098 154.991 196.467 154.284C197.882 153.53 199.345 153.153 200.855 153.153C202.883 153.153 204.747 153.671 206.446 154.708C208.805 156.123 210.48 157.89 211.47 160.011C212.508 162.086 213.027 164.442 213.027 167.082V167.931C212.933 169.769 212.626 171.56 212.107 173.304C211.636 175.096 210.999 176.816 210.197 178.466C209.866 179.126 209.489 179.739 209.064 180.304C208.687 180.87 208.238 181.412 207.719 181.931C206.681 182.968 205.573 183.722 204.393 184.193C203.261 184.665 202.081 184.9 200.855 184.9Z" stroke="#1F1F1F" stroke-width="2" mask="url(#path-4-outside-1_5_12015)"/>
<path d="M53.106 133.433L2 81.0567H29.2775C38.6835 28.6799 73.1722 3.27549 120.516 1.08006C158.391 -0.676291 184.581 26.9026 192.942 40.9115C181.906 27.6135 158.976 22.8253 148.734 21.7799C92.7994 21.2781 78.2933 60.8796 78.1888 81.0567H102.644L53.106 133.433Z" fill="#F40000" stroke="#1F1F1F"/>
<path d="M14.1169 175.811C14.1169 175.534 14.3408 175.311 14.6169 175.311H47.8397V182.195H14.6169C14.3408 182.195 14.1169 181.971 14.1169 181.695V175.811Z" fill="white" stroke="#1F1F1F"/>
<path d="M80.9849 175.811C80.9849 175.534 80.761 175.311 80.4849 175.311H47.2621V182.195H80.4849C80.761 182.195 80.9849 181.971 80.9849 181.695V175.811Z" fill="white" stroke="#1F1F1F"/>
<path d="M18.8511 183.697C18.8511 183.421 19.0749 183.197 19.3511 183.197H52.5738V190.082H19.3511C19.0749 190.082 18.8511 189.858 18.8511 189.582V183.697Z" fill="white" stroke="#1F1F1F"/>
<path d="M85.7188 183.697C85.7188 183.421 85.4949 183.197 85.2188 183.197H51.996V190.082H85.2188C85.4949 190.082 85.7188 189.858 85.7188 189.582V183.697Z" fill="white" stroke="#1F1F1F"/>
<path d="M15.698 191.58C15.698 191.304 15.9219 191.08 16.198 191.08H49.4207V197.964H16.198C15.9219 197.964 15.698 197.741 15.698 197.464V191.58Z" fill="white" stroke="#1F1F1F"/>
<path d="M82.5627 191.58C82.5627 191.304 82.3389 191.08 82.0627 191.08H48.84V197.964H82.0627C82.3389 197.964 82.5627 197.741 82.5627 197.464V191.58Z" fill="white" stroke="#1F1F1F"/>
<path d="M22.0071 199.463C22.0071 199.187 22.2309 198.963 22.5071 198.963H55.7298V205.847H22.5071C22.2309 205.847 22.0071 205.623 22.0071 205.347V199.463Z" fill="white" stroke="#1F1F1F"/>
<path d="M88.8779 199.463C88.8779 199.187 88.6541 198.963 88.3779 198.963H55.1552V205.847H88.3779C88.6541 205.847 88.8779 205.623 88.8779 205.347V199.463Z" fill="white" stroke="#1F1F1F"/>
<path d="M15.698 207.35C15.698 207.073 15.9219 206.85 16.198 206.85H49.4207V213.734H16.198C15.9219 213.734 15.698 213.51 15.698 213.234V207.35Z" fill="white" stroke="#1F1F1F"/>
<path d="M82.5627 207.35C82.5627 207.073 82.3389 206.85 82.0627 206.85H48.84V213.734H82.0627C82.3389 213.734 82.5627 213.51 82.5627 213.234V207.35Z" fill="white" stroke="#1F1F1F"/>
<path d="M20.4292 215.234C20.4292 214.958 20.6531 214.734 20.9292 214.734H54.1519V221.619H20.9292C20.6531 221.619 20.4292 221.395 20.4292 221.119V215.234Z" fill="white" stroke="#1F1F1F"/>
<path d="M87.2969 215.234C87.2969 214.958 87.073 214.734 86.7969 214.734H53.5741V221.619H86.7969C87.073 221.619 87.2969 221.395 87.2969 221.119V215.234Z" fill="white" stroke="#1F1F1F"/>
<path d="M15.698 223.117C15.698 222.841 15.9219 222.617 16.198 222.617H49.4207V229.501H16.198C15.9219 229.501 15.698 229.278 15.698 229.001V223.117Z" fill="white" stroke="#1F1F1F"/>
<path d="M82.5627 223.117C82.5627 222.841 82.3389 222.617 82.0627 222.617H48.84V229.501H82.0627C82.3389 229.501 82.5627 229.278 82.5627 229.001V223.117Z" fill="white" stroke="#1F1F1F"/>
<path d="M20.4292 231C20.4292 230.724 20.6531 230.5 20.9292 230.5H54.1519V237.384H20.9292C20.6531 237.384 20.4292 237.16 20.4292 236.884V231Z" fill="white" stroke="#1F1F1F"/>
<path d="M87.2969 231C87.2969 230.724 87.073 230.5 86.7969 230.5H53.5741V237.384H86.7969C87.073 237.384 87.2969 237.16 87.2969 236.884V231Z" fill="white" stroke="#1F1F1F"/>
<path d="M15.698 238.887C15.698 238.611 15.9219 238.387 16.198 238.387H49.4207V245.271H16.198C15.9219 245.271 15.698 245.047 15.698 244.771V238.887Z" fill="white" stroke="#1F1F1F"/>
<path d="M82.5627 238.887C82.5627 238.611 82.3389 238.387 82.0627 238.387H48.84V245.271H82.0627C82.3389 245.271 82.5627 245.047 82.5627 244.771V238.887Z" fill="white" stroke="#1F1F1F"/>
<path d="M22.0071 246.771C22.0071 246.495 22.2309 246.271 22.5071 246.271H55.7298V253.156H22.5071C22.2309 253.156 22.0071 252.932 22.0071 252.656V246.771Z" fill="white" stroke="#1F1F1F"/>
<path d="M88.8779 246.771C88.8779 246.495 88.6541 246.271 88.3779 246.271H55.1552V253.156H88.3779C88.6541 253.156 88.8779 252.932 88.8779 252.656V246.771Z" fill="white" stroke="#1F1F1F"/>
<mask id="path-26-outside-2_5_12015" maskUnits="userSpaceOnUse" x="17.3499" y="158.59" width="97" height="100" fill="black">
<rect fill="white" x="17.3499" y="158.59" width="97" height="100"/>
<path fill-rule="evenodd" clip-rule="evenodd" d="M111.44 160.59L101.209 163.773L101.208 164.497L100.989 164.466L91.7378 228.424L91.9594 228.456L104.344 255.231H18.3499V256.808H106.735V255.231H105.288L105.943 254.929L93.7135 228.489L102.717 166.245L112.192 161.976L111.44 160.59Z"/>
</mask>
<path fill-rule="evenodd" clip-rule="evenodd" d="M111.44 160.59L101.209 163.773L101.208 164.497L100.989 164.466L91.7378 228.424L91.9594 228.456L104.344 255.231H18.3499V256.808H106.735V255.231H105.288L105.943 254.929L93.7135 228.489L102.717 166.245L112.192 161.976L111.44 160.59Z" fill="#FDA3C4"/>
<path fill-rule="evenodd" clip-rule="evenodd" d="M111.44 160.59L101.209 163.773L101.208 164.497L100.989 164.466L91.7378 228.424L91.9594 228.456L104.344 255.231H18.3499V256.808H106.735V255.231H105.288L105.943 254.929L93.7135 228.489L102.717 166.245L112.192 161.976L111.44 160.59Z" fill="#F40000"/>
<path d="M101.209 163.773L100.912 162.818L100.21 163.037L100.209 163.771L101.209 163.773ZM111.44 160.59L112.319 160.113L111.928 159.391L111.143 159.635L111.44 160.59ZM101.208 164.497L101.065 165.487L102.206 165.652L102.208 164.499L101.208 164.497ZM100.989 164.466L101.132 163.476L100.143 163.333L99.9997 164.323L100.989 164.466ZM91.7378 228.424L90.7481 228.281L90.6049 229.271L91.5949 229.414L91.7378 228.424ZM91.9594 228.456L92.867 228.036L92.6393 227.544L92.1023 227.466L91.9594 228.456ZM104.344 255.231V256.231H105.908L105.252 254.811L104.344 255.231ZM18.3499 255.231V254.231H17.3499V255.231H18.3499ZM18.3499 256.808H17.3499V257.808H18.3499V256.808ZM106.735 256.808V257.808H107.735V256.808H106.735ZM106.735 255.231H107.735V254.231H106.735V255.231ZM105.288 255.231L104.869 254.323L105.288 256.231V255.231ZM105.943 254.929L106.362 255.837L107.27 255.417L106.85 254.509L105.943 254.929ZM93.7135 228.489L92.7238 228.346L92.6813 228.64L92.8059 228.909L93.7135 228.489ZM102.717 166.245L102.306 165.334L101.806 165.559L101.727 166.102L102.717 166.245ZM112.192 161.976L112.602 162.888L113.583 162.446L113.071 161.5L112.192 161.976ZM101.506 164.728L111.737 161.545L111.143 159.635L100.912 162.818L101.506 164.728ZM102.208 164.499L102.209 163.775L100.209 163.771L100.208 164.496L102.208 164.499ZM100.846 165.456L101.065 165.487L101.351 163.508L101.132 163.476L100.846 165.456ZM92.7275 228.567L101.979 164.609L99.9997 164.323L90.7481 228.281L92.7275 228.567ZM92.1023 227.466L91.8807 227.434L91.5949 229.414L91.8165 229.446L92.1023 227.466ZM105.252 254.811L92.867 228.036L91.0518 228.876L103.436 255.651L105.252 254.811ZM18.3499 256.231H104.344V254.231H18.3499V256.231ZM19.3499 256.808V255.231H17.3499V256.808H19.3499ZM106.735 255.808H18.3499V257.808H106.735V255.808ZM105.735 255.231V256.808H107.735V255.231H105.735ZM105.288 256.231H106.735V254.231H105.288V256.231ZM105.524 254.021L104.869 254.323L105.707 256.139L106.362 255.837L105.524 254.021ZM92.8059 228.909L105.035 255.349L106.85 254.509L94.6211 228.069L92.8059 228.909ZM101.727 166.102L92.7238 228.346L94.7032 228.632L103.707 166.389L101.727 166.102ZM111.781 161.065L102.306 165.334L103.128 167.157L112.602 162.888L111.781 161.065ZM110.561 161.066L111.312 162.453L113.071 161.5L112.319 160.113L110.561 161.066Z" fill="#1F1F1F" mask="url(#path-26-outside-2_5_12015)"/>
<rect x="-0.678013" y="-0.201698" width="13.5305" height="4.72616" transform="matrix(0.879556 -0.475795 0.47647 0.879191 111.066 159.149)" fill="#1F1F1F" stroke="#1F1F1F"/>
<ellipse cx="84.6417" cy="266.27" rx="4.73492" ry="4.73058" fill="#1F1F1F"/>
<ellipse cx="84.6417" cy="266.27" rx="4.73492" ry="4.73058" fill="#1F1F1F"/>
<ellipse cx="23.0848" cy="266.268" rx="4.73492" ry="4.73058" fill="#1F1F1F"/>
<ellipse cx="23.0848" cy="266.268" rx="4.73492" ry="4.73058" fill="#1F1F1F"/>
<path d="M29.3975 261.538C30.6601 261.538 29.9235 258.647 29.3974 257.596H22.295C22.295 260.224 20.7166 266.268 23.8733 266.268C25.136 266.268 25.4516 263.115 25.4516 261.538H29.3975Z" fill="#F40000" stroke="#1F1F1F"/>
<path d="M90.9532 261.538C92.2158 261.538 91.4792 258.647 90.9531 257.596H83.8507C83.8507 260.224 82.2722 266.268 85.429 266.268C86.6916 266.268 87.0073 263.115 87.0073 261.538H90.9532Z" fill="#F40000" stroke="#1F1F1F"/>
<path d="M191.405 81.0003V41.9539C191.405 36.9844 196.794 36.9252 199.488 37.5169H270.438C274.749 37.5169 275.228 40.4749 274.928 41.9539V81.0003C274.928 85.2599 271.935 86.9165 270.438 87.2123H240.801L231.82 98.7487L221.941 87.2123H199.488C192.304 87.2123 191.106 83.071 191.405 81.0003Z" fill="#FDA3C4" stroke="#1F1F1F"/>
<path d="M225.097 62.4688C222.156 66.1538 218.575 69.1184 216.531 73.1711C216.382 73.4337 216.068 73.5415 215.724 73.5268C215.56 73.7281 215.205 73.8456 214.873 73.6988C210.892 71.6428 208.127 68.8091 205.874 65.626C204.071 63.0795 200.687 59.2611 202.377 56.0379C203.478 53.8956 206.551 53.0608 209.246 53.4825C212.251 53.9592 213.797 55.7902 214.827 57.7772C215.545 55.9859 216.836 54.2835 219.302 53.4001C222.162 52.3896 225.096 53.2722 226.433 55.1209C228.042 57.3901 226.855 60.2333 225.097 62.4688ZM224.5 55.3907C222.797 53.7916 219.647 54.1269 217.836 55.792C216.402 57.0755 216.024 58.6881 215.713 60.2202C215.604 60.8291 214.321 60.9752 214.101 60.4128C213.15 58.0504 211.92 54.8806 208.037 54.6469C206.579 54.4142 205.64 54.931 205.086 56.1649C203.549 57.0197 203.145 57.991 203.929 59.1305C204.274 60.2134 204.941 61.219 205.521 62.2134C207.878 66.1812 210.794 69.8205 215.094 72.6742C216.86 68.8823 219.934 66.1045 222.915 62.7659C224.863 60.6142 226.752 57.5055 224.5 55.3907Z" fill="white"/>
<path d="M203.652 55.7415C207.021 51.0907 213.287 55.8298 215.137 60.1887L217.256 55.6775L222.377 53.6479L226.317 56.7045L223.803 62.9111L215.019 73.0245L209.957 68.6361C206.765 66.4674 200.284 60.3923 203.652 55.7415Z" fill="white"/>
<path d="M238.896 71.9455V57.1003L235.488 59.1814V55.8265L238.896 53.7832H242.002V71.9455H238.896Z" fill="white"/>
<path d="M252.012 72.2861C251.103 72.2861 250.245 72.1095 249.437 71.7563C248.629 71.4032 247.926 70.9029 247.329 70.2554C246.739 69.608 246.314 68.8428 246.053 67.9599L248.995 67.1653C249.205 67.8884 249.588 68.4476 250.144 68.8428C250.708 69.2296 251.326 69.4188 252 69.4104C252.597 69.4104 253.131 69.2716 253.603 68.9941C254.074 68.7167 254.444 68.3425 254.714 67.8716C254.983 67.3923 255.118 66.8584 255.118 66.2698C255.118 65.3701 254.827 64.6175 254.247 64.0121C253.666 63.4067 252.917 63.104 252 63.104C251.722 63.104 251.448 63.1418 251.179 63.2175C250.918 63.2932 250.666 63.3983 250.421 63.5328L249.033 61.1364L255.143 55.9148L255.408 56.6463H246.76V53.7832H257.908V56.6589L252.997 61.3761L252.972 60.4806C254.074 60.5562 255.013 60.8631 255.787 61.4013C256.569 61.9394 257.167 62.6331 257.579 63.4824C258 64.3316 258.211 65.2608 258.211 66.2698C258.211 67.4133 257.929 68.4392 257.365 69.3473C256.809 70.2554 256.06 70.9743 255.118 71.5041C254.184 72.0254 253.148 72.2861 252.012 72.2861Z" fill="white"/>
<path d="M250.829 219.356C250.829 234.317 238.69 246.446 223.714 246.446C208.738 246.446 196.598 234.317 196.598 219.356C196.598 204.395 208.738 192.266 223.714 192.266C238.69 192.266 250.829 204.395 250.829 219.356Z" fill="#F40000" stroke="#1F1F1F"/>
<path d="M236.053 220.61C232.669 224.851 228.548 228.263 226.196 232.927C226.024 233.229 225.662 233.353 225.267 233.336C225.078 233.568 224.67 233.703 224.287 233.534C219.706 231.168 216.524 227.907 213.931 224.244C211.856 221.313 207.961 216.919 209.907 213.21C211.173 210.744 214.71 209.784 217.811 210.269C221.27 210.817 223.049 212.925 224.235 215.211C225.06 213.15 226.546 211.191 229.384 210.174C232.676 209.011 236.052 210.027 237.591 212.154C239.442 214.766 238.076 218.038 236.053 220.61ZM235.366 212.465C233.407 210.625 229.781 211.01 227.698 212.927C226.047 214.404 225.612 216.259 225.254 218.023C225.128 218.723 223.652 218.891 223.399 218.244C222.304 215.526 220.889 211.878 216.421 211.609C214.742 211.341 213.662 211.936 213.025 213.356C211.255 214.339 210.79 215.457 211.693 216.769C212.09 218.015 212.858 219.172 213.524 220.316C216.237 224.883 219.593 229.071 224.541 232.355C226.574 227.991 230.111 224.794 233.542 220.952C235.784 218.476 237.957 214.899 235.366 212.465Z" fill="white"/>
<path d="M211.372 212.868C215.248 207.516 222.46 212.97 224.588 217.986L227.028 212.794L232.92 210.459L237.454 213.976L234.562 221.119L224.453 232.757L218.628 227.707C214.954 225.211 207.496 218.22 211.372 212.868Z" fill="white"/>
</svg>
