<svg width="121" height="134" viewBox="0 0 121 134" fill="none" xmlns="http://www.w3.org/2000/svg">
<path d="M84.7815 23.3405C73.587 11.1188 66.5355 10.9538 58.4414 14.2569C82.3122 -4.73628 99.1863 21.2759 100.833 23.7532C102.15 25.7351 103.714 30.4974 104.125 32.8371L84.7815 23.3405Z" fill="#FDA3C4" stroke="black"/>
<ellipse cx="66.262" cy="90.6403" rx="6.9966" ry="7.0192" fill="#C4C4C4"/>
<path d="M120.5 65.0442C120.5 92.3541 98.0652 114.504 70.3771 114.504C42.689 114.504 20.2546 92.3541 20.2546 65.0442C20.2546 37.7343 42.689 15.584 70.3771 15.584C98.0652 15.584 120.5 37.7343 120.5 65.0442Z" fill="#1F1F1F" stroke="black"/>
<path d="M117.242 67.5196C117.242 93.9374 96.4461 115.328 70.8236 115.328C45.2011 115.328 24.4053 93.9374 24.4053 67.5196C24.4053 41.1017 45.2011 19.7109 70.8236 19.7109C96.4461 19.7109 117.242 41.1017 117.242 67.5196Z" fill="white" stroke="black"/>
<path d="M28.8092 67.6999L3.29224 41.2746H16.4623C17.8342 29.7136 27.3276 5.6005 54.3262 1.63672C81.3249 -2.32707 95.4827 13.1559 99.5984 22.102C91.3671 10.8712 79.9804 10.3076 74.9045 10.7205C49.2228 10.7205 41.9793 31.0899 41.5677 41.2746H54.3262L28.8092 67.6999Z" fill="#F40000" stroke="black"/>
<mask id="path-6-outside-1_5_11700" maskUnits="userSpaceOnUse" x="52.5027" y="24.6445" width="46" height="61" fill="black">
<rect fill="white" x="52.5027" y="24.6445" width="46" height="61"/>
<path d="M76.7027 84.4445C72.5427 84.4445 69.0227 83.8845 66.1427 82.7645C63.2627 81.6445 61.0494 79.9912 59.5027 77.8045C58.0094 75.5645 57.2627 72.7379 57.2627 69.3245C57.2627 68.3112 57.3427 67.3512 57.5027 66.4445C57.6627 65.4845 57.876 64.6045 58.1427 63.8045H54.3827V58.6845H61.1027C62.1694 57.6179 63.5827 56.6579 65.3427 55.8045C67.156 54.8979 69.0227 54.0979 70.9427 53.4045C72.916 52.7112 74.6494 52.1245 76.1427 51.6445C77.636 51.1112 78.596 50.7379 79.0227 50.5245H54.3827V45.4045H84.9427C85.3694 44.6579 85.6627 43.8845 85.8227 43.0845C86.036 42.2845 86.1427 41.2712 86.1427 40.0445C86.1427 38.3912 85.7694 36.9779 85.0227 35.8045C84.276 34.5779 83.1294 33.6445 81.5827 33.0045C80.036 32.3645 78.036 32.0445 75.5827 32.0445C73.8227 32.0445 72.116 32.2045 70.4627 32.5245C68.8627 32.8445 67.3427 33.2712 65.9027 33.8045C64.516 34.2845 63.2094 34.8179 61.9827 35.4045L59.9827 29.0845C62.0094 28.1245 64.4894 27.3245 67.4227 26.6845C70.356 26.0445 73.2094 25.7245 75.9827 25.7245C79.6094 25.7245 82.7027 26.2312 85.2627 27.2445C87.876 28.2045 89.876 29.6712 91.2627 31.6445C92.7027 33.6179 93.4227 36.1245 93.4227 39.1645C93.4227 40.2845 93.3427 41.4045 93.1827 42.5245C93.0227 43.5912 92.7294 44.5512 92.3027 45.4045H96.7027V50.5245H89.7427C88.8894 51.3779 87.556 52.2579 85.7427 53.1645C83.9294 54.0179 82.036 54.8179 80.0627 55.5645C78.0894 56.3112 76.3027 56.9512 74.7027 57.4845C73.1027 58.0179 72.0627 58.4179 71.5827 58.6845H96.7027V63.8045H65.5827C65.156 64.6045 64.8627 65.3512 64.7027 66.0445C64.5427 66.7379 64.4627 67.6979 64.4627 68.9245C64.4627 71.0045 64.9427 72.7379 65.9027 74.1245C66.8627 75.4579 68.3027 76.4712 70.2227 77.1645C72.1427 77.8579 74.516 78.2045 77.3427 78.2045C80.3827 78.2045 83.316 77.8312 86.1427 77.0845C89.0227 76.2845 91.4227 75.4579 93.3427 74.6045V81.0845C91.5294 81.9379 89.1027 82.7112 86.0627 83.4045C83.0227 84.0979 79.9027 84.4445 76.7027 84.4445Z"/>
</mask>
<path d="M76.7027 84.4445C72.5427 84.4445 69.0227 83.8845 66.1427 82.7645C63.2627 81.6445 61.0494 79.9912 59.5027 77.8045C58.0094 75.5645 57.2627 72.7379 57.2627 69.3245C57.2627 68.3112 57.3427 67.3512 57.5027 66.4445C57.6627 65.4845 57.876 64.6045 58.1427 63.8045H54.3827V58.6845H61.1027C62.1694 57.6179 63.5827 56.6579 65.3427 55.8045C67.156 54.8979 69.0227 54.0979 70.9427 53.4045C72.916 52.7112 74.6494 52.1245 76.1427 51.6445C77.636 51.1112 78.596 50.7379 79.0227 50.5245H54.3827V45.4045H84.9427C85.3694 44.6579 85.6627 43.8845 85.8227 43.0845C86.036 42.2845 86.1427 41.2712 86.1427 40.0445C86.1427 38.3912 85.7694 36.9779 85.0227 35.8045C84.276 34.5779 83.1294 33.6445 81.5827 33.0045C80.036 32.3645 78.036 32.0445 75.5827 32.0445C73.8227 32.0445 72.116 32.2045 70.4627 32.5245C68.8627 32.8445 67.3427 33.2712 65.9027 33.8045C64.516 34.2845 63.2094 34.8179 61.9827 35.4045L59.9827 29.0845C62.0094 28.1245 64.4894 27.3245 67.4227 26.6845C70.356 26.0445 73.2094 25.7245 75.9827 25.7245C79.6094 25.7245 82.7027 26.2312 85.2627 27.2445C87.876 28.2045 89.876 29.6712 91.2627 31.6445C92.7027 33.6179 93.4227 36.1245 93.4227 39.1645C93.4227 40.2845 93.3427 41.4045 93.1827 42.5245C93.0227 43.5912 92.7294 44.5512 92.3027 45.4045H96.7027V50.5245H89.7427C88.8894 51.3779 87.556 52.2579 85.7427 53.1645C83.9294 54.0179 82.036 54.8179 80.0627 55.5645C78.0894 56.3112 76.3027 56.9512 74.7027 57.4845C73.1027 58.0179 72.0627 58.4179 71.5827 58.6845H96.7027V63.8045H65.5827C65.156 64.6045 64.8627 65.3512 64.7027 66.0445C64.5427 66.7379 64.4627 67.6979 64.4627 68.9245C64.4627 71.0045 64.9427 72.7379 65.9027 74.1245C66.8627 75.4579 68.3027 76.4712 70.2227 77.1645C72.1427 77.8579 74.516 78.2045 77.3427 78.2045C80.3827 78.2045 83.316 77.8312 86.1427 77.0845C89.0227 76.2845 91.4227 75.4579 93.3427 74.6045V81.0845C91.5294 81.9379 89.1027 82.7112 86.0627 83.4045C83.0227 84.0979 79.9027 84.4445 76.7027 84.4445Z" fill="#F40000"/>
<path d="M66.1427 82.7645L66.5051 81.8325L66.1427 82.7645ZM59.5027 77.8045L58.6706 78.3592L58.6783 78.3707L58.6863 78.382L59.5027 77.8045ZM57.5027 66.4445L58.4875 66.6183L58.4891 66.6089L57.5027 66.4445ZM58.1427 63.8045L59.0914 64.1208L59.5301 62.8045H58.1427V63.8045ZM54.3827 63.8045H53.3827V64.8045H54.3827V63.8045ZM54.3827 58.6845V57.6845H53.3827V58.6845H54.3827ZM61.1027 58.6845V59.6845H61.5169L61.8098 59.3916L61.1027 58.6845ZM65.3427 55.8045L65.779 56.7044L65.7899 56.699L65.3427 55.8045ZM70.9427 53.4045L70.6112 52.461L70.603 52.464L70.9427 53.4045ZM76.1427 51.6445L76.4487 52.5966L76.4639 52.5917L76.479 52.5863L76.1427 51.6445ZM79.0227 50.5245L79.4699 51.419L79.0227 49.5245V50.5245ZM54.3827 50.5245H53.3827V51.5245H54.3827V50.5245ZM54.3827 45.4045V44.4045H53.3827V45.4045H54.3827ZM84.9427 45.4045V46.4045H85.523L85.8109 45.9007L84.9427 45.4045ZM85.8227 43.0845L84.8565 42.8269L84.8483 42.8574L84.8421 42.8884L85.8227 43.0845ZM85.0227 35.8045L84.1685 36.3245L84.1737 36.333L84.179 36.3414L85.0227 35.8045ZM81.5827 33.0045L81.2003 33.9285L81.2003 33.9285L81.5827 33.0045ZM70.4627 32.5245L70.2727 31.5427L70.2666 31.5439L70.4627 32.5245ZM65.9027 33.8045L66.2298 34.7495L66.2399 34.746L66.25 34.7423L65.9027 33.8045ZM61.9827 35.4045L61.0293 35.7062L61.3764 36.803L62.4141 36.3067L61.9827 35.4045ZM59.9827 29.0845L59.5546 28.1808L58.766 28.5543L59.0293 29.3862L59.9827 29.0845ZM67.4227 26.6845L67.6359 27.6615L67.6359 27.6615L67.4227 26.6845ZM85.2627 27.2445L84.8946 28.1743L84.9062 28.1789L84.9179 28.1832L85.2627 27.2445ZM91.2627 31.6445L90.4445 32.2195L90.4496 32.2268L90.4549 32.234L91.2627 31.6445ZM93.1827 42.5245L94.1716 42.6729L94.1726 42.666L93.1827 42.5245ZM92.3027 45.4045L91.4083 44.9573L90.6847 46.4045H92.3027V45.4045ZM96.7027 45.4045H97.7027V44.4045H96.7027V45.4045ZM96.7027 50.5245V51.5245H97.7027V50.5245H96.7027ZM89.7427 50.5245V49.5245H89.3285L89.0356 49.8174L89.7427 50.5245ZM85.7427 53.1645L86.1685 54.0693L86.1793 54.0643L86.1899 54.059L85.7427 53.1645ZM74.7027 57.4845L74.3865 56.5358L74.7027 57.4845ZM71.5827 58.6845L71.097 57.8104L67.7236 59.6845H71.5827V58.6845ZM96.7027 58.6845H97.7027V57.6845H96.7027V58.6845ZM96.7027 63.8045V64.8045H97.7027V63.8045H96.7027ZM65.5827 63.8045V62.8045H64.9827L64.7003 63.3339L65.5827 63.8045ZM64.7027 66.0445L63.7283 65.8197L64.7027 66.0445ZM65.9027 74.1245L65.0805 74.6937L65.0858 74.7013L65.0912 74.7088L65.9027 74.1245ZM70.2227 77.1645L69.883 78.1051L70.2227 77.1645ZM86.1427 77.0845L86.3981 78.0514L86.4103 78.048L86.1427 77.0845ZM93.3427 74.6045H94.3427V73.0658L92.9366 73.6907L93.3427 74.6045ZM93.3427 81.0845L93.7685 81.9893L94.3427 81.7191V81.0845H93.3427ZM86.0627 83.4045L85.8403 82.4296L86.0627 83.4045ZM76.7027 83.4445C72.6264 83.4445 69.2372 82.895 66.5051 81.8325L65.7802 83.6965C68.8082 84.8741 72.459 85.4445 76.7027 85.4445V83.4445ZM66.5051 81.8325C63.7791 80.7724 61.7359 79.2301 60.3191 77.2271L58.6863 78.382C60.3629 80.7523 62.7463 82.5167 65.7802 83.6965L66.5051 81.8325ZM60.3347 77.2498C58.9769 75.2131 58.2627 72.5932 58.2627 69.3245H56.2627C56.2627 72.8826 57.0418 75.916 58.6706 78.3592L60.3347 77.2498ZM58.2627 69.3245C58.2627 68.3637 58.3385 67.4622 58.4875 66.6183L56.5179 66.2707C56.3468 67.2402 56.2627 68.2587 56.2627 69.3245H58.2627ZM58.4891 66.6089C58.6418 65.6928 58.8435 64.8643 59.0914 64.1208L57.194 63.4883C56.9085 64.3447 56.6836 65.2763 56.5163 66.2801L58.4891 66.6089ZM58.1427 62.8045H54.3827V64.8045H58.1427V62.8045ZM55.3827 63.8045V58.6845H53.3827V63.8045H55.3827ZM54.3827 59.6845H61.1027V57.6845H54.3827V59.6845ZM61.8098 59.3916C62.7781 58.4233 64.0912 57.5227 65.779 56.7043L64.9064 54.9047C63.0742 55.7931 61.5606 56.8124 60.3956 57.9774L61.8098 59.3916ZM65.7899 56.699C67.5681 55.8099 69.3988 55.0252 71.2823 54.3451L70.603 52.464C68.6466 53.1705 66.744 53.9859 64.8955 54.9101L65.7899 56.699ZM71.2742 54.348C73.2416 53.6567 74.9662 53.0731 76.4487 52.5966L75.8367 50.6925C74.3326 51.176 72.5904 51.7657 70.6112 52.4611L71.2742 54.348ZM76.479 52.5863C77.9585 52.0579 78.9789 51.6644 79.4699 51.419L78.5755 49.6301C78.2131 49.8113 77.3136 50.1645 75.8064 50.7028L76.479 52.5863ZM79.0227 49.5245H54.3827V51.5245H79.0227V49.5245ZM55.3827 50.5245V45.4045H53.3827V50.5245H55.3827ZM54.3827 46.4045H84.9427V44.4045H54.3827V46.4045ZM85.8109 45.9007C86.288 45.0658 86.6211 44.1916 86.8033 43.2806L84.8421 42.8884C84.7043 43.5774 84.4507 44.25 84.0744 44.9084L85.8109 45.9007ZM86.7889 43.3422C87.0326 42.4283 87.1427 41.3207 87.1427 40.0445H85.1427C85.1427 41.2217 85.0394 42.1407 84.8565 42.8269L86.7889 43.3422ZM87.1427 40.0445C87.1427 38.2374 86.733 36.6296 85.8663 35.2677L84.179 36.3414C84.8057 37.3261 85.1427 38.545 85.1427 40.0445H87.1427ZM85.8769 35.2846C85.0023 33.8478 83.6743 32.7878 81.965 32.0805L81.2003 33.9285C82.5844 34.5013 83.5497 35.308 84.1685 36.3245L85.8769 35.2846ZM81.965 32.0805C80.2545 31.3727 78.1114 31.0445 75.5827 31.0445V33.0445C77.9606 33.0445 79.8176 33.3564 81.2003 33.9285L81.965 32.0805ZM75.5827 31.0445C73.7618 31.0445 71.9914 31.2101 70.2727 31.5427L70.6527 33.5063C72.2407 33.199 73.8836 33.0445 75.5827 33.0445V31.0445ZM70.2666 31.5439C68.6183 31.8736 67.0475 32.3141 65.5554 32.8668L66.25 34.7423C67.6378 34.2283 69.1071 33.8155 70.6588 33.5051L70.2666 31.5439ZM65.5756 32.8595C64.1561 33.3509 62.8144 33.8983 61.5512 34.5024L62.4141 36.3067C63.6043 35.7374 64.8759 35.2182 66.2298 34.7495L65.5756 32.8595ZM62.9361 35.1028L60.9361 28.7828L59.0293 29.3862L61.0293 35.7062L62.9361 35.1028ZM60.4108 29.9883C62.3502 29.0696 64.7534 28.2904 67.6359 27.6615L67.2095 25.7075C64.2253 26.3586 61.6685 27.1795 59.5546 28.1808L60.4108 29.9883ZM67.6359 27.6615C70.5049 27.0356 73.2866 26.7245 75.9827 26.7245V24.7245C73.1321 24.7245 70.2072 25.0535 67.2095 25.7075L67.6359 27.6615ZM75.9827 26.7245C79.5212 26.7245 82.4825 27.2195 84.8946 28.1743L85.6307 26.3147C82.9229 25.2429 79.6975 24.7245 75.9827 24.7245V26.7245ZM84.9179 28.1832C87.3705 29.0842 89.1923 30.4374 90.4445 32.2195L92.0809 31.0696C90.5598 28.905 88.3816 27.3249 85.6075 26.3059L84.9179 28.1832ZM90.4549 32.234C91.7423 33.9982 92.4227 36.2839 92.4227 39.1645H94.4227C94.4227 35.9651 93.6631 33.2376 92.0705 31.0551L90.4549 32.234ZM92.4227 39.1645C92.4227 40.2367 92.3461 41.3095 92.1927 42.3831L94.1726 42.666C94.3393 41.4996 94.4227 40.3323 94.4227 39.1645H92.4227ZM92.1938 42.3762C92.0473 43.3523 91.7822 44.2094 91.4083 44.9573L93.1971 45.8517C93.6765 44.893 93.998 43.8301 94.1716 42.6729L92.1938 42.3762ZM92.3027 46.4045H96.7027V44.4045H92.3027V46.4045ZM95.7027 45.4045V50.5245H97.7027V45.4045H95.7027ZM96.7027 49.5245H89.7427V51.5245H96.7027V49.5245ZM89.0356 49.8174C88.2926 50.5604 87.0687 51.3835 85.2955 52.2701L86.1899 54.059C88.0434 53.1322 89.4861 52.1953 90.4498 51.2316L89.0356 49.8174ZM85.3169 52.2597C83.5283 53.1014 81.659 53.8913 79.7088 54.6292L80.4166 56.4998C82.413 55.7444 84.3304 54.9343 86.1685 54.0693L85.3169 52.2597ZM79.7088 54.6292C77.745 55.3723 75.9712 56.0076 74.3865 56.5358L75.0189 58.4332C76.6342 57.8948 78.4337 57.2501 80.4166 56.4998L79.7088 54.6292ZM74.3865 56.5358C72.8031 57.0636 71.6723 57.4908 71.097 57.8104L72.0683 59.5587C72.4531 59.345 73.4023 58.9721 75.0189 58.4332L74.3865 56.5358ZM71.5827 59.6845H96.7027V57.6845H71.5827V59.6845ZM95.7027 58.6845V63.8045H97.7027V58.6845H95.7027ZM96.7027 62.8045H65.5827V64.8045H96.7027V62.8045ZM64.7003 63.3339C64.243 64.1914 63.9126 65.0211 63.7283 65.8197L65.6771 66.2694C65.8128 65.6813 66.069 65.0177 66.465 64.2751L64.7003 63.3339ZM63.7283 65.8197C63.5434 66.6211 63.4627 67.6682 63.4627 68.9245H65.4627C65.4627 67.7276 65.542 66.8547 65.6771 66.2694L63.7283 65.8197ZM63.4627 68.9245C63.4627 71.16 63.9801 73.1043 65.0805 74.6937L66.7249 73.5553C65.9052 72.3714 65.4627 70.8491 65.4627 68.9245H63.4627ZM65.0912 74.7088C66.1947 76.2416 67.8197 77.36 69.883 78.1051L70.5623 76.224C68.7857 75.5824 67.5306 74.6741 66.7142 73.5402L65.0912 74.7088ZM69.883 78.1051C71.945 78.8497 74.4415 79.2045 77.3427 79.2045V77.2045C74.5905 77.2045 72.3404 76.8661 70.5623 76.224L69.883 78.1051ZM77.3427 79.2045C80.4655 79.2045 83.4848 78.8209 86.3981 78.0514L85.8873 76.1177C83.1472 76.8415 80.2999 77.2045 77.3427 77.2045V79.2045ZM86.4103 78.048C89.3196 77.2399 91.7696 76.398 93.7488 75.5183L92.9366 73.6907C91.0758 74.5177 88.7257 75.3292 85.875 76.121L86.4103 78.048ZM92.3427 74.6045V81.0845H94.3427V74.6045H92.3427ZM92.9169 80.1797C91.1941 80.9904 88.8443 81.7444 85.8403 82.4296L86.285 84.3795C89.3611 83.6779 91.8646 82.8853 93.7685 81.9893L92.9169 80.1797ZM85.8403 82.4296C82.8752 83.1058 79.8298 83.4445 76.7027 83.4445V85.4445C79.9755 85.4445 83.1702 85.0899 86.285 84.3795L85.8403 82.4296Z" fill="black" mask="url(#path-6-outside-1_5_11700)"/>
<path d="M0.685485 82.1656C0.59669 80.1734 2.18786 78.5098 4.18203 78.5098L71.2789 78.5101C73.0791 78.5101 74.5857 79.8758 74.762 81.6673L78.8902 123.616C79.0827 125.572 77.6276 127.303 75.6679 127.449L6.54298 132.617C4.57424 132.764 2.87344 131.254 2.78553 129.282L0.685485 82.1656Z" fill="#FDA3C4" stroke="black"/>
<path d="M2.32761 82.7348C2.24076 80.7438 3.83156 79.0821 5.82449 79.0822L71.2491 79.0852C73.0521 79.0853 74.56 80.4551 74.7327 82.2498L78.7713 124.205C78.959 126.156 77.5083 127.881 75.554 128.03L8.14575 133.181C6.1737 133.332 4.46863 131.82 4.38244 129.844L2.32761 82.7348Z" stroke="black"/>
<rect x="12.0232" y="94.0332" width="8.87755" height="9.73525" rx="2.5" fill="white" stroke="black"/>
<path d="M12.2264 112.423C12.1711 112.119 12.4018 111.838 12.7106 111.833L25.498 111.635C25.7425 111.631 25.9538 111.804 25.9976 112.045L26.534 114.992C26.5893 115.296 26.3586 115.577 26.0498 115.581L13.2624 115.78C13.0179 115.784 12.8066 115.61 12.7628 115.369L12.2264 112.423Z" fill="white" stroke="black"/>
<path d="M28.6866 112.169C28.6313 111.865 28.862 111.584 29.1708 111.579L41.9582 111.381C42.2027 111.377 42.414 111.551 42.4578 111.791L42.9942 114.738C43.0495 115.042 42.8188 115.323 42.51 115.327L29.7226 115.526C29.4781 115.53 29.2668 115.356 29.223 115.116L28.6866 112.169Z" fill="white" stroke="black"/>
<path d="M45.1468 111.913C45.0915 111.609 45.3222 111.328 45.631 111.323L58.4184 111.125C58.6629 111.121 58.8742 111.295 58.918 111.535L59.4544 114.482C59.5097 114.786 59.279 115.067 58.9702 115.072L46.1828 115.27C45.9383 115.274 45.727 115.1 45.6832 114.86L45.1468 111.913Z" fill="white" stroke="black"/>
<path d="M61.5321 111.643C61.4883 111.344 61.7172 111.075 62.0191 111.07L71.6979 110.92C71.9489 110.916 72.1639 111.099 72.2003 111.347L72.6334 114.295C72.6773 114.594 72.4483 114.863 72.1464 114.868L62.4676 115.018C62.2166 115.022 62.0017 114.839 61.9652 114.591L61.5321 111.643Z" fill="#FDA3C4" stroke="black"/>
<rect x="0.514275" y="0.485209" width="17.1089" height="2.30314" transform="matrix(0.999575 -0.0291623 0.0289749 0.99958 13.1451 122.716)" fill="#F40000" stroke="black"/>
<rect x="0.514275" y="0.485209" width="19.9856" height="2.30314" transform="matrix(0.999575 -0.0291623 0.0289749 0.99958 40.3192 121.324)" fill="#F40000" stroke="black"/>
<path d="M25.016 98.8969C25.016 99.3064 24.6856 99.6356 24.2813 99.6356C23.8771 99.6356 23.5466 99.3064 23.5466 98.8969C23.5466 98.4874 23.8771 98.1582 24.2813 98.1582C24.6856 98.1582 25.016 98.4874 25.016 98.8969Z" fill="black" stroke="black"/>
<mask id="path-18-inside-2_5_11700" fill="white">
<path d="M26.582 101.493C26.9687 101.15 27.2697 100.721 27.4607 100.24C27.6516 99.7594 27.7273 99.2402 27.6814 98.7245C27.6356 98.2089 27.4696 97.7112 27.1968 97.2718C26.924 96.8323 26.552 96.4634 26.111 96.1946L25.8151 96.6834C26.1798 96.9056 26.4874 97.2107 26.7129 97.5741C26.9385 97.9375 27.0758 98.3489 27.1137 98.7753C27.1516 99.2017 27.089 99.6311 26.9311 100.029C26.7732 100.426 26.5243 100.781 26.2046 101.065L26.582 101.493Z"/>
</mask>
<path d="M26.582 101.493C26.9687 101.15 27.2697 100.721 27.4607 100.24C27.6516 99.7594 27.7273 99.2402 27.6814 98.7245C27.6356 98.2089 27.4696 97.7112 27.1968 97.2718C26.924 96.8323 26.552 96.4634 26.111 96.1946L25.8151 96.6834C26.1798 96.9056 26.4874 97.2107 26.7129 97.5741C26.9385 97.9375 27.0758 98.3489 27.1137 98.7753C27.1516 99.2017 27.089 99.6311 26.9311 100.029C26.7732 100.426 26.5243 100.781 26.2046 101.065L26.582 101.493Z" fill="#FDA3C4" stroke="black" stroke-width="2" mask="url(#path-18-inside-2_5_11700)"/>
<mask id="path-19-inside-3_5_11700" fill="white">
<path d="M27.6954 102.05C28.1328 101.572 28.4611 101.004 28.6577 100.385C28.8543 99.767 28.9144 99.1131 28.8339 98.4691C28.7533 97.825 28.5341 97.2063 28.1913 96.6558C27.8485 96.1053 27.3904 95.6362 26.8488 95.2811L26.5457 95.7465C27.0199 96.0575 27.4211 96.4682 27.7213 96.9503C28.0215 97.4324 28.2135 97.9743 28.284 98.5383C28.3546 99.1023 28.3019 99.6749 28.1298 100.216C27.9576 100.758 27.6701 101.255 27.2871 101.674L27.6954 102.05Z"/>
</mask>
<path d="M27.6954 102.05C28.1328 101.572 28.4611 101.004 28.6577 100.385C28.8543 99.767 28.9144 99.1131 28.8339 98.4691C28.7533 97.825 28.5341 97.2063 28.1913 96.6558C27.8485 96.1053 27.3904 95.6362 26.8488 95.2811L26.5457 95.7465C27.0199 96.0575 27.4211 96.4682 27.7213 96.9503C28.0215 97.4324 28.2135 97.9743 28.284 98.5383C28.3546 99.1023 28.3019 99.6749 28.1298 100.216C27.9576 100.758 27.6701 101.255 27.2871 101.674L27.6954 102.05Z" fill="#FDA3C4" stroke="black" stroke-width="2" mask="url(#path-19-inside-3_5_11700)"/>
<mask id="path-20-inside-4_5_11700" fill="white">
<path d="M28.6882 102.938C29.2873 102.407 29.7536 101.742 30.0495 100.997C30.3454 100.251 30.4626 99.4469 30.3915 98.648C30.3205 97.8491 30.0633 97.0781 29.6407 96.3972C29.218 95.7164 28.6418 95.1447 27.9584 94.7284L27.6294 95.272C28.2278 95.6366 28.7324 96.1372 29.1026 96.7334C29.4727 97.3297 29.6979 98.0049 29.7601 98.7045C29.8223 99.4041 29.7197 100.109 29.4606 100.761C29.2015 101.414 28.7931 101.996 28.2684 102.461L28.6882 102.938Z"/>
</mask>
<path d="M28.6882 102.938C29.2873 102.407 29.7536 101.742 30.0495 100.997C30.3454 100.251 30.4626 99.4469 30.3915 98.648C30.3205 97.8491 30.0633 97.0781 29.6407 96.3972C29.218 95.7164 28.6418 95.1447 27.9584 94.7284L27.6294 95.272C28.2278 95.6366 28.7324 96.1372 29.1026 96.7334C29.4727 97.3297 29.6979 98.0049 29.7601 98.7045C29.8223 99.4041 29.7197 100.109 29.4606 100.761C29.2015 101.414 28.7931 101.996 28.2684 102.461L28.6882 102.938Z" fill="#FDA3C4" stroke="black" stroke-width="2" mask="url(#path-20-inside-4_5_11700)"/>
</svg>
