<svg width="107" height="137" viewBox="0 0 107 137" fill="none" xmlns="http://www.w3.org/2000/svg">
<path d="M55.1556 1.02734C93.7971 1.02734 105.152 29.0403 106 43.0467C103.034 39.6512 95.0683 34.8975 86.9332 43.0467C85.2384 29.0403 76.5101 1.02734 55.1556 1.02734V43.0467C50.9186 39.6512 38.3771 34.3882 22.1069 40.5001C22.1069 27.1113 32.7842 4.0833 55.1556 1.02734Z" fill="#FDA3C4"/>
<path d="M1.76929 39.2268C3.46409 26.4937 16.5141 1.02734 55.1556 1.02734M55.1556 1.02734C93.7972 1.02734 105.152 29.0403 106 43.0467C103.034 39.6512 95.0683 34.8975 86.9332 43.0467C85.2384 29.0403 76.5101 1.02734 55.1556 1.02734ZM55.1556 1.02734V43.0467C50.9186 39.6512 38.3771 34.3882 22.1069 40.5001C22.1069 27.1113 32.7842 4.0833 55.1556 1.02734Z" stroke="black"/>
<path d="M1.76929 40.5009C3.04039 26.9189 15.4972 0.00946897 55.1556 1.02812C64.0533 1.02807 82.8657 9.43186 86.9332 43.0474C81.0014 38.803 66.3413 32.8609 55.1556 43.0474V1.02812C45.8342 1.45261 26.1745 9.94144 22.1069 40.5009C18.7173 37.1054 9.90435 32.3518 1.76929 40.5009Z" fill="#F40000"/>
<path d="M55.1556 1.02812C15.4972 0.00946899 3.04039 26.9189 1.76929 40.5009C9.90435 32.3518 18.7173 37.1054 22.1069 40.5009C26.1745 9.94144 45.8342 1.45261 55.1556 1.02812ZM55.1556 1.02812C64.0533 1.02807 82.8657 9.43186 86.9332 43.0474C81.0014 38.803 66.3413 32.8609 55.1556 43.0474V1.02812Z" stroke="black"/>
<path d="M20.8354 136.001V90.1616L57.6974 85.0684V136.001H20.8354Z" fill="#FDA3C4" stroke="black"/>
<path d="M57.6973 135.999L58.1457 84.8594L86.9326 90.1599V133.453L57.6973 135.999Z" fill="#FDA3C4" stroke="black"/>
<path d="M31.0042 97.4141V88.8776L42.4441 87.3711V95.9077L31.0042 97.4141Z" fill="#1F1F1F" stroke="black"/>
<path d="M20.5497 90.3838L53.8848 74.881M53.8848 74.881L87.2199 90.3838M53.8848 74.881V65.9678M55.138 43.0482L53.8848 65.9678M53.8848 65.9678L87.2199 44.3215V43.0482M53.8848 65.9678L105.767 44.3215V42.1772M53.8848 65.9678L0.999756 42.1772L2.00232 38.6621M53.8848 65.9678L22.1072 42.1772V40.1686" stroke="black"/>
</svg>
