<svg width="224" height="59" viewBox="0 0 224 59" fill="none" xmlns="http://www.w3.org/2000/svg">
<g filter="url(#filter0_d_5_3746)">
<path d="M7.71451 38.615L4.05365 33.2331L2.0318 11.7056C3.79985 8.64093 9.97196 2.33217 20.516 1.61458C33.6962 0.717603 39.7929 -0.189712 54.9394 0.0345332C70.0859 0.258778 162.924 0.484959 168.253 0.484959C173.582 0.484959 199.98 -0.187592 207.001 3.1759C212.618 5.86669 217.774 11.0244 219.65 13.2669C219.09 13.7154 218.309 15.1056 219.66 17.079C221.012 19.0523 221.731 22.0871 221.921 23.3578C221.175 24.1053 219.684 25.7797 219.686 26.4972C219.688 27.3942 214.64 27.6185 217.168 28.7397C219.19 29.6367 219.702 32.2529 219.705 33.4488C217.744 34.5701 212.927 36.8574 209.337 37.0368C205.747 37.2162 202.608 38.0085 201.487 38.3822L201.492 40.1763C203.176 40.4753 206.207 41.1629 204.861 41.5216C203.18 41.9701 201.494 40.8489 200.093 41.5216C198.693 42.1944 196.733 43.5399 198.417 43.9884C198.935 44.4016 199.442 44.6077 199.895 44.6879C200.451 44.5805 201.053 44.4922 201.504 44.4368C201.216 44.621 200.623 44.8166 199.895 44.6879C198.951 44.8703 198.138 45.108 198.421 45.3338C198.87 45.6926 200.667 46.2308 201.509 46.455L202.915 47.8005H198.427C195.959 47.8005 196.468 49.146 197.03 49.8187C196.376 49.9682 194.675 50.1775 193.104 49.8187C191.139 49.3702 191.982 50.043 188.617 50.2672C185.925 50.4466 171.287 50.342 166.706 50.2672C167.079 49.9682 167.32 49.3702 165.301 49.3702C162.777 49.3702 162.496 49.3702 159.412 49.8187C156.328 50.2672 57.8782 49.3683 48.3419 49.3683C40.7129 49.3683 50.4078 48.2574 49.0054 48.2574C44.6133 49.0049 29.3997 50.455 22.8921 50.2756C14.7576 50.0513 7.73949 47.8089 7.73888 47.5847C7.73839 47.4053 6.23913 46.1644 5.48956 45.5664C6.23852 45.9402 7.73583 46.4634 7.73339 45.5664C7.73096 44.6695 6.22796 42.0533 5.47676 40.8573L7.71451 38.615Z" fill="#FDA3C4"/>
<path d="M13.0784 51.3968C12.1808 51.3968 12.1459 52.2938 12.2406 52.7423L10.4181 52.9665C9.5319 53.714 7.92776 55.1641 8.60042 54.9847C9.27309 54.8053 10.562 54.312 11.1223 54.0878C11.4955 53.7888 14.0369 53.1908 21.2171 53.1908C30.1925 53.1908 29.3498 52.7423 30.1913 52.7423C31.0327 52.7423 14.2003 51.3968 13.0784 51.3968Z" fill="#FDA3C4"/>
<path d="M82.6044 27.5823L82.696 17.9576C82.797 17.6208 83.1894 17.4537 83.873 17.4563C84.5019 17.4587 85.0804 17.5475 85.6086 17.7228C86.1369 17.8889 86.5783 18.1731 86.9328 18.5755C87.2964 18.9689 87.4775 19.4435 87.4762 19.9995C87.4752 20.437 87.3648 20.8604 87.145 21.2697C86.9344 21.6791 86.674 21.9424 86.3638 22.0597C86.9469 22.144 87.4155 22.4967 87.7695 23.1178C88.1234 23.739 88.2994 24.4734 88.2974 25.3211C88.296 25.8953 88.0669 26.3957 87.6102 26.8223C87.1534 27.2398 86.6195 27.5431 86.0084 27.7322C85.4064 27.9121 84.7955 28.0009 84.1757 27.9986C83.4192 27.9956 82.8954 27.8569 82.6044 27.5823ZM83.737 22.8015C83.7355 23.4304 83.7234 24.6928 83.7006 26.5885C83.9732 26.8995 84.3238 27.0558 84.7522 27.0574C85.3173 27.0596 85.8647 26.8293 86.3945 26.3665C86.9242 25.8945 87.1898 25.3897 87.1911 24.8519C87.1927 24.1866 86.9706 23.6662 86.5249 23.2908C86.0792 22.9154 85.5054 22.7263 84.8036 22.7236C84.3388 22.7218 83.9832 22.7478 83.737 22.8015ZM83.7121 21.7897L84.5598 21.7793C85.1431 21.7815 85.5901 21.6146 85.9009 21.2786C86.2207 20.9335 86.3812 20.5239 86.3823 20.05C86.3835 19.5669 86.225 19.1516 85.9068 18.804C85.5887 18.4473 85.147 18.2679 84.5819 18.2657C84.3267 18.2647 84.0258 18.3182 83.6792 18.4263C83.6961 18.9823 83.7036 19.6705 83.7016 20.4908C83.7087 21.3112 83.7122 21.7441 83.7121 21.7897ZM99.8581 27.7035L99.8978 28.2232C99.4144 28.3672 98.9539 28.4383 98.5164 28.4366C98.0972 28.435 97.7374 28.3197 97.4372 28.0907C97.1461 27.8708 96.9234 27.5919 96.7693 27.2541C96.6243 26.9163 96.4748 26.5511 96.3208 26.1586C96.1759 25.7661 96.0355 25.401 95.8996 25.0632C95.7728 24.7255 95.582 24.4468 95.3274 24.227C95.0727 23.9982 94.7676 23.8831 94.4122 23.8817L94.5392 27.9018C94.4565 28.184 94.2967 28.3247 94.0597 28.3237C93.8956 28.3231 93.7363 28.2541 93.5817 28.1168C93.4362 27.9795 93.3454 27.8151 93.3094 27.6236C93.319 27.4322 93.3546 25.892 93.4162 23.0029C93.4779 20.1047 93.523 18.4277 93.5514 17.9721L94.1663 18.1112C94.1746 18.4576 94.2004 19.1094 94.2436 20.0666C94.2869 21.0147 94.3127 21.6574 94.321 21.9946C94.713 21.987 95.046 21.8425 95.3201 21.561C95.6034 21.2704 95.8321 20.9204 96.0062 20.5109C96.1895 20.1014 96.3728 19.6965 96.556 19.2962C96.7393 18.8867 96.9771 18.5413 97.2695 18.2599C97.571 17.9694 97.9268 17.8249 98.3369 17.8265C98.6468 17.8277 99.1707 17.8981 99.9087 18.0376L99.7707 18.584C99.2058 18.4906 98.8823 18.4438 98.8003 18.4435C98.4813 18.4423 98.2121 18.5734 97.9927 18.8369C97.7733 19.1004 97.5902 19.4323 97.4434 19.8328C97.2966 20.2242 97.1362 20.6292 96.962 21.0478C96.7878 21.4573 96.5317 21.8345 96.1936 22.1796C95.8556 22.5246 95.4403 22.7555 94.9478 22.8721C95.3851 22.974 95.7628 23.1714 96.0812 23.4643C96.3995 23.7572 96.6356 24.0862 96.7897 24.4514C96.9438 24.8166 97.0932 25.2046 97.2381 25.6153C97.3829 26.0169 97.5097 26.3819 97.6183 26.7105C97.7268 27.039 97.8766 27.3131 98.0674 27.5325C98.2674 27.7521 98.5087 27.8624 98.7913 27.8635C99.0647 27.8645 99.4203 27.8112 99.8581 27.7035ZM99.8 23.424C99.8008 23.1141 99.8013 22.8816 99.8017 22.7267C99.8021 22.5626 99.8072 22.3166 99.8171 21.9885C99.8362 21.6604 99.855 21.4007 99.8737 21.2094C99.9015 21.0181 99.9386 20.7721 99.9849 20.4715C100.031 20.1618 100.091 19.9159 100.164 19.7339C100.238 19.5428 100.32 19.3289 100.412 19.0923C100.513 18.8557 100.636 18.6648 100.783 18.5195C100.929 18.3742 101.089 18.2381 101.262 18.1112C101.436 17.9751 101.641 17.8757 101.878 17.8128C102.115 17.7499 102.375 17.719 102.658 17.7201C103.223 17.7223 103.715 17.8381 104.133 18.0676C104.552 18.2879 104.879 18.5672 105.116 18.9053C105.352 19.2435 105.538 19.6589 105.673 20.1516C105.818 20.6444 105.908 21.1141 105.943 21.5609C105.988 22.0077 106.009 22.5 106.008 23.0377C106.007 23.4023 105.997 23.7304 105.978 24.022C105.968 24.3136 105.94 24.6462 105.894 25.0197C105.856 25.3841 105.796 25.7075 105.714 25.9897C105.64 26.272 105.535 26.5587 105.397 26.8498C105.26 27.1319 105.095 27.3682 104.903 27.5589C104.721 27.7405 104.488 27.89 104.205 28.0074C103.922 28.1248 103.608 28.1828 103.261 28.1815C102.696 28.1793 102.209 28.109 101.799 27.9707C101.398 27.8325 101.066 27.6398 100.802 27.3927C100.548 27.1456 100.343 26.8212 100.189 26.4196C100.044 26.018 99.9406 25.5801 99.878 25.1059C99.8244 24.6317 99.7984 24.0711 99.8 23.424ZM105.022 23.5534C105.023 23.1068 104.988 22.6419 104.916 22.1585C104.854 21.6752 104.741 21.1552 104.578 20.5986C104.425 20.042 104.175 19.5899 103.83 19.2422C103.484 18.8854 103.07 18.7061 102.587 18.7042C102.222 18.7028 101.898 18.9476 101.614 19.4387C101.34 19.9207 101.142 20.4669 101.022 21.0771C100.903 21.6782 100.842 22.2476 100.841 22.7854C100.84 23.1591 100.839 23.4462 100.839 23.6467C100.847 23.8381 100.865 24.1162 100.891 24.4809C100.918 24.8365 100.953 25.1192 100.999 25.329C101.053 25.5388 101.134 25.7807 101.243 26.0545C101.352 26.3284 101.479 26.5431 101.624 26.6986C101.779 26.845 101.974 26.9779 102.211 27.0973C102.457 27.2077 102.73 27.2679 103.031 27.2782C103.696 27.2443 104.194 26.8725 104.524 26.1629C104.854 25.4532 105.02 24.5834 105.022 23.5534ZM107.346 18.2167L107.961 18.055C107.961 18.3466 107.965 18.5107 107.974 18.5472C108.494 18.2029 109.224 18.0325 110.163 18.0361C111.174 18.04 111.93 18.3619 112.43 19.0019C112.93 19.6327 113.178 20.5178 113.175 21.6571C113.173 22.6688 112.925 23.5064 112.431 24.1699C111.937 24.8334 111.194 25.1632 110.2 25.1593C110.036 25.1587 109.38 25.1015 108.232 24.9877C108.248 25.6531 108.282 26.6878 108.334 28.0916C108.251 28.3739 108.091 28.5145 107.854 28.5136C107.69 28.513 107.531 28.444 107.376 28.3067C107.231 28.1785 107.14 28.0187 107.104 27.8271C107.133 27.0616 107.164 25.5715 107.197 23.3567C107.238 21.142 107.288 19.4287 107.346 18.2167ZM108.095 19.4637L108.194 23.7297C108.694 24.0051 109.273 24.144 109.929 24.1466C110.558 24.149 111.092 23.9141 111.53 23.4418C111.969 22.9695 112.189 22.3916 112.191 21.708C112.193 20.9697 111.966 20.3035 111.512 19.7093C111.058 19.1151 110.489 18.8167 109.805 18.814C109.249 18.8119 108.679 19.0284 108.095 19.4637ZM113.823 19.4994L113.4 19.0466C114.377 18.4033 115.267 18.0831 116.069 18.0862C116.761 18.0889 117.321 18.3417 117.749 18.8446C118.176 19.3385 118.388 19.95 118.387 20.6791C118.385 21.5906 118.073 22.232 117.452 22.6033C117.908 22.678 118.249 22.9527 118.476 23.4275C118.703 23.8933 118.815 24.4497 118.814 25.0968C118.811 26.0812 118.6 26.8415 118.179 27.3776C117.759 27.9137 117.061 28.1799 116.085 28.1762C115.429 28.1736 114.81 28.0254 114.227 27.7315C113.654 27.4376 113.249 27.0168 113.013 26.469C113.059 26.4327 113.091 26.3964 113.109 26.36C113.128 26.3236 113.141 26.2963 113.151 26.2781C113.16 26.2599 113.183 26.2372 113.219 26.21C113.265 26.1738 113.333 26.133 113.424 26.0878C113.825 26.4539 114.271 26.7519 114.762 26.9816C115.254 27.2023 115.718 27.3134 116.156 27.3151C116.648 27.317 117.04 27.159 117.333 26.8411C117.634 26.5142 117.786 26.0134 117.788 25.339C117.789 24.6463 117.595 24.085 117.204 23.6551C116.813 23.2252 116.235 23.0088 115.469 23.0058C115.36 23.0054 115.168 23.0138 114.895 23.0309C114.886 22.9762 114.863 22.8759 114.827 22.7299C114.8 22.5839 114.764 22.3514 114.719 22.0322C114.82 22.0235 115.002 22.0151 115.266 22.007C115.531 21.9898 115.718 21.9768 115.827 21.9681C115.936 21.9503 116.091 21.9236 116.292 21.8879C116.502 21.8431 116.652 21.7844 116.744 21.7119C116.844 21.6393 116.949 21.5486 117.059 21.4396C117.178 21.3216 117.26 21.1715 117.306 20.9894C117.352 20.8073 117.375 20.5932 117.376 20.3471C117.377 19.9005 117.227 19.5764 116.927 19.3747C116.636 19.1639 116.244 19.0576 115.752 19.0557C115.096 19.0532 114.453 19.2011 113.823 19.4994ZM120.143 18.0609L120.758 18.2C120.845 19.7042 120.944 22.2066 121.054 25.707C122.839 22.5511 124.067 20.0129 124.737 18.0923C124.874 17.9834 125.006 17.9292 125.134 17.9297C125.334 17.9305 125.498 18.0496 125.625 18.2871C125.761 18.5246 125.833 18.7937 125.842 19.0946C125.867 19.9423 125.886 21.3734 125.9 23.3878C125.922 25.4022 125.955 26.9062 125.998 27.8999C125.916 28.173 125.76 28.3092 125.532 28.3083C125.368 28.3076 125.209 28.2387 125.054 28.1014C124.9 27.9732 124.804 27.8133 124.768 27.6217C124.798 26.8289 124.814 25.6121 124.818 23.9715C124.831 22.3309 124.843 21.2235 124.854 20.6494C124.652 20.9949 124.3 21.6498 123.796 22.6141C123.293 23.5783 122.826 24.4059 122.396 25.097C121.975 25.788 121.54 26.3879 121.092 26.8966L121.144 28.0043C121.062 28.2865 120.902 28.4272 120.665 28.4262C120.501 28.4256 120.342 28.3566 120.187 28.2193C120.041 28.082 119.951 27.9176 119.915 27.7261C119.944 26.9515 119.975 25.434 120.008 23.1737C120.04 20.9134 120.086 19.2091 120.143 18.0609ZM131.353 18.2955L132.147 18.1345C132.308 19.4203 132.404 21.2071 132.435 23.495C132.475 25.7738 132.517 27.2824 132.56 28.0209C132.478 28.3031 132.318 28.4438 132.081 28.4429C131.917 28.4422 131.758 28.3733 131.603 28.236C131.457 28.0987 131.367 27.9343 131.331 27.7427C131.341 27.4146 131.346 26.8678 131.348 26.1022L131.355 23.4088C131.154 23.4171 130.872 23.4388 130.507 23.4739C130.151 23.4999 129.823 23.5214 129.522 23.5385C129.231 23.5556 128.953 23.5636 128.688 23.5626C128.451 23.5617 128.278 23.5565 128.169 23.5469C128.186 24.103 128.216 24.8915 128.259 25.9125C128.302 26.9244 128.332 27.6218 128.35 28.0047C128.267 28.2869 128.107 28.4276 127.87 28.4267C127.706 28.426 127.547 28.3571 127.392 28.2197C127.247 28.0825 127.156 27.918 127.12 27.7265C127.149 26.9428 127.175 25.4207 127.199 23.1604C127.232 20.9001 127.282 19.2186 127.348 18.116L127.963 18.2551C127.963 18.2824 127.963 18.328 127.963 18.3918C127.972 18.4465 127.976 18.4921 127.976 18.5286C128.089 20.7712 128.154 22.1751 128.171 22.7403C128.481 22.7141 128.809 22.6881 129.155 22.662C129.511 22.627 129.898 22.592 130.318 22.5571C130.746 22.5132 131.079 22.4826 131.316 22.4653C131.325 22.4653 131.33 22.4198 131.33 22.3286C131.33 22.2375 131.331 21.8683 131.333 21.2212C131.343 20.5741 131.35 19.5989 131.353 18.2955ZM133.143 18.8082L133.856 18.1411C134.264 18.8171 134.781 19.8582 135.407 21.2642C136.032 22.6703 136.459 23.5971 136.685 24.0446C137.602 21.7056 138.295 19.8398 138.763 18.4471C138.882 18.2288 139.033 18.12 139.215 18.1207C139.379 18.1213 139.525 18.2039 139.652 18.3685C139.779 18.5239 139.852 18.7065 139.87 18.9162C139.558 19.5804 139.063 20.6631 138.385 22.1644C137.716 23.6566 137.144 24.8803 136.667 25.8355C136.2 26.7817 135.701 27.6958 135.17 28.5778L134.282 28.3967L136.054 24.9445C135.728 24.0409 134.758 21.9955 133.143 18.8082Z" fill="white"/>
</g>
<defs>
<filter id="filter0_d_5_3746" x="0.0317383" y="0" width="223.889" height="58.9999" filterUnits="userSpaceOnUse" color-interpolation-filters="sRGB">
<feFlood flood-opacity="0" result="BackgroundImageFix"/>
<feColorMatrix in="SourceAlpha" type="matrix" values="0 0 0 0 0 0 0 0 0 0 0 0 0 0 0 0 0 0 127 0" result="hardAlpha"/>
<feOffset dy="2"/>
<feGaussianBlur stdDeviation="1"/>
<feColorMatrix type="matrix" values="0 0 0 0 0.992157 0 0 0 0 0.639216 0 0 0 0 0.768627 0 0 0 0.24 0"/>
<feBlend mode="normal" in2="BackgroundImageFix" result="effect1_dropShadow_5_3746"/>
<feBlend mode="normal" in="SourceGraphic" in2="effect1_dropShadow_5_3746" result="shape"/>
</filter>
</defs>
</svg>
