<svg width="200" height="50" viewBox="0 0 200 50" fill="none" xmlns="http://www.w3.org/2000/svg">
<path d="M6.01082 35.1044L2.40005 30.2118L0.409771 10.6414C2.15482 7.85536 8.24574 2.12014 18.649 1.4678C31.6531 0.652364 37.6685 -0.172465 52.6124 0.0313937C67.5564 0.235252 140.757 0.44087 146.015 0.44087C151.273 0.44087 177.318 -0.170538 184.244 2.88717C189.785 5.33334 194.871 10.0222 196.722 12.0608C196.169 12.4685 195.398 13.7323 196.731 15.5263C198.064 17.3202 198.773 20.0791 198.961 21.2343C198.224 21.9138 196.753 23.436 196.755 24.0883C196.757 24.9037 191.776 25.1076 194.27 26.1269C196.264 26.9423 196.769 29.3207 196.772 30.4079C194.837 31.4272 190.083 33.5066 186.542 33.6696C183 33.8327 179.902 34.553 178.796 34.8928L178.801 36.5238C180.462 36.7956 183.452 37.4206 182.125 37.7468C180.466 38.1545 178.803 37.1352 177.421 37.7468C176.039 38.3584 174.105 39.5815 175.766 39.9893C176.277 40.3649 176.777 40.5523 177.225 40.6252C177.773 40.5276 178.367 40.4473 178.811 40.397C178.528 40.5644 177.943 40.7422 177.225 40.6252C176.293 40.7911 175.49 41.0071 175.77 41.2124C176.213 41.5386 177.986 42.0278 178.816 42.2317L180.203 43.4548H175.776C173.341 43.4548 173.842 44.678 174.397 45.2896C173.752 45.4255 172.073 45.6157 170.523 45.2896C168.585 44.8818 169.417 45.4934 166.096 45.6973C163.44 45.8604 148.998 45.7652 144.478 45.6973C144.846 45.4255 145.084 44.8818 143.092 44.8818C140.601 44.8818 140.325 44.8818 137.282 45.2896C134.239 45.6973 55.5016 44.8801 46.0928 44.8801C38.5657 44.8801 48.1312 43.8702 46.7476 43.8702C42.414 44.5497 27.4036 45.868 20.983 45.7049C12.9573 45.501 6.03353 43.4625 6.03298 43.2586C6.03254 43.0955 4.55358 41.9675 3.81416 41.4239C4.55303 41.7636 6.03021 42.2393 6.02799 41.4239C6.02578 40.6084 4.54343 38.2301 3.80253 37.1429L6.01082 35.1044Z" fill="#FDA3C4"/>
<path d="M11.3003 46.7242C10.4147 46.7242 10.38 47.5396 10.4734 47.9473L8.6752 48.1512C7.80074 48.8307 6.21774 50.149 6.88145 49.9859C7.54515 49.8228 8.81689 49.3743 9.3698 49.1705C9.73803 48.8987 12.2456 48.3551 19.3298 48.3551C28.1852 48.3551 27.3539 47.9473 28.1841 47.9473C29.0143 47.9473 12.4072 46.7242 11.3003 46.7242Z" fill="#FDA3C4"/>
<path d="M47.4641 19.9189C47.4649 19.609 47.4655 19.3766 47.4659 19.2216C47.4663 19.0576 47.4715 18.8115 47.4814 18.4834C47.5005 18.1554 47.5194 17.8957 47.5381 17.7043C47.5659 17.513 47.603 17.2671 47.6493 16.9664C47.6957 16.6567 47.7556 16.4108 47.8289 16.2288C47.9023 16.0377 47.9849 15.8238 48.0767 15.5871C48.1775 15.3505 48.301 15.1596 48.4472 15.0143C48.5934 14.869 48.7533 14.7328 48.9268 14.6059C49.1003 14.4698 49.3056 14.3703 49.5428 14.3073C49.7799 14.2444 50.0398 14.2135 50.3223 14.2145C50.8874 14.2166 51.3793 14.3323 51.798 14.5617C52.2167 14.782 52.5441 15.0612 52.7803 15.3993C53.0164 15.7374 53.2022 16.1528 53.3377 16.6455C53.4822 17.1382 53.5722 17.608 53.6075 18.0547C53.652 18.5015 53.6735 18.9937 53.6721 19.5315C53.6712 19.8961 53.6613 20.2242 53.6423 20.5158C53.6325 20.8074 53.6043 21.14 53.5578 21.5135C53.5204 21.878 53.4603 22.2013 53.3776 22.4836C53.3039 22.7659 53.1984 23.0526 53.0609 23.3437C52.9235 23.6258 52.7588 23.8622 52.5669 24.0529C52.3842 24.2345 52.1514 24.384 51.8685 24.5015C51.5857 24.6189 51.2711 24.677 50.9247 24.6758C50.3596 24.6737 49.8722 24.6035 49.4624 24.4653C49.0617 24.3271 48.7295 24.1345 48.4658 23.8874C48.2112 23.6404 48.007 23.3161 47.853 22.9145C47.7082 22.5129 47.6045 22.075 47.5419 21.6008C47.4884 21.1267 47.4625 20.566 47.4641 19.9189ZM52.6865 20.0474C52.6876 19.6008 52.6523 19.1358 52.5806 18.6525C52.518 18.1692 52.4054 17.6492 52.2428 17.0927C52.0892 16.5361 51.8397 16.084 51.4943 15.7364C51.1488 15.3797 50.7345 15.2004 50.2515 15.1986C49.8869 15.1973 49.5627 15.4422 49.2789 15.9333C49.0042 16.4154 48.8069 16.9616 48.6869 17.5718C48.5669 18.1729 48.5062 18.7424 48.5048 19.2801C48.5039 19.6538 48.5031 19.9409 48.5026 20.1415C48.5113 20.3329 48.5288 20.611 48.5552 20.9756C48.5816 21.3312 48.6174 21.6139 48.6624 21.8237C48.7166 22.0335 48.798 22.2754 48.9067 22.5492C49.0154 22.823 49.1424 23.0377 49.2879 23.1932C49.4424 23.3396 49.6381 23.4725 49.8747 23.5918C50.1206 23.7021 50.3939 23.7623 50.6946 23.7726C51.3601 23.7385 51.8577 23.3667 52.1877 22.6569C52.5176 21.9472 52.6839 21.0774 52.6865 20.0474ZM58.8585 23.0642C58.8783 22.4627 58.8993 21.3645 58.9216 19.7695C58.953 18.1654 58.9834 16.9624 59.0127 16.1604L58.8897 16.16C57.9053 16.1564 57.0795 16.5134 56.4124 17.231C55.7452 17.9486 55.4103 18.8178 55.4077 19.8387C55.4052 20.8139 55.6858 21.6034 56.2494 22.207C56.813 22.8015 57.6006 23.1006 58.6123 23.1043C58.7035 23.1047 58.7855 23.0913 58.8585 23.0642ZM59.6595 14.5085L59.7117 15.4794C59.9305 15.462 60.0992 15.4535 60.2176 15.4539C61.3205 15.458 62.2903 15.8215 63.127 16.5447C63.9728 17.2678 64.3943 18.1808 64.3916 19.2837C64.381 19.8579 64.3204 20.4045 64.2097 20.9237C64.099 21.4428 63.92 21.9434 63.6727 22.4256C63.4345 22.9078 63.0871 23.2939 62.6307 23.5839C62.1742 23.8648 61.6361 24.0041 61.0163 24.0018C60.8887 24.0014 60.711 23.9916 60.4832 23.9725C60.2554 23.9535 60.1096 23.9438 60.0458 23.9436L60.0441 24.5862C59.9614 24.8684 59.8015 25.0091 59.5645 25.0082C59.4005 25.0076 59.2412 24.9387 59.0866 24.8014C58.941 24.6733 58.8503 24.5134 58.8143 24.3219L58.829 23.9391C58.7652 23.9389 58.6193 23.9475 58.3914 23.9649C58.1635 23.9822 57.9857 23.9907 57.8581 23.9902C57.2657 23.9881 56.7465 23.854 56.3006 23.588C55.8546 23.313 55.5001 22.9471 55.2369 22.4904C54.9829 22.0337 54.7927 21.5317 54.6665 20.9844C54.5494 20.4371 54.4916 19.8581 54.4932 19.2474C54.4959 18.181 54.8992 17.2847 55.7031 16.5585C56.5071 15.8231 57.4377 15.4574 58.495 15.4613C58.6135 15.4617 58.7911 15.4806 59.028 15.5179C59.0372 15.4815 59.042 15.3995 59.0423 15.2719C59.0425 15.2172 59.0382 15.1169 59.0294 14.971C59.0298 14.8161 59.0301 14.7022 59.0303 14.6292C59.0304 14.5928 59.0305 14.5472 59.0306 14.4925C59.0399 14.4379 59.0445 14.3969 59.0446 14.3695L59.6595 14.5085ZM59.9697 16.1776L59.751 16.1768C59.829 17.7539 59.9098 20.0511 59.9933 23.0684L60.1574 23.069C61.3514 23.0642 62.2043 22.7985 62.716 22.2717C63.2369 21.7359 63.4987 20.9347 63.5014 19.8683C63.5041 18.811 63.1691 17.9348 62.4963 17.2396C61.8328 16.5354 60.9905 16.1814 59.9697 16.1776ZM65.2374 19.9841C65.2382 19.6742 65.2388 19.4418 65.2392 19.2868C65.2396 19.1227 65.2448 18.8767 65.2547 18.5486C65.2738 18.2205 65.2927 17.9608 65.3114 17.7695C65.3392 17.5782 65.3763 17.3322 65.4226 17.0316C65.469 16.7219 65.5289 16.476 65.6023 16.294C65.6757 16.1028 65.7582 15.889 65.85 15.6523C65.9508 15.4157 66.0744 15.2247 66.2206 15.0794C66.3668 14.9341 66.5266 14.798 66.7001 14.671C66.8736 14.535 67.079 14.4355 67.3161 14.3725C67.5532 14.3096 67.8131 14.2786 68.0956 14.2797C68.6607 14.2817 69.1526 14.3975 69.5713 14.6269C69.99 14.8472 70.3175 15.1264 70.5536 15.4645C70.7897 15.8026 70.9755 16.218 71.111 16.7107C71.2556 17.2034 71.3455 17.6731 71.3808 18.1199C71.4253 18.5666 71.4468 19.0589 71.4455 19.5967C71.4445 19.9613 71.4346 20.2893 71.4156 20.5809C71.4058 20.8726 71.3776 21.2052 71.3311 21.5787C71.2937 21.9431 71.2336 22.2665 71.1509 22.5487C71.0773 22.831 70.9717 23.1177 70.8343 23.4089C70.6968 23.691 70.5322 23.9273 70.3403 24.118C70.1575 24.2997 69.9247 24.4492 69.6419 24.5667C69.359 24.6841 69.0444 24.7422 68.6981 24.7409C68.133 24.7389 67.6455 24.6687 67.2357 24.5305C66.835 24.3923 66.5028 24.1997 66.2391 23.9526C65.9845 23.7056 65.7803 23.3813 65.6263 22.9797C65.4815 22.5781 65.3778 22.1402 65.3152 21.666C65.2617 21.1919 65.2358 20.6312 65.2374 19.9841ZM70.4598 20.1126C70.4609 19.666 70.4256 19.201 70.3539 18.7177C70.2914 18.2344 70.1787 17.7144 70.0161 17.1578C69.8626 16.6013 69.613 16.1492 69.2676 15.8016C68.9221 15.4448 68.5079 15.2656 68.0248 15.2638C67.6602 15.2625 67.336 15.5074 67.0522 15.9985C66.7776 16.4806 66.5802 17.0267 66.4602 17.637C66.3402 18.2381 66.2795 18.8075 66.2781 19.3453C66.2772 19.719 66.2764 20.0061 66.2759 20.2066C66.2846 20.3981 66.3021 20.6761 66.3285 21.0408C66.355 21.3964 66.3907 21.6791 66.4357 21.8889C66.4899 22.0987 66.5713 22.3405 66.68 22.6144C66.7887 22.8882 66.9157 23.1029 67.0612 23.2584C67.2158 23.4048 67.4114 23.5376 67.6481 23.657C67.8939 23.7673 68.1672 23.8275 68.4679 23.8377C69.1334 23.8037 69.6311 23.4318 69.961 22.7221C70.2909 22.0124 70.4572 21.1425 70.4598 20.1126ZM72.7838 14.7754L73.3995 14.6136C73.3988 14.9052 73.4029 15.0693 73.4119 15.1058C73.9323 14.7614 74.6619 14.5909 75.6007 14.5943C76.6124 14.598 77.3681 14.9198 77.8678 15.5597C78.3675 16.1904 78.6159 17.0754 78.613 18.2147C78.6105 19.2265 78.3623 20.0641 77.8684 20.7277C77.3745 21.3912 76.6309 21.7212 75.6374 21.7175C75.4733 21.7169 74.8172 21.6598 73.6691 21.5462C73.6856 22.2117 73.7194 23.2463 73.7706 24.6502C73.6878 24.9324 73.528 25.0731 73.291 25.0722C73.1269 25.0716 72.9676 25.0027 72.813 24.8654C72.6675 24.7373 72.5767 24.5774 72.5408 24.3859C72.57 23.6204 72.6012 22.1302 72.6341 19.9155C72.6762 17.7008 72.7261 15.9874 72.7838 14.7754ZM73.5326 16.0223L73.6312 20.2883C74.1318 20.5636 74.7103 20.7024 75.3665 20.7048C75.9954 20.7071 76.5292 20.4721 76.9679 19.9997C77.4066 19.5274 77.6268 18.9494 77.6285 18.2658C77.6304 17.5275 77.4042 16.8613 76.95 16.2672C76.4958 15.6731 75.9269 15.3748 75.2433 15.3723C74.6873 15.3703 74.1171 15.5869 73.5326 16.0223ZM88.4269 24.6492L87.3876 24.7411C86.8942 21.5947 86.3587 18.8994 85.7811 16.6551C85.4785 17.3649 85.1433 18.3663 84.7754 19.6592C84.4167 20.9431 84.1685 21.7762 84.0308 22.1585C84.0126 22.1584 83.9807 22.1628 83.9351 22.1718C83.8986 22.1717 83.8667 22.1715 83.8394 22.1714C83.7118 22.171 83.5022 22.1565 83.2106 22.1281C82.919 22.0997 82.7322 22.0853 82.6501 22.085C82.6417 21.8207 82.4115 20.9403 81.9596 19.4438C81.5076 17.9382 81.2366 16.9757 81.1466 16.5561C80.9788 18.032 80.3339 20.7185 79.2121 24.6154L78.3646 24.5303C78.4948 23.5373 78.8132 21.9753 79.3199 19.8443C79.8266 17.7133 80.127 16.0647 80.2211 14.8984C80.3852 14.8807 80.5173 14.8721 80.6176 14.8725C80.7088 14.8728 81.0459 14.9105 81.629 14.9856C81.7566 15.0042 81.9378 15.4196 82.1728 16.2317C82.4168 17.0347 82.6607 17.9197 82.9043 18.8867C83.148 19.8538 83.3015 20.424 83.3648 20.5974C83.6216 19.9694 83.9296 18.9497 84.2886 17.5383C84.6568 16.1269 84.9142 15.23 85.061 14.8477C85.2069 14.8574 85.667 14.9001 86.4416 14.9759C86.6762 15.8973 86.9016 16.8916 87.1176 17.9588C87.3428 19.0261 87.5813 20.2392 87.833 21.5982C88.0939 22.9572 88.2919 23.9742 88.4269 24.6492ZM89.2179 14.6306L89.8327 14.7695C89.9201 16.2738 90.0186 18.7761 90.1282 22.2765C91.9135 19.1203 93.1413 16.5818 93.8115 14.6611C93.9485 14.5522 94.0808 14.498 94.2084 14.4985C94.409 14.4992 94.5727 14.6183 94.6997 14.8557C94.8358 15.0932 94.9081 15.3624 94.9164 15.6632C94.9416 16.5109 94.9608 17.942 94.9739 19.9564C94.9962 21.9708 95.0288 23.4748 95.0719 24.4685C94.9891 24.7416 94.8339 24.8778 94.606 24.8769C94.4419 24.8763 94.2826 24.8074 94.128 24.6701C93.9734 24.5419 93.8781 24.3821 93.8421 24.1905C93.8714 23.3977 93.8882 22.1809 93.8924 20.5403C93.9056 18.8997 93.9175 17.7923 93.9281 17.2182C93.7267 17.5638 93.3741 18.2187 92.8704 19.183C92.3667 20.1473 91.8997 20.9751 91.4696 21.6662C91.0486 22.3574 90.6141 22.9573 90.1662 23.4661L90.2181 24.5737C90.1353 24.856 89.9755 24.9967 89.7385 24.9958C89.5744 24.9952 89.4151 24.9263 89.2605 24.789C89.115 24.6517 89.0243 24.4873 88.9883 24.2958C89.0176 23.5212 89.0488 22.0037 89.0819 19.7434C89.1149 17.4831 89.1603 15.7788 89.2179 14.6306ZM95.7918 15.5023L95.6567 14.8866L100.88 14.605C101.108 14.6149 101.299 14.6976 101.454 14.8532C101.608 15.0087 101.685 15.1776 101.685 15.3599C101.684 15.4784 101.639 15.583 101.547 15.6738C101.456 15.7646 101.319 15.8188 101.137 15.8364L98.8402 15.7049C99.0599 18.9232 99.2211 21.8496 99.3238 24.4841C99.2411 24.7572 99.0858 24.8934 98.8579 24.8925C98.6939 24.8919 98.5345 24.823 98.3799 24.6857C98.2253 24.5575 98.13 24.3977 98.094 24.2061C98.1135 23.714 98.1245 22.9667 98.127 21.9641C98.128 21.5904 98.1249 21.0298 98.1176 20.2824C98.1195 19.535 98.1209 18.9744 98.1219 18.6007C98.1246 17.5161 98.1453 16.5364 98.184 15.6615C97.1543 15.5848 96.3569 15.5317 95.7918 15.5023ZM102.439 14.6517L103.053 14.7907C103.062 14.9639 103.118 16.3267 103.221 18.8792C103.467 18.8436 103.74 18.8264 104.041 18.8275C105.244 18.8319 106.228 19.1773 106.992 19.8637C107.756 20.541 108.136 21.3354 108.134 22.2468C108.129 24.0971 106.983 25.018 104.696 25.0096C104.103 25.0075 103.561 24.9599 103.069 24.867C102.577 24.774 102.295 24.659 102.222 24.5221C102.251 23.7565 102.278 22.2071 102.302 19.8739C102.326 17.5315 102.372 15.7908 102.439 14.6517ZM103.287 19.9048C103.345 21.8465 103.388 23.1409 103.413 23.7881C104.042 23.8725 104.593 23.9155 105.067 23.9173C106.343 23.9219 106.983 23.3182 106.986 22.1059C106.988 21.477 106.716 20.9474 106.17 20.517C105.633 20.0775 104.923 19.8561 104.039 19.8529C103.765 19.8519 103.515 19.8692 103.287 19.9048ZM113.126 16.1811L112.703 15.7284C113.68 15.0848 114.57 14.7645 115.372 14.7675C116.065 14.77 116.624 15.0227 117.052 15.5256C117.479 16.0194 117.691 16.6308 117.69 17.36C117.687 18.2714 117.376 18.9129 116.755 19.2843C117.211 19.3589 117.552 19.6336 117.778 20.1084C118.005 20.574 118.117 21.1304 118.116 21.7776C118.113 22.762 117.902 23.5223 117.481 24.0585C117.061 24.5947 116.363 24.861 115.387 24.8574C114.731 24.855 114.112 24.7069 113.529 24.4131C112.956 24.1194 112.551 23.6986 112.315 23.1509C112.361 23.1146 112.393 23.0782 112.411 23.0418C112.43 23.0054 112.444 22.9781 112.453 22.9599C112.462 22.9418 112.485 22.9191 112.521 22.8918C112.567 22.8555 112.635 22.8148 112.727 22.7695C113.127 23.1356 113.573 23.4335 114.064 23.6631C114.556 23.8837 115.02 23.9948 115.458 23.9964C115.95 23.9982 116.342 23.8401 116.635 23.5222C116.936 23.1951 117.088 22.6944 117.09 22.0199C117.092 21.3272 116.897 20.7659 116.506 20.3361C116.115 19.9063 115.537 19.69 114.772 19.6872C114.662 19.6868 114.471 19.6952 114.197 19.7124C114.188 19.6577 114.166 19.5574 114.13 19.4114C114.103 19.2655 114.067 19.0329 114.022 18.7137C114.122 18.705 114.305 18.6965 114.569 18.6884C114.833 18.6711 115.02 18.6581 115.13 18.6494C115.239 18.6316 115.394 18.6048 115.595 18.5691C115.804 18.5243 115.955 18.4656 116.046 18.393C116.147 18.3205 116.252 18.2297 116.361 18.1207C116.48 18.0027 116.563 17.8526 116.609 17.6705C116.655 17.4883 116.678 17.2742 116.679 17.0281C116.68 16.5815 116.53 16.2574 116.23 16.0558C115.939 15.8451 115.547 15.7388 115.055 15.737C114.399 15.7346 113.756 15.8827 113.126 16.1811ZM121.866 14.8596L122.905 14.9318C123.157 16.063 123.677 17.6645 124.465 19.7364C125.253 21.7992 125.773 23.3415 126.025 24.3632C126.025 24.6276 125.979 24.8234 125.887 24.9506C125.796 25.087 125.682 25.155 125.545 25.1545C125.426 25.154 125.313 25.1035 125.203 25.0028C125.103 24.9113 125.035 24.7789 124.999 24.6056C124.918 24.2042 124.656 23.4012 124.212 22.1964C122.335 21.9526 121.156 21.8024 120.673 21.7459C120.553 22.0736 120.406 22.6063 120.231 23.3439C120.056 24.0816 119.918 24.5915 119.817 24.8737C119.68 25.0372 119.525 25.1187 119.352 25.1181C119.16 25.1174 118.996 25.0302 118.86 24.8565C118.724 24.6919 118.656 24.4866 118.656 24.2405C118.951 23.1752 119.483 21.6094 120.254 19.5432C121.025 17.477 121.562 15.9158 121.866 14.8596ZM122.341 16.2423C122.156 17.3445 121.646 18.9604 120.811 21.0902L122.342 21.0958C123.035 21.0983 123.614 21.1233 124.078 21.1705C123.145 19.1528 122.565 17.51 122.341 16.2423ZM133.121 24.5123L133.16 25.032C132.677 25.176 132.216 25.2473 131.779 25.2457C131.36 25.2441 131 25.1289 130.7 24.8999C130.409 24.6801 130.186 24.4013 130.032 24.0635C129.887 23.7257 129.738 23.3606 129.584 22.9681C129.439 22.5756 129.298 22.2105 129.163 21.8728C129.036 21.5351 128.845 21.2564 128.59 21.0367C128.336 20.8079 128.031 20.6928 127.675 20.6915L127.802 24.7116C127.719 24.9938 127.559 25.1345 127.322 25.1336C127.158 25.133 126.999 25.0641 126.844 24.9268C126.699 24.7895 126.608 24.6251 126.572 24.4336C126.582 24.2422 126.617 22.702 126.679 19.8129C126.741 16.9146 126.787 15.2377 126.815 14.7821L127.43 14.9211C127.438 15.2675 127.464 15.9192 127.507 16.8764C127.55 17.8245 127.576 18.4672 127.584 18.8045C127.976 18.7968 128.309 18.6522 128.583 18.3706C128.867 18.08 129.096 17.7299 129.27 17.3204C129.453 16.9109 129.636 16.506 129.82 16.1056C130.003 15.6961 130.241 15.3506 130.533 15.0692C130.835 14.7786 131.191 14.6341 131.601 14.6356C131.911 14.6367 132.435 14.707 133.172 14.8464L133.034 15.3928C132.47 15.2996 132.146 15.2528 132.064 15.2525C131.745 15.2513 131.476 15.3825 131.256 15.646C131.037 15.9096 130.854 16.2416 130.707 16.6421C130.56 17.0335 130.4 17.4385 130.225 17.8571C130.051 18.2666 129.795 18.644 129.457 18.9891C129.119 19.3342 128.704 19.5651 128.211 19.6818C128.648 19.7836 129.026 19.981 129.344 20.2738C129.663 20.5667 129.899 20.8957 130.053 21.2608C130.207 21.626 130.356 22.0139 130.501 22.4246C130.646 22.8261 130.772 23.1912 130.881 23.5197C130.99 23.8482 131.139 24.1222 131.33 24.3417C131.53 24.5612 131.771 24.6714 132.054 24.6725C132.327 24.6735 132.683 24.6201 133.121 24.5123ZM136.372 14.9128L137.41 14.985C137.663 16.1161 138.183 17.7177 138.971 19.7896C139.758 21.8524 140.278 23.3947 140.531 24.4164C140.53 24.6808 140.484 24.8765 140.393 25.0038C140.301 25.1402 140.187 25.2081 140.051 25.2076C139.932 25.2072 139.818 25.1567 139.709 25.056C139.609 24.9645 139.541 24.8321 139.505 24.6588C139.424 24.2574 139.162 23.4544 138.718 22.2496C136.841 22.0057 135.661 21.8556 135.178 21.7991C135.059 22.1268 134.912 22.6595 134.737 23.3971C134.562 24.1348 134.424 24.6447 134.323 24.9269C134.186 25.0904 134.03 25.1719 133.857 25.1713C133.666 25.1706 133.502 25.0834 133.366 24.9097C133.229 24.7451 133.162 24.5398 133.162 24.2937C133.457 23.2284 133.989 21.6626 134.76 19.5964C135.531 17.5302 136.068 15.969 136.372 14.9128ZM136.847 16.2954C136.661 17.3976 136.152 19.0136 135.317 21.1434L136.848 21.149C137.541 21.1515 138.119 21.1764 138.584 21.2237C137.65 19.206 137.071 17.5632 136.847 16.2954ZM141.331 16.2845L140.908 15.8318C141.885 15.1883 142.775 14.868 143.577 14.8709C144.269 14.8734 144.829 15.1261 145.256 15.629C145.684 16.1228 145.896 16.7342 145.894 17.4634C145.892 18.3749 145.581 19.0163 144.96 19.3877C145.415 19.4623 145.757 19.737 145.983 20.2118C146.21 20.6775 146.322 21.2339 146.321 21.881C146.318 22.8654 146.107 23.6257 145.686 24.1619C145.265 24.6981 144.567 24.9644 143.592 24.9609C142.936 24.9585 142.317 24.8103 141.734 24.5165C141.16 24.2228 140.756 23.802 140.52 23.2543C140.566 23.218 140.598 23.1816 140.616 23.1452C140.635 23.1089 140.648 23.0816 140.658 23.0634C140.667 23.0452 140.69 23.0225 140.726 22.9953C140.772 22.959 140.84 22.9182 140.931 22.873C141.332 23.239 141.777 23.5369 142.269 23.7665C142.761 23.9871 143.225 24.0982 143.663 24.0998C144.155 24.1016 144.547 23.9435 144.84 23.6256C145.141 23.2986 145.293 22.7978 145.295 22.1233C145.296 21.4306 145.102 20.8694 144.711 20.4395C144.32 20.0097 143.742 19.7934 142.976 19.7906C142.867 19.7902 142.676 19.7986 142.402 19.8158C142.393 19.7611 142.371 19.6608 142.335 19.5148C142.308 19.3689 142.272 19.1363 142.227 18.8171C142.327 18.8084 142.51 18.8 142.774 18.7918C143.038 18.7745 143.225 18.7616 143.335 18.7528C143.444 18.735 143.599 18.7082 143.8 18.6725C144.009 18.6277 144.16 18.569 144.251 18.4964C144.352 18.4239 144.457 18.3331 144.566 18.2242C144.685 18.1061 144.768 17.956 144.814 17.7739C144.86 17.5918 144.883 17.3777 144.884 17.1316C144.885 16.6849 144.735 16.3608 144.435 16.1592C144.144 15.9485 143.752 15.8422 143.26 15.8404C142.604 15.838 141.961 15.9861 141.331 16.2845Z" fill="white"/>
</svg>
