<svg width="236" height="50" viewBox="0 0 236 50" fill="none" xmlns="http://www.w3.org/2000/svg">
<path d="M5.62996 35.1044L2.01919 30.2118L0.028912 10.6414C1.77396 7.85536 7.86488 2.12014 18.2681 1.4678C31.2722 0.652364 37.2876 -0.172465 52.2316 0.0313937C67.1755 0.235252 177.376 0.44087 182.634 0.44087C187.892 0.44087 213.937 -0.170538 220.863 2.88717C226.404 5.33334 231.491 10.0222 233.341 12.0608C232.789 12.4685 232.017 13.7323 233.35 15.5263C234.684 17.3202 235.392 20.0791 235.58 21.2343C234.844 21.9138 233.372 23.436 233.374 24.0883C233.376 24.9037 228.395 25.1076 230.889 26.1269C232.883 26.9423 233.388 29.3207 233.391 30.4079C231.456 31.4272 226.702 33.5066 223.161 33.6696C219.619 33.8327 216.522 34.553 215.416 34.8928L215.42 36.5238C217.081 36.7956 220.072 37.4206 218.744 37.7468C217.085 38.1545 215.422 37.1352 214.04 37.7468C212.658 38.3584 210.724 39.5815 212.385 39.9893C212.896 40.3649 213.396 40.5523 213.844 40.6252C214.393 40.5276 214.986 40.4473 215.431 40.397C215.147 40.5644 214.562 40.7422 213.844 40.6252C212.912 40.7911 212.11 41.0071 212.389 41.2124C212.832 41.5386 214.605 42.0278 215.436 42.2317L216.823 43.4548H212.395C209.96 43.4548 210.461 44.678 211.016 45.2896C210.371 45.4255 208.693 45.6157 207.142 45.2896C205.204 44.8818 206.036 45.4934 202.715 45.6973C200.059 45.8604 185.617 45.7652 181.097 45.6973C181.465 45.4255 181.703 44.8818 179.711 44.8818C177.22 44.8818 176.944 44.8818 173.901 45.2896C170.858 45.6973 55.1207 44.8801 45.7119 44.8801C38.1849 44.8801 47.7504 43.8702 46.3667 43.8702C42.0332 44.5497 27.0227 45.868 20.6022 45.7049C12.5764 45.501 5.65267 43.4625 5.65212 43.2586C5.65168 43.0955 4.17272 41.9675 3.4333 41.4239C4.17217 41.7636 5.64935 42.2393 5.64713 41.4239C5.64492 40.6084 4.16257 38.2301 3.42167 37.1429L5.62996 35.1044Z" fill="#FDA3C4"/>
<path d="M10.9194 46.7242C10.0339 46.7242 9.99918 47.5396 10.0925 47.9473L8.29434 48.1512C7.41988 48.8307 5.83688 50.149 6.50059 49.9859C7.16429 49.8228 8.43603 49.3743 8.98894 49.1705C9.35717 48.8987 11.8647 48.3551 18.949 48.3551C27.8043 48.3551 26.973 47.9473 27.8032 47.9473C28.6334 47.9473 12.0263 46.7242 10.9194 46.7242Z" fill="#FDA3C4"/>
<path d="M59.1397 14.5636L63.9385 14.5811C64.0993 15.8669 64.195 17.6537 64.2257 19.9416C64.2655 22.2204 64.3072 23.729 64.351 24.4675C64.2682 24.7497 64.1083 24.8904 63.8714 24.8896C63.7073 24.889 63.548 24.82 63.3934 24.6827C63.2479 24.5455 63.1572 24.3811 63.1212 24.1895C63.1231 23.4513 63.1041 21.9518 63.0642 19.6913C63.0244 17.4216 63.0051 16.0406 63.0063 15.5484C62.8058 15.5477 62.4777 15.5602 62.0219 15.5858C61.5752 15.6116 61.2151 15.6239 60.9417 15.6229C60.5042 15.6213 60.167 15.6109 59.9301 15.5918C59.93 15.6192 59.9585 16.9546 60.0156 19.598C60.0818 22.2415 60.1233 23.8595 60.14 24.452C60.0573 24.7343 59.8974 24.875 59.6605 24.8741C59.4964 24.8735 59.3371 24.8046 59.1825 24.6673C59.037 24.53 58.9462 24.3656 58.9103 24.1741C58.9396 23.3903 58.9662 21.8683 58.9902 19.608C59.0233 17.3476 59.0731 15.6662 59.1397 14.5636ZM65.497 20.001C65.4978 19.6911 65.4984 19.4586 65.4988 19.3037C65.4992 19.1396 65.5044 18.8936 65.5143 18.5655C65.5334 18.2374 65.5523 17.9777 65.571 17.7864C65.5988 17.5951 65.6359 17.3491 65.6822 17.0485C65.7286 16.7388 65.7885 16.4929 65.8618 16.3109C65.9352 16.1197 66.0178 15.9058 66.1096 15.6692C66.2104 15.4326 66.334 15.2416 66.4802 15.0963C66.6264 14.951 66.7862 14.8149 66.9597 14.6879C67.1332 14.5518 67.3386 14.4523 67.5757 14.3894C67.8128 14.3265 68.0727 14.2955 68.3552 14.2966C68.9203 14.2986 69.4122 14.4144 69.8309 14.6438C70.2496 14.8641 70.577 15.1433 70.8132 15.4814C71.0493 15.8195 71.2351 16.2349 71.3706 16.7276C71.5152 17.2203 71.6051 17.69 71.6404 18.1368C71.6849 18.5835 71.7064 19.0758 71.7051 19.6136C71.7041 19.9781 71.6942 20.3062 71.6752 20.5978C71.6654 20.8895 71.6372 21.222 71.5907 21.5956C71.5533 21.96 71.4932 22.2834 71.4105 22.5656C71.3368 22.8479 71.2313 23.1346 71.0938 23.4258C70.9564 23.7078 70.7917 23.9442 70.5999 24.1349C70.4171 24.3166 70.1843 24.4661 69.9015 24.5835C69.6186 24.701 69.304 24.7591 68.9577 24.7578C68.3926 24.7557 67.9051 24.6856 67.4953 24.5474C67.0946 24.4092 66.7624 24.2166 66.4987 23.9695C66.2441 23.7225 66.0399 23.3982 65.8859 22.9965C65.7411 22.595 65.6374 22.1571 65.5748 21.6829C65.5213 21.2087 65.4954 20.6481 65.497 20.001ZM70.7194 20.1295C70.7205 19.6829 70.6852 19.2179 70.6135 18.7346C70.551 18.2512 70.4383 17.7313 70.2757 17.1747C70.1221 16.6182 69.8726 16.1661 69.5272 15.8184C69.1817 15.4617 68.7674 15.2825 68.2844 15.2807C67.9198 15.2793 67.5956 15.5243 67.3118 16.0154C67.0372 16.4975 66.8398 17.0436 66.7198 17.6539C66.5998 18.255 66.5391 18.8244 66.5377 19.3622C66.5368 19.7359 66.536 20.023 66.5355 20.2235C66.5442 20.415 66.5617 20.693 66.5881 21.0577C66.6146 21.4133 66.6503 21.696 66.6953 21.9058C66.7495 22.1156 66.8309 22.3574 66.9396 22.6313C67.0483 22.9051 67.1753 23.1198 67.3208 23.2752C67.4754 23.4216 67.671 23.5545 67.9077 23.6739C68.1535 23.7842 68.4268 23.8444 68.7275 23.8546C69.393 23.8206 69.8907 23.4487 70.2206 22.739C70.5505 22.0293 70.7168 21.1594 70.7194 20.1295ZM79.604 26.3828L78.9891 26.2438C78.9088 25.5508 78.7689 24.9852 78.5695 24.547C77.8132 24.4895 77.0567 24.4594 76.3002 24.4566C75.6531 24.4542 74.6914 24.4781 73.4153 24.5281C73.3601 24.7193 73.2536 25.3842 73.0958 26.523L72.508 26.4662C72.3282 25.4902 72.2392 24.6514 72.241 23.9495C72.241 23.9131 72.2412 23.8493 72.2414 23.7581C72.2508 23.667 72.2555 23.5987 72.2556 23.5531C72.2647 23.5531 72.4151 23.5537 72.7068 23.5548C72.9985 23.5467 73.1489 23.5427 73.158 23.5427C73.3962 23.0605 73.5889 22.5417 73.7362 21.9863C73.8925 21.4217 73.9989 20.8205 74.0552 20.1827C74.1115 19.5358 74.1494 18.9708 74.1689 18.4878C74.1883 17.9957 74.199 17.3714 74.2009 16.6149C74.2029 15.8584 74.2088 15.2933 74.2189 14.9196C74.857 14.8764 76.279 14.8588 78.4847 14.8669L78.7637 23.4402C78.9095 23.459 79.0599 23.4732 79.2148 23.4829C79.3697 23.4926 79.5201 23.5023 79.6659 23.5119C79.6381 23.7032 79.6238 23.9402 79.6231 24.2227C79.6227 24.3685 79.6267 24.5964 79.635 24.9063C79.6433 25.2254 79.6473 25.4624 79.6469 25.6173C79.6461 25.9272 79.6318 26.1824 79.604 26.3828ZM74.252 23.4647C74.498 23.4656 74.8672 23.4761 75.3593 23.4961C75.8515 23.507 76.216 23.5129 76.453 23.5138C76.7994 23.5151 77.1594 23.5027 77.5332 23.4768C77.5529 22.9026 77.5643 22.0049 77.5673 20.7835L77.5742 18.0628C77.577 16.9782 77.5881 16.1716 77.6077 15.643C77.3525 15.6238 77.1612 15.614 77.0336 15.6135C76.8239 15.6128 76.5186 15.6253 76.1174 15.6512C75.7255 15.6771 75.4611 15.6944 75.3243 15.703C75.296 16.113 75.2624 16.7601 75.2237 17.644C75.1851 18.5189 75.1469 19.1978 75.1092 19.6807C75.0715 20.1637 74.9788 20.7649 74.8312 21.4844C74.6927 22.1948 74.4996 22.8549 74.252 23.4647ZM79.5769 15.4588L79.4418 14.8431L84.6651 14.5614C84.893 14.5714 85.0842 14.6541 85.2387 14.8096C85.3933 14.9652 85.4703 15.1341 85.4699 15.3164C85.4696 15.4348 85.4237 15.5395 85.3324 15.6303C85.241 15.7211 85.1041 15.7753 84.9218 15.7929L82.6252 15.6614C82.845 18.8797 83.0062 21.8061 83.1089 24.4406C83.0262 24.7137 82.8709 24.8498 82.643 24.849C82.4789 24.8484 82.3196 24.7795 82.165 24.6422C82.0104 24.514 81.9151 24.3542 81.8791 24.1626C81.8986 23.6705 81.9096 22.9231 81.9121 21.9205C81.9131 21.5468 81.9099 20.9863 81.9027 20.2388C81.9046 19.4915 81.906 18.9309 81.907 18.5572C81.9097 17.4726 81.9304 16.4928 81.9691 15.618C80.9394 15.5413 80.142 15.4882 79.5769 15.4588ZM86.0077 24.3008L86.1004 14.6761C86.2015 14.3392 86.5939 14.172 87.2775 14.1745C87.9064 14.1768 88.4849 14.2656 89.0131 14.4407C89.5413 14.6067 89.9827 14.8908 90.3371 15.2932C90.7007 15.6864 90.8818 16.1611 90.8804 16.7171C90.8793 17.1546 90.7689 17.578 90.5491 17.9873C90.3384 18.3967 90.078 18.6601 89.7678 18.7774C90.3509 18.8616 90.8194 19.2142 91.1733 19.8353C91.5272 20.4564 91.7031 21.1908 91.7009 22.0385C91.6995 22.6127 91.4703 23.1131 91.0135 23.5399C90.5567 23.9575 90.0228 24.2608 89.4116 24.45C88.8096 24.6301 88.1987 24.719 87.5789 24.7167C86.8224 24.7139 86.2987 24.5753 86.0077 24.3008ZM87.1409 19.5198C87.1393 20.1487 87.127 21.411 87.104 23.3068C87.3766 23.6177 87.7271 23.7739 88.1555 23.7755C88.7206 23.7775 89.2681 23.5471 89.7979 23.0842C90.3277 22.6122 90.5933 22.1073 90.5947 21.5696C90.5964 20.9042 90.3744 20.3838 89.9287 20.0085C89.483 19.6332 88.9093 19.4442 88.2075 19.4416C87.7426 19.4399 87.3871 19.466 87.1409 19.5198ZM87.1161 18.508L87.9638 18.4974C88.5471 18.4995 88.9942 18.3325 89.3049 17.9964C89.6248 17.6513 89.7853 17.2417 89.7865 16.7677C89.7878 16.2847 89.6293 15.8694 89.3112 15.5218C88.9931 15.1652 88.5515 14.9859 87.9864 14.9838C87.7311 14.9828 87.4302 15.0364 87.0836 15.1445C87.1004 15.7006 87.1078 16.3888 87.1057 17.2091C87.1128 18.0294 87.1162 18.4624 87.1161 18.508ZM97.52 24.0832L97.6551 24.699C97.2997 24.6977 96.6525 24.709 95.7136 24.7329C94.7839 24.7659 94.1093 24.7817 93.6901 24.7801C93.0156 24.7777 92.5554 24.7441 92.3095 24.6794C92.4032 23.6771 92.4621 22.0002 92.4863 19.6487C92.5105 17.2973 92.5739 15.6569 92.6765 14.7275C92.9863 14.756 93.8065 14.7818 95.1372 14.8049C96.477 14.8281 97.3519 14.8723 97.7619 14.9376L97.9107 15.5534C97.5004 15.6248 96.6799 15.7084 95.4491 15.8041C94.2184 15.8999 93.5712 15.9522 93.5073 15.9611C93.5159 16.1707 93.5331 16.5992 93.5588 17.2464C93.5936 17.8937 93.615 18.427 93.6231 18.8463C93.9329 18.8839 94.4978 18.9406 95.318 19.0165C96.1381 19.0834 96.6575 19.1263 96.8762 19.1453L97.0114 19.7747C95.0878 19.9408 93.9619 20.0279 93.6337 20.0358C93.6327 20.4368 93.6221 21.0475 93.6018 21.8677C93.5906 22.6789 93.5845 23.2758 93.5835 23.6587C95.6703 23.8577 96.9824 23.9992 97.52 24.0832ZM98.678 14.8863L99.2937 14.7245C99.2929 15.0161 99.2971 15.1802 99.3061 15.2167C99.8265 14.8722 100.556 14.7017 101.495 14.7052C102.507 14.7089 103.262 15.0307 103.762 15.6705C104.262 16.3013 104.51 17.1863 104.507 18.3256C104.505 19.3373 104.256 20.175 103.763 20.8385C103.269 21.5021 102.525 21.8321 101.532 21.8284C101.367 21.8278 100.711 21.7707 99.5632 21.6571C99.5798 22.3226 99.6136 23.3572 99.6648 24.761C99.582 25.0433 99.4221 25.184 99.1852 25.1831C99.0211 25.1825 98.8618 25.1136 98.7072 24.9763C98.5617 24.8481 98.4709 24.6883 98.435 24.4968C98.4642 23.7312 98.4953 22.2411 98.5283 20.0264C98.5704 17.8117 98.6203 16.0983 98.678 14.8863ZM99.4268 16.1332L99.5254 20.3992C100.026 20.6744 100.604 20.8133 101.261 20.8157C101.89 20.818 102.423 20.583 102.862 20.1106C103.301 19.6383 103.521 19.0603 103.523 18.3767C103.525 17.6384 103.298 16.9722 102.844 16.3781C102.39 15.784 101.821 15.4857 101.137 15.4832C100.581 15.4811 100.011 15.6978 99.4268 16.1332ZM111.5 26.4998L110.885 26.3608C110.805 25.6678 110.665 25.1022 110.466 24.6639C109.709 24.6065 108.953 24.5763 108.197 24.5736C107.549 24.5712 106.588 24.595 105.312 24.645C105.256 24.8362 105.15 25.5012 104.992 26.64L104.404 26.5831C104.224 25.6072 104.135 24.7683 104.137 24.0665C104.137 24.03 104.137 23.9662 104.138 23.8751C104.147 23.784 104.152 23.7156 104.152 23.6701C104.161 23.6701 104.311 23.6706 104.603 23.6717C104.895 23.6637 105.045 23.6597 105.054 23.6597C105.292 23.1775 105.485 22.6587 105.632 22.1032C105.789 21.5387 105.895 20.9375 105.951 20.2997C106.008 19.6528 106.046 19.0878 106.065 18.6048C106.085 18.1127 106.095 17.4883 106.097 16.7318C106.099 15.9753 106.105 15.4102 106.115 15.0366C106.753 14.9933 108.175 14.9758 110.381 14.9839L110.66 23.5572C110.806 23.576 110.956 23.5902 111.111 23.5999C111.266 23.6096 111.416 23.6192 111.562 23.6289C111.534 23.8202 111.52 24.0571 111.519 24.3397C111.519 24.4855 111.523 24.7134 111.531 25.0233C111.54 25.3423 111.544 25.5793 111.543 25.7343C111.542 26.0442 111.528 26.2993 111.5 26.4998ZM106.148 23.5817C106.394 23.5826 106.763 23.593 107.256 23.6131C107.748 23.624 108.112 23.6299 108.349 23.6308C108.696 23.632 109.056 23.6197 109.429 23.5937C109.449 23.0196 109.461 22.1218 109.464 20.9005L109.471 18.1798C109.473 17.0951 109.484 16.2885 109.504 15.7599C109.249 15.7408 109.057 15.731 108.93 15.7305C108.72 15.7297 108.415 15.7423 108.014 15.7682C107.622 15.7941 107.357 15.8113 107.221 15.8199C107.192 16.23 107.159 16.877 107.12 17.761C107.081 18.6358 107.043 19.3147 107.005 19.7977C106.968 20.2806 106.875 20.8819 106.727 21.6014C106.589 22.3118 106.396 22.9719 106.148 23.5817ZM112.624 14.7323L113.239 14.8713C113.326 16.3755 113.424 18.8779 113.534 22.3783C115.319 19.222 116.547 16.6836 117.217 14.7628C117.354 14.654 117.487 14.5998 117.614 14.6002C117.815 14.601 117.979 14.7201 118.106 14.9575C118.242 15.195 118.314 15.4641 118.322 15.7649C118.348 16.6127 118.367 18.0438 118.38 20.0581C118.402 22.0726 118.435 23.5766 118.478 24.5703C118.395 24.8434 118.24 24.9795 118.012 24.9787C117.848 24.9781 117.689 24.9092 117.534 24.7719C117.379 24.6437 117.284 24.4838 117.248 24.2923C117.277 23.4994 117.294 22.2827 117.298 20.6421C117.312 19.0015 117.323 17.8941 117.334 17.3199C117.133 17.6655 116.78 18.3205 116.276 19.2848C115.773 20.2491 115.306 21.0768 114.875 21.768C114.454 22.4591 114.02 23.0591 113.572 23.5679L113.624 24.6755C113.541 24.9578 113.381 25.0984 113.144 25.0976C112.98 25.097 112.821 25.028 112.666 24.8907C112.521 24.7535 112.43 24.5891 112.394 24.3976C112.424 23.6229 112.455 22.1054 112.488 19.8451C112.521 17.5848 112.566 15.8806 112.624 14.7323ZM119.198 15.6041L119.063 14.9884L124.286 14.7067C124.514 14.7167 124.705 14.7994 124.86 14.9549C125.014 15.1104 125.091 15.2793 125.091 15.4616C125.09 15.5801 125.045 15.6848 124.953 15.7756C124.862 15.8664 124.725 15.9206 124.543 15.9381L122.246 15.8067C122.466 19.0249 122.627 21.9513 122.73 24.5858C122.647 24.859 122.492 24.9951 122.264 24.9943C122.1 24.9937 121.94 24.9247 121.786 24.7875C121.631 24.6593 121.536 24.4994 121.5 24.3079C121.519 23.8158 121.53 23.0684 121.533 22.0658C121.534 21.6921 121.531 21.1316 121.524 20.3841C121.525 19.6367 121.527 19.0762 121.528 18.7025C121.531 17.6179 121.551 16.6381 121.59 15.7632C120.56 15.6866 119.763 15.6335 119.198 15.6041ZM125.844 14.7535L126.459 14.8924C126.468 15.0656 126.524 16.4285 126.627 18.981C126.873 18.9454 127.146 18.9282 127.447 18.9293C128.65 18.9337 129.634 19.2791 130.398 19.9655C131.162 20.6428 131.542 21.4371 131.54 22.3486C131.535 24.1989 130.389 25.1198 128.101 25.1114C127.509 25.1092 126.967 25.0617 126.475 24.9687C125.983 24.8758 125.701 24.7608 125.628 24.6238C125.657 23.8583 125.684 22.3089 125.708 19.9756C125.732 17.6333 125.778 15.8925 125.844 14.7535ZM126.692 20.0066C126.751 21.9482 126.794 23.2427 126.819 23.8899C127.448 23.9742 127.999 24.0173 128.473 24.019C129.749 24.0237 130.389 23.4199 130.392 22.2077C130.394 21.5788 130.121 21.0491 129.576 20.6187C129.039 20.1793 128.329 19.9579 127.445 19.9547C127.171 19.9537 126.92 19.971 126.692 20.0066ZM136.532 16.2829L136.109 15.8302C137.086 15.1866 137.976 14.8663 138.778 14.8692C139.47 14.8718 140.03 15.1245 140.458 15.6274C140.885 16.1211 141.097 16.7326 141.095 17.4617C141.093 18.3732 140.782 19.0146 140.161 19.3861C140.616 19.4606 140.958 19.7353 141.184 20.2101C141.411 20.6758 141.523 21.2322 141.522 21.8793C141.519 22.8637 141.308 23.624 140.887 24.1602C140.466 24.6965 139.769 24.9628 138.793 24.9592C138.137 24.9568 137.518 24.8087 136.935 24.5149C136.362 24.2211 135.957 23.8004 135.721 23.2526C135.767 23.2163 135.799 23.18 135.817 23.1436C135.836 23.1072 135.849 23.0799 135.859 23.0617C135.868 23.0435 135.891 23.0208 135.927 22.9936C135.973 22.9573 136.041 22.9165 136.133 22.8713C136.533 23.2374 136.979 23.5352 137.47 23.7649C137.962 23.9854 138.426 24.0965 138.864 24.0981C139.356 24.0999 139.748 23.9419 140.041 23.6239C140.342 23.2969 140.494 22.7962 140.496 22.1217C140.498 21.429 140.303 20.8677 139.912 20.4379C139.521 20.0081 138.943 19.7917 138.177 19.7889C138.068 19.7885 137.877 19.797 137.603 19.8142C137.594 19.7595 137.572 19.6591 137.536 19.5131C137.509 19.3672 137.473 19.1347 137.428 18.8155C137.528 18.8067 137.711 18.7983 137.975 18.7901C138.239 18.7729 138.426 18.7599 138.536 18.7512C138.645 18.7334 138.8 18.7066 139.001 18.6709C139.21 18.6261 139.361 18.5674 139.452 18.4948C139.553 18.4222 139.658 18.3315 139.767 18.2225C139.886 18.1044 139.969 17.9544 140.015 17.7722C140.061 17.5901 140.084 17.376 140.085 17.1299C140.086 16.6833 139.936 16.3592 139.636 16.1575C139.345 15.9468 138.953 15.8406 138.461 15.8388C137.805 15.8364 137.162 15.9844 136.532 16.2829ZM145.272 14.9614L146.311 15.0336C146.563 16.1647 147.083 17.7662 147.871 19.8382C148.658 21.901 149.179 23.4432 149.431 24.465C149.431 24.7293 149.385 24.9251 149.293 25.0524C149.202 25.1888 149.087 25.2567 148.951 25.2562C148.832 25.2558 148.718 25.2052 148.609 25.1046C148.509 25.0131 148.441 24.8806 148.405 24.7073C148.324 24.306 148.062 23.5029 147.618 22.2982C145.741 22.0543 144.561 21.9042 144.078 21.8477C143.959 22.1754 143.812 22.7081 143.637 23.4457C143.462 24.1833 143.324 24.6933 143.223 24.9754C143.086 25.139 142.931 25.2205 142.757 25.2198C142.566 25.2191 142.402 25.1319 142.266 24.9583C142.13 24.7937 142.062 24.5884 142.062 24.3423C142.357 23.2769 142.889 21.7112 143.66 19.645C144.431 17.5788 144.968 16.0176 145.272 14.9614ZM145.747 16.344C145.562 17.4462 145.052 19.0622 144.217 21.192L145.748 21.1976C146.441 21.2001 147.02 21.225 147.484 21.2723C146.551 19.2545 145.971 17.6118 145.747 16.344ZM156.527 24.6141L156.566 25.1337C156.083 25.2778 155.622 25.349 155.185 25.3474C154.766 25.3459 154.406 25.2306 154.106 25.0017C153.815 24.7819 153.592 24.503 153.438 24.1652C153.293 23.8275 153.143 23.4623 152.989 23.0698C152.845 22.6774 152.704 22.3123 152.568 21.9745C152.442 21.6368 152.251 21.3581 151.996 21.1384C151.742 20.9096 151.437 20.7946 151.081 20.7933L151.208 24.8133C151.125 25.0956 150.965 25.2363 150.728 25.2354C150.564 25.2348 150.405 25.1658 150.25 25.0286C150.105 24.8913 150.014 24.7269 149.978 24.5354C149.988 24.344 150.023 22.8037 150.085 19.9146C150.147 17.0164 150.193 15.3395 150.221 14.8839L150.836 15.0228C150.844 15.3692 150.87 16.021 150.913 16.9782C150.956 17.9263 150.982 18.569 150.99 18.9062C151.382 18.8986 151.715 18.7539 151.989 18.4724C152.273 18.1818 152.501 17.8317 152.676 17.4222C152.859 17.0127 153.042 16.6077 153.226 16.2074C153.409 15.7979 153.647 15.4524 153.939 15.1709C154.241 14.8804 154.597 14.7358 155.007 14.7373C155.317 14.7385 155.84 14.8088 156.578 14.9482L156.44 15.4946C155.875 15.4013 155.552 15.3546 155.47 15.3543C155.151 15.3531 154.882 15.4843 154.662 15.7478C154.443 16.0113 154.26 16.3433 154.113 16.7438C153.966 17.1352 153.806 17.5402 153.631 17.9589C153.457 18.3684 153.201 18.7457 152.863 19.0908C152.525 19.4359 152.109 19.6668 151.617 19.7835C152.054 19.8854 152.432 20.0827 152.75 20.3756C153.068 20.6684 153.305 20.9974 153.459 21.3626C153.613 21.7277 153.762 22.1156 153.907 22.5263C154.052 22.9279 154.178 23.2929 154.287 23.6215C154.395 23.95 154.545 24.224 154.736 24.4434C154.936 24.6629 155.177 24.7732 155.46 24.7742C155.733 24.7752 156.089 24.7218 156.527 24.6141ZM159.777 15.0146L160.816 15.0868C161.069 16.2179 161.589 17.8194 162.376 19.8913C163.164 21.9541 163.684 23.4964 163.937 24.5182C163.936 24.7825 163.89 24.9783 163.799 25.1056C163.707 25.242 163.593 25.3099 163.457 25.3094C163.338 25.309 163.224 25.2584 163.115 25.1578C163.015 25.0662 162.947 24.9338 162.911 24.7605C162.83 24.3592 162.568 23.5561 162.124 22.3514C160.247 22.1075 159.067 21.9573 158.584 21.9009C158.465 22.2286 158.318 22.7612 158.143 23.4989C157.968 24.2365 157.83 24.7464 157.729 25.0286C157.592 25.1922 157.436 25.2737 157.263 25.273C157.072 25.2723 156.908 25.1851 156.772 25.0114C156.635 24.8469 156.568 24.6416 156.568 24.3955C156.863 23.3301 157.395 21.7644 158.166 19.6982C158.937 17.632 159.474 16.0708 159.777 15.0146ZM160.252 16.3972C160.067 17.4994 159.557 19.1154 158.723 21.2451L160.254 21.2508C160.947 21.2533 161.525 21.2782 161.99 21.3255C161.056 19.3077 160.477 17.665 160.252 16.3972ZM164.737 16.3863L164.314 15.9336C165.291 15.29 166.181 14.9697 166.983 14.9727C167.675 14.9752 168.235 15.2279 168.662 15.7308C169.09 16.2245 169.302 16.836 169.3 17.5652C169.298 18.4766 168.987 19.118 168.366 19.4895C168.821 19.5641 169.162 19.8388 169.389 20.3135C169.616 20.7792 169.728 21.3356 169.727 21.9828C169.724 22.9671 169.513 23.7274 169.092 24.2636C168.671 24.7999 167.973 25.0662 166.998 25.0626C166.342 25.0602 165.722 24.9121 165.14 24.6183C164.566 24.3245 164.162 23.9038 163.926 23.356C163.972 23.3197 164.004 23.2834 164.022 23.247C164.041 23.2106 164.054 23.1833 164.063 23.1651C164.073 23.1469 164.095 23.1242 164.132 23.097C164.178 23.0607 164.246 23.02 164.337 22.9747C164.738 23.3408 165.183 23.6386 165.675 23.8683C166.167 24.0889 166.631 24.1999 167.069 24.2015C167.561 24.2033 167.953 24.0453 168.246 23.7273C168.547 23.4003 168.699 22.8996 168.701 22.2251C168.702 21.5324 168.508 20.9711 168.117 20.5413C167.726 20.1115 167.148 19.8952 166.382 19.8924C166.273 19.892 166.082 19.9004 165.808 19.9176C165.799 19.8629 165.777 19.7625 165.74 19.6166C165.713 19.4706 165.678 19.2381 165.633 18.9189C165.733 18.9102 165.915 18.9017 166.18 18.8936C166.444 18.8763 166.631 18.8633 166.74 18.8546C166.85 18.8368 167.005 18.81 167.205 18.7743C167.415 18.7295 167.566 18.6708 167.657 18.5982C167.758 18.5256 167.863 18.4349 167.972 18.3259C168.091 18.2079 168.173 18.0578 168.219 17.8756C168.266 17.6935 168.289 17.4794 168.289 17.2333C168.291 16.7867 168.141 16.4626 167.841 16.261C167.55 16.0503 167.158 15.944 166.666 15.9422C166.01 15.9398 165.367 16.0878 164.737 16.3863Z" fill="white"/>
</svg>
