<svg width="152" height="50" viewBox="0 0 152 50" fill="none" xmlns="http://www.w3.org/2000/svg">
<path d="M4.58293 35.1044L1.94218 30.2118L0.474225 10.6414C1.7467 7.85536 6.19105 2.12014 13.7887 1.4678C23.2857 0.652364 27.6785 -0.172465 38.5931 0.0313937C49.5077 0.235252 109.398 0.44087 113.238 0.44087C117.078 0.44087 136.099 -0.170538 141.16 2.88717C145.209 5.33334 148.927 10.0222 150.28 12.0608C149.877 12.4685 149.315 13.7323 150.29 15.5263C151.265 17.3202 151.784 20.0791 151.922 21.2343C151.385 21.9138 150.311 23.436 150.313 24.0883C150.315 24.9037 146.678 25.1076 148.5 26.1269C149.957 26.9423 150.327 29.3207 150.33 30.4079C148.918 31.4272 145.448 33.5066 142.861 33.6696C140.274 33.8327 138.013 34.553 137.205 34.8928L137.21 36.5238C138.423 36.7956 140.607 37.4206 139.638 37.7468C138.427 38.1545 137.211 37.1352 136.202 37.7468C135.193 38.3584 133.782 39.5815 134.996 39.9893C135.369 40.3649 135.734 40.5523 136.061 40.6252C136.462 40.5276 136.896 40.4473 137.22 40.397C137.013 40.5644 136.586 40.7422 136.061 40.6252C135.381 40.7911 134.795 41.0071 134.999 41.2124C135.323 41.5386 136.618 42.0278 137.225 42.2317L138.239 43.4548H135.005C133.227 43.4548 133.594 44.678 134 45.2896C133.528 45.4255 132.303 45.6157 131.17 45.2896C129.754 44.8818 130.362 45.4934 127.937 45.6973C125.997 45.8604 115.449 45.7652 112.148 45.6973C112.417 45.4255 112.59 44.8818 111.135 44.8818C109.316 44.8818 109.114 44.8818 106.892 45.2896C104.67 45.6973 40.7361 44.8801 33.8643 44.8801C28.3669 44.8801 35.3524 43.8702 34.3418 43.8702C31.1772 44.5497 20.2152 45.868 15.5258 45.7049C9.66397 45.501 4.60563 43.4625 4.60508 43.2586C4.60464 43.0955 3.52364 41.9675 2.9832 41.4239C3.52309 41.7636 4.60231 42.2393 4.60009 41.4239C4.59788 40.6084 3.51349 38.2301 2.97157 37.1429L4.58293 35.1044Z" fill="#FDA3C4"/>
<path d="M8.45462 46.7242C7.80786 46.7242 7.78313 47.5396 7.85161 47.9473L6.53844 48.1512C5.90026 48.8307 4.74507 50.149 5.22969 49.9859C5.71432 49.8228 6.64282 49.3743 7.04649 49.1705C7.31523 48.8987 9.14623 48.3551 14.3203 48.3551C20.7879 48.3551 20.1804 47.9473 20.7868 47.9473C21.3931 47.9473 9.26307 46.7242 8.45462 46.7242Z" fill="#FDA3C4"/>
<path d="M41.5769 25.5676L41.5512 24.8976C42.3901 24.764 42.9098 24.693 43.1104 24.6846C43.1203 24.3747 43.126 23.9099 43.1276 23.2901C43.1297 22.4698 43.1144 21.2894 43.0819 19.7489C43.0493 18.1993 43.0291 17.1738 43.0213 16.6725L41.6406 16.5991L41.5469 15.8057C41.9206 15.8162 42.4993 15.8229 43.2832 15.8258C44.0853 15.8287 44.6823 15.8355 45.0742 15.846L45.1134 16.5298C44.9583 16.593 44.7395 16.6332 44.4569 16.6504C44.1743 16.6585 43.9966 16.6669 43.9236 16.6758C43.9503 16.9311 43.9624 17.5737 43.9598 18.6037C43.9663 19.6336 43.9679 20.773 43.9648 22.0217C43.9616 23.2704 43.9685 24.1591 43.9854 24.6878C44.1311 24.7157 44.409 24.7486 44.8191 24.7865C45.2292 24.8245 45.4843 24.8528 45.5845 24.8714L45.5554 25.5822C45.282 25.5721 44.849 25.566 44.2566 25.5638C43.9467 25.5626 43.4864 25.561 42.8757 25.5587C42.265 25.5656 41.8321 25.5686 41.5769 25.5676ZM46.4178 25.1615L46.6195 15.7013L47.3577 15.704L51.8069 24.2106L51.8096 23.1305C51.8166 20.3779 51.873 17.9035 51.9788 15.7073L52.7577 15.8605C52.853 17.8387 52.9268 21.0975 52.9791 25.6368C52.7875 25.7181 52.5868 25.7584 52.3772 25.7576C52.0673 25.7565 51.744 25.6642 51.4072 25.4806C50.8534 24.6218 50.1639 23.366 49.3386 21.7133C48.5225 20.0605 47.942 18.9282 47.5972 18.3162C47.6048 18.936 47.6065 20.0663 47.6023 21.7069C47.6073 23.3475 47.6223 24.5917 47.6475 25.4395C47.5648 25.7217 47.4049 25.8624 47.168 25.8616C47.0039 25.861 46.8446 25.792 46.69 25.6547C46.5445 25.5175 46.4537 25.3531 46.4178 25.1615ZM53.9246 24.7926L54.1179 24.0277C54.9098 24.459 55.6886 24.676 56.4542 24.6788C57.001 24.6808 57.4662 24.5732 57.8495 24.3558C58.242 24.1294 58.4389 23.7655 58.4402 23.2642C58.4413 22.8176 58.2783 22.4114 57.9511 22.0456C57.6239 21.6707 57.2283 21.3411 56.7641 21.0569C56.3 20.7726 55.8359 20.4838 55.3718 20.1904C54.9077 19.888 54.5121 19.5219 54.1851 19.0923C53.8581 18.6536 53.6953 18.17 53.6966 17.6413C53.6982 16.9942 53.9321 16.4071 54.3983 15.8802C54.8645 15.3442 55.4257 15.0773 56.082 15.0797C56.5833 15.0816 57.139 15.1839 57.7492 15.3866C58.3685 15.5894 58.8875 15.7919 59.3062 15.9939L59.1408 16.5402C58.1026 16.1809 57.2281 16 56.5172 15.9974C56.0797 15.9957 55.7056 16.1357 55.395 16.4171C55.0844 16.6985 54.9285 17.0625 54.9274 17.5091C54.9265 17.8463 55.0124 18.152 55.1848 18.4261C55.3573 18.7001 55.58 18.9379 55.853 19.1395C56.135 19.341 56.4444 19.5381 56.7812 19.7308C57.127 19.9234 57.4683 20.1298 57.805 20.3498C58.1417 20.5697 58.4464 20.8078 58.7192 21.0641C59.0011 21.3203 59.2281 21.6447 59.4003 22.0373C59.5725 22.4207 59.658 22.854 59.6568 23.337C59.6551 24.0206 59.4349 24.5804 58.9963 25.0163C58.5577 25.443 57.9875 25.6551 57.2857 25.6526C56.6841 25.6504 56.0418 25.566 55.3586 25.3994C54.6846 25.2238 54.2066 25.0215 53.9246 24.7926ZM59.9478 16.4201L59.8126 15.8044L65.036 15.5227C65.2638 15.5327 65.455 15.6154 65.6096 15.7709C65.7641 15.9264 65.8412 16.0953 65.8407 16.2776C65.8404 16.3961 65.7946 16.5008 65.7032 16.5916C65.6118 16.6824 65.475 16.7366 65.2926 16.7541L62.9961 16.6227C63.2158 19.8409 63.377 22.7673 63.4797 25.4018C63.397 25.675 63.2417 25.8111 63.0138 25.8103C62.8498 25.8097 62.6904 25.7408 62.5358 25.6035C62.3812 25.4753 62.2859 25.3154 62.2499 25.1239C62.2694 24.6318 62.2804 23.8844 62.283 22.8818C62.2839 22.5081 62.2808 21.9476 62.2735 21.2001C62.2754 20.4527 62.2769 19.8922 62.2778 19.5185C62.2805 18.4339 62.3013 17.4541 62.3399 16.5793C61.3102 16.5026 60.5128 16.4495 59.9478 16.4201ZM67.9203 15.711L68.9592 15.7832C69.2115 16.9143 69.7315 18.5159 70.5193 20.5878C71.307 22.6506 71.8272 24.1929 72.0798 25.2146C72.0791 25.479 72.0331 25.6747 71.9416 25.802C71.8501 25.9384 71.736 26.0063 71.5993 26.0058C71.4808 26.0054 71.367 25.9549 71.2579 25.8542C71.1578 25.7627 71.0898 25.6303 71.0538 25.457C70.9728 25.0556 70.7105 24.2526 70.2669 23.0478C68.3899 22.8039 67.21 22.6538 66.727 22.5973C66.6077 22.925 66.4605 23.4577 66.2855 24.1953C66.1105 24.933 65.9724 25.4429 65.8715 25.7251C65.7343 25.8886 65.5792 25.9701 65.406 25.9695C65.2146 25.9688 65.0508 25.8816 64.9145 25.7079C64.7782 25.5433 64.7103 25.338 64.711 25.0919C65.0053 24.0266 65.5379 22.4608 66.3088 20.3946C67.0797 18.3284 67.6168 16.7672 67.9203 15.711ZM68.3953 17.0936C68.2102 18.1958 67.7003 19.8118 66.8654 21.9416L68.3967 21.9472C69.0894 21.9497 69.6681 21.9746 70.1328 22.0219C69.1991 20.0042 68.6199 18.3614 68.3953 17.0936ZM77.1042 22.5123L76.9554 21.8965C77.1378 21.8699 77.5663 21.8304 78.2409 21.7782C78.9155 21.7169 79.3395 21.6683 79.5127 21.6325L79.5017 25.9801L78.4348 26.195C78.4259 26.1038 78.4219 25.8896 78.4227 25.5523C78.4236 25.206 78.4196 24.9827 78.4107 24.8824C78.4107 24.9006 78.3787 24.9552 78.3146 25.0461C78.2506 25.1279 78.1501 25.2323 78.0131 25.3594C77.876 25.4865 77.7162 25.609 77.5336 25.7268C77.351 25.8446 77.1183 25.944 76.8356 26.025C76.5528 26.106 76.2565 26.146 75.9466 26.1448C73.7318 26.1367 72.6287 24.41 72.6374 20.9647C72.6389 20.3722 72.686 19.7982 72.7785 19.2425C72.8711 18.6778 73.0275 18.1132 73.2477 17.5489C73.4678 16.9846 73.7971 16.5301 74.2355 16.1854C74.683 15.8407 75.2121 15.6694 75.8227 15.6717C76.3514 15.6736 76.898 15.7667 77.4627 15.9511C78.0273 16.1355 78.5098 16.3651 78.9101 16.64L78.3617 17.2669C77.6521 16.7357 76.9509 16.4688 76.2582 16.4662C75.8025 16.4646 75.4103 16.5725 75.0816 16.79C74.7529 17.0076 74.5016 17.271 74.3277 17.5802C74.1628 17.8895 74.0297 18.281 73.9282 18.7546C73.8359 19.2282 73.7756 19.6381 73.7474 19.9844C73.7282 20.3307 73.7181 20.7362 73.7169 21.2011C73.7141 22.3131 73.9169 23.2253 74.3252 23.9377C74.7336 24.641 75.2659 24.9939 75.9222 24.9963C76.2047 24.9973 76.4783 24.9528 76.7428 24.8626C77.0165 24.7724 77.2492 24.6639 77.4409 24.537C77.6326 24.4101 77.8062 24.2786 77.9614 24.1424C78.1167 24.0063 78.231 23.8928 78.3041 23.8019C78.3864 23.7111 78.4275 23.6565 78.4276 23.6383L78.4298 22.7633L77.1042 22.5123ZM86.9531 25.9117L87.1704 26.4731C86.7603 26.4625 86.3322 26.3287 85.8863 26.0719C85.4403 25.8151 85.0218 25.4945 84.6309 25.1103C84.2491 24.7169 83.9037 24.3237 83.5948 23.9307C83.2951 23.5285 83.0363 23.1356 82.8185 22.752L81.7387 22.625C81.7553 23.2905 81.7891 24.3251 81.8403 25.7289C81.7575 26.0112 81.5977 26.1519 81.3607 26.151C81.1966 26.1504 81.0373 26.0815 80.8827 25.9442C80.7372 25.816 80.6464 25.6562 80.6105 25.4647C80.6397 24.6991 80.6709 23.209 80.7038 20.9943C80.7459 18.7796 80.7958 17.0662 80.8535 15.8542L81.4692 15.6924C81.4684 15.984 81.4726 16.1481 81.4816 16.1846C82.002 15.8401 82.7316 15.6696 83.6704 15.6731C84.6821 15.6768 85.4378 15.9986 85.9375 16.6384C86.4372 17.2692 86.6856 18.1542 86.6827 19.2935C86.6817 19.7128 86.6305 20.1182 86.5293 20.5098C86.428 20.8922 86.2767 21.2517 86.0754 21.5882C85.8831 21.9247 85.6135 22.2017 85.2666 22.4192C84.9197 22.6367 84.5229 22.7628 84.0762 22.7977C84.3935 23.4642 84.8203 24.1129 85.3564 24.7438C85.8926 25.3747 86.4248 25.764 86.9531 25.9117ZM81.6023 17.1011L81.7009 21.3671C82.2015 21.6423 82.7799 21.7812 83.4362 21.7836C84.0651 21.7859 84.5989 21.5509 85.0376 21.0785C85.4763 20.6062 85.6965 20.0282 85.6982 19.3446C85.7001 18.6063 85.4739 17.9401 85.0197 17.346C84.5655 16.7519 83.9966 16.4536 83.313 16.4511C82.757 16.449 82.1868 16.6657 81.6023 17.1011ZM90.5197 15.7939L91.5586 15.8661C91.811 16.9972 92.331 18.5987 93.1187 20.6707C93.9065 22.7334 94.4267 24.2757 94.6793 25.2975C94.6786 25.5618 94.6325 25.7576 94.5411 25.8849C94.4496 26.0213 94.3355 26.0892 94.1988 26.0887C94.0803 26.0883 93.9665 26.0377 93.8573 25.9371C93.7573 25.8456 93.6893 25.7131 93.6533 25.5398C93.5723 25.1385 93.31 24.3354 92.8664 23.1307C90.9894 22.8868 89.8094 22.7367 89.3265 22.6802C89.2072 23.0079 89.06 23.5406 88.885 24.2782C88.7099 25.0158 88.5719 25.5258 88.4709 25.8079C88.3338 25.9715 88.1786 26.053 88.0055 26.0523C87.8141 26.0516 87.6502 25.9644 87.5139 25.7908C87.3776 25.6262 87.3098 25.4209 87.3104 25.1748C87.6048 24.1094 88.1374 22.5437 88.9083 20.4775C89.6791 18.4113 90.2163 16.8501 90.5197 15.7939ZM90.9947 17.1765C90.8097 18.2787 90.2997 19.8947 89.4649 22.0244L90.9961 22.0301C91.6888 22.0326 92.2675 22.0575 92.7323 22.1048C91.7986 20.087 91.2194 18.4443 90.9947 17.1765ZM104.727 25.7582L103.688 25.8501C103.194 22.7037 102.659 20.0084 102.081 17.764C101.779 18.4739 101.443 19.4753 101.076 20.7682C100.717 22.052 100.469 22.8851 100.331 23.2674C100.313 23.2674 100.281 23.2718 100.235 23.2807C100.199 23.2806 100.167 23.2805 100.139 23.2804C100.012 23.2799 99.8023 23.2655 99.5107 23.2371C99.2191 23.2087 99.0323 23.1943 98.9502 23.194C98.9418 22.9296 98.7116 22.0492 98.2597 20.5528C97.8077 19.0472 97.5367 18.0846 97.4467 17.665C97.2789 19.141 96.634 21.8274 95.5122 25.7244L94.6647 25.6392C94.7949 24.6462 95.1133 23.0842 95.62 20.9533C96.1267 18.8223 96.4271 17.1736 96.5212 16.0073C96.6853 15.9897 96.8175 15.9811 96.9177 15.9814C97.0089 15.9818 97.346 16.0195 97.9291 16.0945C98.0567 16.1132 98.2379 16.5286 98.4729 17.3407C98.7169 18.1436 98.9608 19.0287 99.2044 19.9957C99.4481 20.9627 99.6016 21.533 99.6649 21.7064C99.9217 21.0784 100.23 20.0587 100.589 18.6472C100.957 17.2358 101.214 16.339 101.361 15.9567C101.507 15.9664 101.967 16.0091 102.742 16.0848C102.976 17.0063 103.202 18.0006 103.418 19.0678C103.643 20.135 103.881 21.3481 104.133 22.7071C104.394 24.0662 104.592 25.0832 104.727 25.7582Z" fill="white"/>
</svg>
