<svg width="240" height="50" viewBox="0 0 240 50" fill="none" xmlns="http://www.w3.org/2000/svg">
<path d="M4.87491 35.1044L1.75665 30.2118L0.0299424 10.6414C1.53454 7.85536 6.78807 2.12015 15.7654 1.4678C26.987 0.652365 32.1777 -0.172465 45.0738 0.0313937C57.9699 0.235252 189.682 0.440871 194.219 0.440871C198.757 0.440871 221.232 -0.170538 227.211 2.88717C231.994 5.33334 236.385 10.0222 237.983 12.0608C237.506 12.4685 236.841 13.7323 237.992 15.5263C239.144 17.3202 239.756 20.0791 239.919 21.2343C239.284 21.9138 238.015 23.436 238.016 24.0883C238.019 24.9038 233.721 25.1076 235.873 26.1269C237.595 26.9423 238.031 29.3207 238.034 30.4079C236.365 31.4272 232.264 33.5066 229.208 33.6697C226.151 33.8328 223.479 34.5531 222.524 34.8928L222.529 36.5238C223.963 36.7956 226.544 37.4207 225.398 37.7468C223.966 38.1546 222.531 37.1353 221.338 37.7468C220.146 38.3584 218.478 39.5816 219.912 39.9893C220.353 40.365 220.784 40.5524 221.171 40.6253C221.644 40.5276 222.157 40.4474 222.54 40.397C222.295 40.5645 221.791 40.7422 221.171 40.6253C220.367 40.7911 219.674 41.0071 219.915 41.2124C220.298 41.5386 221.828 42.0279 222.545 42.2317L223.743 43.4549H219.922C217.82 43.4549 218.253 44.678 218.733 45.2896C218.176 45.4255 216.728 45.6158 215.39 45.2896C213.717 44.8819 214.435 45.4935 211.57 45.6973C209.278 45.8604 196.814 45.7653 192.914 45.6973C193.231 45.4255 193.437 44.8819 191.717 44.8819C189.568 44.8819 188.307 44.8819 185.681 45.2896C183.056 45.6973 47.5881 44.8801 39.4686 44.8801C32.9731 44.8801 41.2273 43.8702 40.0333 43.8702C36.2939 44.5498 23.3411 45.868 17.8003 45.7049C10.8743 45.5011 4.89843 43.4625 4.89785 43.2586C4.89739 43.0956 3.62058 41.9675 2.98224 41.4239C3.62001 41.7637 4.89498 42.2394 4.89269 41.4239C4.89039 40.6085 3.61007 38.2301 2.97019 37.1429L4.87491 35.1044Z" fill="#FDA3C4"/>
<path d="M9.44493 46.7242C8.68075 46.7242 8.6512 47.5397 8.73195 47.9474L7.18028 48.1513C6.42597 48.8308 5.06052 50.1491 5.6332 49.986C6.20588 49.8229 7.30313 49.3744 7.78017 49.1705C8.09781 48.8987 10.2615 48.3551 16.3749 48.3551C24.0167 48.3551 23.2992 47.9474 24.0156 47.9474C24.732 47.9474 10.4002 46.7242 9.44493 46.7242Z" fill="#FDA3C4"/>
<path d="M55.2326 16.1004L60.0314 16.1147C60.1914 17.4003 60.2861 19.187 60.3154 21.4749C60.3538 23.7537 60.3947 25.2623 60.4379 26.0007C60.355 26.283 60.1951 26.4238 59.9581 26.4231C59.794 26.4226 59.6347 26.3538 59.4802 26.2166C59.3348 26.0794 59.2442 25.9151 59.2083 25.7236C59.2106 24.9853 59.1925 23.4859 59.154 21.2254C59.1156 18.9557 59.0971 17.5748 59.0987 17.0826C58.8981 17.082 58.57 17.0947 58.1142 17.1207C57.6675 17.1467 57.3074 17.1593 57.034 17.1585C56.5965 17.1572 56.2593 17.1471 56.0223 17.1282C56.0222 17.1555 56.05 18.4909 56.1055 21.1343C56.1701 23.7777 56.2106 25.3957 56.227 25.9882C56.1441 26.2705 55.9841 26.4113 55.7472 26.4106C55.5831 26.4101 55.4238 26.3413 55.2693 26.2041C55.1239 26.067 55.0332 25.9026 54.9974 25.7111C55.0272 24.9273 55.0547 23.4053 55.0801 21.1449C55.1145 18.8846 55.1653 17.2031 55.2326 16.1004ZM61.8082 16.2977L62.4239 16.1354C62.423 16.4271 62.427 16.5912 62.436 16.6276C62.9567 16.2828 63.6864 16.1118 64.6252 16.1146C65.6369 16.1176 66.3924 16.4388 66.8917 17.0783C67.391 17.7087 67.6389 18.5936 67.6353 19.7329C67.6322 20.7446 67.3834 21.5824 66.8892 22.2463C66.3949 22.9102 65.651 23.2407 64.6575 23.2378C64.4935 23.2373 63.8374 23.1807 62.6893 23.0679C62.7054 23.7333 62.7387 24.7679 62.789 26.1717C62.706 26.454 62.5461 26.5948 62.3091 26.5941C62.145 26.5936 61.9858 26.5248 61.8312 26.3876C61.6858 26.2596 61.5952 26.0998 61.5593 25.9083C61.589 25.1427 61.6211 23.6526 61.6553 21.4379C61.6987 19.2231 61.7497 17.5097 61.8082 16.2977ZM62.5562 17.544L62.6522 21.8099C63.1527 22.0849 63.731 22.2233 64.3873 22.2252C65.0162 22.2271 65.5501 21.9917 65.9891 21.5191C66.4281 21.0464 66.6486 20.4683 66.6508 19.7847C66.6531 19.0464 66.4273 18.3804 65.9734 17.7866C65.5196 17.1928 64.9508 16.8949 64.2673 16.8928C63.7113 16.8912 63.1409 17.1082 62.5562 17.544ZM68.7644 21.5546C68.7654 21.2447 68.7661 21.0123 68.7666 20.8574C68.7671 20.6933 68.7724 20.4472 68.7826 20.1191C68.8018 19.791 68.8209 19.5313 68.8397 19.34C68.8676 19.1487 68.9049 18.9027 68.9514 18.602C68.9979 18.2923 69.0579 18.0464 69.1314 17.8643C69.2049 17.6731 69.2876 17.4591 69.3795 17.2224C69.4805 16.9858 69.6042 16.7947 69.7505 16.6493C69.8968 16.5039 70.0567 16.3677 70.2303 16.2406C70.4039 16.1044 70.6093 16.0047 70.8464 15.9416C71.0836 15.8785 71.3435 15.8474 71.626 15.8482C72.1911 15.8499 72.683 15.9653 73.1015 16.1944C73.5201 16.4144 73.8474 16.6934 74.0833 17.0313C74.3192 17.3692 74.5047 17.7845 74.6399 18.2771C74.7842 18.7697 74.8739 19.2394 74.9089 19.6861C74.9531 20.1328 74.9744 20.6251 74.9727 21.1629C74.9715 21.5274 74.9614 21.8555 74.9422 22.1471C74.9322 22.4388 74.9038 22.7714 74.8571 23.1449C74.8195 23.5094 74.7592 23.8328 74.6763 24.1151C74.6025 24.3974 74.4968 24.6842 74.3592 24.9755C74.2216 25.2577 74.0568 25.4941 73.8648 25.685C73.6819 25.8667 73.449 26.0164 73.1661 26.1341C72.8832 26.2517 72.5685 26.31 72.2222 26.309C71.6571 26.3073 71.1696 26.2375 70.7599 26.0996C70.3593 25.9617 70.0272 25.7693 69.7637 25.5224C69.5092 25.2756 69.3052 24.9514 69.1515 24.5499C69.0069 24.1484 68.9035 23.7106 68.8411 23.2365C68.7879 22.7624 68.7624 22.2017 68.7644 21.5546ZM73.9867 21.6795C73.9881 21.2329 73.9531 20.7679 73.8817 20.2846C73.8194 19.8014 73.7071 19.2815 73.5448 18.725C73.3916 18.1686 73.1423 17.7167 72.7971 17.3693C72.4518 17.0128 72.0377 16.8338 71.5546 16.8324C71.19 16.8313 70.8657 17.0764 70.5816 17.5678C70.3066 18.0501 70.1089 18.5963 69.9885 19.2067C69.8682 19.8079 69.8071 20.3774 69.8055 20.9151C69.8043 21.2888 69.8034 21.5759 69.8028 21.7764C69.8113 21.9679 69.8286 22.2459 69.8548 22.6106C69.8811 22.9661 69.9166 23.2488 69.9616 23.4586C70.0156 23.6684 70.0969 23.9101 70.2054 24.1839C70.3139 24.4577 70.4408 24.6722 70.5862 24.8276C70.7407 24.9739 70.9362 25.1066 71.1728 25.2258C71.4186 25.3359 71.6918 25.396 71.9926 25.406C72.658 25.3715 73.156 24.9993 73.4863 24.2893C73.8167 23.5794 73.9834 22.7094 73.9867 21.6795ZM74.7753 27.4377L74.381 26.7256C74.8834 26.3898 75.313 26.0037 75.6698 25.5673C76.0267 25.1217 76.3061 24.6805 76.508 24.2436C76.7099 23.7976 76.871 23.2922 76.9912 22.7274C77.1115 22.1627 77.186 21.6434 77.2149 21.1695C77.2528 20.6865 77.2728 20.1306 77.2748 19.5017C77.2758 19.1736 77.2865 18.6677 77.3069 17.9842C77.3364 17.2916 77.3517 16.763 77.3529 16.3984C77.6173 16.3536 78.023 16.332 78.5699 16.3336C78.7977 16.3343 79.144 16.3445 79.6088 16.3641C80.0736 16.3746 80.4245 16.3802 80.6615 16.3809C81.099 16.3822 81.5001 16.3651 81.8648 16.3297C81.9723 16.9407 82.024 17.8979 82.0199 19.2013C82.0188 19.5477 82.0125 20.0945 82.0011 20.8419C81.9896 21.5801 81.9833 22.1407 81.9821 22.5235C81.9774 24.0183 82.0374 25.2489 82.162 26.2154C82.079 26.4977 81.9237 26.6385 81.6958 26.6379C81.5317 26.6374 81.3724 26.5686 81.2179 26.4314C81.0634 26.3033 80.9682 26.1435 80.9323 25.952C80.9528 25.2411 80.9636 24.6988 80.9647 24.3252C80.9664 23.7965 80.9553 22.967 80.9315 21.8368C80.9168 20.7065 80.9105 19.8315 80.9124 19.2117C80.915 18.3732 80.9261 17.7488 80.9456 17.3387C80.7269 17.3199 80.3487 17.3051 79.811 17.2944C79.2733 17.2837 78.8632 17.2596 78.5807 17.2224C78.4972 17.6961 78.4269 18.3157 78.3698 19.0811C78.3219 19.8375 78.2788 20.5118 78.2405 21.1042C78.2113 21.6874 78.1272 22.3343 77.9883 23.0448C77.8585 23.7463 77.6788 24.3564 77.4493 24.8753C77.229 25.3942 76.8902 25.8854 76.433 26.3488C75.9849 26.8215 75.4323 27.1844 74.7753 27.4377ZM83.3112 21.5977C83.3122 21.2878 83.3129 21.0554 83.3134 20.9005C83.3139 20.7364 83.3192 20.4903 83.3294 20.1622C83.3486 19.8341 83.3677 19.5744 83.3865 19.3831C83.4144 19.1918 83.4517 18.9458 83.4982 18.6451C83.5447 18.3354 83.6047 18.0895 83.6782 17.9074C83.7517 17.7162 83.8344 17.5022 83.9263 17.2655C84.0273 17.0289 84.151 16.8378 84.2973 16.6924C84.4436 16.547 84.6035 16.4108 84.7771 16.2837C84.9507 16.1475 85.1561 16.0478 85.3932 15.9847C85.6304 15.9216 85.8903 15.8905 86.1728 15.8913C86.7379 15.893 87.2298 16.0084 87.6483 16.2375C88.0669 16.4575 88.3942 16.7365 88.6301 17.0744C88.866 17.4123 89.0516 17.8276 89.1867 18.3202C89.331 18.8128 89.4207 19.2825 89.4558 19.7292C89.4999 20.1759 89.5212 20.6682 89.5195 21.206C89.5183 21.5705 89.5082 21.8986 89.4891 22.1902C89.479 22.4819 89.4506 22.8145 89.4039 23.188C89.3663 23.5525 89.306 23.8759 89.2231 24.1582C89.1493 24.4405 89.0436 24.7273 88.906 25.0186C88.7684 25.3007 88.6036 25.5372 88.4116 25.7281C88.2287 25.9098 87.9958 26.0595 87.7129 26.1772C87.43 26.2948 87.1153 26.3531 86.769 26.3521C86.2039 26.3504 85.7165 26.2806 85.3067 26.1427C84.9061 26.0048 84.574 25.8124 84.3105 25.5655C84.0561 25.3187 83.852 24.9945 83.6983 24.593C83.5537 24.1915 83.4503 23.7537 83.388 23.2796C83.3348 22.8055 83.3092 22.2448 83.3112 21.5977ZM88.5335 21.7226C88.5349 21.276 88.4999 20.811 88.4285 20.3277C88.3662 19.8445 88.2539 19.3246 88.0916 18.7681C87.9384 18.2117 87.6891 17.7598 87.3439 17.4124C86.9986 17.0559 86.5845 16.8769 86.1014 16.8755C85.7368 16.8744 85.4125 17.1195 85.1284 17.6109C84.8534 18.0932 84.6558 18.6394 84.5354 19.2498C84.415 19.851 84.354 20.4205 84.3523 20.9582C84.3511 21.3319 84.3502 21.619 84.3496 21.8195C84.3581 22.011 84.3754 22.289 84.4016 22.6537C84.4279 23.0092 84.4634 23.2919 84.5084 23.5017C84.5624 23.7115 84.6437 23.9532 84.7522 24.227C84.8607 24.5008 84.9876 24.7153 85.133 24.8707C85.2875 25.017 85.483 25.1497 85.7196 25.2689C85.9654 25.379 86.2386 25.4391 86.5394 25.4491C87.2049 25.4146 87.7028 25.0424 88.0331 24.3324C88.3635 23.6225 88.5303 22.7525 88.5335 21.7226ZM95.2865 22.016C94.931 22.015 94.6253 22.128 94.3694 22.3551C94.1135 22.5731 93.9167 22.8505 93.7789 23.1873C93.6503 23.5242 93.5078 23.8884 93.3517 24.2798C93.2046 24.6713 93.0531 25.0354 92.8971 25.3722C92.7502 25.709 92.526 25.9864 92.2245 26.2042C91.9322 26.4312 91.5763 26.5441 91.1571 26.5429C90.7196 26.5416 90.2595 26.4673 89.7769 26.32L89.8195 25.8006C90.2567 25.9113 90.6074 25.967 90.8718 25.9678C91.1543 25.9686 91.3962 25.86 91.5974 25.6418C91.7986 25.4237 91.9498 25.1507 92.0511 24.8228C92.1615 24.495 92.2903 24.1308 92.4374 23.7302C92.5845 23.3205 92.7361 22.9336 92.8922 22.5695C93.0574 22.2054 93.3 21.878 93.6199 21.5872C93.9398 21.2965 94.3187 21.1017 94.7565 21.0027C94.2647 20.8828 93.8507 20.6491 93.5145 20.3018C93.1784 19.9453 92.9244 19.5617 92.7525 19.1511C92.5806 18.7404 92.4178 18.3343 92.2641 17.9328C92.1196 17.5313 91.9383 17.1981 91.7204 16.9332C91.5025 16.6682 91.234 16.5352 90.915 16.5343C90.8968 16.5342 90.5776 16.5834 89.9575 16.6818L89.8225 16.1346C90.6068 15.9911 91.1311 15.9197 91.3954 15.9205C91.8056 15.9217 92.156 16.0686 92.4468 16.3611C92.7467 16.6445 92.9871 16.9916 93.1681 17.4023C93.3491 17.813 93.5256 18.2237 93.6975 18.6343C93.8785 19.045 94.1053 19.3966 94.3778 19.6891C94.6594 19.9725 94.9962 20.1193 95.3881 20.1296L95.4824 16.206L96.1656 16.3448C96.1736 16.6911 96.1944 17.3247 96.228 18.2453C96.2707 19.166 96.2961 19.795 96.3041 20.1323C96.6961 20.1243 97.0292 19.9795 97.3035 19.6978C97.587 19.4069 97.816 19.0567 97.9904 18.6471C98.174 18.2374 98.3576 17.8278 98.5412 17.4182C98.7247 17.0086 98.9628 16.6629 99.2554 16.3813C99.557 16.0905 99.913 15.9457 100.323 15.9469C100.587 15.9477 101.111 16.0222 101.895 16.1703L101.756 16.7168C101.137 16.6147 100.813 16.5636 100.786 16.5635C100.467 16.5626 100.198 16.6939 99.9782 16.9576C99.7586 17.2213 99.5753 17.5534 99.4282 17.954C99.2811 18.3547 99.1203 18.7598 98.9458 19.1694C98.7714 19.5791 98.515 19.9611 98.1766 20.3156C97.8383 20.6609 97.4229 20.8921 96.9303 21.0092C97.3675 21.1107 97.7451 21.3078 98.0632 21.6004C98.3813 21.893 98.6173 22.2218 98.7711 22.5869C98.9249 22.9519 99.074 23.3397 99.2186 23.7503C99.3632 24.1518 99.4896 24.5168 99.598 24.8452C99.7063 25.1737 99.8559 25.4475 100.047 25.6668C100.246 25.8862 100.488 25.9963 100.77 25.9971C101.044 25.9979 101.399 25.9443 101.837 25.8362L101.876 26.3559C101.393 26.5003 100.932 26.5718 100.495 26.5705C100.076 26.5693 99.716 26.4543 99.4159 26.2255C99.1249 26.0059 98.9025 25.7273 98.7486 25.3896C98.6038 25.0519 98.4546 24.6869 98.3009 24.2945C98.1563 23.9021 98.0161 23.5371 97.8805 23.1995C97.7539 22.8619 97.5634 22.5833 97.3089 22.3638C97.0544 22.1352 96.7494 22.0203 96.3939 22.0193L96.4631 26.1347C96.3801 26.4171 96.2202 26.5579 95.9832 26.5572C95.8192 26.5567 95.6599 26.4878 95.5053 26.3507C95.3599 26.2135 95.2693 26.0492 95.2335 25.8577C95.2526 25.5569 95.2703 24.2764 95.2865 22.016ZM102.387 16.2128L103.002 16.3513C103.088 17.8555 103.185 20.3578 103.292 23.8581C105.08 20.7006 106.309 18.1613 106.98 16.2401C107.118 16.1311 107.25 16.0768 107.377 16.0772C107.578 16.0778 107.742 16.1968 107.869 16.4341C108.004 16.6715 108.077 16.9406 108.085 17.2414C108.109 18.0891 108.128 19.5202 108.14 21.5346C108.161 23.549 108.192 25.053 108.235 26.0466C108.152 26.3198 107.997 26.456 107.769 26.4554C107.605 26.4549 107.445 26.386 107.291 26.2489C107.136 26.1208 107.041 25.961 107.005 25.7695C107.035 24.9766 107.053 23.7599 107.058 22.1192C107.072 20.4787 107.085 19.3713 107.095 18.7971C106.894 19.1428 106.541 19.798 106.037 20.7627C105.532 21.7274 105.065 22.5554 104.634 23.2468C104.213 23.9383 103.778 24.5386 103.33 25.0477L103.381 26.1552C103.298 26.4376 103.138 26.5784 102.901 26.5777C102.737 26.5772 102.578 26.5083 102.423 26.3712C102.278 26.234 102.187 26.0697 102.151 25.8782C102.181 25.1035 102.213 23.586 102.248 21.3257C102.282 19.0654 102.328 17.3611 102.387 16.2128ZM108.96 17.0799L108.825 16.4643L114.049 16.179C114.277 16.1888 114.468 16.2714 114.622 16.4268C114.777 16.5822 114.854 16.751 114.853 16.9333C114.853 17.0518 114.807 17.1565 114.716 17.2474C114.624 17.3383 114.487 17.3925 114.305 17.4102L112.008 17.2804C112.226 20.4985 112.386 23.4248 112.487 26.0592C112.404 26.3324 112.249 26.4686 112.021 26.468C111.857 26.4675 111.697 26.3986 111.543 26.2615C111.388 26.1334 111.293 25.9736 111.257 25.7821C111.277 25.29 111.288 24.5426 111.292 23.54C111.293 23.1663 111.29 22.6057 111.283 21.8583C111.286 21.1109 111.287 20.5504 111.288 20.1767C111.292 19.0921 111.313 18.1123 111.352 17.2374C110.323 17.1614 109.525 17.109 108.96 17.0799ZM115.607 16.2246L116.222 16.3632C116.231 16.5364 116.286 17.8992 116.387 20.4516C116.633 20.4158 116.907 20.3984 117.208 20.3993C118.411 20.4029 119.394 20.7476 120.158 21.4334C120.921 22.1102 121.301 22.9043 121.299 23.8157C121.293 25.666 120.146 26.5877 117.858 26.581C117.266 26.5792 116.724 26.532 116.232 26.4394C115.74 26.3468 115.458 26.232 115.385 26.0951C115.415 25.3296 115.443 23.7802 115.468 21.4469C115.494 19.1045 115.54 17.3638 115.607 16.2246ZM116.452 21.4772C116.51 23.4187 116.552 24.7131 116.577 25.3604C117.206 25.4442 117.757 25.4869 118.231 25.4883C119.507 25.4921 120.147 24.8879 120.151 23.6756C120.153 23.0467 119.881 22.5173 119.335 22.0873C118.799 21.6482 118.089 21.4273 117.204 21.4247C116.931 21.4239 116.68 21.4414 116.452 21.4772ZM135.537 26.3325L134.497 26.4252C134.006 23.2792 133.472 20.5842 132.896 18.3403C132.593 19.0504 132.257 20.052 131.888 21.3452C131.529 22.6292 131.28 23.4625 131.142 23.8449C131.124 23.8449 131.092 23.8493 131.047 23.8583C131.01 23.8582 130.978 23.8581 130.951 23.858C130.823 23.8576 130.614 23.8433 130.322 23.8151C130.03 23.7869 129.844 23.7727 129.762 23.7725C129.753 23.5081 129.524 22.6279 129.073 21.1317C128.622 19.6265 128.351 18.6641 128.261 18.2446C128.093 19.7206 127.446 22.4075 126.322 26.3052L125.475 26.2207C125.605 25.2276 125.925 23.6654 126.433 21.5341C126.941 19.4028 127.242 17.7539 127.337 16.5875C127.501 16.5698 127.633 16.561 127.733 16.5613C127.825 16.5616 128.162 16.5991 128.745 16.6737C128.872 16.6923 129.053 17.1076 129.288 17.9195C129.531 18.7223 129.775 19.6071 130.018 20.574C130.261 21.5409 130.414 22.111 130.477 22.2843C130.734 21.6562 131.043 20.6363 131.403 19.2246C131.772 17.8129 132.03 16.9159 132.177 16.5335C132.323 16.543 132.783 16.5854 133.557 16.6606C133.791 17.5819 134.016 18.5761 134.232 19.6431C134.456 20.7102 134.694 21.9231 134.945 23.282C135.205 24.6408 135.402 25.6577 135.537 26.3325ZM138.753 16.4299L139.792 16.5014C140.044 17.6323 140.563 19.2335 141.35 21.3048C142.136 23.3671 142.655 24.909 142.907 25.9306C142.906 26.1949 142.86 26.3907 142.769 26.518C142.677 26.6545 142.563 26.7225 142.426 26.7221C142.308 26.7217 142.194 26.6713 142.085 26.5707C141.985 26.4793 141.917 26.3469 141.881 26.1736C141.8 25.7723 141.539 24.9695 141.096 23.765C139.219 23.5225 138.039 23.3732 137.556 23.317C137.437 23.6448 137.289 24.1776 137.114 24.9153C136.938 25.6531 136.8 26.1631 136.699 26.4454C136.561 26.609 136.406 26.6906 136.233 26.6901C136.042 26.6895 135.878 26.6024 135.742 26.4289C135.605 26.2644 135.538 26.0591 135.538 25.813C135.833 24.7475 136.367 23.1813 137.139 21.1146C137.911 19.0479 138.449 17.4863 138.753 16.4299ZM139.228 17.8122C139.042 18.9145 138.531 20.5308 137.695 22.6612L139.226 22.6657C139.919 22.6678 140.497 22.6923 140.962 22.7392C140.03 20.7221 139.452 19.0798 139.228 17.8122ZM143.702 16.5403L144.318 16.3781C144.317 16.6697 144.321 16.8338 144.33 16.8703C144.851 16.5255 145.581 16.3544 146.519 16.3572C147.531 16.3602 148.287 16.6815 148.786 17.321C149.285 17.9514 149.533 18.8362 149.529 19.9755C149.526 20.9873 149.278 21.8251 148.783 22.489C148.289 23.1529 147.545 23.4833 146.552 23.4804C146.388 23.4799 145.732 23.4233 144.583 23.3105C144.6 23.9759 144.633 25.0105 144.683 26.4143C144.6 26.6966 144.44 26.8374 144.203 26.8367C144.039 26.8363 143.88 26.7674 143.725 26.6302C143.58 26.5022 143.489 26.3424 143.453 26.1509C143.483 25.3854 143.515 23.8952 143.55 21.6805C143.593 19.4658 143.644 17.7524 143.702 16.5403ZM144.45 17.7867L144.546 22.0526C145.047 22.3275 145.625 22.4659 146.281 22.4679C146.91 22.4697 147.444 22.2343 147.883 21.7617C148.322 21.289 148.543 20.7109 148.545 20.0273C148.547 19.289 148.321 18.623 147.868 18.0292C147.414 17.4354 146.845 17.1375 146.161 17.1355C145.605 17.1338 145.035 17.3509 144.45 17.7867ZM157.635 16.3765L158.249 16.515C158.238 17.1895 158.231 18.0872 158.227 19.2083C158.222 20.7396 158.232 22.1752 158.255 23.5151C158.287 24.855 158.303 25.6298 158.302 25.8394L158.3 26.4C157.343 26.4974 155.479 26.542 152.708 26.5338C151.587 26.5305 150.894 26.5148 150.63 26.4866C150.661 25.5024 150.711 23.8254 150.783 21.4558C150.854 19.0862 150.905 17.4093 150.935 16.425L151.55 16.5635C151.574 17.5206 151.606 19.0429 151.645 21.1302C151.693 23.2085 151.73 24.7034 151.754 25.615L153.914 25.5257C153.954 24.5232 154.018 22.9784 154.107 20.8914C154.195 18.8045 154.255 17.3281 154.285 16.4623L154.899 16.6008C154.924 17.5488 154.956 19.0391 154.995 21.0718C155.043 23.1045 155.08 24.5675 155.104 25.4608C155.359 25.4434 156.075 25.4136 157.251 25.3715C157.29 24.3872 157.354 22.8653 157.443 20.8056C157.541 18.7369 157.604 17.2605 157.635 16.3765ZM159.671 16.5876L160.287 16.4254C160.286 16.717 160.29 16.8811 160.299 16.9176C160.819 16.5728 161.549 16.4018 162.488 16.4045C163.5 16.4075 164.255 16.7288 164.755 17.3683C165.254 17.9987 165.502 18.8835 165.498 20.0229C165.495 21.0346 165.246 21.8724 164.752 22.5363C164.258 23.2002 163.514 23.5307 162.52 23.5277C162.356 23.5272 161.7 23.4706 160.552 23.3578C160.568 24.0232 160.602 25.0578 160.652 26.4616C160.569 26.744 160.409 26.8848 160.172 26.8841C160.008 26.8836 159.849 26.8147 159.694 26.6776C159.549 26.5495 159.458 26.3897 159.422 26.1982C159.452 25.4327 159.484 23.9425 159.518 21.7278C159.562 19.5131 159.613 17.7997 159.671 16.5876ZM160.419 17.834L160.515 22.0999C161.016 22.3748 161.594 22.5132 162.25 22.5152C162.879 22.5171 163.413 22.2817 163.852 21.809C164.291 21.3363 164.511 20.7582 164.514 20.0746C164.516 19.3363 164.29 18.6703 163.836 18.0765C163.382 17.4827 162.814 17.1848 162.13 17.1828C161.574 17.1811 161.004 17.3982 160.419 17.834ZM166.068 17.0987L166.781 16.4309C167.189 17.1066 167.705 18.1472 168.33 19.5527C168.954 20.9582 169.38 21.8846 169.606 22.3319C170.525 19.9922 171.219 18.1257 171.688 16.7326C171.807 16.5142 171.958 16.4053 172.14 16.4058C172.304 16.4063 172.45 16.4887 172.577 16.6532C172.704 16.8085 172.777 16.991 172.794 17.2007C172.482 17.8651 171.987 18.9483 171.307 20.4502C170.637 21.943 170.064 23.1673 169.587 24.1229C169.119 25.0694 168.619 25.9839 168.088 26.8665L167.2 26.6861L168.974 23.2324C168.649 22.3291 167.68 20.2845 166.068 17.0987ZM172.917 17.2694L172.782 16.6538L178.006 16.3685C178.234 16.3783 178.425 16.4609 178.579 16.6163C178.734 16.7717 178.811 16.9405 178.81 17.1228C178.81 17.2413 178.764 17.346 178.672 17.4369C178.581 17.5277 178.444 17.582 178.262 17.5997L175.965 17.4699C176.183 20.688 176.342 23.6142 176.444 26.2487C176.361 26.5219 176.205 26.6581 175.977 26.6574C175.813 26.657 175.654 26.5881 175.5 26.4509C175.345 26.3229 175.25 26.1631 175.214 25.9716C175.234 25.4795 175.245 24.7321 175.248 23.7295C175.249 23.3558 175.247 22.7952 175.24 22.0478C175.242 21.3004 175.244 20.7399 175.245 20.3662C175.249 19.2816 175.27 18.3018 175.309 17.4269C174.279 17.3509 173.482 17.2984 172.917 17.2694Z" fill="white"/>
</svg>
