<svg width="226" height="61" viewBox="0 0 226 61" fill="none" xmlns="http://www.w3.org/2000/svg">
<g filter="url(#filter0_d_5_3749)">
<path d="M8.71469 39.615L5.05371 34.2331L3.0318 12.7056C4.79991 9.64093 10.9722 3.33217 21.5166 2.61458C34.6972 1.7176 40.7941 0.810288 55.9411 1.03453C71.0881 1.25878 163.929 1.48496 169.259 1.48496C174.588 1.48496 200.986 0.812408 208.008 4.1759C213.625 6.86669 218.781 12.0244 220.657 14.2669C220.097 14.7154 219.316 16.1056 220.667 18.079C222.019 20.0523 222.738 23.0871 222.928 24.3578C222.182 25.1053 220.691 26.7797 220.693 27.4972C220.695 28.3942 215.647 28.6185 218.175 29.7397C220.197 30.6367 220.709 33.2529 220.712 34.4488C218.751 35.5701 213.933 37.8574 210.344 38.0368C206.754 38.2162 203.614 39.0085 202.493 39.3822L202.498 41.1763C204.182 41.4753 207.213 42.1629 205.868 42.5216C204.186 42.9701 202.5 41.8489 201.1 42.5216C199.699 43.1944 197.739 44.5399 199.423 44.9884C199.941 45.4016 200.448 45.6077 200.902 45.6879C201.458 45.5805 202.06 45.4922 202.51 45.4368C202.222 45.621 201.63 45.8166 200.902 45.6879C199.957 45.8703 199.144 46.108 199.427 46.3338C199.877 46.6926 201.673 47.2308 202.515 47.455L203.922 48.8005H199.434C196.965 48.8005 197.474 50.146 198.037 50.8187C197.383 50.9682 195.682 51.1775 194.11 50.8187C192.145 50.3702 192.989 51.043 189.623 51.2672C186.931 51.4466 172.293 51.342 167.711 51.2672C168.084 50.9682 168.326 50.3702 166.306 50.3702C163.782 50.3702 163.501 50.3702 160.417 50.8187C157.333 51.2672 58.88 50.3683 49.3434 50.3683C41.7141 50.3683 51.4094 49.2574 50.0069 49.2574C45.6146 50.0049 30.4006 51.455 23.8928 51.2756C15.758 51.0513 8.73967 48.8089 8.73906 48.5847C8.73857 48.4053 7.23926 47.1644 6.48967 46.5664C7.23865 46.9402 8.73601 47.4634 8.73357 46.5664C8.73114 45.6695 7.22809 43.0533 6.47687 41.8573L8.71469 39.615Z" fill="white"/>
<path d="M14.0787 52.3968C13.1811 52.3968 13.1462 53.2938 13.2409 53.7423L11.4183 53.9665C10.5321 54.714 8.92794 56.1641 9.60063 55.9847C10.2733 55.8053 11.5622 55.312 12.1226 55.0878C12.4958 54.7888 15.0372 54.1908 22.2177 54.1908C31.1934 54.1908 30.3507 53.7423 31.1922 53.7423C32.0336 53.7423 15.2007 52.3968 14.0787 52.3968Z" fill="white"/>
<path d="M9.59576 54.1908L11.4183 53.9665M11.4183 53.9665L13.2409 53.7423C13.1462 53.2938 13.1811 52.3968 14.0787 52.3968C15.2007 52.3968 32.0336 53.7423 31.1922 53.7423C30.3507 53.7423 31.1934 54.1908 22.2177 54.1908C15.0372 54.1908 12.4958 54.7888 12.1226 55.0878C11.5622 55.312 10.2733 55.8053 9.60063 55.9847C8.92794 56.1641 10.5321 54.714 11.4183 53.9665ZM8.71469 39.615L5.05371 34.2331L3.0318 12.7056C4.79991 9.64093 10.9722 3.33217 21.5166 2.61458C34.6972 1.7176 40.7941 0.810288 55.9411 1.03453C71.0881 1.25878 163.929 1.48496 169.259 1.48496C174.588 1.48496 200.986 0.812408 208.008 4.1759C213.625 6.86669 218.781 12.0244 220.657 14.2669C220.097 14.7154 219.316 16.1056 220.667 18.079C222.019 20.0523 222.738 23.0871 222.928 24.3578C222.182 25.1053 220.691 26.7797 220.693 27.4972C220.695 28.3942 215.647 28.6185 218.175 29.7397C220.197 30.6367 220.709 33.2529 220.712 34.4488C218.751 35.5701 213.933 37.8574 210.344 38.0368C206.754 38.2162 203.614 39.0085 202.493 39.3822L202.498 41.1763C204.182 41.4753 207.213 42.1629 205.868 42.5216C204.186 42.9701 202.5 41.8489 201.1 42.5216C199.699 43.1944 197.739 44.5399 199.423 44.9884C200.773 46.0647 202.043 45.7358 202.51 45.4368C201.295 45.5863 198.977 45.975 199.427 46.3338C199.877 46.6926 201.673 47.2308 202.515 47.455L203.922 48.8005C203.454 48.8005 201.902 48.8005 199.434 48.8005C196.965 48.8005 197.474 50.146 198.037 50.8187C197.383 50.9682 195.682 51.1775 194.11 50.8187C192.145 50.3702 192.989 51.043 189.623 51.2672C186.931 51.4466 172.293 51.342 167.711 51.2672C168.084 50.9682 168.326 50.3702 166.306 50.3702C163.782 50.3702 163.501 50.3702 160.417 50.8187C157.333 51.2672 58.88 50.3683 49.3434 50.3683C41.7141 50.3683 51.4094 49.2574 50.0069 49.2574C45.6146 50.0049 30.4006 51.455 23.8928 51.2756C15.758 51.0513 8.73967 48.8089 8.73906 48.5847C8.73857 48.4053 7.23926 47.1644 6.48967 46.5664C7.23865 46.9402 8.73601 47.4634 8.73357 46.5664C8.73114 45.6695 7.22809 43.0533 6.47687 41.8573L8.71469 39.615Z" stroke="#FDA3C4"/>
<path d="M71.2988 18.9573L71.1331 19.6539C70.6682 19.6886 70.062 19.7227 69.3145 19.7563C68.567 19.7899 67.9608 19.8194 67.4959 19.845L67.4885 22.9348C67.9536 22.809 68.3776 22.7468 68.7604 22.7483C69.7721 22.7522 70.5779 23.0926 71.1779 23.7694C71.7778 24.437 72.0766 25.2858 72.0741 26.3158C72.0727 26.89 71.8436 27.3904 71.3869 27.8171C70.9301 28.2346 70.3962 28.5379 69.7851 28.7269C69.1831 28.9069 68.5722 28.9957 67.9524 28.9933C67.1959 28.9904 66.6721 28.8516 66.3811 28.5771C66.4104 27.7933 66.4414 26.2667 66.4742 23.9973C66.507 21.7279 66.5566 20.0419 66.6231 18.9393L71.2988 18.9573ZM67.5007 23.5501C67.5006 23.5592 67.5004 23.664 67.4999 23.8646C67.4994 24.0651 67.4939 24.4752 67.4833 25.095C67.4818 25.7148 67.4798 26.5442 67.4773 27.5832C67.75 27.8942 68.1005 28.0505 68.5289 28.0521C69.094 28.0543 69.6414 27.824 70.1712 27.3612C70.701 26.8893 70.9665 26.3844 70.9678 25.8467C70.9695 25.1357 70.7202 24.5606 70.22 24.1211C69.7289 23.6726 69.1142 23.4469 68.3759 23.4441C68.1298 23.4432 67.8381 23.4785 67.5007 23.5501ZM73.1173 18.9096L73.7322 19.0487C73.7409 19.2219 73.7969 20.5848 73.9001 23.1373C74.1463 23.1017 74.4198 23.0846 74.7205 23.0857C75.9237 23.0904 76.9072 23.436 77.6712 24.1225C78.4352 24.7999 78.8161 25.5944 78.8139 26.5058C78.8094 28.3561 77.6633 29.2768 75.3756 29.268C74.7831 29.2657 74.2409 29.218 73.749 29.125C73.257 29.032 72.9747 28.9169 72.9021 28.7799C72.9313 28.0144 72.9578 26.465 72.9817 24.1318C73.0056 21.7894 73.0508 20.0487 73.1173 18.9096ZM73.966 24.1629C74.0251 26.1046 74.0676 27.399 74.0934 28.0462C74.7221 28.1307 75.2734 28.1738 75.7473 28.1757C77.0234 28.1806 77.6629 27.5769 77.6658 26.3647C77.6673 25.7358 77.3951 25.2061 76.8493 24.7756C76.3126 24.336 75.6022 24.1145 74.7181 24.1111C74.4446 24.1101 74.1939 24.1273 73.966 24.1629ZM80.4178 19.0334L81.0327 19.1725C81.059 19.601 81.1652 22.828 81.3512 28.8535C81.2685 29.1266 81.1132 29.2627 80.8854 29.2619C80.7213 29.2612 80.562 29.1923 80.4073 29.0549C80.2527 28.9267 80.1574 28.7669 80.1214 28.5753C80.1412 27.9191 80.1766 26.4701 80.2276 24.228C80.2877 21.9861 80.3511 20.2545 80.4178 19.0334ZM88.7554 19.9952L88.207 20.622C87.4973 20.0907 86.7961 19.8236 86.1034 19.821C85.6477 19.8192 85.2555 19.9271 84.9269 20.1446C84.5982 20.362 84.3469 20.6254 84.173 20.9346C84.0082 21.2439 83.8751 21.6353 83.7737 22.1089C83.6814 22.5825 83.6212 22.9924 83.593 23.3387C83.5739 23.6849 83.5638 24.0905 83.5627 24.5554C83.5616 25.0111 83.6424 25.5309 83.8051 26.1149C83.9769 26.6898 84.2627 27.2286 84.6625 27.7315C85.0623 28.2343 85.5266 28.4868 86.0552 28.4888C86.6294 28.491 87.5097 28.1936 88.696 27.5966C88.8141 27.7703 88.9684 28.058 89.1588 28.4597C88.0085 29.2483 86.9821 29.6408 86.0798 29.6373C85.4964 29.6351 84.9637 29.4553 84.4815 29.098C83.9993 28.7407 83.6175 28.288 83.3363 27.74C83.0642 27.1921 82.8514 26.6216 82.6978 26.0286C82.5535 25.4265 82.4819 24.8565 82.4832 24.3188C82.4846 23.7263 82.5316 23.1523 82.6241 22.5966C82.7166 22.0319 82.8729 21.4674 83.093 20.9031C83.3131 20.3389 83.6423 19.8844 84.0807 19.5397C84.5281 19.1951 85.0572 19.024 85.6678 19.0263C86.1965 19.0284 86.7431 19.1216 87.3078 19.3061C87.8725 19.4905 88.355 19.7203 88.7554 19.9952ZM89.453 19.8475L89.3177 19.2318L94.5411 18.9511C94.7689 18.9611 94.9601 19.0439 95.1147 19.1994C95.2693 19.355 95.3464 19.5239 95.3459 19.7062C95.3456 19.8247 95.2998 19.9293 95.2084 20.0201C95.1171 20.1109 94.9802 20.1651 94.7979 20.1826L92.5013 20.0507C92.7214 23.269 92.883 26.1954 92.986 28.83C92.9033 29.1031 92.7481 29.2392 92.5202 29.2383C92.3561 29.2377 92.1968 29.1687 92.0422 29.0314C91.8875 28.9032 91.7922 28.7433 91.7562 28.5518C91.7756 28.0597 91.7866 27.3123 91.789 26.3097C91.7899 25.936 91.7867 25.3755 91.7794 24.628C91.7812 23.8806 91.7825 23.3201 91.7834 22.9464C91.786 21.8618 91.8066 20.882 91.8452 20.0072C90.8154 19.9303 90.018 19.8771 89.453 19.8475ZM96.1264 19.2307L96.742 19.069C96.7413 19.3606 96.7454 19.5247 96.7545 19.5612C97.2748 19.2169 98.0044 19.0465 98.9432 19.0501C99.9549 19.054 100.711 19.3759 101.21 20.0159C101.71 20.6467 101.959 21.5318 101.956 22.6711C101.954 23.6828 101.705 24.5204 101.212 25.1839C100.718 25.8474 99.9742 26.1772 98.9807 26.1734C98.8167 26.1727 98.1606 26.1155 97.0124 26.0017C97.029 26.6671 97.063 27.7018 97.1143 29.1056C97.0316 29.3879 96.8717 29.5285 96.6348 29.5276C96.4707 29.527 96.3113 29.458 96.1567 29.3207C96.0112 29.1925 95.9204 29.0327 95.8844 28.8411C95.9136 28.0756 95.9446 26.5855 95.9773 24.3708C96.019 22.1561 96.0688 20.4427 96.1264 19.2307ZM96.8753 20.4777L96.9744 24.7437C97.475 25.0191 98.0535 25.1581 98.7097 25.1606C99.3386 25.163 99.8724 24.9281 100.311 24.4558C100.75 23.9835 100.97 23.4056 100.971 22.722C100.973 21.9837 100.747 21.3175 100.293 20.7233C99.8384 20.1291 99.2695 19.8307 98.5859 19.828C98.0299 19.8259 97.4597 20.0425 96.8753 20.4777ZM103.277 19.0258L103.892 19.1649C103.901 19.3381 103.957 20.701 104.06 23.2534C104.306 23.2179 104.58 23.2008 104.88 23.2019C106.084 23.2066 107.067 23.5521 107.831 24.2387C108.595 24.9161 108.976 25.7106 108.974 26.622C108.969 28.4723 107.823 29.393 105.536 29.3842C104.943 29.3819 104.401 29.3342 103.909 29.2412C103.417 29.1481 103.135 29.0331 103.062 28.8961C103.091 28.1306 103.118 26.5812 103.142 24.248C103.165 21.9056 103.211 20.1649 103.277 19.0258ZM104.126 24.2791C104.185 26.2207 104.228 27.5152 104.253 28.1624C104.882 28.2469 105.433 28.29 105.907 28.2918C107.183 28.2968 107.823 27.6931 107.826 26.4809C107.827 25.852 107.555 25.3223 107.009 24.8918C106.473 24.4522 105.762 24.2307 104.878 24.2273C104.605 24.2263 104.354 24.2435 104.126 24.2791ZM110.578 19.1496L111.193 19.2887C111.219 19.7172 111.325 22.9442 111.511 28.9697C111.428 29.2428 111.273 29.3789 111.045 29.3781C110.881 29.3774 110.722 29.3084 110.567 29.1711C110.413 29.0429 110.317 28.8831 110.281 28.6915C110.301 28.0353 110.337 26.5862 110.388 24.3442C110.448 22.1023 110.511 20.3707 110.578 19.1496ZM114.121 18.0285L114.027 17.5906C114.246 17.6188 114.46 17.6333 114.669 17.6341C115.298 17.6366 115.877 17.4656 116.407 17.1213C116.616 17.1403 116.794 17.2048 116.94 17.3147C117.094 17.4247 117.171 17.5526 117.171 17.6985C117.17 18.0357 116.719 18.2026 115.816 18.1991C115.187 18.1967 114.623 18.1398 114.121 18.0285ZM112.861 19.0901L113.476 19.2292C113.564 20.7334 113.662 23.2358 113.772 26.7362C115.557 23.5803 116.785 21.042 117.455 19.1214C117.592 19.0126 117.724 18.9584 117.852 18.9589C118.052 18.9597 118.216 19.0788 118.343 19.3163C118.479 19.5538 118.551 19.8229 118.56 20.1237C118.585 20.9715 118.604 22.4026 118.618 24.417C118.64 26.4314 118.673 27.9354 118.716 28.9291C118.634 29.2022 118.478 29.3383 118.25 29.3375C118.086 29.3368 117.927 29.2678 117.772 29.1305C117.618 29.0023 117.523 28.8425 117.487 28.6509C117.516 27.858 117.532 26.6413 117.536 25.0007C117.549 23.3601 117.561 22.2527 117.572 21.6785C117.37 22.0241 117.018 22.679 116.514 23.6432C116.011 24.6074 115.544 25.4351 115.114 26.1261C114.693 26.8172 114.258 27.4171 113.811 27.9258L113.863 29.0334C113.78 29.3157 113.62 29.4563 113.383 29.4554C113.219 29.4548 113.06 29.3858 112.905 29.2485C112.759 29.1112 112.669 28.9468 112.633 28.7553C112.662 27.9806 112.693 26.4632 112.726 24.2029C112.759 21.9425 112.804 20.2383 112.861 19.0901ZM124 20.5959L123.577 20.1431C124.554 19.4997 125.444 19.1796 126.246 19.1826C126.938 19.1853 127.498 19.4381 127.925 19.9411C128.353 20.4349 128.565 21.0464 128.564 21.7756C128.561 22.687 128.25 23.3284 127.629 23.6997C128.085 23.7744 128.426 24.0491 128.653 24.524C128.879 24.9897 128.992 25.5461 128.991 26.1933C128.988 27.1776 128.777 27.9379 128.356 28.474C127.936 29.0102 127.238 29.2764 126.262 29.2726C125.606 29.2701 124.987 29.1219 124.404 28.828C123.831 28.5341 123.426 28.1132 123.19 27.5655C123.236 27.5292 123.268 27.4928 123.286 27.4564C123.305 27.4201 123.318 27.3928 123.327 27.3746C123.337 27.3564 123.359 27.3337 123.396 27.3065C123.442 27.2702 123.51 27.2294 123.601 27.1842C124.002 27.5504 124.447 27.8483 124.939 28.0781C125.431 28.2987 125.895 28.4099 126.333 28.4116C126.825 28.4134 127.217 28.2555 127.51 27.9376C127.811 27.6106 127.963 27.1099 127.965 26.4354C127.966 25.7427 127.772 25.1814 127.381 24.7515C126.99 24.3216 126.412 24.1052 125.646 24.1022C125.537 24.1018 125.345 24.1102 125.072 24.1274C125.063 24.0726 125.04 23.9723 125.004 23.8263C124.977 23.6804 124.941 23.4478 124.896 23.1286C124.997 23.1199 125.179 23.1115 125.443 23.1034C125.708 23.0862 125.894 23.0732 126.004 23.0645C126.113 23.0467 126.268 23.02 126.469 22.9843C126.679 22.9395 126.829 22.8809 126.921 22.8083C127.021 22.7358 127.126 22.645 127.236 22.5361C127.354 22.4181 127.437 22.268 127.483 22.0859C127.529 21.9037 127.552 21.6896 127.553 21.4436C127.554 20.9969 127.404 20.6728 127.104 20.4711C126.813 20.2604 126.421 20.154 125.929 20.1521C125.273 20.1496 124.63 20.2975 124 20.5959ZM132.74 19.276L133.778 19.3484C134.031 20.4796 134.551 22.0812 135.339 24.1533C136.127 26.2162 136.648 27.7586 136.9 28.7804C136.9 29.0447 136.854 29.2405 136.762 29.3678C136.671 29.5041 136.557 29.572 136.42 29.5715C136.301 29.5711 136.188 29.5205 136.078 29.4198C135.978 29.3283 135.91 29.1958 135.874 29.0225C135.793 28.6212 135.531 27.8181 135.087 26.6132C133.21 26.369 132.03 26.2186 131.547 26.1621C131.428 26.4898 131.281 27.0224 131.106 27.76C130.931 28.4976 130.793 29.0075 130.692 29.2897C130.555 29.4532 130.4 29.5346 130.227 29.534C130.035 29.5332 129.871 29.446 129.735 29.2723C129.599 29.1077 129.531 28.9024 129.531 28.6563C129.826 27.591 130.358 26.0254 131.129 23.9593C131.899 21.8932 132.436 20.3321 132.74 19.276ZM133.215 20.6587C133.03 21.7609 132.52 23.3768 131.686 25.5064L133.217 25.5123C133.909 25.5149 134.488 25.54 134.953 25.5873C134.019 23.5694 133.44 21.9265 133.215 20.6587ZM143.996 28.9308L144.035 29.4505C143.552 29.5944 143.092 29.6656 142.654 29.6639C142.235 29.6623 141.875 29.547 141.575 29.3179C141.284 29.0981 141.061 28.8192 140.907 28.4814C140.762 28.1436 140.612 27.7784 140.458 27.3859C140.313 26.9934 140.173 26.6283 140.037 26.2905C139.91 25.9528 139.72 25.674 139.465 25.4543C139.21 25.2255 138.905 25.1104 138.55 25.109L138.677 29.129C138.594 29.4113 138.434 29.5519 138.197 29.551C138.033 29.5504 137.874 29.4814 137.719 29.3441C137.574 29.2068 137.483 29.0424 137.447 28.8509C137.457 28.6595 137.492 27.1192 137.554 24.2301C137.616 21.3319 137.661 19.655 137.689 19.1994L138.304 19.3385C138.312 19.6849 138.338 20.3367 138.381 21.2939C138.425 22.2419 138.45 22.8846 138.459 23.2219C138.851 23.2143 139.184 23.0697 139.458 22.7883C139.741 22.4977 139.97 22.1476 140.144 21.7382C140.327 21.3287 140.51 20.9238 140.694 20.5235C140.877 20.114 141.115 19.7686 141.407 19.4871C141.709 19.1966 142.064 19.0522 142.475 19.0538C142.784 19.0549 143.308 19.1253 144.046 19.2649L143.908 19.8112C143.343 19.7179 143.02 19.6711 142.938 19.6708C142.619 19.6695 142.35 19.8007 142.13 20.0642C141.911 20.3276 141.728 20.6596 141.581 21.0601C141.434 21.4515 141.274 21.8564 141.1 22.275C140.925 22.6845 140.669 23.0618 140.331 23.4069C139.993 23.7519 139.578 23.9827 139.085 24.0993C139.523 24.2013 139.9 24.3987 140.219 24.6916C140.537 24.9845 140.773 25.3135 140.927 25.6787C141.081 26.0439 141.231 26.4318 141.376 26.8425C141.521 27.2441 141.647 27.6092 141.756 27.9378C141.864 28.2663 142.014 28.5403 142.205 28.7598C142.405 28.9793 142.646 29.0896 142.929 29.0907C143.202 29.0918 143.558 29.0385 143.996 28.9308ZM147.245 19.3319L148.284 19.4043C148.537 20.5355 149.057 22.1371 149.845 24.2091C150.633 26.2721 151.153 27.8145 151.406 28.8363C151.405 29.1006 151.359 29.2964 151.268 29.4236C151.176 29.56 151.062 29.6279 150.926 29.6274C150.807 29.6269 150.693 29.5764 150.584 29.4757C150.484 29.3842 150.416 29.2517 150.38 29.0784C150.299 28.6771 150.037 27.874 149.593 26.6691C147.716 26.4249 146.536 26.2745 146.053 26.218C145.934 26.5456 145.787 27.0783 145.612 27.8159C145.437 28.5535 145.299 29.0634 145.198 29.3456C145.061 29.5091 144.906 29.5905 144.732 29.5899C144.541 29.5891 144.377 29.5019 144.241 29.3282C144.104 29.1636 144.037 28.9583 144.037 28.7122C144.331 27.6469 144.864 26.0812 145.634 24.0152C146.405 21.9491 146.942 20.388 147.245 19.3319ZM147.721 20.7146C147.536 21.8168 147.026 23.4326 146.191 25.5623L147.723 25.5682C148.415 25.5708 148.994 25.5958 149.459 25.6432C148.525 23.6253 147.945 21.9824 147.721 20.7146ZM152.205 20.7045L151.782 20.2517C152.759 19.6084 153.648 19.2882 154.451 19.2913C155.143 19.294 155.703 19.5468 156.13 20.0497C156.558 20.5436 156.77 21.1551 156.769 21.8842C156.766 22.7957 156.455 23.4371 155.834 23.8084C156.29 23.883 156.631 24.1578 156.858 24.6326C157.084 25.0984 157.197 25.6548 157.195 26.3019C157.193 27.2863 156.982 28.0465 156.561 28.5827C156.14 29.1188 155.442 29.385 154.467 29.3813C153.811 29.3787 153.192 29.2305 152.609 28.9366C152.035 28.6427 151.631 28.2219 151.395 27.6741C151.441 27.6378 151.473 27.6015 151.491 27.5651C151.509 27.5287 151.523 27.5014 151.532 27.4832C151.542 27.465 151.564 27.4423 151.601 27.4151C151.647 27.3789 151.715 27.3381 151.806 27.2929C152.206 27.659 152.652 27.957 153.144 28.1867C153.636 28.4074 154.1 28.5185 154.538 28.5202C155.03 28.5221 155.422 28.3641 155.715 28.0462C156.016 27.7193 156.168 27.2185 156.169 26.5441C156.171 25.8514 155.976 25.2901 155.586 24.8602C155.195 24.4303 154.616 24.2138 153.851 24.2109C153.741 24.2105 153.55 24.2189 153.277 24.236C153.268 24.1813 153.245 24.081 153.209 23.935C153.182 23.789 153.146 23.5565 153.101 23.2373C153.201 23.2286 153.384 23.2202 153.648 23.2121C153.912 23.1949 154.099 23.1819 154.209 23.1732C154.318 23.1554 154.473 23.1287 154.674 23.093C154.884 23.0482 155.034 22.9895 155.125 22.917C155.226 22.8444 155.331 22.7537 155.441 22.6447C155.559 22.5267 155.642 22.3766 155.688 22.1945C155.734 22.0124 155.757 21.7983 155.758 21.5522C155.759 21.1056 155.609 20.7814 155.309 20.5798C155.018 20.369 154.626 20.2627 154.134 20.2608C153.478 20.2583 152.835 20.4062 152.205 20.7045Z" fill="#FDA3C4"/>
</g>
<defs>
<filter id="filter0_d_5_3749" x="0.519043" y="0.5" width="224.941" height="59.9999" filterUnits="userSpaceOnUse" color-interpolation-filters="sRGB">
<feFlood flood-opacity="0" result="BackgroundImageFix"/>
<feColorMatrix in="SourceAlpha" type="matrix" values="0 0 0 0 0 0 0 0 0 0 0 0 0 0 0 0 0 0 127 0" result="hardAlpha"/>
<feOffset dy="2"/>
<feGaussianBlur stdDeviation="1"/>
<feColorMatrix type="matrix" values="0 0 0 0 0.992157 0 0 0 0 0.639216 0 0 0 0 0.768627 0 0 0 0.24 0"/>
<feBlend mode="normal" in2="BackgroundImageFix" result="effect1_dropShadow_5_3749"/>
<feBlend mode="normal" in="SourceGraphic" in2="effect1_dropShadow_5_3749" result="shape"/>
</filter>
</defs>
</svg>
