<svg width="217" height="44" viewBox="0 0 217 44" fill="none" xmlns="http://www.w3.org/2000/svg">
<rect x="0.5" y="0.5" width="216" height="43" fill="white" stroke="#FDA3C4"/>
<path d="M54.2913 15.9379L54.1561 15.3222L59.3794 15.0414C59.6073 15.0513 59.7985 15.1341 59.953 15.2896C60.1076 15.4452 60.1847 15.6141 60.1842 15.7964C60.1839 15.9149 60.1381 16.0195 60.0467 16.1103C59.9554 16.2011 59.8185 16.2553 59.6362 16.2728L57.3396 16.141C57.5597 19.3593 57.7212 22.2857 57.8242 24.9202C57.7415 25.1934 57.5862 25.3295 57.3583 25.3286C57.1943 25.328 57.0349 25.259 56.8803 25.1217C56.7257 24.9935 56.6304 24.8336 56.5944 24.6421C56.6138 24.15 56.6247 23.4026 56.6272 22.4C56.6281 22.0263 56.6249 21.4658 56.6176 20.7183C56.6194 19.9709 56.6208 19.4104 56.6217 19.0367C56.6243 17.9521 56.6449 16.9723 56.6835 16.0975C55.6537 16.0206 54.8563 15.9674 54.2913 15.9379ZM62.2637 15.2301L63.3026 15.3024C63.5551 16.4336 64.0753 18.0352 64.8632 20.1073C65.6512 22.1702 66.1715 23.7126 66.4242 24.7344C66.4236 24.9987 66.3776 25.1945 66.2861 25.3217C66.1946 25.4581 66.0805 25.526 65.9438 25.5255C65.8253 25.525 65.7115 25.4745 65.6024 25.3738C65.5023 25.2823 65.4343 25.1498 65.3983 24.9765C65.3172 24.5752 65.0548 23.7721 64.6111 22.5673C62.7341 22.3231 61.5542 22.1728 61.0712 22.1162C60.9519 22.4439 60.8048 22.9765 60.6298 23.7142C60.4549 24.4518 60.3169 24.9617 60.216 25.2438C60.0788 25.4074 59.9237 25.4888 59.7505 25.4882C59.5591 25.4874 59.3953 25.4002 59.259 25.2265C59.1227 25.0619 59.0548 24.8566 59.0554 24.6105C59.3496 23.5452 59.8821 21.9795 60.6527 19.9134C61.4234 17.8474 61.9604 16.2863 62.2637 15.2301ZM62.7389 16.6128C62.5539 17.715 62.0441 19.3309 61.2095 21.4605L62.7408 21.4664C63.4335 21.469 64.0122 21.494 64.4769 21.5413C63.543 19.5234 62.9637 17.8806 62.7389 16.6128ZM71.8889 15.1849L71.7231 15.8815C71.2582 15.9162 70.652 15.9503 69.9045 15.9839C69.157 16.0175 68.5508 16.0471 68.0859 16.0727L68.0784 19.1625C68.5436 19.0367 68.9675 18.9745 69.3503 18.976C70.3621 18.9798 71.1679 19.3202 71.7678 19.9969C72.3677 20.6646 72.6665 21.5134 72.664 22.5433C72.6626 23.1176 72.4335 23.618 71.9767 24.0446C71.52 24.4622 70.986 24.7655 70.3749 24.9545C69.7729 25.1345 69.162 25.2233 68.5422 25.221C67.7857 25.2181 67.262 25.0794 66.971 24.8048C67.0002 24.0211 67.0313 22.4945 67.0641 20.2251C67.097 17.9556 67.1466 16.2696 67.2131 15.167L71.8889 15.1849ZM68.0906 19.7778C68.0906 19.7869 68.0903 19.8917 68.0898 20.0923C68.0893 20.2928 68.0838 20.7029 68.0732 21.3227C68.0717 21.9425 68.0696 22.7719 68.0671 23.8109C68.3398 24.1219 68.6903 24.2782 69.1187 24.2798C69.6838 24.282 70.2313 24.0516 70.761 23.5888C71.2908 23.1169 71.5564 22.612 71.5577 22.0743C71.5594 21.3633 71.3101 20.7882 70.8099 20.3487C70.3188 19.9003 69.7041 19.6746 68.9658 19.6718C68.7198 19.6708 68.428 19.7062 68.0906 19.7778ZM72.2033 26.4654L71.8085 25.753C72.3106 25.4177 72.7399 25.0319 73.0965 24.5958C73.453 24.1505 73.7321 23.7095 73.9337 23.2728C74.1353 22.827 74.296 22.3217 74.4159 21.7571C74.5357 21.1924 74.6099 20.6732 74.6384 20.1993C74.676 19.7164 74.6956 19.1605 74.6971 18.5316C74.6979 18.2034 74.7083 17.6976 74.7282 17.0141C74.7572 16.3215 74.7722 15.7929 74.773 15.4283C75.0375 15.3838 75.4431 15.3625 75.99 15.3646C76.2179 15.3655 76.5642 15.3759 77.029 15.3959C77.4938 15.4068 77.8447 15.4127 78.0817 15.4136C78.5192 15.4153 78.9203 15.3986 79.2849 15.3635C79.3928 15.9746 79.4452 16.9319 79.442 18.2352C79.4412 18.5816 79.4353 19.1284 79.4244 19.8758C79.4134 20.6141 79.4075 21.1746 79.4066 21.5574C79.403 23.0522 79.4638 24.2829 79.589 25.2495C79.5063 25.5318 79.351 25.6724 79.1232 25.6716C78.9591 25.6709 78.7998 25.602 78.6452 25.4647C78.4905 25.3365 78.3952 25.1766 78.3592 24.985C78.3792 24.2742 78.3896 23.7319 78.3905 23.3582C78.3918 22.8296 78.3801 22.0001 78.3555 20.8698C78.34 19.7395 78.3331 18.8645 78.3346 18.2447C78.3366 17.4061 78.3472 16.7818 78.3665 16.3717C78.1478 16.3527 77.7695 16.3376 77.2318 16.3264C76.6941 16.3152 76.284 16.2909 76.0015 16.2533C75.9183 16.727 75.8485 17.3465 75.7919 18.1119C75.7445 18.8682 75.7019 19.5426 75.664 20.1349C75.6352 20.7181 75.5516 21.3649 75.4131 22.0753C75.2838 22.7767 75.1046 23.3867 74.8755 23.9053C74.6555 24.424 74.3171 24.9149 73.8602 25.378C73.4124 25.8503 72.8601 26.2127 72.2033 26.4654ZM80.9396 15.1921L81.5545 15.3312C81.642 16.8354 81.7408 19.3378 81.8508 22.8382C83.6358 19.6823 84.8633 17.144 85.5333 15.2233C85.6703 15.1145 85.8026 15.0603 85.9302 15.0608C86.1307 15.0616 86.2945 15.1807 86.4215 15.4181C86.5577 15.6556 86.6299 15.9248 86.6383 16.2256C86.6636 17.0734 86.6829 18.5044 86.6962 20.5188C86.7187 22.5333 86.7515 24.0373 86.7947 25.031C86.712 25.3041 86.5567 25.4402 86.3288 25.4393C86.1648 25.4387 86.0054 25.3697 85.8508 25.2324C85.6962 25.1042 85.6009 24.9444 85.5649 24.7528C85.5941 23.96 85.6108 22.7432 85.6147 21.1026C85.6278 19.462 85.6397 18.3546 85.6502 17.7804C85.4488 18.126 85.0963 18.7809 84.5927 19.7452C84.089 20.7094 83.6222 21.537 83.1921 22.2281C82.7711 22.9192 82.3367 23.5191 81.8889 24.0278L81.9409 25.1355C81.8582 25.4177 81.6983 25.5584 81.4613 25.5575C81.2973 25.5568 81.1379 25.4879 80.9833 25.3505C80.8378 25.2133 80.7471 25.0489 80.7111 24.8573C80.7403 24.0827 80.7713 22.5652 80.8042 20.3049C80.837 18.0446 80.8822 16.3403 80.9396 15.1921ZM94.1998 27.0964L93.5709 27.094C93.5257 26.9297 93.4224 26.3187 93.2609 25.2608C92.6136 25.3312 91.5881 25.3637 90.1845 25.3584C89.0816 25.3542 88.3252 25.3285 87.9151 25.2813C87.9449 24.2971 87.9945 22.6202 88.0641 20.2506C88.1336 17.8811 88.1833 16.2042 88.213 15.2199L88.8279 15.359C88.8529 16.3161 88.8857 17.8384 88.9262 19.9258C88.9758 22.0041 89.0132 23.4991 89.0384 24.4106C89.4485 24.4122 89.804 24.4227 90.1047 24.442C90.4054 24.4523 90.5649 24.4575 90.5832 24.4575C90.729 24.4581 91.2715 24.3827 92.2107 24.2313C92.2495 23.2471 92.3125 21.7252 92.3995 19.6656C92.4957 17.597 92.5585 16.1206 92.588 15.2366L93.2029 15.3757C93.1922 16.0228 93.1853 16.9935 93.1821 18.2878C93.1779 20.0377 93.1871 21.8653 93.2098 23.7703C93.2097 23.8159 93.2096 23.8888 93.2093 23.9891C93.2182 24.0802 93.2226 24.1486 93.2225 24.1942C93.3319 24.1946 93.5187 24.2044 93.783 24.2237C94.0473 24.2338 94.2614 24.2392 94.4255 24.2398C94.4254 24.2763 94.4017 24.6681 94.3543 25.4153C94.316 26.1626 94.2645 26.7229 94.1998 27.0964ZM97.906 15.3663L98.9449 15.4387C99.1974 16.5698 99.7176 18.1715 100.506 20.2435C101.293 22.3064 101.814 23.8488 102.067 24.8706C102.066 25.1349 102.02 25.3307 101.928 25.4579C101.837 25.5943 101.723 25.6622 101.586 25.6617C101.468 25.6613 101.354 25.6107 101.245 25.51C101.145 25.4185 101.077 25.2861 101.041 25.1127C100.96 24.7114 100.697 23.9083 100.253 22.7035C98.3765 22.4593 97.1965 22.309 96.7135 22.2524C96.5943 22.5801 96.4471 23.1128 96.2722 23.8504C96.0972 24.588 95.9592 25.0979 95.8583 25.3801C95.7212 25.5436 95.566 25.625 95.3928 25.6244C95.2014 25.6236 95.0376 25.5364 94.9013 25.3627C94.765 25.1981 94.6971 24.9928 94.6977 24.7467C94.992 23.6814 95.5244 22.1157 96.2951 20.0497C97.0657 17.9836 97.6027 16.4225 97.906 15.3663ZM98.3812 16.749C98.1962 17.8512 97.6865 19.4671 96.8519 21.5967L98.3831 21.6026C99.0758 21.6052 99.6545 21.6302 100.119 21.6776C99.1853 19.6597 98.606 18.0168 98.3812 16.749ZM106.765 15.4959L107.381 15.3342C107.38 15.6258 107.384 15.7899 107.393 15.8264C107.914 15.4821 108.643 15.3117 109.582 15.3153C110.594 15.3191 111.349 15.641 111.849 16.281C112.349 16.9118 112.597 17.7968 112.595 18.9362C112.592 19.9479 112.344 20.7855 111.85 21.449C111.356 22.1124 110.613 22.4423 109.619 22.4385C109.455 22.4379 108.799 22.3807 107.651 22.2669C107.668 22.9323 107.702 23.967 107.753 25.3708C107.67 25.6531 107.51 25.7937 107.273 25.7928C107.109 25.7922 106.95 25.7232 106.795 25.5859C106.65 25.4578 106.559 25.2979 106.523 25.1064C106.552 24.3408 106.583 22.8507 106.616 20.636C106.658 18.4213 106.707 16.7079 106.765 15.4959ZM107.514 16.7429L107.613 21.0089C108.114 21.2843 108.692 21.4232 109.348 21.4257C109.977 21.4281 110.511 21.1932 110.95 20.7209C111.388 20.2486 111.609 19.6707 111.61 18.9871C111.612 18.2488 111.386 17.5826 110.931 16.9884C110.477 16.3942 109.908 16.0958 109.225 16.0932C108.669 16.0911 108.098 16.3076 107.514 16.7429ZM115.132 15.4322L116.171 15.5045C116.424 16.6357 116.944 18.2373 117.732 20.3093C118.52 22.3722 119.04 23.9146 119.293 24.9364C119.292 25.2007 119.246 25.3965 119.155 25.5238C119.063 25.6601 118.949 25.7281 118.813 25.7275C118.694 25.7271 118.58 25.6765 118.471 25.5759C118.371 25.4843 118.303 25.3519 118.267 25.1786C118.186 24.7772 117.924 23.9741 117.48 22.7693C115.603 22.5252 114.423 22.3748 113.94 22.3183C113.821 22.646 113.674 23.1786 113.499 23.9162C113.324 24.6538 113.186 25.1637 113.085 25.4459C112.948 25.6094 112.792 25.6909 112.619 25.6902C112.428 25.6895 112.264 25.6023 112.128 25.4286C111.991 25.264 111.924 25.0586 111.924 24.8125C112.218 23.7473 112.751 22.1816 113.521 20.1155C114.292 18.0494 114.829 16.4883 115.132 15.4322ZM115.608 16.8149C115.423 17.917 114.913 19.5329 114.078 21.6626L115.61 21.6684C116.302 21.6711 116.881 21.6961 117.346 21.7434C116.412 19.7255 115.832 18.0826 115.608 16.8149ZM120.092 16.8046L119.669 16.3519C120.646 15.7085 121.536 15.3883 122.338 15.3913C123.03 15.394 123.59 15.6468 124.017 16.1497C124.445 16.6435 124.657 17.255 124.656 17.9842C124.653 18.8957 124.342 19.5371 123.721 19.9084C124.177 19.983 124.518 20.2578 124.745 20.7326C124.971 21.1983 125.084 21.7547 125.082 22.4019C125.08 23.3863 124.868 24.1465 124.448 24.6827C124.027 25.2188 123.329 25.485 122.354 25.4813C121.698 25.4788 121.079 25.3306 120.496 25.0367C119.922 24.7429 119.518 24.322 119.282 23.7743C119.328 23.738 119.36 23.7016 119.378 23.6652C119.396 23.6289 119.41 23.6016 119.419 23.5834C119.428 23.5652 119.451 23.5425 119.488 23.5153C119.534 23.479 119.602 23.4382 119.693 23.393C120.093 23.7591 120.539 24.0571 121.031 24.2868C121.523 24.5074 121.987 24.6186 122.425 24.6203C122.917 24.6221 123.309 24.4641 123.602 24.1462C123.903 23.8193 124.055 23.3185 124.056 22.6441C124.058 21.9513 123.863 21.3901 123.473 20.9602C123.082 20.5303 122.503 20.3139 121.738 20.311C121.628 20.3105 121.437 20.3189 121.164 20.3361C121.155 20.2814 121.132 20.181 121.096 20.0351C121.069 19.8891 121.033 19.6566 120.988 19.3374C121.089 19.3287 121.271 19.3202 121.535 19.3121C121.8 19.2949 121.986 19.282 122.096 19.2733C122.205 19.2554 122.36 19.2287 122.561 19.193C122.771 19.1482 122.921 19.0896 123.012 19.017C123.113 18.9445 123.218 18.8537 123.328 18.7448C123.446 18.6267 123.529 18.4766 123.575 18.2945C123.621 18.1124 123.644 17.8983 123.645 17.6522C123.646 17.2056 123.496 16.8815 123.196 16.6798C122.905 16.469 122.513 16.3627 122.021 16.3608C121.365 16.3583 120.722 16.5063 120.092 16.8046ZM135.684 25.4229L134.645 25.5146C134.151 22.3682 133.616 19.6728 133.038 17.4283C132.735 18.1381 132.4 19.1395 132.032 20.4323C131.674 21.7161 131.426 22.5492 131.288 22.9315C131.27 22.9314 131.238 22.9358 131.192 22.9448C131.156 22.9446 131.124 22.9445 131.097 22.9444C130.969 22.9439 130.759 22.9294 130.468 22.901C130.176 22.8725 129.989 22.8581 129.907 22.8578C129.899 22.5935 129.669 21.713 129.217 20.2165C128.765 18.7109 128.493 17.7482 128.403 17.3286C128.236 18.8045 127.591 21.4909 126.47 25.3877L125.622 25.3024C125.752 24.3094 126.07 22.7475 126.577 20.6166C127.083 18.4857 127.384 16.8371 127.478 15.6708C127.642 15.6532 127.774 15.6445 127.874 15.6449C127.965 15.6453 128.302 15.683 128.886 15.7582C129.013 15.7769 129.194 16.1923 129.429 17.0044C129.674 17.8074 129.918 18.6925 130.161 19.6596C130.405 20.6266 130.559 21.1969 130.622 21.3703C130.879 20.7424 131.187 19.7227 131.545 18.3113C131.913 16.9 132.171 16.0031 132.318 15.6209C132.463 15.6306 132.924 15.6733 133.698 15.7492C133.933 16.6707 134.158 17.6651 134.375 18.7323C134.6 19.7996 134.838 21.0127 135.09 22.3718C135.351 23.7308 135.549 24.7479 135.684 25.4229ZM141.455 24.8297L141.591 25.4455C141.235 25.4441 140.588 25.4553 139.649 25.4791C138.719 25.512 138.045 25.5276 137.626 25.526C136.951 25.5234 136.491 25.4898 136.245 25.425C136.339 24.4228 136.397 22.7459 136.421 20.3944C136.445 18.0429 136.508 16.4025 136.611 15.4732C136.921 15.5018 137.741 15.5277 139.072 15.551C140.411 15.5744 141.286 15.6187 141.696 15.6841L141.845 16.2999C141.435 16.3712 140.614 16.4547 139.384 16.5503C138.153 16.6458 137.506 16.698 137.442 16.7069C137.451 16.9166 137.468 17.345 137.493 17.9923C137.528 18.6395 137.55 19.1728 137.558 19.5921C137.868 19.6298 138.433 19.6866 139.253 19.7627C140.073 19.8296 140.592 19.8726 140.811 19.8917L140.946 20.5211C139.023 20.6869 137.897 20.7738 137.569 20.7816C137.568 21.1827 137.557 21.7933 137.537 22.6135C137.526 23.4247 137.52 24.0217 137.519 24.4045C139.606 24.6039 140.918 24.7456 141.455 24.8297ZM142.613 15.6329L143.228 15.4712C143.227 15.7629 143.232 15.9269 143.241 15.9634C143.761 15.6191 144.491 15.4487 145.429 15.4523C146.441 15.4561 147.197 15.778 147.697 16.418C148.196 17.0488 148.445 17.9338 148.442 19.0732C148.44 20.0849 148.191 20.9225 147.698 21.586C147.204 22.2494 146.46 22.5793 145.467 22.5755C145.303 22.5749 144.647 22.5177 143.498 22.4039C143.515 23.0693 143.549 24.104 143.6 25.5078C143.518 25.7901 143.358 25.9307 143.121 25.9298C142.957 25.9292 142.797 25.8602 142.643 25.7229C142.497 25.5948 142.406 25.4349 142.37 25.2434C142.4 24.4778 142.431 22.9877 142.463 20.773C142.505 18.5583 142.555 16.8449 142.613 15.6329ZM143.361 16.8799L143.46 21.1459C143.961 21.4213 144.54 21.5602 145.196 21.5627C145.825 21.5651 146.358 21.3302 146.797 20.8579C147.236 20.3856 147.456 19.8077 147.458 19.1241C147.459 18.3858 147.233 17.7196 146.779 17.1254C146.325 16.5312 145.756 16.2328 145.072 16.2302C144.516 16.2281 143.946 16.4446 143.361 16.8799ZM149.572 20.8959C149.573 20.586 149.574 20.3535 149.574 20.1986C149.574 20.0345 149.58 19.7885 149.59 19.4604C149.609 19.1323 149.627 18.8726 149.646 18.6813C149.674 18.49 149.711 18.244 149.757 17.9434C149.804 17.6337 149.863 17.3878 149.937 17.2058C150.01 17.0147 150.093 16.8008 150.184 16.5642C150.285 16.3276 150.409 16.1367 150.555 15.9914C150.701 15.8461 150.861 15.71 151.035 15.5831C151.208 15.447 151.413 15.3475 151.65 15.2846C151.888 15.2217 152.147 15.1908 152.43 15.1919C152.995 15.1941 153.487 15.3099 153.906 15.5393C154.324 15.7597 154.652 16.0389 154.888 16.3771C155.124 16.7152 155.31 17.1307 155.446 17.6234C155.59 18.1161 155.68 18.5859 155.716 19.0326C155.76 19.4794 155.782 19.9717 155.78 20.5094C155.78 20.874 155.77 21.2021 155.751 21.4937C155.741 21.7853 155.713 22.1179 155.666 22.4914C155.629 22.8559 155.569 23.1792 155.486 23.4614C155.413 23.7437 155.307 24.0304 155.17 24.3216C155.032 24.6036 154.868 24.8399 154.676 25.0306C154.493 25.2122 154.26 25.3617 153.977 25.4791C153.694 25.5965 153.38 25.6546 153.034 25.6533C152.468 25.6511 151.981 25.5809 151.571 25.4426C151.17 25.3043 150.838 25.1117 150.574 24.8646C150.32 24.6175 150.116 24.2931 149.962 23.8915C149.817 23.4899 149.713 23.052 149.65 22.5778C149.597 22.1036 149.571 21.543 149.572 20.8959ZM154.795 21.0252C154.796 20.5786 154.761 20.1136 154.689 19.6302C154.626 19.1469 154.513 18.627 154.351 18.0704C154.197 17.5138 153.948 17.0616 153.602 16.714C153.257 16.3572 152.842 16.1779 152.359 16.176C151.995 16.1746 151.671 16.4195 151.387 16.9106C151.112 17.3926 150.915 17.9387 150.795 18.549C150.675 19.1501 150.614 19.7195 150.613 20.2573C150.612 20.6309 150.611 20.9181 150.611 21.1186C150.62 21.31 150.637 21.5881 150.664 21.9528C150.69 22.3083 150.726 22.591 150.771 22.8008C150.825 23.0107 150.907 23.2525 151.015 23.5264C151.124 23.8002 151.251 24.0149 151.396 24.1704C151.551 24.3169 151.747 24.4498 151.983 24.5692C152.229 24.6795 152.503 24.7398 152.803 24.75C153.469 24.7161 153.966 24.3443 154.296 23.6346C154.626 22.9249 154.792 22.0551 154.795 21.0252ZM156.877 25.1484L156.968 15.5237C157.069 15.1868 157.462 15.0197 158.145 15.0223C158.774 15.0247 159.353 15.1135 159.881 15.2887C160.409 15.4548 160.851 15.7391 161.205 16.1415C161.569 16.5348 161.75 17.0094 161.748 17.5654C161.747 18.0029 161.637 18.4263 161.417 18.8356C161.207 19.245 160.946 19.5083 160.636 19.6256C161.219 19.7099 161.688 20.0626 162.042 20.6837C162.396 21.3049 162.572 22.0393 162.57 22.8869C162.568 23.4612 162.339 23.9616 161.882 24.3882C161.426 24.8058 160.892 25.1091 160.28 25.2981C159.678 25.4781 159.068 25.5669 158.448 25.5646C157.691 25.5617 157.168 25.423 156.877 25.1484ZM158.009 20.3676C158.008 20.9965 157.996 22.2588 157.973 24.1545C158.245 24.4655 158.596 24.6218 159.024 24.6234C159.589 24.6256 160.137 24.3952 160.667 23.9324C161.196 23.4605 161.462 22.9556 161.463 22.4179C161.465 21.7525 161.243 21.2321 160.797 20.8567C160.351 20.4813 159.778 20.2923 159.076 20.2896C158.611 20.2878 158.255 20.3138 158.009 20.3676ZM157.984 19.3557L158.832 19.3453C159.415 19.3475 159.862 19.1806 160.173 18.8446C160.493 18.4994 160.653 18.0899 160.655 17.6159C160.656 17.1329 160.497 16.7175 160.179 16.37C159.861 16.0133 159.419 15.8338 158.854 15.8317C158.599 15.8307 158.298 15.8843 157.952 15.9923C157.968 16.5484 157.976 17.2365 157.974 18.0569C157.981 18.8772 157.984 19.3102 157.984 19.3557Z" fill="#FDA3C4"/>
</svg>
