<svg width="162" height="50" viewBox="0 0 162 50" fill="none" xmlns="http://www.w3.org/2000/svg">
<path d="M5.34793 35.1044L1.92048 30.2118L0.028912 10.6414C1.68465 7.85536 7.46439 2.12014 17.3374 1.4678C29.6787 0.652364 35.3875 -0.172465 49.5699 0.0313937C63.7524 0.235252 106.682 0.44087 111.672 0.44087C116.662 0.44087 141.379 -0.170538 147.953 2.88717C153.212 5.33334 158.04 10.0222 159.796 12.0608C159.272 12.4685 158.54 13.7323 159.805 15.5263C161.071 17.3202 161.744 20.0791 161.922 21.2343C161.223 21.9138 159.827 23.436 159.829 24.0883C159.831 24.9037 155.104 25.1076 157.471 26.1269C159.364 26.9423 159.843 29.3207 159.846 30.4079C158.01 31.4272 153.499 33.5066 150.138 33.6696C146.776 33.8327 143.837 34.553 142.787 34.8928L142.792 36.5238C144.368 36.7956 147.206 37.4206 145.947 37.7468C144.372 38.1545 142.793 37.1352 141.482 37.7468C140.17 38.3584 138.335 39.5815 139.912 39.9893C140.397 40.3649 140.871 40.5523 141.296 40.6252C141.817 40.5276 142.381 40.4473 142.802 40.397C142.533 40.5644 141.978 40.7422 141.296 40.6252C140.412 40.7911 139.651 41.0071 139.916 41.2124C140.337 41.5386 142.019 42.0278 142.807 42.2317L144.124 43.4548H139.922C137.611 43.4548 138.087 44.678 138.613 45.2896C138.001 45.4255 136.408 45.6157 134.937 45.2896C133.097 44.8818 133.887 45.4934 130.736 45.6973C128.215 45.8604 114.509 45.7652 110.219 45.6973C110.568 45.4255 110.794 44.8818 108.903 44.8818C106.54 44.8818 106.277 44.8818 103.389 45.2896C100.502 45.6973 52.318 44.8801 43.3887 44.8801C36.2452 44.8801 45.3232 43.8702 44.01 43.8702C39.8974 44.5497 25.652 45.868 19.5586 45.7049C11.9419 45.501 5.37064 43.4625 5.37008 43.2586C5.36964 43.0955 3.9659 41.9675 3.26408 41.4239C3.96534 41.7636 5.36732 42.2393 5.3651 41.4239C5.36288 40.6084 3.95574 38.2301 3.25245 37.1429L5.34793 35.1044Z" fill="#FDA3C4"/>
<path d="M10.3694 46.7242C9.52902 46.7242 9.49622 47.5396 9.58487 47.9473L7.87834 48.1512C7.04853 48.8307 5.54638 50.149 6.17625 49.9859C6.80611 49.8228 8.01298 49.3743 8.53768 49.1705C8.88711 48.8987 11.2668 48.3551 17.9901 48.3551C26.3941 48.3551 25.6051 47.9473 26.393 47.9473C27.1809 47.9473 11.4199 46.7242 10.3694 46.7242Z" fill="#FDA3C4"/>
<path d="M48.7005 15.7043L49.4939 15.5431C49.6547 16.8289 49.7504 18.6157 49.7811 20.9036C49.8209 23.1824 49.8626 24.691 49.9063 25.4294C49.8236 25.7117 49.6637 25.8524 49.4268 25.8515C49.2627 25.8509 49.1034 25.782 48.9488 25.6447C48.8033 25.5074 48.7126 25.343 48.6766 25.1515C48.6865 24.8234 48.6925 24.2766 48.6944 23.5109L48.7012 20.8176C48.5007 20.826 48.2181 20.8477 47.8534 20.8828C47.4979 20.9089 47.1697 20.9305 46.8689 20.9476C46.5771 20.9647 46.2991 20.9728 46.0348 20.9719C45.7978 20.971 45.6247 20.9658 45.5153 20.9563C45.5321 21.5123 45.562 22.3009 45.605 23.3219C45.648 24.3337 45.6782 25.0311 45.6954 25.414C45.6127 25.6963 45.4528 25.8369 45.2159 25.8361C45.0518 25.8355 44.8925 25.7665 44.7379 25.6292C44.5924 25.492 44.5016 25.3276 44.4657 25.1361C44.495 24.3523 44.5216 22.8303 44.5456 20.5699C44.5787 18.3096 44.6285 16.6281 44.6951 15.5255L45.31 15.6645C45.3099 15.6918 45.3098 15.7374 45.3096 15.8012C45.3186 15.8559 45.323 15.9015 45.3229 15.938C45.4358 18.1806 45.5006 19.5845 45.5174 20.1496C45.8273 20.1234 46.1555 20.0973 46.5019 20.0712C46.8575 20.0361 47.245 20.001 47.6643 19.9661C48.0928 19.9221 48.4256 19.8914 48.6626 19.8741C48.6717 19.8741 48.6764 19.8285 48.6766 19.7374C48.6768 19.6463 48.6778 19.2771 48.6794 18.63C48.6902 17.9829 48.6972 17.0076 48.7005 15.7043ZM53.6772 15.6405L54.7161 15.7126C54.9685 16.8438 55.4885 18.4453 56.2762 20.5172C57.064 22.58 57.5842 24.1223 57.8368 25.1441C57.8361 25.4084 57.79 25.6042 57.6986 25.7315C57.6071 25.8678 57.493 25.9358 57.3563 25.9353C57.2378 25.9348 57.124 25.8843 57.0148 25.7836C56.9148 25.6921 56.8468 25.5597 56.8108 25.3864C56.7298 24.9851 56.4675 24.182 56.0239 22.9773C54.1469 22.7334 52.9669 22.5832 52.484 22.5268C52.3647 22.8545 52.2175 23.3871 52.0425 24.1248C51.8674 24.8624 51.7294 25.3723 51.6284 25.6545C51.4913 25.8181 51.3361 25.8995 51.163 25.8989C50.9716 25.8982 50.8077 25.811 50.6714 25.6373C50.5351 25.4728 50.4673 25.2674 50.4679 25.0213C50.7623 23.956 51.2949 22.3902 52.0658 20.3241C52.8366 18.2579 53.3738 16.6967 53.6772 15.6405ZM54.1522 17.0231C53.9672 18.1253 53.4572 19.7413 52.6224 21.871L54.1536 21.8766C54.8463 21.8792 55.4251 21.9041 55.8898 21.9514C54.9561 19.9336 54.3769 18.2908 54.1522 17.0231ZM67.4991 15.8142L67.6343 16.4299C67.2331 16.4558 66.5312 16.4988 65.5285 16.5589C64.5257 16.61 63.8238 16.653 63.4227 16.6879C63.4478 17.5539 63.4624 19.0032 63.4663 21.0358C63.4703 23.0684 63.4893 24.5587 63.5234 25.5067C63.4406 25.789 63.2808 25.9297 63.0438 25.9288C62.8797 25.9282 62.7204 25.8592 62.5658 25.722C62.4203 25.5847 62.3296 25.4203 62.2936 25.2288C62.3968 24.0807 62.4674 21.3967 62.5054 17.1768C62.5058 17.0218 62.5064 16.7848 62.5072 16.4658C62.5171 16.1469 62.5223 15.8962 62.5228 15.7139C63.0149 15.7431 63.5116 15.7586 64.0129 15.7604C64.2134 15.7611 64.5142 15.7622 64.9152 15.7637C65.3163 15.7561 65.6171 15.7526 65.8176 15.7534C66.4374 15.7556 66.9979 15.7759 67.4991 15.8142ZM66.8832 26.8862L66.4885 26.1738C66.9906 25.8384 67.42 25.4526 67.7766 25.0165C68.1332 24.5711 68.4123 24.1301 68.6139 23.6933C68.8156 23.2475 68.9764 22.7422 69.0963 22.1775C69.2162 21.6129 69.2904 21.0936 69.319 20.6197C69.3566 20.1368 69.3763 19.5809 69.3779 18.952C69.3787 18.6239 69.3891 18.118 69.4091 17.4345C69.4382 16.7419 69.4532 16.2133 69.4541 15.8487C69.7185 15.8041 70.1242 15.7828 70.6711 15.7848C70.8989 15.7857 71.2452 15.796 71.71 15.816C72.1749 15.8268 72.5258 15.8326 72.7627 15.8335C73.2002 15.8351 73.6013 15.8184 73.966 15.7832C74.0738 16.3943 74.1261 17.3515 74.1228 18.6549C74.1219 19.0013 74.116 19.5481 74.105 20.2955C74.094 21.0337 74.088 21.5943 74.087 21.9771C74.0832 23.4719 74.1439 24.7026 74.2691 25.6692C74.1863 25.9514 74.031 26.0921 73.8032 26.0913C73.6391 26.0907 73.4798 26.0217 73.3252 25.8845C73.1706 25.7563 73.0753 25.5964 73.0393 25.4049C73.0593 24.694 73.0698 24.1517 73.0707 23.778C73.0721 23.2494 73.0605 22.4199 73.036 21.2896C73.0207 20.1593 73.0138 19.2843 73.0153 18.6645C73.0175 17.826 73.0281 17.2017 73.0474 16.7916C72.8287 16.7726 72.4505 16.7575 71.9128 16.7464C71.375 16.7353 70.9649 16.711 70.6825 16.6735C70.5992 17.1472 70.5293 17.7667 70.4727 18.5322C70.4252 19.2885 70.3825 19.9628 70.3445 20.5551C70.3157 21.1384 70.232 21.7852 70.0935 22.4956C69.9641 23.197 69.7849 23.807 69.5557 24.3257C69.3356 24.8444 68.9971 25.3354 68.5402 25.7986C68.0924 26.2709 67.5401 26.6334 66.8832 26.8862ZM78.0404 15.7298L79.0792 15.802C79.3316 16.9331 79.8516 18.5346 80.6393 20.6066C81.4271 22.6694 81.9473 24.2116 82.1999 25.2334C82.1992 25.4977 82.1532 25.6935 82.0617 25.8208C81.9702 25.9572 81.8561 26.0251 81.7194 26.0246C81.6009 26.0242 81.4871 25.9736 81.378 25.873C81.2779 25.7815 81.2099 25.649 81.1739 25.4757C81.0929 25.0744 80.8306 24.2713 80.387 23.0666C78.51 22.8227 77.3301 22.6726 76.8471 22.6161C76.7278 22.9438 76.5806 23.4765 76.4056 24.2141C76.2305 24.9517 76.0925 25.4617 75.9916 25.7438C75.8544 25.9074 75.6993 25.9889 75.5261 25.9882C75.3347 25.9875 75.1708 25.9003 75.0346 25.7267C74.8983 25.5621 74.8304 25.3568 74.831 25.1107C75.1254 24.0453 75.658 22.4796 76.4289 20.4134C77.1997 18.3472 77.7369 16.786 78.0404 15.7298ZM78.5154 17.1124C78.3303 18.2146 77.8203 19.8306 76.9855 21.9604L78.5168 21.966C79.2095 21.9685 79.7882 21.9934 80.2529 22.0407C79.3192 20.0229 78.74 18.3802 78.5154 17.1124ZM82.7466 25.3038L82.8393 15.679C82.9404 15.3422 83.3328 15.175 84.0164 15.1775C84.6453 15.1798 85.2238 15.2685 85.752 15.4436C86.2803 15.6096 86.7216 15.8938 87.0761 16.2962C87.4396 16.6894 87.6207 17.164 87.6193 17.72C87.6182 18.1575 87.5078 18.581 87.288 18.9903C87.0773 19.3997 86.8169 19.6631 86.5067 19.7804C87.0898 19.8646 87.5583 20.2172 87.9122 20.8383C88.2661 21.4594 88.442 22.1938 88.4398 23.0414C88.4384 23.6156 88.2093 24.1161 87.7524 24.5428C87.2957 24.9604 86.7617 25.2638 86.1505 25.453C85.5485 25.6331 84.9376 25.722 84.3178 25.7197C83.5613 25.7169 83.0376 25.5783 82.7466 25.3038ZM83.8798 20.5227C83.8782 21.1516 83.8659 22.414 83.8429 24.3097C84.1155 24.6206 84.466 24.7769 84.8944 24.7784C85.4595 24.7805 86.007 24.5501 86.5368 24.0872C87.0666 23.6152 87.3322 23.1103 87.3336 22.5725C87.3353 21.9072 87.1133 21.3868 86.6676 21.0115C86.222 20.6361 85.6482 20.4472 84.9464 20.4446C84.4816 20.4429 84.126 20.469 83.8798 20.5227ZM83.855 19.5109L84.7027 19.5004C85.286 19.5025 85.7331 19.3355 86.0438 18.9994C86.3637 18.6542 86.5242 18.2447 86.5254 17.7707C86.5267 17.2876 86.3682 16.8723 86.0501 16.5248C85.732 16.1682 85.2904 15.9888 84.7253 15.9867C84.4701 15.9858 84.1691 16.0394 83.8225 16.1475C83.8393 16.7036 83.8467 17.3917 83.8446 18.212C83.8517 19.0324 83.8551 19.4653 83.855 19.5109ZM93.7764 15.8695L94.5698 15.7084C94.7306 16.9941 94.8263 18.781 94.857 21.0689C94.8968 23.3477 94.9385 24.8563 94.9822 25.5947C94.8995 25.877 94.7396 26.0177 94.5026 26.0168C94.3386 26.0162 94.1792 25.9473 94.0246 25.81C93.8792 25.6727 93.7884 25.5083 93.7525 25.3168C93.7624 24.9887 93.7683 24.4418 93.7703 23.6762L93.7771 20.9829C93.5766 20.9912 93.2939 21.013 92.9293 21.0481C92.5737 21.0742 92.2456 21.0957 91.9447 21.1129C91.653 21.13 91.375 21.1381 91.1107 21.1371C90.8737 21.1363 90.7005 21.1311 90.5912 21.1216C90.608 21.6776 90.6379 22.4661 90.6809 23.4871C90.7239 24.499 90.7541 25.1964 90.7713 25.5793C90.6886 25.8615 90.5287 26.0022 90.2917 26.0014C90.1277 26.0008 89.9683 25.9318 89.8137 25.7945C89.6682 25.6573 89.5775 25.4929 89.5415 25.3013C89.5709 24.5176 89.5975 22.9955 89.6215 20.7352C89.6545 18.4749 89.7044 16.7934 89.771 15.6908L90.3858 15.8298C90.3858 15.8571 90.3857 15.9027 90.3855 15.9665C90.3945 16.0212 90.3989 16.0668 90.3988 16.1033C90.5116 18.3459 90.5764 19.7498 90.5932 20.3149C90.9032 20.2887 91.2314 20.2626 91.5778 20.2365C91.9334 20.2014 92.3208 20.1663 92.7402 20.1314C93.1687 20.0874 93.5014 20.0567 93.7385 20.0394C93.7476 20.0394 93.7523 19.9938 93.7525 19.9027C93.7527 19.8115 93.7537 19.4424 93.7553 18.7953C93.766 18.1482 93.7731 17.1729 93.7764 15.8695ZM95.5661 16.382L96.2787 15.7147C96.6872 16.3906 97.2041 17.4316 97.8294 18.8375C98.4548 20.2435 98.8808 21.1702 99.1075 21.6176C100.025 19.2785 100.718 17.4126 101.186 16.0198C101.305 15.8014 101.456 15.6926 101.638 15.6933C101.802 15.6939 101.948 15.7765 102.075 15.941C102.202 16.0964 102.275 16.279 102.292 16.4887C101.981 17.1529 101.486 18.2357 100.808 19.7371C100.138 21.2295 99.5657 22.4533 99.0893 23.4086C98.6221 24.3548 98.123 25.269 97.5921 26.1512L96.7039 25.9702L98.4763 22.5177C98.1505 21.6141 97.1804 19.5689 95.5661 16.382ZM103.019 15.7394L103.634 15.8783C103.756 17.9296 103.839 19.5796 103.881 20.8285L105.454 20.5745C105.503 19.2166 105.61 18.2417 105.776 17.6499C106.162 16.3023 106.97 15.6308 108.201 15.6353C108.711 15.6372 109.167 15.7665 109.567 16.0231C109.967 16.2707 110.286 16.5863 110.522 16.97C110.767 17.3537 110.966 17.8011 111.12 18.3121C111.283 18.8231 111.391 19.3157 111.444 19.7898C111.507 20.264 111.538 20.7381 111.536 21.212C111.535 21.7316 111.506 22.2054 111.451 22.6336C111.404 23.0618 111.303 23.4898 111.147 23.9177C110.991 24.3455 110.785 24.7047 110.529 24.9955C110.282 25.2862 109.939 25.522 109.502 25.7027C109.073 25.8834 108.571 25.9727 107.997 25.9706C106.174 25.9639 105.265 24.8759 105.271 22.7067C105.272 22.3785 105.286 22.0505 105.314 21.7224L103.907 21.5122L104.047 25.4366C103.964 25.7188 103.804 25.8595 103.568 25.8586C103.403 25.858 103.244 25.7936 103.089 25.6655C102.944 25.5282 102.853 25.3638 102.817 25.1723C102.847 24.4068 102.869 22.9257 102.883 20.7291C102.907 18.5235 102.952 16.8602 103.019 15.7394ZM106.285 21.5619C106.311 22.1636 106.369 22.7107 106.459 23.2032C106.549 23.6866 106.703 24.1201 106.921 24.5037C107.138 24.8873 107.407 25.0797 107.726 25.0809C108.245 25.0828 108.692 24.9751 109.066 24.7577C109.45 24.5403 109.738 24.2406 109.93 23.8585C110.132 23.4764 110.274 23.0714 110.357 22.6433C110.449 22.2061 110.496 21.7278 110.497 21.2082C110.498 20.7343 110.463 20.2602 110.391 19.786C110.329 19.3027 110.221 18.8055 110.067 18.2945C109.923 17.7745 109.691 17.3543 109.373 17.0342C109.064 16.714 108.695 16.5532 108.267 16.5516C107.93 16.5504 107.628 16.7224 107.363 17.0678C107.098 17.4132 106.892 17.8545 106.745 18.3917C106.597 18.9289 106.487 19.4709 106.412 20.0175C106.338 20.555 106.296 21.0698 106.285 21.5619Z" fill="white"/>
</svg>
