<svg width="199" height="50" viewBox="0 0 199 50" fill="none" xmlns="http://www.w3.org/2000/svg">
<path d="M5.62996 35.1044L2.01919 30.2118L0.028912 10.6414C1.77396 7.85536 7.86488 2.12014 18.2681 1.4678C31.2722 0.652364 37.2876 -0.172465 52.2316 0.0313937C67.1755 0.235252 140.376 0.44087 145.634 0.44087C150.892 0.44087 176.937 -0.170538 183.863 2.88717C189.404 5.33334 194.491 10.0222 196.341 12.0608C195.789 12.4685 195.017 13.7323 196.35 15.5263C197.684 17.3202 198.392 20.0791 198.58 21.2343C197.844 21.9138 196.372 23.436 196.374 24.0883C196.376 24.9037 191.395 25.1076 193.889 26.1269C195.883 26.9423 196.388 29.3207 196.391 30.4079C194.456 31.4272 189.702 33.5066 186.161 33.6696C182.619 33.8327 179.522 34.553 178.416 34.8928L178.42 36.5238C180.081 36.7956 183.072 37.4206 181.744 37.7468C180.085 38.1545 178.422 37.1352 177.04 37.7468C175.658 38.3584 173.724 39.5815 175.385 39.9893C175.896 40.3649 176.396 40.5523 176.844 40.6252C177.393 40.5276 177.986 40.4473 178.431 40.397C178.147 40.5644 177.562 40.7422 176.844 40.6252C175.912 40.7911 175.11 41.0071 175.389 41.2124C175.832 41.5386 177.605 42.0278 178.436 42.2317L179.823 43.4548H175.395C172.96 43.4548 173.461 44.678 174.016 45.2896C173.371 45.4255 171.693 45.6157 170.142 45.2896C168.204 44.8818 169.036 45.4934 165.715 45.6973C163.059 45.8604 148.617 45.7652 144.097 45.6973C144.465 45.4255 144.703 44.8818 142.711 44.8818C140.22 44.8818 139.944 44.8818 136.901 45.2896C133.858 45.6973 55.1207 44.8801 45.7119 44.8801C38.1849 44.8801 47.7504 43.8702 46.3667 43.8702C42.0332 44.5497 27.0227 45.868 20.6022 45.7049C12.5764 45.501 5.65267 43.4625 5.65212 43.2586C5.65168 43.0955 4.17272 41.9675 3.4333 41.4239C4.17217 41.7636 5.64935 42.2393 5.64713 41.4239C5.64492 40.6084 4.16257 38.2301 3.42167 37.1429L5.62996 35.1044Z" fill="#FDA3C4"/>
<path d="M10.9194 46.7242C10.0339 46.7242 9.99918 47.5396 10.0925 47.9473L8.29434 48.1512C7.41988 48.8307 5.83688 50.149 6.50059 49.9859C7.16429 49.8228 8.43603 49.3743 8.98894 49.1705C9.35717 48.8987 11.8647 48.3551 18.949 48.3551C27.8043 48.3551 26.973 47.9473 27.8032 47.9473C28.6334 47.9473 12.0263 46.7242 10.9194 46.7242Z" fill="#FDA3C4"/>
<path d="M55.4536 15.9711L55.0309 15.5183C56.0078 14.8748 56.8973 14.5545 57.6994 14.5574C58.3921 14.5599 58.952 14.8127 59.3791 15.3155C59.8063 15.8093 60.0189 16.4207 60.0171 17.1499C60.0148 18.0614 59.7032 18.7028 59.0825 19.0742C59.538 19.1488 59.8791 19.4235 60.1058 19.8983C60.3325 20.364 60.445 20.9204 60.4434 21.5675C60.4409 22.5519 60.2293 23.3122 59.8087 23.8484C59.3881 24.3846 58.6901 24.6509 57.7149 24.6474C57.0586 24.645 56.4392 24.4969 55.8566 24.203C55.2831 23.9093 54.8786 23.4885 54.643 22.9408C54.6887 22.9045 54.7207 22.8681 54.739 22.8318C54.7573 22.7954 54.7711 22.7681 54.7802 22.7499C54.7894 22.7317 54.8122 22.709 54.8487 22.6818C54.8944 22.6455 54.9629 22.6047 55.0541 22.5595C55.4543 22.9255 55.9001 23.2234 56.3917 23.4531C56.8834 23.6736 57.3479 23.7847 57.7854 23.7863C58.2776 23.7881 58.6699 23.63 58.9624 23.3121C59.264 22.9851 59.4157 22.4843 59.4174 21.8098C59.4191 21.1171 59.2246 20.5559 58.8337 20.1261C58.4429 19.6962 57.8647 19.4799 57.0991 19.4771C56.9897 19.4767 56.7983 19.4851 56.5248 19.5023C56.5158 19.4476 56.4933 19.3473 56.4572 19.2013C56.4302 19.0554 56.3943 18.8228 56.3496 18.5037C56.4498 18.4949 56.6322 18.4865 56.8965 18.4783C57.1609 18.4611 57.3478 18.4481 57.4572 18.4394C57.5666 18.4215 57.7216 18.3947 57.9222 18.359C58.1319 18.3142 58.2825 18.2555 58.3738 18.1829C58.4743 18.1104 58.5793 18.0196 58.689 17.9107C58.8078 17.7926 58.8902 17.6425 58.9362 17.4604C58.9822 17.2783 59.0056 17.0642 59.0062 16.8181C59.0073 16.3715 58.8577 16.0473 58.5575 15.8457C58.2663 15.635 57.8747 15.5288 57.3825 15.527C56.7262 15.5245 56.0833 15.6726 55.4536 15.9711ZM64.1933 14.6496L65.2322 14.7217C65.4846 15.8529 66.0046 17.4544 66.7923 19.5263C67.5801 21.5891 68.1002 23.1314 68.3529 24.1532C68.3522 24.4175 68.3061 24.6133 68.2147 24.7406C68.1232 24.8769 68.0091 24.9449 67.8723 24.9444C67.7539 24.9439 67.6401 24.8934 67.5309 24.7927C67.4309 24.7012 67.3629 24.5688 67.3269 24.3955C67.2458 23.9942 66.9836 23.1911 66.54 21.9863C64.663 21.7425 63.483 21.5923 63.0001 21.5359C62.8808 21.8636 62.7336 22.3962 62.5586 23.1339C62.3835 23.8715 62.2455 24.3814 62.1445 24.6636C62.0074 24.8272 61.8522 24.9086 61.6791 24.908C61.4877 24.9073 61.3238 24.8201 61.1875 24.6464C61.0512 24.4819 60.9834 24.2765 60.984 24.0304C61.2784 22.9651 61.811 21.3993 62.5819 19.3331C63.3527 17.267 63.8899 15.7058 64.1933 14.6496ZM64.6683 16.0322C64.4833 17.1344 63.9733 18.7504 63.1385 20.8801L64.6697 20.8857C65.3624 20.8883 65.9411 20.9132 66.4059 20.9605C65.4722 18.9427 64.893 17.2999 64.6683 16.0322ZM73.0392 14.6L77.838 14.6176C77.9988 15.9033 78.0945 17.6901 78.1252 19.978C78.165 22.2568 78.2067 23.7655 78.2504 24.5039C78.1677 24.7862 78.0078 24.9269 77.7709 24.926C77.6068 24.9254 77.4475 24.8564 77.2929 24.7192C77.1474 24.5819 77.0567 24.4175 77.0207 24.226C77.0225 23.4877 77.0036 21.9883 76.9637 19.7277C76.9239 17.458 76.9046 16.0771 76.9058 15.5849C76.7053 15.5841 76.3772 15.5966 75.9214 15.6223C75.4747 15.648 75.1146 15.6603 74.8412 15.6593C74.4037 15.6577 74.0665 15.6474 73.8295 15.6283C73.8295 15.6556 73.858 16.991 73.9151 19.6345C73.9813 22.278 74.0228 23.896 74.0395 24.4885C73.9568 24.7707 73.7969 24.9114 73.56 24.9105C73.3959 24.9099 73.2366 24.841 73.082 24.7037C72.9365 24.5665 72.8457 24.4021 72.8098 24.2105C72.8391 23.4268 72.8657 21.9047 72.8897 19.6444C72.9228 17.3841 72.9726 15.7026 73.0392 14.6ZM79.3965 20.0374C79.3973 19.7275 79.3979 19.4951 79.3983 19.3401C79.3987 19.1761 79.4039 18.93 79.4138 18.6019C79.4329 18.2738 79.4518 18.0141 79.4705 17.8228C79.4983 17.6315 79.5354 17.3855 79.5817 17.0849C79.6281 16.7752 79.688 16.5293 79.7613 16.3473C79.8347 16.1562 79.9173 15.9423 80.0091 15.7056C80.1099 15.469 80.2334 15.2781 80.3796 15.1328C80.5258 14.9875 80.6857 14.8513 80.8592 14.7244C81.0327 14.5883 81.238 14.4888 81.4752 14.4258C81.7123 14.3629 81.9722 14.332 82.2547 14.333C82.8198 14.3351 83.3117 14.4508 83.7304 14.6802C84.1491 14.9005 84.4765 15.1797 84.7127 15.5178C84.9488 15.8559 85.1346 16.2713 85.2701 16.764C85.4146 17.2567 85.5046 17.7264 85.5399 18.1732C85.5844 18.62 85.6059 19.1122 85.6046 19.65C85.6036 20.0146 85.5937 20.3427 85.5747 20.6343C85.5649 20.9259 85.5367 21.2585 85.4902 21.632C85.4528 21.9965 85.3927 22.3198 85.31 22.6021C85.2363 22.8843 85.1308 23.1711 84.9933 23.4622C84.8559 23.7443 84.6912 23.9807 84.4994 24.1714C84.3166 24.353 84.0838 24.5025 83.8009 24.62C83.5181 24.7374 83.2035 24.7955 82.8571 24.7942C82.292 24.7922 81.8046 24.722 81.3948 24.5838C80.9941 24.4456 80.6619 24.253 80.3982 24.0059C80.1436 23.7589 79.9394 23.4346 79.7854 23.033C79.6406 22.6314 79.5369 22.1935 79.4743 21.7193C79.4208 21.2452 79.3949 20.6845 79.3965 20.0374ZM84.6189 20.1659C84.62 19.7193 84.5847 19.2543 84.513 18.771C84.4504 18.2877 84.3378 17.7677 84.1752 17.2111C84.0216 16.6546 83.7721 16.2025 83.4267 15.8549C83.0812 15.4981 82.6669 15.3189 82.1839 15.3171C81.8193 15.3158 81.4951 15.5607 81.2113 16.0518C80.9366 16.5339 80.7393 17.0801 80.6193 17.6903C80.4993 18.2914 80.4386 18.8609 80.4372 19.3986C80.4363 19.7723 80.4355 20.0594 80.435 20.2599C80.4437 20.4514 80.4612 20.7294 80.4876 21.0941C80.514 21.4497 80.5498 21.7324 80.5948 21.9422C80.649 22.152 80.7304 22.3939 80.8391 22.6677C80.9478 22.9415 81.0748 23.1562 81.2203 23.3117C81.3748 23.4581 81.5705 23.591 81.8072 23.7103C82.053 23.8206 82.3263 23.8808 82.627 23.8911C83.2925 23.857 83.7901 23.4852 84.1201 22.7754C84.45 22.0657 84.6163 21.1959 84.6189 20.1659ZM93.2489 24.3675L93.2886 24.8872C92.8051 25.0312 92.3447 25.1025 91.9072 25.1009C91.4879 25.0993 91.1282 24.9841 90.828 24.7551C90.5369 24.5353 90.3143 24.2565 90.1602 23.9187C90.0152 23.5809 89.8657 23.2158 89.7118 22.8233C89.5669 22.4308 89.4266 22.0657 89.2907 21.728C89.164 21.3903 88.9733 21.1116 88.7186 20.8919C88.464 20.6631 88.1589 20.548 87.8035 20.5467L87.93 24.5667C87.8473 24.849 87.6874 24.9897 87.4504 24.9888C87.2864 24.9882 87.127 24.9193 86.9724 24.782C86.8269 24.6447 86.7362 24.4803 86.7002 24.2888C86.7098 24.0974 86.7456 22.5572 86.8076 19.6681C86.8697 16.7698 86.9149 15.0929 86.9434 14.6373L87.5583 14.7763C87.5665 15.1227 87.5922 15.7744 87.6354 16.7316C87.6786 17.6797 87.7043 18.3224 87.7125 18.6597C88.1045 18.652 88.4375 18.5074 88.7117 18.2258C88.995 17.9352 89.2237 17.5851 89.3979 17.1756C89.5813 16.7661 89.7646 16.3612 89.9479 15.9608C90.1312 15.5513 90.3691 15.2058 90.6614 14.9244C90.963 14.6338 91.3188 14.4893 91.729 14.4908C92.0389 14.4919 92.5628 14.5622 93.3007 14.7016L93.1626 15.248C92.5977 15.1548 92.2743 15.108 92.1922 15.1077C91.8732 15.1065 91.604 15.2377 91.3846 15.5012C91.1652 15.7648 90.9821 16.0968 90.8352 16.4973C90.6884 16.8887 90.5278 17.2937 90.3536 17.7123C90.1794 18.1218 89.9232 18.4992 89.5851 18.8443C89.247 19.1894 88.8317 19.4203 88.3392 19.537C88.7765 19.6388 89.1542 19.8362 89.4725 20.129C89.7908 20.4219 90.0269 20.7508 90.1809 21.116C90.335 21.4811 90.4844 21.8691 90.6292 22.2798C90.774 22.6813 90.9007 23.0464 91.0092 23.3749C91.1177 23.7034 91.2674 23.9774 91.4583 24.1969C91.6583 24.4164 91.8995 24.5266 92.1821 24.5277C92.4555 24.5287 92.8111 24.4753 93.2489 24.3675ZM93.3127 15.3442L94.0254 14.6769C94.4338 15.3529 94.9507 16.3939 95.5761 17.7998C96.2014 19.2058 96.6274 20.1325 96.8542 20.5799C97.7716 18.2408 98.4644 16.3749 98.9328 14.982C99.0519 14.7637 99.2025 14.6549 99.3848 14.6556C99.5489 14.6562 99.6945 14.7387 99.8217 14.9033C99.9489 15.0587 100.021 15.2412 100.039 15.4509C99.7275 16.1152 99.2325 17.198 98.5543 18.6994C97.8851 20.1918 97.3124 21.4156 96.836 22.3709C96.3687 23.3171 95.8697 24.2313 95.3388 25.1135L94.4506 24.9325L96.223 21.48C95.8972 20.5764 94.9271 18.5312 93.3127 15.3442ZM100.793 14.7017L105.592 14.7193C105.753 16.0051 105.848 17.7919 105.879 20.0798C105.919 22.3586 105.96 23.8672 106.004 24.6057C105.921 24.8879 105.762 25.0286 105.525 25.0278C105.361 25.0271 105.201 24.9582 105.047 24.8209C104.901 24.6837 104.81 24.5193 104.774 24.3277C104.776 23.5895 104.757 22.09 104.717 19.8294C104.678 17.5598 104.658 16.1788 104.66 15.6866C104.459 15.6859 104.131 15.6984 103.675 15.724C103.228 15.7497 102.868 15.7621 102.595 15.7611C102.157 15.7595 101.82 15.7491 101.583 15.73C101.583 15.7574 101.612 17.0928 101.669 19.7362C101.735 22.3797 101.777 23.9977 101.793 24.5902C101.711 24.8725 101.551 25.0132 101.314 25.0123C101.15 25.0117 100.99 24.9428 100.836 24.8055C100.69 24.6682 100.599 24.5038 100.563 24.3123C100.593 23.5285 100.619 22.0065 100.643 19.7461C100.676 17.4858 100.726 15.8044 100.793 14.7017ZM113.675 24.4424L113.714 24.9621C113.231 25.1061 112.77 25.1774 112.333 25.1758C111.914 25.1742 111.554 25.059 111.254 24.83C110.963 24.6102 110.74 24.3314 110.586 23.9936C110.441 23.6558 110.291 23.2907 110.137 22.8982C109.993 22.5057 109.852 22.1406 109.716 21.8029C109.59 21.4652 109.399 21.1865 109.144 20.9668C108.89 20.738 108.585 20.6229 108.229 20.6216L108.356 24.6416C108.273 24.9239 108.113 25.0646 107.876 25.0637C107.712 25.0631 107.553 24.9942 107.398 24.8569C107.253 24.7196 107.162 24.5552 107.126 24.3637C107.135 24.1723 107.171 22.6321 107.233 19.743C107.295 16.8447 107.341 15.1678 107.369 14.7122L107.984 14.8512C107.992 15.1975 108.018 15.8493 108.061 16.8065C108.104 17.7546 108.13 18.3973 108.138 18.7346C108.53 18.7269 108.863 18.5823 109.137 18.3007C109.421 18.0101 109.649 17.66 109.824 17.2505C110.007 16.841 110.19 16.4361 110.374 16.0357C110.557 15.6262 110.795 15.2807 111.087 14.9993C111.389 14.7087 111.744 14.5642 112.155 14.5657C112.464 14.5668 112.988 14.6371 113.726 14.7765L113.588 15.3229C113.023 15.2297 112.7 15.1829 112.618 15.1826C112.299 15.1814 112.03 15.3126 111.81 15.5761C111.591 15.8397 111.408 16.1717 111.261 16.5722C111.114 16.9636 110.953 17.3686 110.779 17.7872C110.605 18.1967 110.349 18.574 110.011 18.9192C109.673 19.2643 109.257 19.4952 108.765 19.6119C109.202 19.7137 109.58 19.9111 109.898 20.2039C110.216 20.4968 110.453 20.8257 110.607 21.1909C110.761 21.556 110.91 21.944 111.055 22.3547C111.2 22.7562 111.326 23.1213 111.435 23.4498C111.543 23.7783 111.693 24.0523 111.884 24.2718C112.084 24.4913 112.325 24.6015 112.608 24.6025C112.881 24.6036 113.237 24.5502 113.675 24.4424ZM116.925 14.8429L117.964 14.9151C118.217 16.0462 118.737 17.6478 119.524 19.7197C120.312 21.7825 120.832 23.3248 121.085 24.3465C121.084 24.6108 121.038 24.8066 120.947 24.9339C120.855 25.0703 120.741 25.1382 120.604 25.1377C120.486 25.1373 120.372 25.0868 120.263 24.9861C120.163 24.8946 120.095 24.7622 120.059 24.5889C119.978 24.1875 119.716 23.3845 119.272 22.1797C117.395 21.9358 116.215 21.7857 115.732 21.7292C115.613 22.0569 115.466 22.5896 115.291 23.3272C115.116 24.0649 114.978 24.5748 114.877 24.857C114.739 25.0205 114.584 25.102 114.411 25.1014C114.22 25.1007 114.056 25.0135 113.92 24.8398C113.783 24.6752 113.715 24.4699 113.716 24.2238C114.01 23.1585 114.543 21.5927 115.314 19.5265C116.085 17.4603 116.622 15.8991 116.925 14.8429ZM117.4 16.2255C117.215 17.3277 116.705 18.9437 115.871 21.0735L117.402 21.0791C118.094 21.0816 118.673 21.1065 119.138 21.1538C118.204 19.1361 117.625 17.4933 117.4 16.2255ZM131.133 24.8072L130.093 24.8991C129.6 21.7527 129.064 19.0574 128.487 16.8131C128.184 17.5229 127.849 18.5243 127.481 19.8172C127.122 21.1011 126.874 21.9341 126.737 22.3165C126.718 22.3164 126.686 22.3208 126.641 22.3298C126.604 22.3296 126.572 22.3295 126.545 22.3294C126.418 22.329 126.208 22.3145 125.916 22.2861C125.625 22.2577 125.438 22.2433 125.356 22.243C125.347 21.9787 125.117 21.0983 124.665 19.6018C124.213 18.0962 123.942 17.1336 123.852 16.714C123.685 18.19 123.04 20.8765 121.918 24.7734L121.07 24.6883C121.201 23.6952 121.519 22.1333 122.026 20.0023C122.532 17.8713 122.833 16.2227 122.927 15.0563C123.091 15.0387 123.223 15.0301 123.323 15.0305C123.415 15.0308 123.752 15.0685 124.335 15.1435C124.462 15.1622 124.644 15.5776 124.879 16.3897C125.123 17.1927 125.366 18.0777 125.61 19.0447C125.854 20.0118 126.007 20.582 126.071 20.7554C126.327 20.1274 126.635 19.1077 126.994 17.6963C127.363 16.2849 127.62 15.388 127.767 15.0057C127.913 15.0154 128.373 15.0581 129.147 15.1338C129.382 16.0553 129.607 17.0496 129.823 18.1168C130.049 19.184 130.287 20.3972 130.539 21.7562C130.8 23.1152 130.998 24.1322 131.133 24.8072ZM131.924 14.7885L132.539 14.9275C132.626 16.4318 132.724 18.9341 132.834 22.4345C134.619 19.2783 135.847 16.7398 136.517 14.8191C136.654 14.7102 136.787 14.656 136.914 14.6565C137.115 14.6572 137.278 14.7763 137.405 15.0137C137.542 15.2512 137.614 15.5204 137.622 15.8212C137.647 16.6689 137.667 18.1 137.68 20.1144C137.702 22.1288 137.735 23.6328 137.778 24.6265C137.695 24.8996 137.54 25.0358 137.312 25.0349C137.148 25.0343 136.988 24.9654 136.834 24.8281C136.679 24.6999 136.584 24.5401 136.548 24.3485C136.577 23.5557 136.594 22.3389 136.598 20.6983C136.611 19.0577 136.623 17.9503 136.634 17.3761C136.432 17.7218 136.08 18.3767 135.576 19.341C135.072 20.3053 134.605 21.1331 134.175 21.8242C133.754 22.5154 133.32 23.1153 132.872 23.6241L132.924 24.7317C132.841 25.014 132.681 25.1547 132.444 25.1538C132.28 25.1532 132.121 25.0843 131.966 24.947C131.821 24.8097 131.73 24.6453 131.694 24.4538C131.723 23.6791 131.755 22.1617 131.788 19.9014C131.821 17.6411 131.866 15.9368 131.924 14.7885Z" fill="white"/>
</svg>
