<svg width="20" height="20" viewBox="0 0 20 20" fill="none" xmlns="http://www.w3.org/2000/svg">
<g clip-path="url(#clip0_9075_6812)">
<path d="M19.3609 2.6546C18.5611 0.017712 16.1279 0.41839 13.8601 0.427258C10.7293 0.439424 6.36115 -0.646614 3.56578 1.21645C1.64683 2.4954 0.888059 5.27654 0.436651 7.38242C-0.147044 10.105 -0.18107 13.0501 0.551411 15.7444C1.05138 17.5836 2.71091 19.9976 4.82308 19.618C6.18091 19.8875 7.54442 19.9152 8.94267 19.8453C10.7166 19.7569 12.7969 19.7242 14.4783 19.132C14.5274 19.1147 14.5682 19.0835 14.6047 19.0478C15.1187 18.981 15.6336 18.901 16.15 18.7939C18.6416 18.2773 19.1179 15.9159 19.413 13.7289C19.9109 10.0368 20.4607 6.27875 19.3609 2.6546ZM2.03741 5.90426C2.03019 5.9419 2.02998 5.97974 2.03431 6.01706C1.97595 6.31473 1.9179 6.61241 1.86707 6.91019C1.85831 6.92844 1.84727 6.9437 1.8414 6.96566C1.69168 7.5309 1.55703 8.09727 1.43319 8.66447C1.42948 8.66725 1.42525 8.66942 1.42164 8.6723C1.53878 7.90889 1.67838 7.22766 1.81253 6.69665C1.87996 6.42991 1.96018 6.14378 2.05019 5.85157C2.04658 5.86972 2.04081 5.88601 2.03741 5.90426ZM4.10895 15.938C4.0673 15.8585 4.02801 15.7776 3.98378 15.7001C4.05771 15.7274 4.12947 15.7578 4.2 15.7907C4.35641 15.9845 4.50561 16.1837 4.64914 16.3872C4.4588 16.2486 4.28001 16.0974 4.10895 15.938ZM6.43466 4.02408C6.40765 3.94582 6.38166 3.86726 6.35723 3.78817C6.52498 3.72022 6.69233 3.65135 6.86029 3.58402C6.72574 3.73559 6.58468 3.88293 6.43466 4.02408ZM6.97021 5.62927C7.14673 5.42079 7.31222 5.20663 7.46925 4.98722C7.51029 4.95763 7.55225 4.92906 7.59246 4.89844C7.43512 5.13487 7.28778 5.37923 7.14436 5.62659C7.08631 5.62742 7.02826 5.62865 6.97021 5.62927ZM8.92132 12.237C8.93153 11.9842 8.94813 11.7328 8.94648 11.4776C8.94586 11.3901 8.91555 11.3263 8.87286 11.2784C8.94411 11.2754 9.01742 11.2766 9.08712 11.2705C9.01165 11.5896 8.96112 11.9126 8.92132 12.237ZM14.121 10.0381C13.7138 10.0567 13.6371 10.5301 13.8799 10.7346C13.6372 11.5021 13.668 12.3171 13.63 13.1432C13.5715 14.4165 13.6054 15.6907 13.6763 16.9626C12.4533 17.056 11.2255 17.1769 9.99736 17.3028C10.0832 16.664 9.93735 15.884 9.92683 15.3379C9.9024 14.0677 9.84218 12.7625 10.0326 11.5021C10.0585 11.3307 10.0308 11.171 9.92446 11.0498C10.2119 10.8414 10.1726 10.4177 9.80279 10.2714C9.15641 10.0159 8.26741 10.108 7.51008 10.1447C7.35965 9.39932 7.36387 8.56157 7.52163 7.82022C8.06965 7.78856 8.61736 7.74052 9.16425 7.69948C9.46563 7.6769 9.5842 7.41871 9.52935 7.2026C9.53904 7.18548 9.55131 7.1694 9.55833 7.15125C9.73722 6.68634 9.76196 6.20307 9.9057 5.72557C10.1659 4.8607 10.9036 4.14781 11.5995 3.62114C12.9172 2.62346 14.6003 2.3129 16.1998 2.57387C16.2699 3.33522 16.3876 4.08832 16.4867 4.84524C16.2863 4.83121 16.0827 4.83905 15.9021 4.84235C15.3066 4.85338 14.7159 4.95185 14.121 4.97134C13.8488 4.98031 13.6105 5.19467 13.615 5.47729C13.6218 5.90869 13.7245 6.34886 13.7733 6.78171L13.7734 6.78192C13.598 7.03969 13.7101 7.47635 14.121 7.48924C14.5885 7.50388 15.0554 7.51419 15.5231 7.50099C15.7638 7.49419 16.0649 7.4878 16.3456 7.43841C16.2622 7.8294 16.2687 8.25317 16.254 8.64632C16.2381 9.07102 16.2383 9.50387 16.2567 9.93538C16.088 9.94404 15.9191 9.9561 15.7517 9.96373C15.2081 9.98858 14.6646 10.0133 14.121 10.0381ZM16.3362 11.6995C16.32 11.5383 16.3115 11.3789 16.2918 11.2167C16.2764 11.0883 16.1894 10.9866 16.0829 10.9284C16.1687 10.934 16.2545 10.9404 16.3403 10.9433C16.3451 10.9819 16.3476 11.0212 16.3527 11.0597C16.3652 11.1514 16.4144 11.22 16.481 11.2667C16.431 11.411 16.3813 11.5553 16.3362 11.6995ZM18.1356 14.0295C18.0118 14.9444 17.8051 15.6463 17.4859 16.1869C17.7242 15.441 17.9464 14.6942 18.1475 13.9447C18.1436 13.9725 18.1392 14.0015 18.1356 14.0295Z" fill="#FFD4E4"/>
</g>
<defs>
<clipPath id="clip0_9075_6812">
<rect width="20" height="20" fill="white"/>
</clipPath>
</defs>
</svg>
