<svg width="24" height="24" viewBox="0 0 24 24" fill="none" xmlns="http://www.w3.org/2000/svg">
<path d="M6.8125 1C5.27031 1 4 2.24208 4 3.75V20.25C4 21.7579 5.27031 23 6.8125 23H16.1875C17.7297 23 19 21.7579 19 20.25V3.75C19 2.24208 17.7297 1 16.1875 1H6.8125ZM6.8125 2.83333H16.1875C16.7078 2.83333 17.125 3.24125 17.125 3.75V20.25C17.125 20.7588 16.7078 21.1667 16.1875 21.1667H6.8125C6.29219 21.1667 5.875 20.7588 5.875 20.25V3.75C5.875 3.24125 6.29219 2.83333 6.8125 2.83333ZM11.5 18.4167C11.2514 18.4167 11.0129 18.5132 10.8371 18.6852C10.6613 18.8571 10.5625 19.0902 10.5625 19.3333C10.5625 19.5764 10.6613 19.8096 10.8371 19.9815C11.0129 20.1534 11.2514 20.25 11.5 20.25C11.7486 20.25 11.9871 20.1534 12.1629 19.9815C12.3387 19.8096 12.4375 19.5764 12.4375 19.3333C12.4375 19.0902 12.3387 18.8571 12.1629 18.6852C11.9871 18.5132 11.7486 18.4167 11.5 18.4167Z" fill="#FDA3C4"/>
</svg>
