<svg width="24" height="24" viewBox="0 0 24 24" fill="none" xmlns="http://www.w3.org/2000/svg">
<path d="M4.05065 8.92C4.07076 8.6694 4.18452 8.43557 4.36928 8.26508C4.55404 8.09459 4.79624 7.99995 5.04765 8H18.9516C19.2031 7.99995 19.4453 8.09459 19.63 8.26508C19.8148 8.43557 19.9285 8.6694 19.9486 8.92L20.8256 19.84C20.8477 20.1152 20.8126 20.392 20.7225 20.6529C20.6323 20.9139 20.4892 21.1533 20.302 21.3562C20.1147 21.5592 19.8875 21.7211 19.6347 21.8319C19.3818 21.9427 19.1087 21.9999 18.8326 22H5.16665C4.89057 21.9999 4.6175 21.9427 4.36463 21.8319C4.11175 21.7211 3.88456 21.5592 3.69734 21.3562C3.51013 21.1533 3.36695 20.9139 3.27682 20.6529C3.18669 20.392 3.15156 20.1152 3.17365 19.84L4.04965 8.92H4.05065Z" stroke="#1F1F1F" stroke-width="2" stroke-linecap="round" stroke-linejoin="round"/>
<path d="M15.9998 11V6C15.9998 4.93913 15.5783 3.92172 14.8282 3.17157C14.078 2.42143 13.0606 2 11.9998 2C10.9389 2 9.92147 2.42143 9.17133 3.17157C8.42118 3.92172 7.99976 4.93913 7.99976 6V11" stroke="#1F1F1F" stroke-width="2" stroke-linecap="round" stroke-linejoin="round"/>
</svg>
